<svg width="374" height="224" viewBox="0 0 374 224" fill="none" xmlns="http://www.w3.org/2000/svg">
<path d="M374 93.9879V130.012C374 140.677 365.351 149.328 354.65 149.328H318.561C307.876 149.328 299.21 157.978 299.21 168.643V204.684C299.21 215.349 290.544 224 279.86 224H19.3504C8.66612 224 0 215.349 0 204.684V19.3156C0 8.65052 8.66612 0 19.3504 0H279.86C290.544 0 299.21 8.65052 299.21 19.3156V55.3567C299.21 66.0218 307.876 74.6723 318.561 74.6723H354.65C365.351 74.6723 374 83.3059 374 93.9879Z" fill="#2A6235"/>
<path d="M19.92 55V32.6H27.632C28.8373 32.6 29.9253 32.8987 30.896 33.496C31.8773 34.0933 32.656 34.8987 33.232 35.912C33.8187 36.9253 34.112 38.0453 34.112 39.272C34.112 40.52 33.8133 41.6507 33.216 42.664C32.6293 43.6667 31.8453 44.4667 30.864 45.064C29.8827 45.6613 28.8053 45.96 27.632 45.96H23.248V55H19.92ZM23.248 42.632H27.296C27.936 42.632 28.5173 42.472 29.04 42.152C29.5733 41.832 29.9947 41.4053 30.304 40.872C30.624 40.3387 30.784 39.736 30.784 39.064C30.784 38.392 30.624 37.7893 30.304 37.256C29.9947 36.712 29.5733 36.2853 29.04 35.976C28.5173 35.656 27.936 35.496 27.296 35.496H23.248V42.632ZM36.7325 55V39H40.0605V40.696C40.6152 40.0347 41.2978 39.512 42.1085 39.128C42.9192 38.744 43.7938 38.552 44.7325 38.552C45.3298 38.552 45.9218 38.632 46.5085 38.792L45.1805 42.152C44.7645 41.992 44.3485 41.912 43.9325 41.912C43.2285 41.912 42.5832 42.088 41.9965 42.44C41.4098 42.7813 40.9405 43.2453 40.5885 43.832C40.2365 44.4187 40.0605 45.0693 40.0605 45.784V55H36.7325ZM48.3888 39H51.7168V55H48.3888V39ZM50.0848 36.68C49.5728 36.68 49.1461 36.5147 48.8048 36.184C48.4634 35.8533 48.2928 35.4373 48.2928 34.936C48.2928 34.4453 48.4634 34.0347 48.8048 33.704C49.1461 33.3627 49.5674 33.192 50.0688 33.192C50.5594 33.192 50.9754 33.3627 51.3168 33.704C51.6581 34.0347 51.8288 34.4453 51.8288 34.936C51.8288 35.4373 51.6581 35.8533 51.3168 36.184C50.9861 36.5147 50.5754 36.68 50.0848 36.68ZM64.322 55H60.05L54.21 38.968H57.762L62.178 51.16L66.61 38.968H70.146L64.322 55ZM84.4305 39H87.7585V55H84.4145L84.2865 52.68C83.8172 53.5013 83.1825 54.1627 82.3825 54.664C81.5825 55.1653 80.6385 55.416 79.5505 55.416C78.3772 55.416 77.2732 55.1973 76.2385 54.76C75.2038 54.312 74.2918 53.6933 73.5025 52.904C72.7238 52.1147 72.1158 51.208 71.6785 50.184C71.2412 49.1493 71.0225 48.04 71.0225 46.856C71.0225 45.7147 71.2358 44.6427 71.6625 43.64C72.0892 42.6267 72.6812 41.7413 73.4385 40.984C74.1958 40.2267 75.0705 39.6347 76.0625 39.208C77.0652 38.7707 78.1372 38.552 79.2785 38.552C80.4412 38.552 81.4652 38.8187 82.3505 39.352C83.2465 39.8747 83.9878 40.5467 84.5745 41.368L84.4305 39ZM79.4705 52.2C80.4092 52.2 81.2305 51.9707 81.9345 51.512C82.6385 51.0427 83.1825 50.4133 83.5665 49.624C83.9612 48.8347 84.1585 47.96 84.1585 47C84.1585 46.0293 83.9612 45.1493 83.5665 44.36C83.1718 43.5707 82.6225 42.9467 81.9185 42.488C81.2252 42.0187 80.4092 41.784 79.4705 41.784C78.5425 41.784 77.6945 42.0187 76.9265 42.488C76.1585 42.9573 75.5505 43.5867 75.1025 44.376C74.6545 45.1653 74.4305 46.04 74.4305 47C74.4305 47.9707 74.6598 48.8507 75.1185 49.64C75.5878 50.4187 76.2012 51.0427 76.9585 51.512C77.7265 51.9707 78.5638 52.2 79.4705 52.2ZM99.3993 42.328H96.0393L96.0233 55H92.6953L92.7113 42.328H90.1673V39H92.7113L92.6953 33.976H96.0233L96.0393 39H99.3993V42.328ZM108.929 55.416C107.457 55.416 106.113 55.0373 104.897 54.28C103.691 53.5227 102.726 52.5093 102.001 51.24C101.286 49.96 100.929 48.5467 100.929 47C100.929 45.8267 101.137 44.7333 101.553 43.72C101.969 42.696 102.539 41.8 103.265 41.032C104.001 40.2533 104.854 39.6453 105.825 39.208C106.795 38.7707 107.83 38.552 108.929 38.552C110.155 38.552 111.281 38.808 112.305 39.32C113.329 39.8213 114.203 40.52 114.929 41.416C115.654 42.3013 116.187 43.3253 116.529 44.488C116.87 45.64 116.971 46.8667 116.833 48.168H104.497C104.635 48.904 104.902 49.5707 105.297 50.168C105.702 50.7547 106.214 51.2187 106.833 51.56C107.462 51.9013 108.161 52.0773 108.929 52.088C109.739 52.088 110.475 51.8853 111.137 51.48C111.809 51.0747 112.358 50.5147 112.785 49.8L116.161 50.584C115.521 52.0027 114.555 53.1653 113.265 54.072C111.974 54.968 110.529 55.416 108.929 55.416ZM104.385 45.624H113.473C113.366 44.856 113.094 44.1627 112.657 43.544C112.23 42.9147 111.691 42.4187 111.041 42.056C110.401 41.6827 109.697 41.496 108.929 41.496C108.171 41.496 107.467 41.6773 106.817 42.04C106.177 42.4027 105.643 42.8987 105.217 43.528C104.801 44.1467 104.523 44.8453 104.385 45.624ZM36.864 70.6V73.928H29.728V93H26.4V73.928H19.28V70.6H36.864ZM37.7638 93V77H41.0918V78.696C41.6464 78.0347 42.3291 77.512 43.1398 77.128C43.9504 76.744 44.8251 76.552 45.7638 76.552C46.3611 76.552 46.9531 76.632 47.5398 76.792L46.2118 80.152C45.7958 79.992 45.3798 79.912 44.9638 79.912C44.2598 79.912 43.6144 80.088 43.0278 80.44C42.4411 80.7813 41.9718 81.2453 41.6198 81.832C41.2678 82.4187 41.0918 83.0693 41.0918 83.784V93H37.7638ZM61.0868 77H64.4148V93H61.0708L60.9428 90.68C60.4734 91.5013 59.8388 92.1627 59.0388 92.664C58.2388 93.1653 57.2948 93.416 56.2068 93.416C55.0334 93.416 53.9294 93.1973 52.8948 92.76C51.8601 92.312 50.9481 91.6933 50.1588 90.904C49.3801 90.1147 48.7721 89.208 48.3348 88.184C47.8974 87.1493 47.6788 86.04 47.6788 84.856C47.6788 83.7147 47.8921 82.6427 48.3188 81.64C48.7454 80.6267 49.3374 79.7413 50.0948 78.984C50.8521 78.2267 51.7268 77.6347 52.7188 77.208C53.7214 76.7707 54.7934 76.552 55.9348 76.552C57.0974 76.552 58.1214 76.8187 59.0068 77.352C59.9028 77.8747 60.6441 78.5467 61.2308 79.368L61.0868 77ZM56.1267 90.2C57.0654 90.2 57.8868 89.9707 58.5908 89.512C59.2948 89.0427 59.8388 88.4133 60.2228 87.624C60.6174 86.8347 60.8148 85.96 60.8148 85C60.8148 84.0293 60.6174 83.1493 60.2228 82.36C59.8281 81.5707 59.2788 80.9467 58.5748 80.488C57.8814 80.0187 57.0654 79.784 56.1267 79.784C55.1988 79.784 54.3508 80.0187 53.5828 80.488C52.8148 80.9573 52.2068 81.5867 51.7588 82.376C51.3108 83.1653 51.0868 84.04 51.0868 85C51.0868 85.9707 51.3161 86.8507 51.7748 87.64C52.2441 88.4187 52.8574 89.0427 53.6148 89.512C54.3828 89.9707 55.2201 90.2 56.1267 90.2ZM82.0075 82.968V93H78.6795V83.784C78.6795 83.0693 78.5035 82.4187 78.1515 81.832C77.8102 81.2453 77.3462 80.7813 76.7595 80.44C76.1835 80.088 75.5328 79.912 74.8075 79.912C74.1035 79.912 73.4582 80.088 72.8715 80.44C72.2848 80.7813 71.8155 81.2453 71.4635 81.832C71.1115 82.4187 70.9355 83.0693 70.9355 83.784V93H67.6075V77H70.9355V78.696C71.4902 78.0347 72.1728 77.512 72.9835 77.128C73.7942 76.744 74.6688 76.552 75.6075 76.552C76.7915 76.552 77.8688 76.84 78.8395 77.416C79.8102 77.992 80.5782 78.7653 81.1435 79.736C81.7195 80.7067 82.0075 81.784 82.0075 82.968ZM90.0013 93.304C89.1586 93.2507 88.3373 93.08 87.5373 92.792C86.7373 92.504 86.0333 92.1147 85.4253 91.624C84.8279 91.1227 84.3799 90.536 84.0813 89.864L86.9133 88.648C87.0519 88.936 87.2919 89.2187 87.6333 89.496C87.9853 89.7733 88.3959 90.0027 88.8653 90.184C89.3346 90.3547 89.8253 90.44 90.3373 90.44C90.8386 90.44 91.3026 90.3707 91.7292 90.232C92.1666 90.0827 92.5239 89.8587 92.8013 89.56C93.0786 89.2613 93.2173 88.904 93.2173 88.488C93.2173 88.0187 93.0573 87.656 92.7373 87.4C92.4279 87.1333 92.0386 86.9307 91.5693 86.792C91.0999 86.6533 90.6306 86.52 90.1613 86.392C89.1159 86.1573 88.1559 85.8373 87.2812 85.432C86.4173 85.016 85.7293 84.488 85.2173 83.848C84.7053 83.1973 84.4493 82.4027 84.4493 81.464C84.4493 80.44 84.7266 79.5547 85.2812 78.808C85.8359 78.0507 86.5613 77.4693 87.4573 77.064C88.3639 76.6587 89.3293 76.456 90.3533 76.456C91.6333 76.456 92.8066 76.728 93.8733 77.272C94.9399 77.816 95.7559 78.5627 96.3213 79.512L93.6813 81.08C93.5213 80.76 93.2813 80.472 92.9613 80.216C92.6413 79.96 92.2786 79.7573 91.8733 79.608C91.4679 79.448 91.0466 79.3573 90.6093 79.336C90.0653 79.3147 89.5586 79.3787 89.0893 79.528C88.6306 79.6667 88.2626 79.8907 87.9852 80.2C87.7079 80.5093 87.5693 80.904 87.5693 81.384C87.5693 81.8533 87.7346 82.2053 88.0653 82.44C88.3959 82.664 88.8119 82.8453 89.3133 82.984C89.8253 83.1227 90.3479 83.2773 90.8813 83.448C91.8306 83.7467 92.7213 84.1147 93.5533 84.552C94.3853 84.9787 95.0573 85.5067 95.5693 86.136C96.0813 86.7653 96.3266 87.5333 96.3053 88.44C96.3053 89.4427 96.0013 90.3227 95.3933 91.08C94.7959 91.8373 94.0173 92.4133 93.0573 92.808C92.0973 93.2027 91.0786 93.368 90.0013 93.304ZM111.274 77H114.602V93H111.258L111.13 90.68C110.661 91.5013 110.026 92.1627 109.226 92.664C108.426 93.1653 107.482 93.416 106.394 93.416C105.221 93.416 104.117 93.1973 103.082 92.76C102.048 92.312 101.136 91.6933 100.346 90.904C99.5676 90.1147 98.9596 89.208 98.5223 88.184C98.0849 87.1493 97.8663 86.04 97.8663 84.856C97.8663 83.7147 98.0796 82.6427 98.5063 81.64C98.9329 80.6267 99.5249 79.7413 100.282 78.984C101.04 78.2267 101.914 77.6347 102.906 77.208C103.909 76.7707 104.981 76.552 106.122 76.552C107.285 76.552 108.309 76.8187 109.194 77.352C110.09 77.8747 110.832 78.5467 111.418 79.368L111.274 77ZM106.314 90.2C107.253 90.2 108.074 89.9707 108.778 89.512C109.482 89.0427 110.026 88.4133 110.41 87.624C110.805 86.8347 111.002 85.96 111.002 85C111.002 84.0293 110.805 83.1493 110.41 82.36C110.016 81.5707 109.466 80.9467 108.762 80.488C108.069 80.0187 107.253 79.784 106.314 79.784C105.386 79.784 104.538 80.0187 103.77 80.488C103.002 80.9573 102.394 81.5867 101.946 82.376C101.498 83.1653 101.274 84.04 101.274 85C101.274 85.9707 101.504 86.8507 101.962 87.64C102.432 88.4187 103.045 89.0427 103.802 89.512C104.57 89.9707 105.408 90.2 106.314 90.2ZM127.931 88.456L130.907 90.072C130.181 91.0853 129.259 91.896 128.139 92.504C127.029 93.112 125.824 93.416 124.523 93.416C123.051 93.416 121.707 93.0373 120.491 92.28C119.285 91.5227 118.32 90.5093 117.595 89.24C116.88 87.96 116.523 86.5467 116.523 85C116.523 83.8267 116.731 82.7333 117.147 81.72C117.563 80.696 118.133 79.8 118.859 79.032C119.595 78.2533 120.448 77.6453 121.419 77.208C122.389 76.7707 123.424 76.552 124.523 76.552C125.824 76.552 127.029 76.856 128.139 77.464C129.259 78.072 130.181 78.888 130.907 79.912L127.931 81.528C127.483 80.9947 126.96 80.5893 126.363 80.312C125.765 80.024 125.152 79.88 124.523 79.88C123.648 79.88 122.853 80.12 122.139 80.6C121.435 81.0693 120.875 81.6933 120.459 82.472C120.053 83.24 119.851 84.0827 119.851 85C119.851 85.9067 120.059 86.7493 120.475 87.528C120.891 88.296 121.451 88.9147 122.155 89.384C122.869 89.8533 123.659 90.088 124.523 90.088C125.184 90.088 125.813 89.9387 126.411 89.64C127.008 89.3413 127.515 88.9467 127.931 88.456ZM142.243 80.328H138.883L138.867 93H135.539L135.555 80.328H133.011V77H135.555L135.539 71.976H138.867L138.883 77H142.243V80.328ZM144.889 77H148.217V93H144.889V77ZM146.585 74.68C146.073 74.68 145.646 74.5147 145.305 74.184C144.963 73.8533 144.793 73.4373 144.793 72.936C144.793 72.4453 144.963 72.0347 145.305 71.704C145.646 71.3627 146.067 71.192 146.569 71.192C147.059 71.192 147.475 71.3627 147.817 71.704C148.158 72.0347 148.329 72.4453 148.329 72.936C148.329 73.4373 148.158 73.8533 147.817 74.184C147.486 74.5147 147.075 74.68 146.585 74.68ZM158.804 93.416C157.332 93.416 155.988 93.0373 154.772 92.28C153.566 91.5227 152.601 90.5093 151.876 89.24C151.161 87.96 150.804 86.5467 150.804 85C150.804 83.8267 151.012 82.7333 151.428 81.72C151.844 80.696 152.414 79.8 153.14 79.032C153.876 78.2533 154.729 77.6453 155.7 77.208C156.67 76.7707 157.705 76.552 158.804 76.552C160.276 76.552 161.614 76.9307 162.82 77.688C164.036 78.4453 165.001 79.464 165.716 80.744C166.441 82.024 166.804 83.4427 166.804 85C166.804 86.1627 166.596 87.2507 166.18 88.264C165.764 89.2773 165.188 90.1733 164.452 90.952C163.726 91.72 162.878 92.3227 161.908 92.76C160.948 93.1973 159.913 93.416 158.804 93.416ZM158.804 90.088C159.689 90.088 160.484 89.8533 161.188 89.384C161.892 88.9147 162.446 88.296 162.852 87.528C163.268 86.7493 163.476 85.9067 163.476 85C163.476 84.072 163.262 83.2187 162.836 82.44C162.42 81.6613 161.86 81.0427 161.156 80.584C160.452 80.1147 159.668 79.88 158.804 79.88C157.929 79.88 157.134 80.1147 156.42 80.584C155.716 81.0533 155.156 81.6773 154.74 82.456C154.334 83.2347 154.132 84.0827 154.132 85C154.132 85.9493 154.345 86.808 154.772 87.576C155.198 88.344 155.764 88.9573 156.468 89.416C157.182 89.864 157.961 90.088 158.804 90.088ZM183.789 82.968V93H180.461V83.784C180.461 83.0693 180.285 82.4187 179.933 81.832C179.591 81.2453 179.127 80.7813 178.541 80.44C177.965 80.088 177.314 79.912 176.589 79.912C175.885 79.912 175.239 80.088 174.653 80.44C174.066 80.7813 173.597 81.2453 173.245 81.832C172.893 82.4187 172.717 83.0693 172.717 83.784V93H169.389V77H172.717V78.696C173.271 78.0347 173.954 77.512 174.765 77.128C175.575 76.744 176.45 76.552 177.389 76.552C178.573 76.552 179.65 76.84 180.621 77.416C181.591 77.992 182.359 78.7653 182.925 79.736C183.501 80.7067 183.789 81.784 183.789 82.968ZM191.783 93.304C190.94 93.2507 190.119 93.08 189.319 92.792C188.519 92.504 187.815 92.1147 187.207 91.624C186.609 91.1227 186.161 90.536 185.863 89.864L188.695 88.648C188.833 88.936 189.073 89.2187 189.415 89.496C189.767 89.7733 190.177 90.0027 190.647 90.184C191.116 90.3547 191.607 90.44 192.119 90.44C192.62 90.44 193.084 90.3707 193.51 90.232C193.948 90.0827 194.305 89.8587 194.583 89.56C194.86 89.2613 194.999 88.904 194.999 88.488C194.999 88.0187 194.839 87.656 194.519 87.4C194.209 87.1333 193.82 86.9307 193.351 86.792C192.881 86.6533 192.412 86.52 191.943 86.392C190.897 86.1573 189.937 85.8373 189.062 85.432C188.199 85.016 187.511 84.488 186.999 83.848C186.487 83.1973 186.231 82.4027 186.231 81.464C186.231 80.44 186.508 79.5547 187.062 78.808C187.617 78.0507 188.343 77.4693 189.239 77.064C190.145 76.6587 191.111 76.456 192.135 76.456C193.415 76.456 194.588 76.728 195.655 77.272C196.721 77.816 197.537 78.5627 198.103 79.512L195.463 81.08C195.303 80.76 195.063 80.472 194.743 80.216C194.423 79.96 194.06 79.7573 193.655 79.608C193.249 79.448 192.828 79.3573 192.391 79.336C191.847 79.3147 191.34 79.3787 190.871 79.528C190.412 79.6667 190.044 79.8907 189.766 80.2C189.489 80.5093 189.351 80.904 189.351 81.384C189.351 81.8533 189.516 82.2053 189.847 82.44C190.177 82.664 190.593 82.8453 191.095 82.984C191.607 83.1227 192.129 83.2773 192.663 83.448C193.612 83.7467 194.503 84.1147 195.335 84.552C196.167 84.9787 196.839 85.5067 197.351 86.136C197.863 86.7653 198.108 87.5333 198.087 88.44C198.087 89.4427 197.783 90.3227 197.175 91.08C196.577 91.8373 195.799 92.4133 194.839 92.808C193.879 93.2027 192.86 93.368 191.783 93.304Z" fill="white"/>
<path d="M29.171 136H27.542L23.411 130.339L22.34 131.626V136H21.08V123.4H22.34V129.664L27.587 123.4H29.234L24.239 129.349L29.171 136ZM33.9873 136.234C33.1593 136.234 32.4033 136.021 31.7193 135.595C31.0413 135.169 30.4983 134.599 30.0903 133.885C29.6883 133.165 29.4873 132.37 29.4873 131.5C29.4873 130.84 29.6043 130.225 29.8383 129.655C30.0723 129.079 30.3933 128.575 30.8013 128.143C31.2153 127.705 31.6953 127.363 32.2413 127.117C32.7873 126.871 33.3693 126.748 33.9873 126.748C34.6533 126.748 35.2653 126.88 35.8233 127.144C36.3873 127.408 36.8703 127.777 37.2723 128.251C37.6803 128.725 37.9863 129.28 38.1903 129.916C38.4003 130.552 38.4873 131.239 38.4513 131.977H30.8193C30.8913 132.547 31.0713 133.057 31.3593 133.507C31.6533 133.957 32.0253 134.314 32.4753 134.578C32.9313 134.836 33.4353 134.968 33.9873 134.974C34.5873 134.974 35.1273 134.818 35.6073 134.506C36.0933 134.194 36.4833 133.765 36.7773 133.219L38.0553 133.516C37.6953 134.314 37.1523 134.968 36.4263 135.478C35.7003 135.982 34.8873 136.234 33.9873 136.234ZM30.7833 130.96H37.1823C37.1403 130.402 36.9693 129.892 36.6693 129.43C36.3753 128.962 35.9943 128.59 35.5263 128.314C35.0583 128.032 34.5453 127.891 33.9873 127.891C33.4293 127.891 32.9193 128.029 32.4573 128.305C31.9953 128.575 31.6173 128.944 31.3233 129.412C31.0293 129.874 30.8493 130.39 30.7833 130.96ZM43.8662 136.234C43.0382 136.234 42.2822 136.021 41.5982 135.595C40.9202 135.169 40.3772 134.599 39.9692 133.885C39.5672 133.165 39.3662 132.37 39.3662 131.5C39.3662 130.84 39.4832 130.225 39.7172 129.655C39.9512 129.079 40.2722 128.575 40.6802 128.143C41.0942 127.705 41.5742 127.363 42.1202 127.117C42.6662 126.871 43.2482 126.748 43.8662 126.748C44.5322 126.748 45.1442 126.88 45.7022 127.144C46.2662 127.408 46.7492 127.777 47.1512 128.251C47.5592 128.725 47.8652 129.28 48.0692 129.916C48.2792 130.552 48.3662 131.239 48.3302 131.977H40.6982C40.7702 132.547 40.9502 133.057 41.2382 133.507C41.5322 133.957 41.9042 134.314 42.3542 134.578C42.8102 134.836 43.3142 134.968 43.8662 134.974C44.4662 134.974 45.0062 134.818 45.4862 134.506C45.9722 134.194 46.3622 133.765 46.6562 133.219L47.9342 133.516C47.5742 134.314 47.0312 134.968 46.3052 135.478C45.5792 135.982 44.7662 136.234 43.8662 136.234ZM40.6622 130.96H47.0612C47.0192 130.402 46.8482 129.892 46.5482 129.43C46.2542 128.962 45.8732 128.59 45.4052 128.314C44.9372 128.032 44.4242 127.891 43.8662 127.891C43.3082 127.891 42.7982 128.029 42.3362 128.305C41.8742 128.575 41.4962 128.944 41.2022 129.412C40.9082 129.874 40.7282 130.39 40.6622 130.96ZM51.133 140.5H49.873V127H51.133V128.683C51.445 128.113 51.871 127.651 52.411 127.297C52.951 126.943 53.593 126.766 54.337 126.766C54.991 126.766 55.603 126.889 56.173 127.135C56.749 127.381 57.253 127.723 57.685 128.161C58.117 128.593 58.456 129.094 58.702 129.664C58.948 130.234 59.071 130.846 59.071 131.5C59.071 132.154 58.948 132.769 58.702 133.345C58.456 133.921 58.117 134.428 57.685 134.866C57.253 135.298 56.749 135.637 56.173 135.883C55.603 136.129 54.991 136.252 54.337 136.252C53.593 136.252 52.951 136.075 52.411 135.721C51.871 135.367 51.445 134.905 51.133 134.335V140.5ZM54.328 127.99C53.698 127.99 53.149 128.149 52.681 128.467C52.219 128.779 51.862 129.199 51.61 129.727C51.358 130.255 51.232 130.846 51.232 131.5C51.232 132.142 51.355 132.73 51.601 133.264C51.853 133.798 52.21 134.224 52.672 134.542C53.14 134.86 53.692 135.019 54.328 135.019C54.952 135.019 55.525 134.863 56.047 134.551C56.575 134.239 56.998 133.819 57.316 133.291C57.634 132.757 57.793 132.16 57.793 131.5C57.793 130.858 57.637 130.273 57.325 129.745C57.013 129.211 56.596 128.785 56.074 128.467C55.552 128.149 54.97 127.99 54.328 127.99ZM71.1727 127H72.5047L67.5817 140.5H66.2407L67.8787 136L64.6477 127H66.0247L68.5087 134.263L71.1727 127ZM77.7216 136.234C76.8936 136.234 76.1376 136.021 75.4536 135.595C74.7756 135.169 74.2326 134.599 73.8246 133.885C73.4226 133.165 73.2216 132.37 73.2216 131.5C73.2216 130.84 73.3386 130.225 73.5726 129.655C73.8066 129.079 74.1276 128.575 74.5356 128.143C74.9496 127.705 75.4296 127.363 75.9756 127.117C76.5216 126.871 77.1036 126.748 77.7216 126.748C78.5496 126.748 79.3026 126.961 79.9806 127.387C80.6646 127.813 81.2076 128.386 81.6096 129.106C82.0176 129.826 82.2216 130.624 82.2216 131.5C82.2216 132.154 82.1046 132.766 81.8706 133.336C81.6366 133.906 81.3126 134.41 80.8986 134.848C80.4906 135.28 80.0136 135.619 79.4676 135.865C78.9276 136.111 78.3456 136.234 77.7216 136.234ZM77.7216 134.974C78.3336 134.974 78.8826 134.815 79.3686 134.497C79.8606 134.173 80.2476 133.747 80.5296 133.219C80.8176 132.691 80.9616 132.118 80.9616 131.5C80.9616 130.87 80.8176 130.291 80.5296 129.763C80.2416 129.229 79.8516 128.803 79.3596 128.485C78.8736 128.167 78.3276 128.008 77.7216 128.008C77.1096 128.008 76.5576 128.17 76.0656 128.494C75.5796 128.812 75.1926 129.235 74.9046 129.763C74.6226 130.291 74.4816 130.87 74.4816 131.5C74.4816 132.148 74.6286 132.736 74.9226 133.264C75.2166 133.786 75.6096 134.203 76.1016 134.515C76.5936 134.821 77.1336 134.974 77.7216 134.974ZM83.2981 132.553V127H84.5581V132.301C84.5581 132.793 84.6781 133.24 84.9181 133.642C85.1581 134.044 85.4791 134.365 85.8811 134.605C86.2891 134.845 86.7361 134.965 87.2221 134.965C87.7141 134.965 88.1581 134.845 88.5541 134.605C88.9561 134.365 89.2771 134.044 89.5171 133.642C89.7571 133.24 89.8771 132.793 89.8771 132.301V127H91.1371L91.1461 136H89.8861L89.8771 134.74C89.5591 135.196 89.1451 135.559 88.6351 135.829C88.1311 136.099 87.5791 136.234 86.9791 136.234C86.3011 136.234 85.6831 136.069 85.1251 135.739C84.5671 135.409 84.1231 134.965 83.7931 134.407C83.4631 133.849 83.2981 133.231 83.2981 132.553ZM92.9394 136V127H94.1994V128.242C94.5174 127.786 94.9314 127.423 95.4414 127.153C95.9514 126.883 96.5064 126.748 97.1064 126.748C97.4544 126.748 97.7904 126.793 98.1144 126.883L97.6014 128.134C97.3494 128.056 97.1034 128.017 96.8634 128.017C96.3774 128.017 95.9304 128.137 95.5224 128.377C95.1204 128.617 94.7994 128.938 94.5594 129.34C94.3194 129.742 94.1994 130.189 94.1994 130.681V136H92.9394ZM108.296 128.26H106.145L106.136 136H104.876L104.885 128.26H103.256V127H104.885L104.876 124.174H106.136L106.145 127H108.296V128.26ZM109.902 136V127H111.162V128.242C111.48 127.786 111.894 127.423 112.404 127.153C112.914 126.883 113.469 126.748 114.069 126.748C114.417 126.748 114.753 126.793 115.077 126.883L114.564 128.134C114.312 128.056 114.066 128.017 113.826 128.017C113.34 128.017 112.893 128.137 112.485 128.377C112.083 128.617 111.762 128.938 111.522 129.34C111.282 129.742 111.162 130.189 111.162 130.681V136H109.902ZM123.136 127H124.396V136H123.136L123.091 134.326C122.797 134.896 122.386 135.358 121.858 135.712C121.33 136.06 120.7 136.234 119.968 136.234C119.308 136.234 118.69 136.111 118.114 135.865C117.538 135.613 117.031 135.268 116.593 134.83C116.155 134.392 115.813 133.885 115.567 133.309C115.321 132.733 115.198 132.115 115.198 131.455C115.198 130.807 115.318 130.198 115.558 129.628C115.804 129.058 116.14 128.557 116.566 128.125C116.998 127.693 117.496 127.357 118.06 127.117C118.63 126.871 119.239 126.748 119.887 126.748C120.637 126.748 121.291 126.928 121.849 127.288C122.407 127.642 122.851 128.107 123.181 128.683L123.136 127ZM119.941 135.01C120.583 135.01 121.135 134.854 121.597 134.542C122.059 134.224 122.413 133.798 122.659 133.264C122.911 132.73 123.037 132.142 123.037 131.5C123.037 130.84 122.911 130.246 122.659 129.718C122.407 129.184 122.05 128.761 121.588 128.449C121.126 128.137 120.577 127.981 119.941 127.981C119.305 127.981 118.723 128.14 118.195 128.458C117.673 128.77 117.256 129.193 116.944 129.727C116.638 130.261 116.485 130.852 116.485 131.5C116.485 132.154 116.644 132.748 116.962 133.282C117.28 133.81 117.7 134.23 118.222 134.542C118.75 134.854 119.323 135.01 119.941 135.01ZM133.428 122.5H134.688V136H133.428V134.317C133.116 134.893 132.687 135.358 132.141 135.712C131.601 136.06 130.959 136.234 130.215 136.234C129.561 136.234 128.949 136.111 128.379 135.865C127.809 135.619 127.305 135.28 126.867 134.848C126.435 134.41 126.096 133.906 125.85 133.336C125.604 132.766 125.481 132.154 125.481 131.5C125.481 130.846 125.604 130.234 125.85 129.664C126.096 129.088 126.435 128.584 126.867 128.152C127.305 127.714 127.809 127.372 128.379 127.126C128.949 126.88 129.561 126.757 130.215 126.757C130.959 126.757 131.601 126.934 132.141 127.288C132.687 127.636 133.116 128.095 133.428 128.665V122.5ZM130.224 135.01C130.866 135.01 131.418 134.854 131.88 134.542C132.342 134.224 132.696 133.798 132.942 133.264C133.194 132.73 133.32 132.142 133.32 131.5C133.32 130.84 133.194 130.246 132.942 129.718C132.69 129.184 132.333 128.761 131.871 128.449C131.409 128.137 130.86 127.981 130.224 127.981C129.588 127.981 129.009 128.14 128.487 128.458C127.965 128.77 127.548 129.193 127.236 129.727C126.924 130.261 126.768 130.852 126.768 131.5C126.768 132.154 126.927 132.748 127.245 133.282C127.563 133.81 127.983 134.23 128.505 134.542C129.033 134.854 129.606 135.01 130.224 135.01ZM136.85 127H138.11V136H136.85V127ZM137.489 125.425C137.285 125.425 137.111 125.359 136.967 125.227C136.829 125.089 136.76 124.918 136.76 124.714C136.76 124.51 136.829 124.342 136.967 124.21C137.111 124.072 137.285 124.003 137.489 124.003C137.687 124.003 137.855 124.072 137.993 124.21C138.137 124.342 138.209 124.51 138.209 124.714C138.209 124.918 138.14 125.089 138.002 125.227C137.864 125.359 137.693 125.425 137.489 125.425ZM148.09 130.429V136H146.83V130.681C146.83 130.189 146.71 129.742 146.47 129.34C146.23 128.938 145.909 128.617 145.507 128.377C145.105 128.137 144.658 128.017 144.166 128.017C143.68 128.017 143.233 128.137 142.825 128.377C142.423 128.617 142.102 128.938 141.862 129.34C141.622 129.742 141.502 130.189 141.502 130.681V136H140.242V127H141.502V128.242C141.82 127.786 142.234 127.423 142.744 127.153C143.254 126.883 143.809 126.748 144.409 126.748C145.087 126.748 145.705 126.913 146.263 127.243C146.821 127.573 147.265 128.017 147.595 128.575C147.925 129.133 148.09 129.751 148.09 130.429ZM156.872 127H158.132V136.333C158.132 136.909 158.006 137.449 157.754 137.953C157.508 138.457 157.172 138.898 156.746 139.276C156.326 139.66 155.846 139.96 155.306 140.176C154.766 140.392 154.205 140.5 153.623 140.5C152.999 140.5 152.396 140.356 151.814 140.068C151.232 139.786 150.725 139.408 150.293 138.934C149.867 138.46 149.564 137.935 149.384 137.359L150.545 136.828C150.659 137.278 150.872 137.683 151.184 138.043C151.502 138.409 151.874 138.697 152.3 138.907C152.732 139.123 153.173 139.231 153.623 139.231C154.037 139.231 154.436 139.153 154.82 138.997C155.21 138.847 155.558 138.64 155.864 138.376C156.176 138.112 156.422 137.803 156.602 137.449C156.782 137.101 156.872 136.729 156.872 136.333V134.344C156.56 134.908 156.137 135.364 155.603 135.712C155.075 136.06 154.46 136.234 153.758 136.234C153.128 136.234 152.534 136.111 151.976 135.865C151.424 135.619 150.938 135.28 150.518 134.848C150.098 134.41 149.768 133.906 149.528 133.336C149.294 132.766 149.177 132.154 149.177 131.5C149.177 130.846 149.294 130.234 149.528 129.664C149.768 129.088 150.098 128.584 150.518 128.152C150.938 127.714 151.424 127.372 151.976 127.126C152.534 126.88 153.128 126.757 153.758 126.757C154.46 126.757 155.075 126.931 155.603 127.279C156.137 127.621 156.56 128.077 156.872 128.647V127ZM153.767 135.01C154.391 135.01 154.928 134.848 155.378 134.524C155.834 134.2 156.185 133.771 156.431 133.237C156.677 132.703 156.8 132.124 156.8 131.5C156.8 130.858 156.674 130.273 156.422 129.745C156.176 129.211 155.825 128.785 155.369 128.467C154.913 128.143 154.379 127.981 153.767 127.981C153.155 127.981 152.597 128.14 152.093 128.458C151.595 128.77 151.199 129.193 150.905 129.727C150.611 130.261 150.464 130.852 150.464 131.5C150.464 132.148 150.614 132.739 150.914 133.273C151.214 133.801 151.613 134.224 152.111 134.542C152.615 134.854 153.167 135.01 153.767 135.01ZM167.404 136.171C166.912 136.159 166.432 136.069 165.964 135.901C165.496 135.733 165.088 135.505 164.74 135.217C164.392 134.929 164.143 134.602 163.993 134.236L165.082 133.768C165.178 134.002 165.355 134.218 165.613 134.416C165.877 134.608 166.177 134.764 166.513 134.884C166.849 134.998 167.182 135.055 167.512 135.055C167.878 135.055 168.22 134.995 168.538 134.875C168.856 134.755 169.114 134.584 169.312 134.362C169.516 134.134 169.618 133.867 169.618 133.561C169.618 133.231 169.51 132.973 169.294 132.787C169.078 132.595 168.805 132.445 168.475 132.337C168.145 132.223 167.806 132.115 167.458 132.013C166.822 131.839 166.261 131.647 165.775 131.437C165.289 131.227 164.908 130.96 164.632 130.636C164.362 130.306 164.227 129.883 164.227 129.367C164.227 128.821 164.38 128.35 164.686 127.954C164.998 127.552 165.403 127.243 165.901 127.027C166.405 126.805 166.942 126.694 167.512 126.694C168.244 126.694 168.91 126.853 169.51 127.171C170.116 127.489 170.554 127.912 170.824 128.44L169.807 129.043C169.699 128.797 169.528 128.584 169.294 128.404C169.06 128.224 168.793 128.083 168.493 127.981C168.199 127.879 167.899 127.825 167.593 127.819C167.209 127.813 166.852 127.87 166.522 127.99C166.192 128.104 165.925 128.275 165.721 128.503C165.523 128.731 165.424 129.01 165.424 129.34C165.424 129.67 165.523 129.922 165.721 130.096C165.919 130.264 166.186 130.402 166.522 130.51C166.864 130.612 167.248 130.732 167.674 130.87C168.22 131.044 168.733 131.242 169.213 131.464C169.693 131.686 170.08 131.962 170.374 132.292C170.668 132.622 170.812 133.039 170.806 133.543C170.806 134.083 170.644 134.554 170.32 134.956C169.996 135.358 169.576 135.667 169.06 135.883C168.544 136.093 167.992 136.189 167.404 136.171ZM176.956 128.26H174.805L174.796 136H173.536L173.545 128.26H171.916V127H173.545L173.536 124.174H174.796L174.805 127H176.956V128.26ZM178.562 136V127H179.822V128.242C180.14 127.786 180.554 127.423 181.064 127.153C181.574 126.883 182.129 126.748 182.729 126.748C183.077 126.748 183.413 126.793 183.737 126.883L183.224 128.134C182.972 128.056 182.726 128.017 182.486 128.017C182 128.017 181.553 128.137 181.145 128.377C180.743 128.617 180.422 128.938 180.182 129.34C179.942 129.742 179.822 130.189 179.822 130.681V136H178.562ZM191.796 127H193.056V136H191.796L191.751 134.326C191.457 134.896 191.046 135.358 190.518 135.712C189.99 136.06 189.36 136.234 188.628 136.234C187.968 136.234 187.35 136.111 186.774 135.865C186.198 135.613 185.691 135.268 185.253 134.83C184.815 134.392 184.473 133.885 184.227 133.309C183.981 132.733 183.858 132.115 183.858 131.455C183.858 130.807 183.978 130.198 184.218 129.628C184.464 129.058 184.8 128.557 185.226 128.125C185.658 127.693 186.156 127.357 186.72 127.117C187.29 126.871 187.899 126.748 188.547 126.748C189.297 126.748 189.951 126.928 190.509 127.288C191.067 127.642 191.511 128.107 191.841 128.683L191.796 127ZM188.601 135.01C189.243 135.01 189.795 134.854 190.257 134.542C190.719 134.224 191.073 133.798 191.319 133.264C191.571 132.73 191.697 132.142 191.697 131.5C191.697 130.84 191.571 130.246 191.319 129.718C191.067 129.184 190.71 128.761 190.248 128.449C189.786 128.137 189.237 127.981 188.601 127.981C187.965 127.981 187.383 128.14 186.855 128.458C186.333 128.77 185.916 129.193 185.604 129.727C185.298 130.261 185.145 130.852 185.145 131.5C185.145 132.154 185.304 132.748 185.622 133.282C185.94 133.81 186.36 134.23 186.882 134.542C187.41 134.854 187.983 135.01 188.601 135.01ZM199.456 128.26H197.305L197.296 136H196.036L196.045 128.26H194.416V127H196.045L196.036 124.174H197.296L197.305 127H199.456V128.26ZM204.776 136.234C203.948 136.234 203.192 136.021 202.508 135.595C201.83 135.169 201.287 134.599 200.879 133.885C200.477 133.165 200.276 132.37 200.276 131.5C200.276 130.84 200.393 130.225 200.627 129.655C200.861 129.079 201.182 128.575 201.59 128.143C202.004 127.705 202.484 127.363 203.03 127.117C203.576 126.871 204.158 126.748 204.776 126.748C205.442 126.748 206.054 126.88 206.612 127.144C207.176 127.408 207.659 127.777 208.061 128.251C208.469 128.725 208.775 129.28 208.979 129.916C209.189 130.552 209.276 131.239 209.24 131.977H201.608C201.68 132.547 201.86 133.057 202.148 133.507C202.442 133.957 202.814 134.314 203.264 134.578C203.72 134.836 204.224 134.968 204.776 134.974C205.376 134.974 205.916 134.818 206.396 134.506C206.882 134.194 207.272 133.765 207.566 133.219L208.844 133.516C208.484 134.314 207.941 134.968 207.215 135.478C206.489 135.982 205.676 136.234 204.776 136.234ZM201.572 130.96H207.971C207.929 130.402 207.758 129.892 207.458 129.43C207.164 128.962 206.783 128.59 206.315 128.314C205.847 128.032 205.334 127.891 204.776 127.891C204.218 127.891 203.708 128.029 203.246 128.305C202.784 128.575 202.406 128.944 202.112 129.412C201.818 129.874 201.638 130.39 201.572 130.96ZM217.85 127H219.11V136.333C219.11 136.909 218.984 137.449 218.732 137.953C218.486 138.457 218.15 138.898 217.724 139.276C217.304 139.66 216.824 139.96 216.284 140.176C215.744 140.392 215.183 140.5 214.601 140.5C213.977 140.5 213.374 140.356 212.792 140.068C212.21 139.786 211.703 139.408 211.271 138.934C210.845 138.46 210.542 137.935 210.362 137.359L211.523 136.828C211.637 137.278 211.85 137.683 212.162 138.043C212.48 138.409 212.852 138.697 213.278 138.907C213.71 139.123 214.151 139.231 214.601 139.231C215.015 139.231 215.414 139.153 215.798 138.997C216.188 138.847 216.536 138.64 216.842 138.376C217.154 138.112 217.4 137.803 217.58 137.449C217.76 137.101 217.85 136.729 217.85 136.333V134.344C217.538 134.908 217.115 135.364 216.581 135.712C216.053 136.06 215.438 136.234 214.736 136.234C214.106 136.234 213.512 136.111 212.954 135.865C212.402 135.619 211.916 135.28 211.496 134.848C211.076 134.41 210.746 133.906 210.506 133.336C210.272 132.766 210.155 132.154 210.155 131.5C210.155 130.846 210.272 130.234 210.506 129.664C210.746 129.088 211.076 128.584 211.496 128.152C211.916 127.714 212.402 127.372 212.954 127.126C213.512 126.88 214.106 126.757 214.736 126.757C215.438 126.757 216.053 126.931 216.581 127.279C217.115 127.621 217.538 128.077 217.85 128.647V127ZM214.745 135.01C215.369 135.01 215.906 134.848 216.356 134.524C216.812 134.2 217.163 133.771 217.409 133.237C217.655 132.703 217.778 132.124 217.778 131.5C217.778 130.858 217.652 130.273 217.4 129.745C217.154 129.211 216.803 128.785 216.347 128.467C215.891 128.143 215.357 127.981 214.745 127.981C214.133 127.981 213.575 128.14 213.071 128.458C212.573 128.77 212.177 129.193 211.883 129.727C211.589 130.261 211.442 130.852 211.442 131.5C211.442 132.148 211.592 132.739 211.892 133.273C212.192 133.801 212.591 134.224 213.089 134.542C213.593 134.854 214.145 135.01 214.745 135.01ZM221.189 127H222.449V136H221.189V127ZM221.828 125.425C221.624 125.425 221.45 125.359 221.306 125.227C221.168 125.089 221.099 124.918 221.099 124.714C221.099 124.51 221.168 124.342 221.306 124.21C221.45 124.072 221.624 124.003 221.828 124.003C222.026 124.003 222.194 124.072 222.332 124.21C222.476 124.342 222.548 124.51 222.548 124.714C222.548 124.918 222.479 125.089 222.341 125.227C222.203 125.359 222.032 125.425 221.828 125.425ZM228.489 136.234C227.661 136.234 226.905 136.021 226.221 135.595C225.543 135.169 225 134.599 224.592 133.885C224.19 133.165 223.989 132.37 223.989 131.5C223.989 130.84 224.106 130.225 224.34 129.655C224.574 129.079 224.895 128.575 225.303 128.143C225.717 127.705 226.197 127.363 226.743 127.117C227.289 126.871 227.871 126.748 228.489 126.748C229.155 126.748 229.767 126.88 230.325 127.144C230.889 127.408 231.372 127.777 231.774 128.251C232.182 128.725 232.488 129.28 232.692 129.916C232.902 130.552 232.989 131.239 232.953 131.977H225.321C225.393 132.547 225.573 133.057 225.861 133.507C226.155 133.957 226.527 134.314 226.977 134.578C227.433 134.836 227.937 134.968 228.489 134.974C229.089 134.974 229.629 134.818 230.109 134.506C230.595 134.194 230.985 133.765 231.279 133.219L232.557 133.516C232.197 134.314 231.654 134.968 230.928 135.478C230.202 135.982 229.389 136.234 228.489 136.234ZM225.285 130.96H231.684C231.642 130.402 231.471 129.892 231.171 129.43C230.877 128.962 230.496 128.59 230.028 128.314C229.56 128.032 229.047 127.891 228.489 127.891C227.931 127.891 227.421 128.029 226.959 128.305C226.497 128.575 226.119 128.944 225.825 129.412C225.531 129.874 225.351 130.39 225.285 130.96ZM237.295 136.171C236.803 136.159 236.323 136.069 235.855 135.901C235.387 135.733 234.979 135.505 234.631 135.217C234.283 134.929 234.034 134.602 233.884 134.236L234.973 133.768C235.069 134.002 235.246 134.218 235.504 134.416C235.768 134.608 236.068 134.764 236.404 134.884C236.74 134.998 237.073 135.055 237.403 135.055C237.769 135.055 238.111 134.995 238.429 134.875C238.747 134.755 239.005 134.584 239.203 134.362C239.407 134.134 239.509 133.867 239.509 133.561C239.509 133.231 239.401 132.973 239.185 132.787C238.969 132.595 238.696 132.445 238.366 132.337C238.036 132.223 237.697 132.115 237.349 132.013C236.713 131.839 236.152 131.647 235.666 131.437C235.18 131.227 234.799 130.96 234.523 130.636C234.253 130.306 234.118 129.883 234.118 129.367C234.118 128.821 234.271 128.35 234.577 127.954C234.889 127.552 235.294 127.243 235.792 127.027C236.296 126.805 236.833 126.694 237.403 126.694C238.135 126.694 238.801 126.853 239.401 127.171C240.007 127.489 240.445 127.912 240.715 128.44L239.698 129.043C239.59 128.797 239.419 128.584 239.185 128.404C238.951 128.224 238.684 128.083 238.384 127.981C238.09 127.879 237.79 127.825 237.484 127.819C237.1 127.813 236.743 127.87 236.413 127.99C236.083 128.104 235.816 128.275 235.612 128.503C235.414 128.731 235.315 129.01 235.315 129.34C235.315 129.67 235.414 129.922 235.612 130.096C235.81 130.264 236.077 130.402 236.413 130.51C236.755 130.612 237.139 130.732 237.565 130.87C238.111 131.044 238.624 131.242 239.104 131.464C239.584 131.686 239.971 131.962 240.265 132.292C240.559 132.622 240.703 133.039 240.697 133.543C240.697 134.083 240.535 134.554 240.211 134.956C239.887 135.358 239.467 135.667 238.951 135.883C238.435 136.093 237.883 136.189 237.295 136.171ZM28.478 146H29.738V155H28.478L28.433 153.326C28.139 153.896 27.728 154.358 27.2 154.712C26.672 155.06 26.042 155.234 25.31 155.234C24.65 155.234 24.032 155.111 23.456 154.865C22.88 154.613 22.373 154.268 21.935 153.83C21.497 153.392 21.155 152.885 20.909 152.309C20.663 151.733 20.54 151.115 20.54 150.455C20.54 149.807 20.66 149.198 20.9 148.628C21.146 148.058 21.482 147.557 21.908 147.125C22.34 146.693 22.838 146.357 23.402 146.117C23.972 145.871 24.581 145.748 25.229 145.748C25.979 145.748 26.633 145.928 27.191 146.288C27.749 146.642 28.193 147.107 28.523 147.683L28.478 146ZM25.283 154.01C25.925 154.01 26.477 153.854 26.939 153.542C27.401 153.224 27.755 152.798 28.001 152.264C28.253 151.73 28.379 151.142 28.379 150.5C28.379 149.84 28.253 149.246 28.001 148.718C27.749 148.184 27.392 147.761 26.93 147.449C26.468 147.137 25.919 146.981 25.283 146.981C24.647 146.981 24.065 147.14 23.537 147.458C23.015 147.77 22.598 148.193 22.286 148.727C21.98 149.261 21.827 149.852 21.827 150.5C21.827 151.154 21.986 151.748 22.304 152.282C22.622 152.81 23.042 153.23 23.564 153.542C24.092 153.854 24.665 154.01 25.283 154.01ZM39.387 149.429V155H38.127V149.681C38.127 149.189 38.007 148.742 37.767 148.34C37.527 147.938 37.206 147.617 36.804 147.377C36.402 147.137 35.955 147.017 35.463 147.017C34.977 147.017 34.53 147.137 34.122 147.377C33.72 147.617 33.399 147.938 33.159 148.34C32.919 148.742 32.799 149.189 32.799 149.681V155H31.539V146H32.799V147.242C33.117 146.786 33.531 146.423 34.041 146.153C34.551 145.883 35.106 145.748 35.706 145.748C36.384 145.748 37.002 145.913 37.56 146.243C38.118 146.573 38.562 147.017 38.892 147.575C39.222 148.133 39.387 148.751 39.387 149.429ZM48.4206 141.5H49.6806V155H48.4206V153.317C48.1086 153.893 47.6796 154.358 47.1336 154.712C46.5936 155.06 45.9516 155.234 45.2076 155.234C44.5536 155.234 43.9416 155.111 43.3716 154.865C42.8016 154.619 42.2976 154.28 41.8596 153.848C41.4276 153.41 41.0886 152.906 40.8426 152.336C40.5966 151.766 40.4736 151.154 40.4736 150.5C40.4736 149.846 40.5966 149.234 40.8426 148.664C41.0886 148.088 41.4276 147.584 41.8596 147.152C42.2976 146.714 42.8016 146.372 43.3716 146.126C43.9416 145.88 44.5536 145.757 45.2076 145.757C45.9516 145.757 46.5936 145.934 47.1336 146.288C47.6796 146.636 48.1086 147.095 48.4206 147.665V141.5ZM45.2166 154.01C45.8586 154.01 46.4106 153.854 46.8726 153.542C47.3346 153.224 47.6886 152.798 47.9346 152.264C48.1866 151.73 48.3126 151.142 48.3126 150.5C48.3126 149.84 48.1866 149.246 47.9346 148.718C47.6826 148.184 47.3256 147.761 46.8636 147.449C46.4016 147.137 45.8526 146.981 45.2166 146.981C44.5806 146.981 44.0016 147.14 43.4796 147.458C42.9576 147.77 42.5406 148.193 42.2286 148.727C41.9166 149.261 41.7606 149.852 41.7606 150.5C41.7606 151.154 41.9196 151.748 42.2376 152.282C42.5556 152.81 42.9756 153.23 43.4976 153.542C44.0256 153.854 44.5986 154.01 45.2166 154.01ZM57.4259 159.5H56.1659V146H57.4259V147.683C57.7379 147.113 58.1639 146.651 58.7039 146.297C59.2439 145.943 59.8859 145.766 60.6299 145.766C61.2839 145.766 61.8959 145.889 62.4659 146.135C63.0419 146.381 63.5459 146.723 63.9779 147.161C64.4099 147.593 64.7489 148.094 64.9949 148.664C65.2409 149.234 65.3639 149.846 65.3639 150.5C65.3639 151.154 65.2409 151.769 64.9949 152.345C64.7489 152.921 64.4099 153.428 63.9779 153.866C63.5459 154.298 63.0419 154.637 62.4659 154.883C61.8959 155.129 61.2839 155.252 60.6299 155.252C59.8859 155.252 59.2439 155.075 58.7039 154.721C58.1639 154.367 57.7379 153.905 57.4259 153.335V159.5ZM60.6209 146.99C59.9909 146.99 59.4419 147.149 58.9739 147.467C58.5119 147.779 58.1549 148.199 57.9029 148.727C57.6509 149.255 57.5249 149.846 57.5249 150.5C57.5249 151.142 57.6479 151.73 57.8939 152.264C58.1459 152.798 58.5029 153.224 58.9649 153.542C59.4329 153.86 59.9849 154.019 60.6209 154.019C61.2449 154.019 61.8179 153.863 62.3399 153.551C62.8679 153.239 63.2909 152.819 63.6089 152.291C63.9269 151.757 64.0859 151.16 64.0859 150.5C64.0859 149.858 63.9299 149.273 63.6179 148.745C63.3059 148.211 62.8889 147.785 62.3669 147.467C61.8449 147.149 61.2629 146.99 60.6209 146.99ZM70.7607 155.234C69.9327 155.234 69.1767 155.021 68.4927 154.595C67.8147 154.169 67.2717 153.599 66.8637 152.885C66.4617 152.165 66.2607 151.37 66.2607 150.5C66.2607 149.84 66.3777 149.225 66.6117 148.655C66.8457 148.079 67.1667 147.575 67.5747 147.143C67.9887 146.705 68.4687 146.363 69.0147 146.117C69.5607 145.871 70.1427 145.748 70.7607 145.748C71.5887 145.748 72.3417 145.961 73.0197 146.387C73.7037 146.813 74.2467 147.386 74.6487 148.106C75.0567 148.826 75.2607 149.624 75.2607 150.5C75.2607 151.154 75.1437 151.766 74.9097 152.336C74.6757 152.906 74.3517 153.41 73.9377 153.848C73.5297 154.28 73.0527 154.619 72.5067 154.865C71.9667 155.111 71.3847 155.234 70.7607 155.234ZM70.7607 153.974C71.3727 153.974 71.9217 153.815 72.4077 153.497C72.8997 153.173 73.2867 152.747 73.5687 152.219C73.8567 151.691 74.0007 151.118 74.0007 150.5C74.0007 149.87 73.8567 149.291 73.5687 148.763C73.2807 148.229 72.8907 147.803 72.3987 147.485C71.9127 147.167 71.3667 147.008 70.7607 147.008C70.1487 147.008 69.5967 147.17 69.1047 147.494C68.6187 147.812 68.2317 148.235 67.9437 148.763C67.6617 149.291 67.5207 149.87 67.5207 150.5C67.5207 151.148 67.6677 151.736 67.9617 152.264C68.2557 152.786 68.6487 153.203 69.1407 153.515C69.6327 153.821 70.1727 153.974 70.7607 153.974ZM76.7851 155V146H78.0451V147.242C78.3631 146.786 78.7771 146.423 79.2871 146.153C79.7971 145.883 80.3521 145.748 80.9521 145.748C81.3001 145.748 81.6361 145.793 81.9601 145.883L81.4471 147.134C81.1951 147.056 80.9491 147.017 80.7091 147.017C80.2231 147.017 79.7761 147.137 79.3681 147.377C78.9661 147.617 78.6451 147.938 78.4051 148.34C78.1651 148.742 78.0451 149.189 78.0451 149.681V155H76.7851ZM87.8177 147.26H85.6667L85.6577 155H84.3977L84.4067 147.26H82.7777V146H84.4067L84.3977 143.174H85.6577L85.6667 146H87.8177V147.26ZM91.2868 143.651V146H93.9868V147.26H91.2868V155H90.0268V147.26H88.7938V146H90.0268V143.651C90.0268 143.213 90.1318 142.817 90.3418 142.463C90.5578 142.103 90.8458 141.818 91.2058 141.608C91.5658 141.392 91.9648 141.284 92.4028 141.284C92.7208 141.284 93.0268 141.347 93.3208 141.473C93.6208 141.599 93.8878 141.785 94.1218 142.031L93.2218 142.922C93.1258 142.802 93.0028 142.709 92.8528 142.643C92.7088 142.577 92.5588 142.544 92.4028 142.544C92.0968 142.544 91.8328 142.652 91.6108 142.868C91.3948 143.084 91.2868 143.345 91.2868 143.651ZM99.1845 155.234C98.3565 155.234 97.6005 155.021 96.9165 154.595C96.2385 154.169 95.6955 153.599 95.2875 152.885C94.8855 152.165 94.6845 151.37 94.6845 150.5C94.6845 149.84 94.8015 149.225 95.0355 148.655C95.2695 148.079 95.5905 147.575 95.9985 147.143C96.4125 146.705 96.8925 146.363 97.4385 146.117C97.9845 145.871 98.5665 145.748 99.1845 145.748C100.013 145.748 100.766 145.961 101.444 146.387C102.128 146.813 102.671 147.386 103.073 148.106C103.481 148.826 103.685 149.624 103.685 150.5C103.685 151.154 103.568 151.766 103.334 152.336C103.1 152.906 102.776 153.41 102.362 153.848C101.954 154.28 101.477 154.619 100.931 154.865C100.391 155.111 99.8085 155.234 99.1845 155.234ZM99.1845 153.974C99.7965 153.974 100.346 153.815 100.832 153.497C101.324 153.173 101.711 152.747 101.993 152.219C102.281 151.691 102.425 151.118 102.425 150.5C102.425 149.87 102.281 149.291 101.993 148.763C101.705 148.229 101.315 147.803 100.823 147.485C100.337 147.167 99.7905 147.008 99.1845 147.008C98.5725 147.008 98.0205 147.17 97.5285 147.494C97.0425 147.812 96.6555 148.235 96.3675 148.763C96.0855 149.291 95.9445 149.87 95.9445 150.5C95.9445 151.148 96.0915 151.736 96.3855 152.264C96.6795 152.786 97.0725 153.203 97.5645 153.515C98.0565 153.821 98.5965 153.974 99.1845 153.974ZM105.139 155V141.5H106.399V155H105.139ZM108.566 146H109.826V155H108.566V146ZM109.205 144.425C109.001 144.425 108.827 144.359 108.683 144.227C108.545 144.089 108.476 143.918 108.476 143.714C108.476 143.51 108.545 143.342 108.683 143.21C108.827 143.072 109.001 143.003 109.205 143.003C109.403 143.003 109.571 143.072 109.709 143.21C109.853 143.342 109.925 143.51 109.925 143.714C109.925 143.918 109.856 144.089 109.718 144.227C109.58 144.359 109.409 144.425 109.205 144.425ZM115.866 155.234C115.038 155.234 114.282 155.021 113.598 154.595C112.92 154.169 112.377 153.599 111.969 152.885C111.567 152.165 111.366 151.37 111.366 150.5C111.366 149.84 111.483 149.225 111.717 148.655C111.951 148.079 112.272 147.575 112.68 147.143C113.094 146.705 113.574 146.363 114.12 146.117C114.666 145.871 115.248 145.748 115.866 145.748C116.694 145.748 117.447 145.961 118.125 146.387C118.809 146.813 119.352 147.386 119.754 148.106C120.162 148.826 120.366 149.624 120.366 150.5C120.366 151.154 120.249 151.766 120.015 152.336C119.781 152.906 119.457 153.41 119.043 153.848C118.635 154.28 118.158 154.619 117.612 154.865C117.072 155.111 116.49 155.234 115.866 155.234ZM115.866 153.974C116.478 153.974 117.027 153.815 117.513 153.497C118.005 153.173 118.392 152.747 118.674 152.219C118.962 151.691 119.106 151.118 119.106 150.5C119.106 149.87 118.962 149.291 118.674 148.763C118.386 148.229 117.996 147.803 117.504 147.485C117.018 147.167 116.472 147.008 115.866 147.008C115.254 147.008 114.702 147.17 114.21 147.494C113.724 147.812 113.337 148.235 113.049 148.763C112.767 149.291 112.626 149.87 112.626 150.5C112.626 151.148 112.773 151.736 113.067 152.264C113.361 152.786 113.754 153.203 114.246 153.515C114.738 153.821 115.278 153.974 115.866 153.974ZM127.563 159.5H126.303V146H127.563V147.683C127.875 147.113 128.301 146.651 128.841 146.297C129.381 145.943 130.023 145.766 130.767 145.766C131.421 145.766 132.033 145.889 132.603 146.135C133.179 146.381 133.683 146.723 134.115 147.161C134.547 147.593 134.886 148.094 135.132 148.664C135.378 149.234 135.501 149.846 135.501 150.5C135.501 151.154 135.378 151.769 135.132 152.345C134.886 152.921 134.547 153.428 134.115 153.866C133.683 154.298 133.179 154.637 132.603 154.883C132.033 155.129 131.421 155.252 130.767 155.252C130.023 155.252 129.381 155.075 128.841 154.721C128.301 154.367 127.875 153.905 127.563 153.335V159.5ZM130.758 146.99C130.128 146.99 129.579 147.149 129.111 147.467C128.649 147.779 128.292 148.199 128.04 148.727C127.788 149.255 127.662 149.846 127.662 150.5C127.662 151.142 127.785 151.73 128.031 152.264C128.283 152.798 128.64 153.224 129.102 153.542C129.57 153.86 130.122 154.019 130.758 154.019C131.382 154.019 131.955 153.863 132.477 153.551C133.005 153.239 133.428 152.819 133.746 152.291C134.064 151.757 134.223 151.16 134.223 150.5C134.223 149.858 134.067 149.273 133.755 148.745C133.443 148.211 133.026 147.785 132.504 147.467C131.982 147.149 131.4 146.99 130.758 146.99ZM137.025 155V146H138.285V147.242C138.603 146.786 139.017 146.423 139.527 146.153C140.037 145.883 140.592 145.748 141.192 145.748C141.54 145.748 141.876 145.793 142.2 145.883L141.687 147.134C141.435 147.056 141.189 147.017 140.949 147.017C140.463 147.017 140.016 147.137 139.608 147.377C139.206 147.617 138.885 147.938 138.645 148.34C138.405 148.742 138.285 149.189 138.285 149.681V155H137.025ZM143.336 146H144.596V155H143.336V146ZM143.975 144.425C143.771 144.425 143.597 144.359 143.453 144.227C143.315 144.089 143.246 143.918 143.246 143.714C143.246 143.51 143.315 143.342 143.453 143.21C143.597 143.072 143.771 143.003 143.975 143.003C144.173 143.003 144.341 143.072 144.479 143.21C144.623 143.342 144.695 143.51 144.695 143.714C144.695 143.918 144.626 144.089 144.488 144.227C144.35 144.359 144.179 144.425 143.975 144.425ZM150.988 155H149.386L146.101 145.973H147.442L150.187 153.524L152.932 145.973H154.273L150.988 155ZM162.81 146H164.07V155H162.81L162.765 153.326C162.471 153.896 162.06 154.358 161.532 154.712C161.004 155.06 160.374 155.234 159.642 155.234C158.982 155.234 158.364 155.111 157.788 154.865C157.212 154.613 156.705 154.268 156.267 153.83C155.829 153.392 155.487 152.885 155.241 152.309C154.995 151.733 154.872 151.115 154.872 150.455C154.872 149.807 154.992 149.198 155.232 148.628C155.478 148.058 155.814 147.557 156.24 147.125C156.672 146.693 157.17 146.357 157.734 146.117C158.304 145.871 158.913 145.748 159.561 145.748C160.311 145.748 160.965 145.928 161.523 146.288C162.081 146.642 162.525 147.107 162.855 147.683L162.81 146ZM159.615 154.01C160.257 154.01 160.809 153.854 161.271 153.542C161.733 153.224 162.087 152.798 162.333 152.264C162.585 151.73 162.711 151.142 162.711 150.5C162.711 149.84 162.585 149.246 162.333 148.718C162.081 148.184 161.724 147.761 161.262 147.449C160.8 147.137 160.251 146.981 159.615 146.981C158.979 146.981 158.397 147.14 157.869 147.458C157.347 147.77 156.93 148.193 156.618 148.727C156.312 149.261 156.159 149.852 156.159 150.5C156.159 151.154 156.318 151.748 156.636 152.282C156.954 152.81 157.374 153.23 157.896 153.542C158.424 153.854 158.997 154.01 159.615 154.01ZM170.47 147.26H168.319L168.31 155H167.05L167.059 147.26H165.43V146H167.059L167.05 143.174H168.31L168.319 146H170.47V147.26ZM175.79 155.234C174.962 155.234 174.206 155.021 173.522 154.595C172.844 154.169 172.301 153.599 171.893 152.885C171.491 152.165 171.29 151.37 171.29 150.5C171.29 149.84 171.407 149.225 171.641 148.655C171.875 148.079 172.196 147.575 172.604 147.143C173.018 146.705 173.498 146.363 174.044 146.117C174.59 145.871 175.172 145.748 175.79 145.748C176.456 145.748 177.068 145.88 177.626 146.144C178.19 146.408 178.673 146.777 179.075 147.251C179.483 147.725 179.789 148.28 179.993 148.916C180.203 149.552 180.29 150.239 180.254 150.977H172.622C172.694 151.547 172.874 152.057 173.162 152.507C173.456 152.957 173.828 153.314 174.278 153.578C174.734 153.836 175.238 153.968 175.79 153.974C176.39 153.974 176.93 153.818 177.41 153.506C177.896 153.194 178.286 152.765 178.58 152.219L179.858 152.516C179.498 153.314 178.955 153.968 178.229 154.478C177.503 154.982 176.69 155.234 175.79 155.234ZM172.586 149.96H178.985C178.943 149.402 178.772 148.892 178.472 148.43C178.178 147.962 177.797 147.59 177.329 147.314C176.861 147.032 176.348 146.891 175.79 146.891C175.232 146.891 174.722 147.029 174.26 147.305C173.798 147.575 173.42 147.944 173.126 148.412C172.832 148.874 172.652 149.39 172.586 149.96ZM189.98 155H188.684L185.669 146H186.902L189.35 153.254L191.78 146H193.112L195.542 153.254L197.972 146H199.214L196.199 155H194.894L192.428 147.674L189.98 155ZM200.711 146H201.971V155H200.711V146ZM201.35 144.425C201.146 144.425 200.972 144.359 200.828 144.227C200.69 144.089 200.621 143.918 200.621 143.714C200.621 143.51 200.69 143.342 200.828 143.21C200.972 143.072 201.146 143.003 201.35 143.003C201.548 143.003 201.716 143.072 201.854 143.21C201.998 143.342 202.07 143.51 202.07 143.714C202.07 143.918 202.001 144.089 201.863 144.227C201.725 144.359 201.554 144.425 201.35 144.425ZM208.738 147.26H206.587L206.578 155H205.318L205.327 147.26H203.698V146H205.327L205.318 143.174H206.578L206.587 146H208.738V147.26ZM218.192 149.429V155H216.932V149.681C216.932 149.189 216.812 148.742 216.572 148.34C216.332 147.938 216.011 147.617 215.609 147.377C215.207 147.137 214.76 147.017 214.268 147.017C213.782 147.017 213.335 147.137 212.927 147.377C212.525 147.617 212.204 147.938 211.964 148.34C211.724 148.742 211.604 149.189 211.604 149.681V155H210.344V141.5H211.604V147.242C211.922 146.786 212.336 146.423 212.846 146.153C213.356 145.883 213.911 145.748 214.511 145.748C215.189 145.748 215.807 145.913 216.365 146.243C216.923 146.573 217.367 147.017 217.697 147.575C218.027 148.133 218.192 148.751 218.192 149.429ZM231.644 147.872L226.64 153.128H231.644V155H223.958V153.128L228.962 147.872H223.958V146H231.644V147.872ZM237.243 155.234C236.415 155.234 235.659 155.021 234.975 154.595C234.297 154.169 233.754 153.599 233.346 152.885C232.944 152.165 232.743 151.37 232.743 150.5C232.743 149.84 232.86 149.225 233.094 148.655C233.328 148.079 233.649 147.575 234.057 147.143C234.471 146.705 234.951 146.363 235.497 146.117C236.043 145.871 236.625 145.748 237.243 145.748C237.933 145.748 238.566 145.892 239.142 146.18C239.718 146.462 240.21 146.855 240.618 147.359C241.026 147.857 241.326 148.433 241.518 149.087C241.71 149.735 241.767 150.425 241.689 151.157H234.75C234.828 151.571 234.978 151.946 235.2 152.282C235.428 152.612 235.716 152.873 236.064 153.065C236.418 153.257 236.811 153.356 237.243 153.362C237.699 153.362 238.113 153.248 238.485 153.02C238.863 152.792 239.172 152.477 239.412 152.075L241.311 152.516C240.951 153.314 240.408 153.968 239.682 154.478C238.956 154.982 238.143 155.234 237.243 155.234ZM234.687 149.726H239.799C239.739 149.294 239.586 148.904 239.34 148.556C239.1 148.202 238.797 147.923 238.431 147.719C238.071 147.509 237.675 147.404 237.243 147.404C236.817 147.404 236.421 147.506 236.055 147.71C235.695 147.914 235.395 148.193 235.155 148.547C234.921 148.895 234.765 149.288 234.687 149.726ZM243.18 155V146H245.052V146.954C245.364 146.582 245.748 146.288 246.204 146.072C246.66 145.856 247.152 145.748 247.68 145.748C248.016 145.748 248.349 145.793 248.679 145.883L247.932 147.773C247.698 147.683 247.464 147.638 247.23 147.638C246.834 147.638 246.471 147.737 246.141 147.935C245.811 148.127 245.547 148.388 245.349 148.718C245.151 149.048 245.052 149.414 245.052 149.816V155H243.18ZM253.257 155.234C252.429 155.234 251.673 155.021 250.989 154.595C250.311 154.169 249.768 153.599 249.36 152.885C248.958 152.165 248.757 151.37 248.757 150.5C248.757 149.84 248.874 149.225 249.108 148.655C249.342 148.079 249.663 147.575 250.071 147.143C250.485 146.705 250.965 146.363 251.511 146.117C252.057 145.871 252.639 145.748 253.257 145.748C254.085 145.748 254.838 145.961 255.516 146.387C256.2 146.813 256.743 147.386 257.145 148.106C257.553 148.826 257.757 149.624 257.757 150.5C257.757 151.154 257.64 151.766 257.406 152.336C257.172 152.906 256.848 153.41 256.434 153.848C256.026 154.28 255.549 154.619 255.003 154.865C254.463 155.111 253.881 155.234 253.257 155.234ZM253.257 153.362C253.755 153.362 254.202 153.23 254.598 152.966C254.994 152.702 255.306 152.354 255.534 151.922C255.768 151.484 255.885 151.01 255.885 150.5C255.885 149.978 255.765 149.498 255.525 149.06C255.291 148.622 254.976 148.274 254.58 148.016C254.184 147.752 253.743 147.62 253.257 147.62C252.765 147.62 252.318 147.752 251.916 148.016C251.52 148.28 251.205 148.631 250.971 149.069C250.743 149.507 250.629 149.984 250.629 150.5C250.629 151.034 250.749 151.517 250.989 151.949C251.229 152.381 251.547 152.726 251.943 152.984C252.345 153.236 252.783 153.362 253.257 153.362ZM259.369 148.664H265.129V150.536H259.369V148.664ZM28.775 174H26.615L24.401 170.184L22.952 171.912V174H21.08V160.5H22.952V169.005L26.3 165H28.748L25.679 168.663L28.775 174ZM38.5316 168.357V174H36.6596V168.816C36.6596 168.414 36.5606 168.048 36.3626 167.718C36.1706 167.388 35.9096 167.127 35.5796 166.935C35.2556 166.737 34.8896 166.638 34.4816 166.638C34.0856 166.638 33.7226 166.737 33.3926 166.935C33.0626 167.127 32.7986 167.388 32.6006 167.718C32.4026 168.048 32.3036 168.414 32.3036 168.816V174H30.4316V165H32.3036V165.954C32.6156 165.582 32.9996 165.288 33.4556 165.072C33.9116 164.856 34.4036 164.748 34.9316 164.748C35.5976 164.748 36.2036 164.91 36.7496 165.234C37.2956 165.558 37.7276 165.993 38.0456 166.539C38.3696 167.085 38.5316 167.691 38.5316 168.357ZM44.1123 174.234C43.2843 174.234 42.5283 174.021 41.8443 173.595C41.1663 173.169 40.6233 172.599 40.2153 171.885C39.8133 171.165 39.6123 170.37 39.6123 169.5C39.6123 168.84 39.7293 168.225 39.9633 167.655C40.1973 167.079 40.5183 166.575 40.9263 166.143C41.3403 165.705 41.8203 165.363 42.3663 165.117C42.9123 164.871 43.4943 164.748 44.1123 164.748C44.9403 164.748 45.6933 164.961 46.3713 165.387C47.0553 165.813 47.5983 166.386 48.0003 167.106C48.4083 167.826 48.6123 168.624 48.6123 169.5C48.6123 170.154 48.4953 170.766 48.2613 171.336C48.0273 171.906 47.7033 172.41 47.2893 172.848C46.8813 173.28 46.4043 173.619 45.8583 173.865C45.3183 174.111 44.7363 174.234 44.1123 174.234ZM44.1123 172.362C44.6103 172.362 45.0573 172.23 45.4533 171.966C45.8493 171.702 46.1613 171.354 46.3893 170.922C46.6233 170.484 46.7403 170.01 46.7403 169.5C46.7403 168.978 46.6203 168.498 46.3803 168.06C46.1463 167.622 45.8313 167.274 45.4353 167.016C45.0393 166.752 44.5983 166.62 44.1123 166.62C43.6203 166.62 43.1733 166.752 42.7713 167.016C42.3753 167.28 42.0603 167.631 41.8263 168.069C41.5983 168.507 41.4843 168.984 41.4843 169.5C41.4843 170.034 41.6043 170.517 41.8443 170.949C42.0843 171.381 42.4023 171.726 42.7983 171.984C43.2003 172.236 43.6383 172.362 44.1123 172.362ZM53.9825 174H52.1195L49.1045 165H50.9405L53.0645 171.318L55.1705 165H57.0605L59.1665 171.318L61.2815 165H63.1175L60.1115 174H58.2305L56.1065 167.637L53.9825 174ZM64.7441 174V160.5H66.6161V174H64.7441ZM72.6064 174.234C71.7784 174.234 71.0224 174.021 70.3384 173.595C69.6604 173.169 69.1174 172.599 68.7094 171.885C68.3074 171.165 68.1064 170.37 68.1064 169.5C68.1064 168.84 68.2234 168.225 68.4574 167.655C68.6914 167.079 69.0124 166.575 69.4204 166.143C69.8344 165.705 70.3144 165.363 70.8604 165.117C71.4064 164.871 71.9884 164.748 72.6064 164.748C73.2964 164.748 73.9294 164.892 74.5054 165.18C75.0814 165.462 75.5734 165.855 75.9814 166.359C76.3894 166.857 76.6894 167.433 76.8814 168.087C77.0734 168.735 77.1304 169.425 77.0524 170.157H70.1134C70.1914 170.571 70.3414 170.946 70.5634 171.282C70.7914 171.612 71.0794 171.873 71.4274 172.065C71.7814 172.257 72.1744 172.356 72.6064 172.362C73.0624 172.362 73.4764 172.248 73.8484 172.02C74.2264 171.792 74.5354 171.477 74.7754 171.075L76.6744 171.516C76.3144 172.314 75.7714 172.968 75.0454 173.478C74.3194 173.982 73.5064 174.234 72.6064 174.234ZM70.0504 168.726H75.1624C75.1024 168.294 74.9494 167.904 74.7034 167.556C74.4634 167.202 74.1604 166.923 73.7944 166.719C73.4344 166.509 73.0384 166.404 72.6064 166.404C72.1804 166.404 71.7844 166.506 71.4184 166.71C71.0584 166.914 70.7584 167.193 70.5184 167.547C70.2844 167.895 70.1284 168.288 70.0504 168.726ZM85.5363 160.5H87.4083V174H85.5363V172.677C85.2423 173.145 84.8583 173.523 84.3843 173.811C83.9103 174.093 83.3553 174.234 82.7193 174.234C82.0653 174.234 81.4533 174.111 80.8833 173.865C80.3133 173.619 79.8093 173.28 79.3713 172.848C78.9393 172.41 78.6003 171.906 78.3543 171.336C78.1083 170.766 77.9853 170.154 77.9853 169.5C77.9853 168.846 78.1083 168.234 78.3543 167.664C78.6003 167.088 78.9393 166.584 79.3713 166.152C79.8093 165.714 80.3133 165.372 80.8833 165.126C81.4533 164.88 82.0653 164.757 82.7193 164.757C83.3553 164.757 83.9103 164.901 84.3843 165.189C84.8583 165.471 85.2423 165.843 85.5363 166.305V160.5ZM82.7373 172.425C83.2653 172.425 83.7273 172.296 84.1233 172.038C84.5193 171.774 84.8253 171.42 85.0413 170.976C85.2633 170.532 85.3743 170.04 85.3743 169.5C85.3743 168.954 85.2633 168.459 85.0413 168.015C84.8193 167.571 84.5103 167.22 84.1143 166.962C83.7243 166.698 83.2653 166.566 82.7373 166.566C82.2153 166.566 81.7383 166.698 81.3063 166.962C80.8803 167.226 80.5383 167.58 80.2803 168.024C80.0283 168.468 79.9023 168.96 79.9023 169.5C79.9023 170.046 80.0313 170.541 80.2893 170.985C80.5533 171.423 80.8983 171.774 81.3243 172.038C81.7563 172.296 82.2273 172.425 82.7373 172.425ZM96.2903 165H98.1623V174.234C98.1623 174.852 98.0303 175.422 97.7663 175.944C97.5083 176.466 97.1573 176.916 96.7133 177.294C96.2693 177.678 95.7593 177.975 95.1833 178.185C94.6133 178.395 94.0163 178.5 93.3923 178.5C92.7623 178.5 92.1563 178.365 91.5743 178.095C90.9923 177.831 90.4793 177.471 90.0353 177.015C89.5973 176.559 89.2703 176.043 89.0543 175.467L90.7733 174.693C90.8933 175.065 91.0853 175.395 91.3493 175.683C91.6193 175.971 91.9313 176.199 92.2853 176.367C92.6453 176.535 93.0143 176.619 93.3923 176.619C93.7643 176.619 94.1213 176.559 94.4633 176.439C94.8113 176.325 95.1203 176.163 95.3903 175.953C95.6663 175.743 95.8853 175.491 96.0473 175.197C96.2093 174.903 96.2903 174.582 96.2903 174.234V172.713C95.9963 173.169 95.6183 173.538 95.1563 173.82C94.6943 174.096 94.1573 174.234 93.5453 174.234C92.9093 174.234 92.3093 174.111 91.7453 173.865C91.1813 173.619 90.6863 173.28 90.2603 172.848C89.8343 172.41 89.5013 171.906 89.2613 171.336C89.0213 170.766 88.9013 170.154 88.9013 169.5C88.9013 168.846 89.0213 168.234 89.2613 167.664C89.5013 167.088 89.8343 166.584 90.2603 166.152C90.6863 165.714 91.1813 165.372 91.7453 165.126C92.3093 164.88 92.9093 164.757 93.5453 164.757C94.1573 164.757 94.6943 164.898 95.1563 165.18C95.6183 165.456 95.9963 165.825 96.2903 166.287V165ZM93.5633 172.425C94.0853 172.425 94.5413 172.293 94.9313 172.029C95.3213 171.759 95.6243 171.402 95.8403 170.958C96.0563 170.514 96.1643 170.028 96.1643 169.5C96.1643 168.96 96.0533 168.471 95.8313 168.033C95.6153 167.589 95.3123 167.235 94.9223 166.971C94.5323 166.701 94.0793 166.566 93.5633 166.566C93.0593 166.566 92.5973 166.698 92.1773 166.962C91.7633 167.226 91.4333 167.58 91.1873 168.024C90.9413 168.468 90.8183 168.96 90.8183 169.5C90.8183 170.04 90.9413 170.532 91.1873 170.976C91.4393 171.42 91.7723 171.774 92.1863 172.038C92.6063 172.296 93.0653 172.425 93.5633 172.425ZM104.124 174.234C103.296 174.234 102.54 174.021 101.856 173.595C101.178 173.169 100.635 172.599 100.227 171.885C99.825 171.165 99.624 170.37 99.624 169.5C99.624 168.84 99.741 168.225 99.975 167.655C100.209 167.079 100.53 166.575 100.938 166.143C101.352 165.705 101.832 165.363 102.378 165.117C102.924 164.871 103.506 164.748 104.124 164.748C104.814 164.748 105.447 164.892 106.023 165.18C106.599 165.462 107.091 165.855 107.499 166.359C107.907 166.857 108.207 167.433 108.399 168.087C108.591 168.735 108.648 169.425 108.57 170.157H101.631C101.709 170.571 101.859 170.946 102.081 171.282C102.309 171.612 102.597 171.873 102.945 172.065C103.299 172.257 103.692 172.356 104.124 172.362C104.58 172.362 104.994 172.248 105.366 172.02C105.744 171.792 106.053 171.477 106.293 171.075L108.192 171.516C107.832 172.314 107.289 172.968 106.563 173.478C105.837 173.982 105.024 174.234 104.124 174.234ZM101.568 168.726H106.68C106.62 168.294 106.467 167.904 106.221 167.556C105.981 167.202 105.678 166.923 105.312 166.719C104.952 166.509 104.556 166.404 104.124 166.404C103.698 166.404 103.302 166.506 102.936 166.71C102.576 166.914 102.276 167.193 102.036 167.547C101.802 167.895 101.646 168.288 101.568 168.726ZM116.415 178.5H114.543V165H116.415V166.323C116.715 165.861 117.099 165.486 117.567 165.198C118.035 164.91 118.587 164.766 119.223 164.766C119.877 164.766 120.489 164.889 121.059 165.135C121.635 165.381 122.139 165.723 122.571 166.161C123.003 166.593 123.342 167.094 123.588 167.664C123.834 168.234 123.957 168.846 123.957 169.5C123.957 170.154 123.834 170.769 123.588 171.345C123.342 171.921 123.003 172.428 122.571 172.866C122.139 173.298 121.635 173.637 121.059 173.883C120.489 174.129 119.877 174.252 119.223 174.252C118.587 174.252 118.035 174.108 117.567 173.82C117.099 173.526 116.715 173.151 116.415 172.695V178.5ZM119.205 166.575C118.683 166.575 118.224 166.707 117.828 166.971C117.432 167.235 117.123 167.589 116.901 168.033C116.679 168.471 116.568 168.96 116.568 169.5C116.568 170.04 116.679 170.532 116.901 170.976C117.123 171.42 117.432 171.774 117.828 172.038C118.224 172.302 118.683 172.434 119.205 172.434C119.721 172.434 120.195 172.305 120.627 172.047C121.059 171.783 121.404 171.429 121.662 170.985C121.92 170.541 122.049 170.046 122.049 169.5C122.049 168.966 121.92 168.477 121.662 168.033C121.41 167.589 121.068 167.235 120.636 166.971C120.204 166.707 119.727 166.575 119.205 166.575ZM125.424 174V165H127.296V165.954C127.608 165.582 127.992 165.288 128.448 165.072C128.904 164.856 129.396 164.748 129.924 164.748C130.26 164.748 130.593 164.793 130.923 164.883L130.176 166.773C129.942 166.683 129.708 166.638 129.474 166.638C129.078 166.638 128.715 166.737 128.385 166.935C128.055 167.127 127.791 167.388 127.593 167.718C127.395 168.048 127.296 168.414 127.296 168.816V174H125.424ZM135.501 174.234C134.673 174.234 133.917 174.021 133.233 173.595C132.555 173.169 132.012 172.599 131.604 171.885C131.202 171.165 131.001 170.37 131.001 169.5C131.001 168.84 131.118 168.225 131.352 167.655C131.586 167.079 131.907 166.575 132.315 166.143C132.729 165.705 133.209 165.363 133.755 165.117C134.301 164.871 134.883 164.748 135.501 164.748C136.329 164.748 137.082 164.961 137.76 165.387C138.444 165.813 138.987 166.386 139.389 167.106C139.797 167.826 140.001 168.624 140.001 169.5C140.001 170.154 139.884 170.766 139.65 171.336C139.416 171.906 139.092 172.41 138.678 172.848C138.27 173.28 137.793 173.619 137.247 173.865C136.707 174.111 136.125 174.234 135.501 174.234ZM135.501 172.362C135.999 172.362 136.446 172.23 136.842 171.966C137.238 171.702 137.55 171.354 137.778 170.922C138.012 170.484 138.129 170.01 138.129 169.5C138.129 168.978 138.009 168.498 137.769 168.06C137.535 167.622 137.22 167.274 136.824 167.016C136.428 166.752 135.987 166.62 135.501 166.62C135.009 166.62 134.562 166.752 134.16 167.016C133.764 167.28 133.449 167.631 133.215 168.069C132.987 168.507 132.873 168.984 132.873 169.5C132.873 170.034 132.993 170.517 133.233 170.949C133.473 171.381 133.791 171.726 134.187 171.984C134.589 172.236 135.027 172.362 135.501 172.362ZM145.397 174.234C144.569 174.234 143.813 174.021 143.129 173.595C142.451 173.169 141.908 172.599 141.5 171.885C141.098 171.165 140.897 170.37 140.897 169.5C140.897 168.84 141.014 168.225 141.248 167.655C141.482 167.079 141.803 166.575 142.211 166.143C142.625 165.705 143.105 165.363 143.651 165.117C144.197 164.871 144.779 164.748 145.397 164.748C146.225 164.748 146.978 164.961 147.656 165.387C148.34 165.813 148.883 166.386 149.285 167.106C149.693 167.826 149.897 168.624 149.897 169.5C149.897 170.154 149.78 170.766 149.546 171.336C149.312 171.906 148.988 172.41 148.574 172.848C148.166 173.28 147.689 173.619 147.143 173.865C146.603 174.111 146.021 174.234 145.397 174.234ZM145.397 172.362C145.895 172.362 146.342 172.23 146.738 171.966C147.134 171.702 147.446 171.354 147.674 170.922C147.908 170.484 148.025 170.01 148.025 169.5C148.025 168.978 147.905 168.498 147.665 168.06C147.431 167.622 147.116 167.274 146.72 167.016C146.324 166.752 145.883 166.62 145.397 166.62C144.905 166.62 144.458 166.752 144.056 167.016C143.66 167.28 143.345 167.631 143.111 168.069C142.883 168.507 142.769 168.984 142.769 169.5C142.769 170.034 142.889 170.517 143.129 170.949C143.369 171.381 143.687 171.726 144.083 171.984C144.485 172.236 144.923 172.362 145.397 172.362ZM153.823 162.957V165H156.361V166.872H153.823V174H151.951V166.872H150.88V165H151.951V162.957C151.951 162.465 152.071 162.018 152.311 161.616C152.551 161.208 152.872 160.884 153.274 160.644C153.682 160.404 154.135 160.284 154.633 160.284C154.993 160.284 155.344 160.356 155.686 160.5C156.028 160.644 156.334 160.866 156.604 161.166L155.263 162.489C155.197 162.381 155.104 162.3 154.984 162.246C154.87 162.186 154.753 162.156 154.633 162.156C154.411 162.156 154.219 162.234 154.057 162.39C153.901 162.546 153.823 162.735 153.823 162.957ZM166.796 166.26H164.645L164.636 174H163.376L163.385 166.26H161.756V165H163.385L163.376 162.174H164.636L164.645 165H166.796V166.26ZM172.116 174.234C171.288 174.234 170.532 174.021 169.848 173.595C169.17 173.169 168.627 172.599 168.219 171.885C167.817 171.165 167.616 170.37 167.616 169.5C167.616 168.84 167.733 168.225 167.967 167.655C168.201 167.079 168.522 166.575 168.93 166.143C169.344 165.705 169.824 165.363 170.37 165.117C170.916 164.871 171.498 164.748 172.116 164.748C172.782 164.748 173.394 164.88 173.952 165.144C174.516 165.408 174.999 165.777 175.401 166.251C175.809 166.725 176.115 167.28 176.319 167.916C176.529 168.552 176.616 169.239 176.58 169.977H168.948C169.02 170.547 169.2 171.057 169.488 171.507C169.782 171.957 170.154 172.314 170.604 172.578C171.06 172.836 171.564 172.968 172.116 172.974C172.716 172.974 173.256 172.818 173.736 172.506C174.222 172.194 174.612 171.765 174.906 171.219L176.184 171.516C175.824 172.314 175.281 172.968 174.555 173.478C173.829 173.982 173.016 174.234 172.116 174.234ZM168.912 168.96H175.311C175.269 168.402 175.098 167.892 174.798 167.43C174.504 166.962 174.123 166.59 173.655 166.314C173.187 166.032 172.674 165.891 172.116 165.891C171.558 165.891 171.048 166.029 170.586 166.305C170.124 166.575 169.746 166.944 169.452 167.412C169.158 167.874 168.978 168.39 168.912 168.96ZM184.461 171.741L185.586 172.353C185.178 172.923 184.659 173.379 184.029 173.721C183.405 174.063 182.727 174.234 181.995 174.234C181.167 174.234 180.411 174.021 179.727 173.595C179.049 173.169 178.506 172.599 178.098 171.885C177.696 171.165 177.495 170.37 177.495 169.5C177.495 168.84 177.612 168.225 177.846 167.655C178.08 167.079 178.401 166.575 178.809 166.143C179.223 165.705 179.703 165.363 180.249 165.117C180.795 164.871 181.377 164.748 181.995 164.748C182.727 164.748 183.405 164.919 184.029 165.261C184.659 165.603 185.178 166.062 185.586 166.638L184.461 167.241C184.149 166.845 183.774 166.542 183.336 166.332C182.898 166.116 182.451 166.008 181.995 166.008C181.389 166.008 180.84 166.17 180.348 166.494C179.856 166.812 179.466 167.235 179.178 167.763C178.896 168.291 178.755 168.87 178.755 169.5C178.755 170.13 178.899 170.709 179.187 171.237C179.481 171.765 179.874 172.188 180.366 172.506C180.858 172.818 181.401 172.974 181.995 172.974C182.487 172.974 182.949 172.86 183.381 172.632C183.813 172.404 184.173 172.107 184.461 171.741ZM194.936 168.429V174H193.676V168.681C193.676 168.189 193.556 167.742 193.316 167.34C193.076 166.938 192.755 166.617 192.353 166.377C191.951 166.137 191.504 166.017 191.012 166.017C190.526 166.017 190.079 166.137 189.671 166.377C189.269 166.617 188.948 166.938 188.708 167.34C188.468 167.742 188.348 168.189 188.348 168.681V174H187.088V160.5H188.348V166.242C188.666 165.786 189.08 165.423 189.59 165.153C190.1 164.883 190.655 164.748 191.255 164.748C191.933 164.748 192.551 164.913 193.109 165.243C193.667 165.573 194.111 166.017 194.441 166.575C194.771 167.133 194.936 167.751 194.936 168.429ZM204.586 168.429V174H203.326V168.681C203.326 168.189 203.206 167.742 202.966 167.34C202.726 166.938 202.405 166.617 202.003 166.377C201.601 166.137 201.154 166.017 200.662 166.017C200.176 166.017 199.729 166.137 199.321 166.377C198.919 166.617 198.598 166.938 198.358 167.34C198.118 167.742 197.998 168.189 197.998 168.681V174H196.738V165H197.998V166.242C198.316 165.786 198.73 165.423 199.24 165.153C199.75 164.883 200.305 164.748 200.905 164.748C201.583 164.748 202.201 164.913 202.759 165.243C203.317 165.573 203.761 166.017 204.091 166.575C204.421 167.133 204.586 167.751 204.586 168.429ZM210.173 174.234C209.345 174.234 208.589 174.021 207.905 173.595C207.227 173.169 206.684 172.599 206.276 171.885C205.874 171.165 205.673 170.37 205.673 169.5C205.673 168.84 205.79 168.225 206.024 167.655C206.258 167.079 206.579 166.575 206.987 166.143C207.401 165.705 207.881 165.363 208.427 165.117C208.973 164.871 209.555 164.748 210.173 164.748C211.001 164.748 211.754 164.961 212.432 165.387C213.116 165.813 213.659 166.386 214.061 167.106C214.469 167.826 214.673 168.624 214.673 169.5C214.673 170.154 214.556 170.766 214.322 171.336C214.088 171.906 213.764 172.41 213.35 172.848C212.942 173.28 212.465 173.619 211.919 173.865C211.379 174.111 210.797 174.234 210.173 174.234ZM210.173 172.974C210.785 172.974 211.334 172.815 211.82 172.497C212.312 172.173 212.699 171.747 212.981 171.219C213.269 170.691 213.413 170.118 213.413 169.5C213.413 168.87 213.269 168.291 212.981 167.763C212.693 167.229 212.303 166.803 211.811 166.485C211.325 166.167 210.779 166.008 210.173 166.008C209.561 166.008 209.009 166.17 208.517 166.494C208.031 166.812 207.644 167.235 207.356 167.763C207.074 168.291 206.933 168.87 206.933 169.5C206.933 170.148 207.08 170.736 207.374 171.264C207.668 171.786 208.061 172.203 208.553 172.515C209.045 172.821 209.585 172.974 210.173 172.974ZM216.127 174V160.5H217.387V174H216.127ZM223.444 174.234C222.616 174.234 221.86 174.021 221.176 173.595C220.498 173.169 219.955 172.599 219.547 171.885C219.145 171.165 218.944 170.37 218.944 169.5C218.944 168.84 219.061 168.225 219.295 167.655C219.529 167.079 219.85 166.575 220.258 166.143C220.672 165.705 221.152 165.363 221.698 165.117C222.244 164.871 222.826 164.748 223.444 164.748C224.272 164.748 225.025 164.961 225.703 165.387C226.387 165.813 226.93 166.386 227.332 167.106C227.74 167.826 227.944 168.624 227.944 169.5C227.944 170.154 227.827 170.766 227.593 171.336C227.359 171.906 227.035 172.41 226.621 172.848C226.213 173.28 225.736 173.619 225.19 173.865C224.65 174.111 224.068 174.234 223.444 174.234ZM223.444 172.974C224.056 172.974 224.605 172.815 225.091 172.497C225.583 172.173 225.97 171.747 226.252 171.219C226.54 170.691 226.684 170.118 226.684 169.5C226.684 168.87 226.54 168.291 226.252 167.763C225.964 167.229 225.574 166.803 225.082 166.485C224.596 166.167 224.05 166.008 223.444 166.008C222.832 166.008 222.28 166.17 221.788 166.494C221.302 166.812 220.915 167.235 220.627 167.763C220.345 168.291 220.204 168.87 220.204 169.5C220.204 170.148 220.351 170.736 220.645 171.264C220.939 171.786 221.332 172.203 221.824 172.515C222.316 172.821 222.856 172.974 223.444 172.974ZM236.536 165H237.796V174.333C237.796 174.909 237.67 175.449 237.418 175.953C237.172 176.457 236.836 176.898 236.41 177.276C235.99 177.66 235.51 177.96 234.97 178.176C234.43 178.392 233.869 178.5 233.287 178.5C232.663 178.5 232.06 178.356 231.478 178.068C230.896 177.786 230.389 177.408 229.957 176.934C229.531 176.46 229.228 175.935 229.048 175.359L230.209 174.828C230.323 175.278 230.536 175.683 230.848 176.043C231.166 176.409 231.538 176.697 231.964 176.907C232.396 177.123 232.837 177.231 233.287 177.231C233.701 177.231 234.1 177.153 234.484 176.997C234.874 176.847 235.222 176.64 235.528 176.376C235.84 176.112 236.086 175.803 236.266 175.449C236.446 175.101 236.536 174.729 236.536 174.333V172.344C236.224 172.908 235.801 173.364 235.267 173.712C234.739 174.06 234.124 174.234 233.422 174.234C232.792 174.234 232.198 174.111 231.64 173.865C231.088 173.619 230.602 173.28 230.182 172.848C229.762 172.41 229.432 171.906 229.192 171.336C228.958 170.766 228.841 170.154 228.841 169.5C228.841 168.846 228.958 168.234 229.192 167.664C229.432 167.088 229.762 166.584 230.182 166.152C230.602 165.714 231.088 165.372 231.64 165.126C232.198 164.88 232.792 164.757 233.422 164.757C234.124 164.757 234.739 164.931 235.267 165.279C235.801 165.621 236.224 166.077 236.536 166.647V165ZM233.431 173.01C234.055 173.01 234.592 172.848 235.042 172.524C235.498 172.2 235.849 171.771 236.095 171.237C236.341 170.703 236.464 170.124 236.464 169.5C236.464 168.858 236.338 168.273 236.086 167.745C235.84 167.211 235.489 166.785 235.033 166.467C234.577 166.143 234.043 165.981 233.431 165.981C232.819 165.981 232.261 166.14 231.757 166.458C231.259 166.77 230.863 167.193 230.569 167.727C230.275 168.261 230.128 168.852 230.128 169.5C230.128 170.148 230.278 170.739 230.578 171.273C230.878 171.801 231.277 172.224 231.775 172.542C232.279 172.854 232.831 173.01 233.431 173.01ZM245.53 165H246.862L241.939 178.5H240.598L242.236 174L239.005 165H240.382L242.866 172.263L245.53 165ZM248.382 174.234C248.184 174.234 248.016 174.162 247.878 174.018C247.74 173.88 247.671 173.709 247.671 173.505C247.671 173.313 247.74 173.148 247.878 173.01C248.016 172.866 248.184 172.794 248.382 172.794C248.586 172.794 248.757 172.866 248.895 173.01C249.039 173.148 249.111 173.313 249.111 173.505C249.111 173.709 249.039 173.88 248.895 174.018C248.757 174.162 248.586 174.234 248.382 174.234Z" fill="white"/>
</svg>
