<svg width="449" height="224" viewBox="0 0 449 224" fill="none" xmlns="http://www.w3.org/2000/svg">
<path d="M429.641 74.6723H393.535C382.845 74.6723 374.175 66.0218 374.175 55.3567V19.3156C374.175 8.65054 365.505 0 354.816 0H19.3595C8.67019 0 0 8.65054 0 19.3156V55.3567C0 66.0218 8.67019 74.6723 19.3595 74.6723H55.4654C66.1716 74.6723 74.8249 83.3229 74.8249 93.9879V130.012C74.8249 140.694 66.1716 149.328 55.4654 149.328H19.3595C8.67019 149.328 0 157.978 0 168.643V204.684C0 215.349 8.67019 224 19.3595 224H354.816C365.505 224 374.175 215.349 374.175 204.684V168.643C374.175 157.978 382.845 149.328 393.535 149.328H429.641C440.33 149.328 449 140.677 449 130.012V93.9879C449 83.3059 440.33 74.6723 429.641 74.6723Z" fill="#EA789C"/>
<path d="M104.904 60.416C103.677 60.416 102.499 60.224 101.368 59.84C100.237 59.456 99.2507 58.9067 98.408 58.192C97.5653 57.4667 96.9627 56.608 96.6 55.616L99.72 54.448C99.9013 54.96 100.248 55.4187 100.76 55.824C101.283 56.2187 101.901 56.528 102.616 56.752C103.341 56.976 104.104 57.088 104.904 57.088C105.757 57.088 106.557 56.9493 107.304 56.672C108.061 56.3947 108.669 56.0107 109.128 55.52C109.597 55.0293 109.832 54.4533 109.832 53.792C109.832 53.1093 109.587 52.5493 109.096 52.112C108.616 51.6747 107.997 51.328 107.24 51.072C106.493 50.816 105.715 50.624 104.904 50.496C103.336 50.24 101.928 49.8667 100.68 49.376C99.4427 48.8853 98.4613 48.1973 97.736 47.312C97.0213 46.4267 96.664 45.2747 96.664 43.856C96.664 42.5227 97.0427 41.36 97.8 40.368C98.568 39.376 99.576 38.608 100.824 38.064C102.083 37.5093 103.443 37.232 104.904 37.232C106.109 37.232 107.272 37.424 108.392 37.808C109.523 38.1813 110.515 38.7307 111.368 39.456C112.232 40.1707 112.851 41.04 113.224 42.064L110.072 43.2C109.891 42.6773 109.544 42.224 109.032 41.84C108.52 41.4453 107.901 41.136 107.176 40.912C106.461 40.688 105.704 40.576 104.904 40.576C104.051 40.5653 103.251 40.704 102.504 40.992C101.768 41.2693 101.165 41.6533 100.696 42.144C100.227 42.6347 99.992 43.2053 99.992 43.856C99.992 44.656 100.211 45.264 100.648 45.68C101.085 46.096 101.672 46.4053 102.408 46.608C103.155 46.8 103.987 46.976 104.904 47.136C106.376 47.3707 107.736 47.76 108.984 48.304C110.243 48.848 111.251 49.5733 112.008 50.48C112.776 51.376 113.16 52.48 113.16 53.792C113.16 55.1147 112.776 56.2773 112.008 57.28C111.251 58.272 110.243 59.0453 108.984 59.6C107.736 60.144 106.376 60.416 104.904 60.416ZM123.366 60.416C121.894 60.416 120.55 60.0373 119.334 59.28C118.129 58.5227 117.164 57.5093 116.438 56.24C115.724 54.96 115.366 53.5467 115.366 52C115.366 50.8267 115.574 49.7333 115.99 48.72C116.406 47.696 116.977 46.8 117.702 46.032C118.438 45.2533 119.292 44.6453 120.262 44.208C121.233 43.7707 122.268 43.552 123.366 43.552C124.593 43.552 125.718 43.808 126.742 44.32C127.766 44.8213 128.641 45.52 129.366 46.416C130.092 47.3013 130.625 48.3253 130.966 49.488C131.308 50.64 131.409 51.8667 131.27 53.168H118.934C119.073 53.904 119.34 54.5707 119.734 55.168C120.14 55.7547 120.652 56.2187 121.27 56.56C121.9 56.9013 122.598 57.0773 123.366 57.088C124.177 57.088 124.913 56.8853 125.574 56.48C126.246 56.0747 126.796 55.5147 127.222 54.8L130.598 55.584C129.958 57.0027 128.993 58.1653 127.702 59.072C126.412 59.968 124.966 60.416 123.366 60.416ZM118.822 50.624H127.91C127.804 49.856 127.532 49.1627 127.094 48.544C126.668 47.9147 126.129 47.4187 125.478 47.056C124.838 46.6827 124.134 46.496 123.366 46.496C122.609 46.496 121.905 46.6773 121.254 47.04C120.614 47.4027 120.081 47.8987 119.654 48.528C119.238 49.1467 118.961 49.8453 118.822 50.624ZM144.337 55.456L147.313 57.072C146.587 58.0853 145.665 58.896 144.545 59.504C143.435 60.112 142.23 60.416 140.929 60.416C139.457 60.416 138.113 60.0373 136.897 59.28C135.691 58.5227 134.726 57.5093 134.001 56.24C133.286 54.96 132.929 53.5467 132.929 52C132.929 50.8267 133.137 49.7333 133.553 48.72C133.969 47.696 134.539 46.8 135.265 46.032C136.001 45.2533 136.854 44.6453 137.825 44.208C138.795 43.7707 139.83 43.552 140.929 43.552C142.23 43.552 143.435 43.856 144.545 44.464C145.665 45.072 146.587 45.888 147.313 46.912L144.337 48.528C143.889 47.9947 143.366 47.5893 142.769 47.312C142.171 47.024 141.558 46.88 140.929 46.88C140.054 46.88 139.259 47.12 138.545 47.6C137.841 48.0693 137.281 48.6933 136.865 49.472C136.459 50.24 136.257 51.0827 136.257 52C136.257 52.9067 136.465 53.7493 136.881 54.528C137.297 55.296 137.857 55.9147 138.561 56.384C139.275 56.8533 140.065 57.088 140.929 57.088C141.59 57.088 142.219 56.9387 142.817 56.64C143.414 56.3413 143.921 55.9467 144.337 55.456ZM149.28 54V44H152.608V53.184C152.608 53.8987 152.784 54.5493 153.136 55.136C153.488 55.7227 153.957 56.192 154.544 56.544C155.131 56.8853 155.776 57.056 156.48 57.056C157.195 57.056 157.84 56.8853 158.416 56.544C159.003 56.192 159.467 55.7227 159.808 55.136C160.16 54.5493 160.336 53.8987 160.336 53.184V44H163.664L163.68 60H160.352L160.336 58.272C159.792 58.9333 159.115 59.456 158.304 59.84C157.493 60.224 156.624 60.416 155.696 60.416C154.512 60.416 153.435 60.128 152.464 59.552C151.493 58.976 150.72 58.2027 150.144 57.232C149.568 56.2613 149.28 55.184 149.28 54ZM166.889 60V44H170.217V45.696C170.771 45.0347 171.454 44.512 172.265 44.128C173.075 43.744 173.95 43.552 174.889 43.552C175.486 43.552 176.078 43.632 176.665 43.792L175.337 47.152C174.921 46.992 174.505 46.912 174.089 46.912C173.385 46.912 172.739 47.088 172.153 47.44C171.566 47.7813 171.097 48.2453 170.745 48.832C170.393 49.4187 170.217 50.0693 170.217 50.784V60H166.889ZM184.804 60.416C183.332 60.416 181.988 60.0373 180.772 59.28C179.566 58.5227 178.601 57.5093 177.876 56.24C177.161 54.96 176.804 53.5467 176.804 52C176.804 50.8267 177.012 49.7333 177.428 48.72C177.844 47.696 178.414 46.8 179.14 46.032C179.876 45.2533 180.729 44.6453 181.7 44.208C182.67 43.7707 183.705 43.552 184.804 43.552C186.03 43.552 187.156 43.808 188.18 44.32C189.204 44.8213 190.078 45.52 190.804 46.416C191.529 47.3013 192.062 48.3253 192.404 49.488C192.745 50.64 192.846 51.8667 192.708 53.168H180.372C180.51 53.904 180.777 54.5707 181.172 55.168C181.577 55.7547 182.089 56.2187 182.708 56.56C183.337 56.9013 184.036 57.0773 184.804 57.088C185.614 57.088 186.35 56.8853 187.012 56.48C187.684 56.0747 188.233 55.5147 188.66 54.8L192.036 55.584C191.396 57.0027 190.43 58.1653 189.14 59.072C187.849 59.968 186.404 60.416 184.804 60.416ZM180.26 50.624H189.348C189.241 49.856 188.969 49.1627 188.532 48.544C188.105 47.9147 187.566 47.4187 186.916 47.056C186.276 46.6827 185.572 46.496 184.804 46.496C184.046 46.496 183.342 46.6773 182.692 47.04C182.052 47.4027 181.518 47.8987 181.092 48.528C180.676 49.1467 180.398 49.8453 180.26 50.624ZM96.92 98V75.6H110.824V78.928H100.248V84.336H108.76V87.664H100.248V94.672H110.824V98H96.92ZM128.758 87.968V98H125.43V88.784C125.43 88.0693 125.254 87.4187 124.902 86.832C124.56 86.2453 124.096 85.7813 123.51 85.44C122.934 85.088 122.283 84.912 121.558 84.912C120.854 84.912 120.208 85.088 119.622 85.44C119.035 85.7813 118.566 86.2453 118.214 86.832C117.862 87.4187 117.686 88.0693 117.686 88.784V98H114.358V82H117.686V83.696C118.24 83.0347 118.923 82.512 119.734 82.128C120.544 81.744 121.419 81.552 122.358 81.552C123.542 81.552 124.619 81.84 125.59 82.416C126.56 82.992 127.328 83.7653 127.894 84.736C128.47 85.7067 128.758 86.784 128.758 87.968ZM140.51 98H136.238L130.398 81.968H133.95L138.366 94.16L142.798 81.968H146.333L140.51 98ZM148.795 82H152.123V98H148.795V82ZM150.491 79.68C149.979 79.68 149.552 79.5147 149.211 79.184C148.87 78.8533 148.699 78.4373 148.699 77.936C148.699 77.4453 148.87 77.0347 149.211 76.704C149.552 76.3627 149.974 76.192 150.475 76.192C150.966 76.192 151.382 76.3627 151.723 76.704C152.064 77.0347 152.235 77.4453 152.235 77.936C152.235 78.4373 152.064 78.8533 151.723 79.184C151.392 79.5147 150.982 79.68 150.491 79.68ZM155.826 98V82H159.154V83.696C159.709 83.0347 160.392 82.512 161.202 82.128C162.013 81.744 162.888 81.552 163.826 81.552C164.424 81.552 165.016 81.632 165.602 81.792L164.274 85.152C163.858 84.992 163.442 84.912 163.026 84.912C162.322 84.912 161.677 85.088 161.09 85.44C160.504 85.7813 160.034 86.2453 159.682 86.832C159.33 87.4187 159.154 88.0693 159.154 88.784V98H155.826ZM173.741 98.416C172.269 98.416 170.925 98.0373 169.709 97.28C168.504 96.5227 167.539 95.5093 166.813 94.24C166.099 92.96 165.741 91.5467 165.741 90C165.741 88.8267 165.949 87.7333 166.365 86.72C166.781 85.696 167.352 84.8 168.077 84.032C168.813 83.2533 169.667 82.6453 170.637 82.208C171.608 81.7707 172.643 81.552 173.741 81.552C175.213 81.552 176.552 81.9307 177.757 82.688C178.973 83.4453 179.939 84.464 180.653 85.744C181.379 87.024 181.741 88.4427 181.741 90C181.741 91.1627 181.533 92.2507 181.117 93.264C180.701 94.2773 180.125 95.1733 179.389 95.952C178.664 96.72 177.816 97.3227 176.845 97.76C175.885 98.1973 174.851 98.416 173.741 98.416ZM173.741 95.088C174.627 95.088 175.421 94.8533 176.125 94.384C176.829 93.9147 177.384 93.296 177.789 92.528C178.205 91.7493 178.413 90.9067 178.413 90C178.413 89.072 178.2 88.2187 177.773 87.44C177.357 86.6613 176.797 86.0427 176.093 85.584C175.389 85.1147 174.605 84.88 173.741 84.88C172.867 84.88 172.072 85.1147 171.357 85.584C170.653 86.0533 170.093 86.6773 169.677 87.456C169.272 88.2347 169.069 89.0827 169.069 90C169.069 90.9493 169.283 91.808 169.709 92.576C170.136 93.344 170.701 93.9573 171.405 94.416C172.12 94.864 172.899 95.088 173.741 95.088ZM198.726 87.968V98H195.398V88.784C195.398 88.0693 195.222 87.4187 194.87 86.832C194.529 86.2453 194.065 85.7813 193.478 85.44C192.902 85.088 192.252 84.912 191.526 84.912C190.822 84.912 190.177 85.088 189.59 85.44C189.004 85.7813 188.534 86.2453 188.182 86.832C187.83 87.4187 187.654 88.0693 187.654 88.784V98H184.326V82H187.654V83.696C188.209 83.0347 188.892 82.512 189.702 82.128C190.513 81.744 191.388 81.552 192.326 81.552C193.51 81.552 194.588 81.84 195.558 82.416C196.529 82.992 197.297 83.7653 197.862 84.736C198.438 85.7067 198.726 86.784 198.726 87.968ZM201.92 98V82H205.248V83.696C205.803 83.0347 206.48 82.512 207.28 82.128C208.091 81.744 208.965 81.552 209.904 81.552C211.045 81.552 212.096 81.8293 213.056 82.384C214.016 82.928 214.779 83.6533 215.344 84.56C215.909 83.6533 216.661 82.928 217.6 82.384C218.549 81.8293 219.595 81.552 220.736 81.552C221.92 81.552 222.997 81.84 223.968 82.416C224.939 82.992 225.712 83.7653 226.288 84.736C226.864 85.7067 227.152 86.784 227.152 87.968V98H223.824V88.816C223.824 88.112 223.653 87.4667 223.312 86.88C222.971 86.2933 222.512 85.8187 221.936 85.456C221.36 85.0933 220.72 84.912 220.016 84.912C219.312 84.912 218.672 85.0827 218.096 85.424C217.52 85.7653 217.061 86.2293 216.72 86.816C216.379 87.4027 216.208 88.0693 216.208 88.816V98H212.88V88.816C212.88 88.0693 212.709 87.4027 212.368 86.816C212.027 86.2293 211.563 85.7653 210.976 85.424C210.4 85.0827 209.76 84.912 209.056 84.912C208.363 84.912 207.723 85.0933 207.136 85.456C206.56 85.8187 206.101 86.2933 205.76 86.88C205.419 87.4667 205.248 88.112 205.248 88.816V98H201.92ZM237.085 98.416C235.613 98.416 234.269 98.0373 233.053 97.28C231.848 96.5227 230.882 95.5093 230.157 94.24C229.442 92.96 229.085 91.5467 229.085 90C229.085 88.8267 229.293 87.7333 229.709 86.72C230.125 85.696 230.696 84.8 231.421 84.032C232.157 83.2533 233.01 82.6453 233.981 82.208C234.952 81.7707 235.986 81.552 237.085 81.552C238.312 81.552 239.437 81.808 240.461 82.32C241.485 82.8213 242.36 83.52 243.085 84.416C243.81 85.3013 244.344 86.3253 244.685 87.488C245.026 88.64 245.128 89.8667 244.989 91.168H232.653C232.792 91.904 233.058 92.5707 233.453 93.168C233.858 93.7547 234.37 94.2187 234.989 94.56C235.618 94.9013 236.317 95.0773 237.085 95.088C237.896 95.088 238.632 94.8853 239.293 94.48C239.965 94.0747 240.514 93.5147 240.941 92.8L244.317 93.584C243.677 95.0027 242.712 96.1653 241.421 97.072C240.13 97.968 238.685 98.416 237.085 98.416ZM232.541 88.624H241.629C241.522 87.856 241.25 87.1627 240.813 86.544C240.386 85.9147 239.848 85.4187 239.197 85.056C238.557 84.6827 237.853 84.496 237.085 84.496C236.328 84.496 235.624 84.6773 234.973 85.04C234.333 85.4027 233.8 85.8987 233.373 86.528C232.957 87.1467 232.68 87.8453 232.541 88.624ZM262.039 87.968V98H258.711V88.784C258.711 88.0693 258.535 87.4187 258.183 86.832C257.841 86.2453 257.377 85.7813 256.791 85.44C256.215 85.088 255.564 84.912 254.839 84.912C254.135 84.912 253.489 85.088 252.903 85.44C252.316 85.7813 251.847 86.2453 251.495 86.832C251.143 87.4187 250.967 88.0693 250.967 88.784V98H247.639V82H250.967V83.696C251.521 83.0347 252.204 82.512 253.015 82.128C253.825 81.744 254.7 81.552 255.639 81.552C256.823 81.552 257.9 81.84 258.871 82.416C259.841 82.992 260.609 83.7653 261.175 84.736C261.751 85.7067 262.039 86.784 262.039 87.968ZM273.681 85.328H270.321L270.305 98H266.977L266.993 85.328H264.449V82H266.993L266.977 76.976H270.305L270.321 82H273.681V85.328Z" fill="white"/>
<path d="M107.611 128.4V129.66H103.291V141H102.031V129.66H97.72V128.4H107.611ZM107.889 141V132H109.149V133.242C109.467 132.786 109.881 132.423 110.391 132.153C110.901 131.883 111.456 131.748 112.056 131.748C112.404 131.748 112.74 131.793 113.064 131.883L112.551 133.134C112.299 133.056 112.053 133.017 111.813 133.017C111.327 133.017 110.88 133.137 110.472 133.377C110.07 133.617 109.749 133.938 109.509 134.34C109.269 134.742 109.149 135.189 109.149 135.681V141H107.889ZM121.123 132H122.383V141H121.123L121.078 139.326C120.784 139.896 120.373 140.358 119.845 140.712C119.317 141.06 118.687 141.234 117.955 141.234C117.295 141.234 116.677 141.111 116.101 140.865C115.525 140.613 115.018 140.268 114.58 139.83C114.142 139.392 113.8 138.885 113.554 138.309C113.308 137.733 113.185 137.115 113.185 136.455C113.185 135.807 113.305 135.198 113.545 134.628C113.791 134.058 114.127 133.557 114.553 133.125C114.985 132.693 115.483 132.357 116.047 132.117C116.617 131.871 117.226 131.748 117.874 131.748C118.624 131.748 119.278 131.928 119.836 132.288C120.394 132.642 120.838 133.107 121.168 133.683L121.123 132ZM117.928 140.01C118.57 140.01 119.122 139.854 119.584 139.542C120.046 139.224 120.4 138.798 120.646 138.264C120.898 137.73 121.024 137.142 121.024 136.5C121.024 135.84 120.898 135.246 120.646 134.718C120.394 134.184 120.037 133.761 119.575 133.449C119.113 133.137 118.564 132.981 117.928 132.981C117.292 132.981 116.71 133.14 116.182 133.458C115.66 133.77 115.243 134.193 114.931 134.727C114.625 135.261 114.472 135.852 114.472 136.5C114.472 137.154 114.631 137.748 114.949 138.282C115.267 138.81 115.687 139.23 116.209 139.542C116.737 139.854 117.31 140.01 117.928 140.01ZM131.415 127.5H132.675V141H131.415V139.317C131.103 139.893 130.674 140.358 130.128 140.712C129.588 141.06 128.946 141.234 128.202 141.234C127.548 141.234 126.936 141.111 126.366 140.865C125.796 140.619 125.292 140.28 124.854 139.848C124.422 139.41 124.083 138.906 123.837 138.336C123.591 137.766 123.468 137.154 123.468 136.5C123.468 135.846 123.591 135.234 123.837 134.664C124.083 134.088 124.422 133.584 124.854 133.152C125.292 132.714 125.796 132.372 126.366 132.126C126.936 131.88 127.548 131.757 128.202 131.757C128.946 131.757 129.588 131.934 130.128 132.288C130.674 132.636 131.103 133.095 131.415 133.665V127.5ZM128.211 140.01C128.853 140.01 129.405 139.854 129.867 139.542C130.329 139.224 130.683 138.798 130.929 138.264C131.181 137.73 131.307 137.142 131.307 136.5C131.307 135.84 131.181 135.246 130.929 134.718C130.677 134.184 130.32 133.761 129.858 133.449C129.396 133.137 128.847 132.981 128.211 132.981C127.575 132.981 126.996 133.14 126.474 133.458C125.952 133.77 125.535 134.193 125.223 134.727C124.911 135.261 124.755 135.852 124.755 136.5C124.755 137.154 124.914 137.748 125.232 138.282C125.55 138.81 125.97 139.23 126.492 139.542C127.02 139.854 127.593 140.01 128.211 140.01ZM138.726 141.234C137.898 141.234 137.142 141.021 136.458 140.595C135.78 140.169 135.237 139.599 134.829 138.885C134.427 138.165 134.226 137.37 134.226 136.5C134.226 135.84 134.343 135.225 134.577 134.655C134.811 134.079 135.132 133.575 135.54 133.143C135.954 132.705 136.434 132.363 136.98 132.117C137.526 131.871 138.108 131.748 138.726 131.748C139.392 131.748 140.004 131.88 140.562 132.144C141.126 132.408 141.609 132.777 142.011 133.251C142.419 133.725 142.725 134.28 142.929 134.916C143.139 135.552 143.226 136.239 143.19 136.977H135.558C135.63 137.547 135.81 138.057 136.098 138.507C136.392 138.957 136.764 139.314 137.214 139.578C137.67 139.836 138.174 139.968 138.726 139.974C139.326 139.974 139.866 139.818 140.346 139.506C140.832 139.194 141.222 138.765 141.516 138.219L142.794 138.516C142.434 139.314 141.891 139.968 141.165 140.478C140.439 140.982 139.626 141.234 138.726 141.234ZM135.522 135.96H141.921C141.879 135.402 141.708 134.892 141.408 134.43C141.114 133.962 140.733 133.59 140.265 133.314C139.797 133.032 139.284 132.891 138.726 132.891C138.168 132.891 137.658 133.029 137.196 133.305C136.734 133.575 136.356 133.944 136.062 134.412C135.768 134.874 135.588 135.39 135.522 135.96ZM152.915 141H151.619L148.604 132H149.837L152.285 139.254L154.715 132H156.047L158.477 139.254L160.907 132H162.149L159.134 141H157.829L155.363 133.674L152.915 141ZM163.646 132H164.906V141H163.646V132ZM164.285 130.425C164.081 130.425 163.907 130.359 163.763 130.227C163.625 130.089 163.556 129.918 163.556 129.714C163.556 129.51 163.625 129.342 163.763 129.21C163.907 129.072 164.081 129.003 164.285 129.003C164.483 129.003 164.651 129.072 164.789 129.21C164.933 129.342 165.005 129.51 165.005 129.714C165.005 129.918 164.936 130.089 164.798 130.227C164.66 130.359 164.489 130.425 164.285 130.425ZM171.673 133.26H169.522L169.513 141H168.253L168.262 133.26H166.633V132H168.262L168.253 129.174H169.513L169.522 132H171.673V133.26ZM181.127 135.429V141H179.867V135.681C179.867 135.189 179.747 134.742 179.507 134.34C179.267 133.938 178.946 133.617 178.544 133.377C178.142 133.137 177.695 133.017 177.203 133.017C176.717 133.017 176.27 133.137 175.862 133.377C175.46 133.617 175.139 133.938 174.899 134.34C174.659 134.742 174.539 135.189 174.539 135.681V141H173.279V127.5H174.539V133.242C174.857 132.786 175.271 132.423 175.781 132.153C176.291 131.883 176.846 131.748 177.446 131.748C178.124 131.748 178.742 131.913 179.3 132.243C179.858 132.573 180.302 133.017 180.632 133.575C180.962 134.133 181.127 134.751 181.127 135.429ZM193.68 138.741L194.805 139.353C194.397 139.923 193.878 140.379 193.248 140.721C192.624 141.063 191.946 141.234 191.214 141.234C190.386 141.234 189.63 141.021 188.946 140.595C188.268 140.169 187.725 139.599 187.317 138.885C186.915 138.165 186.714 137.37 186.714 136.5C186.714 135.84 186.831 135.225 187.065 134.655C187.299 134.079 187.62 133.575 188.028 133.143C188.442 132.705 188.922 132.363 189.468 132.117C190.014 131.871 190.596 131.748 191.214 131.748C191.946 131.748 192.624 131.919 193.248 132.261C193.878 132.603 194.397 133.062 194.805 133.638L193.68 134.241C193.368 133.845 192.993 133.542 192.555 133.332C192.117 133.116 191.67 133.008 191.214 133.008C190.608 133.008 190.059 133.17 189.567 133.494C189.075 133.812 188.685 134.235 188.397 134.763C188.115 135.291 187.974 135.87 187.974 136.5C187.974 137.13 188.118 137.709 188.406 138.237C188.7 138.765 189.093 139.188 189.585 139.506C190.077 139.818 190.62 139.974 191.214 139.974C191.706 139.974 192.168 139.86 192.6 139.632C193.032 139.404 193.392 139.107 193.68 138.741ZM200.267 141.234C199.439 141.234 198.683 141.021 197.999 140.595C197.321 140.169 196.778 139.599 196.37 138.885C195.968 138.165 195.767 137.37 195.767 136.5C195.767 135.84 195.884 135.225 196.118 134.655C196.352 134.079 196.673 133.575 197.081 133.143C197.495 132.705 197.975 132.363 198.521 132.117C199.067 131.871 199.649 131.748 200.267 131.748C201.095 131.748 201.848 131.961 202.526 132.387C203.21 132.813 203.753 133.386 204.155 134.106C204.563 134.826 204.767 135.624 204.767 136.5C204.767 137.154 204.65 137.766 204.416 138.336C204.182 138.906 203.858 139.41 203.444 139.848C203.036 140.28 202.559 140.619 202.013 140.865C201.473 141.111 200.891 141.234 200.267 141.234ZM200.267 139.974C200.879 139.974 201.428 139.815 201.914 139.497C202.406 139.173 202.793 138.747 203.075 138.219C203.363 137.691 203.507 137.118 203.507 136.5C203.507 135.87 203.363 135.291 203.075 134.763C202.787 134.229 202.397 133.803 201.905 133.485C201.419 133.167 200.873 133.008 200.267 133.008C199.655 133.008 199.103 133.17 198.611 133.494C198.125 133.812 197.738 134.235 197.45 134.763C197.168 135.291 197.027 135.87 197.027 136.5C197.027 137.148 197.174 137.736 197.468 138.264C197.762 138.786 198.155 139.203 198.647 139.515C199.139 139.821 199.679 139.974 200.267 139.974ZM214.139 135.429V141H212.879V135.681C212.879 135.189 212.759 134.742 212.519 134.34C212.279 133.938 211.958 133.617 211.556 133.377C211.154 133.137 210.707 133.017 210.215 133.017C209.729 133.017 209.282 133.137 208.874 133.377C208.472 133.617 208.151 133.938 207.911 134.34C207.671 134.742 207.551 135.189 207.551 135.681V141H206.291V132H207.551V133.242C207.869 132.786 208.283 132.423 208.793 132.153C209.303 131.883 209.858 131.748 210.458 131.748C211.136 131.748 211.754 131.913 212.312 132.243C212.87 132.573 213.314 133.017 213.644 133.575C213.974 134.133 214.139 134.751 214.139 135.429ZM217.804 129.651V132H220.504V133.26H217.804V141H216.544V133.26H215.311V132H216.544V129.651C216.544 129.213 216.649 128.817 216.859 128.463C217.075 128.103 217.363 127.818 217.723 127.608C218.083 127.392 218.482 127.284 218.92 127.284C219.238 127.284 219.544 127.347 219.838 127.473C220.138 127.599 220.405 127.785 220.639 128.031L219.739 128.922C219.643 128.802 219.52 128.709 219.37 128.643C219.226 128.577 219.076 128.544 218.92 128.544C218.614 128.544 218.35 128.652 218.128 128.868C217.912 129.084 217.804 129.345 217.804 129.651ZM221.883 132H223.143V141H221.883V132ZM222.522 130.425C222.318 130.425 222.144 130.359 222 130.227C221.862 130.089 221.793 129.918 221.793 129.714C221.793 129.51 221.862 129.342 222 129.21C222.144 129.072 222.318 129.003 222.522 129.003C222.72 129.003 222.888 129.072 223.026 129.21C223.17 129.342 223.242 129.51 223.242 129.714C223.242 129.918 223.173 130.089 223.035 130.227C222.897 130.359 222.726 130.425 222.522 130.425ZM232.63 127.5H233.89V141H232.63V139.317C232.318 139.893 231.889 140.358 231.343 140.712C230.803 141.06 230.161 141.234 229.417 141.234C228.763 141.234 228.151 141.111 227.581 140.865C227.011 140.619 226.507 140.28 226.069 139.848C225.637 139.41 225.298 138.906 225.052 138.336C224.806 137.766 224.683 137.154 224.683 136.5C224.683 135.846 224.806 135.234 225.052 134.664C225.298 134.088 225.637 133.584 226.069 133.152C226.507 132.714 227.011 132.372 227.581 132.126C228.151 131.88 228.763 131.757 229.417 131.757C230.161 131.757 230.803 131.934 231.343 132.288C231.889 132.636 232.318 133.095 232.63 133.665V127.5ZM229.426 140.01C230.068 140.01 230.62 139.854 231.082 139.542C231.544 139.224 231.898 138.798 232.144 138.264C232.396 137.73 232.522 137.142 232.522 136.5C232.522 135.84 232.396 135.246 232.144 134.718C231.892 134.184 231.535 133.761 231.073 133.449C230.611 133.137 230.062 132.981 229.426 132.981C228.79 132.981 228.211 133.14 227.689 133.458C227.167 133.77 226.75 134.193 226.438 134.727C226.126 135.261 225.97 135.852 225.97 136.5C225.97 137.154 226.129 137.748 226.447 138.282C226.765 138.81 227.185 139.23 227.707 139.542C228.235 139.854 228.808 140.01 229.426 140.01ZM239.94 141.234C239.112 141.234 238.356 141.021 237.672 140.595C236.994 140.169 236.451 139.599 236.043 138.885C235.641 138.165 235.44 137.37 235.44 136.5C235.44 135.84 235.557 135.225 235.791 134.655C236.025 134.079 236.346 133.575 236.754 133.143C237.168 132.705 237.648 132.363 238.194 132.117C238.74 131.871 239.322 131.748 239.94 131.748C240.606 131.748 241.218 131.88 241.776 132.144C242.34 132.408 242.823 132.777 243.225 133.251C243.633 133.725 243.939 134.28 244.143 134.916C244.353 135.552 244.44 136.239 244.404 136.977H236.772C236.844 137.547 237.024 138.057 237.312 138.507C237.606 138.957 237.978 139.314 238.428 139.578C238.884 139.836 239.388 139.968 239.94 139.974C240.54 139.974 241.08 139.818 241.56 139.506C242.046 139.194 242.436 138.765 242.73 138.219L244.008 138.516C243.648 139.314 243.105 139.968 242.379 140.478C241.653 140.982 240.84 141.234 239.94 141.234ZM236.736 135.96H243.135C243.093 135.402 242.922 134.892 242.622 134.43C242.328 133.962 241.947 133.59 241.479 133.314C241.011 133.032 240.498 132.891 239.94 132.891C239.382 132.891 238.872 133.029 238.41 133.305C237.948 133.575 237.57 133.944 237.276 134.412C236.982 134.874 236.802 135.39 236.736 135.96ZM253.795 135.429V141H252.535V135.681C252.535 135.189 252.415 134.742 252.175 134.34C251.935 133.938 251.614 133.617 251.212 133.377C250.81 133.137 250.363 133.017 249.871 133.017C249.385 133.017 248.938 133.137 248.53 133.377C248.128 133.617 247.807 133.938 247.567 134.34C247.327 134.742 247.207 135.189 247.207 135.681V141H245.947V132H247.207V133.242C247.525 132.786 247.939 132.423 248.449 132.153C248.959 131.883 249.514 131.748 250.114 131.748C250.792 131.748 251.41 131.913 251.968 132.243C252.526 132.573 252.97 133.017 253.3 133.575C253.63 134.133 253.795 134.751 253.795 135.429ZM261.848 138.741L262.973 139.353C262.565 139.923 262.046 140.379 261.416 140.721C260.792 141.063 260.114 141.234 259.382 141.234C258.554 141.234 257.798 141.021 257.114 140.595C256.436 140.169 255.893 139.599 255.485 138.885C255.083 138.165 254.882 137.37 254.882 136.5C254.882 135.84 254.999 135.225 255.233 134.655C255.467 134.079 255.788 133.575 256.196 133.143C256.61 132.705 257.09 132.363 257.636 132.117C258.182 131.871 258.764 131.748 259.382 131.748C260.114 131.748 260.792 131.919 261.416 132.261C262.046 132.603 262.565 133.062 262.973 133.638L261.848 134.241C261.536 133.845 261.161 133.542 260.723 133.332C260.285 133.116 259.838 133.008 259.382 133.008C258.776 133.008 258.227 133.17 257.735 133.494C257.243 133.812 256.853 134.235 256.565 134.763C256.283 135.291 256.142 135.87 256.142 136.5C256.142 137.13 256.286 137.709 256.574 138.237C256.868 138.765 257.261 139.188 257.753 139.506C258.245 139.818 258.788 139.974 259.382 139.974C259.874 139.974 260.336 139.86 260.768 139.632C261.2 139.404 261.56 139.107 261.848 138.741ZM268.435 141.234C267.607 141.234 266.851 141.021 266.167 140.595C265.489 140.169 264.946 139.599 264.538 138.885C264.136 138.165 263.935 137.37 263.935 136.5C263.935 135.84 264.052 135.225 264.286 134.655C264.52 134.079 264.841 133.575 265.249 133.143C265.663 132.705 266.143 132.363 266.689 132.117C267.235 131.871 267.817 131.748 268.435 131.748C269.101 131.748 269.713 131.88 270.271 132.144C270.835 132.408 271.318 132.777 271.72 133.251C272.128 133.725 272.434 134.28 272.638 134.916C272.848 135.552 272.935 136.239 272.899 136.977H265.267C265.339 137.547 265.519 138.057 265.807 138.507C266.101 138.957 266.473 139.314 266.923 139.578C267.379 139.836 267.883 139.968 268.435 139.974C269.035 139.974 269.575 139.818 270.055 139.506C270.541 139.194 270.931 138.765 271.225 138.219L272.503 138.516C272.143 139.314 271.6 139.968 270.874 140.478C270.148 140.982 269.335 141.234 268.435 141.234ZM265.231 135.96H271.63C271.588 135.402 271.417 134.892 271.117 134.43C270.823 133.962 270.442 133.59 269.974 133.314C269.506 133.032 268.993 132.891 268.435 132.891C267.877 132.891 267.367 133.029 266.905 133.305C266.443 133.575 266.065 133.944 265.771 134.412C265.477 134.874 265.297 135.39 265.231 135.96ZM285.882 141H284.433L281.913 136.653L280.113 138.804V141H278.853V127.5H280.113V136.842L284.172 132H285.819L282.768 135.627L285.882 141ZM295.543 135.429V141H294.283V135.681C294.283 135.189 294.163 134.742 293.923 134.34C293.683 133.938 293.362 133.617 292.96 133.377C292.558 133.137 292.111 133.017 291.619 133.017C291.133 133.017 290.686 133.137 290.278 133.377C289.876 133.617 289.555 133.938 289.315 134.34C289.075 134.742 288.955 135.189 288.955 135.681V141H287.695V132H288.955V133.242C289.273 132.786 289.687 132.423 290.197 132.153C290.707 131.883 291.262 131.748 291.862 131.748C292.54 131.748 293.158 131.913 293.716 132.243C294.274 132.573 294.718 133.017 295.048 133.575C295.378 134.133 295.543 134.751 295.543 135.429ZM301.13 141.234C300.302 141.234 299.546 141.021 298.862 140.595C298.184 140.169 297.641 139.599 297.233 138.885C296.831 138.165 296.63 137.37 296.63 136.5C296.63 135.84 296.747 135.225 296.981 134.655C297.215 134.079 297.536 133.575 297.944 133.143C298.358 132.705 298.838 132.363 299.384 132.117C299.93 131.871 300.512 131.748 301.13 131.748C301.958 131.748 302.711 131.961 303.389 132.387C304.073 132.813 304.616 133.386 305.018 134.106C305.426 134.826 305.63 135.624 305.63 136.5C305.63 137.154 305.513 137.766 305.279 138.336C305.045 138.906 304.721 139.41 304.307 139.848C303.899 140.28 303.422 140.619 302.876 140.865C302.336 141.111 301.754 141.234 301.13 141.234ZM301.13 139.974C301.742 139.974 302.291 139.815 302.777 139.497C303.269 139.173 303.656 138.747 303.938 138.219C304.226 137.691 304.37 137.118 304.37 136.5C304.37 135.87 304.226 135.291 303.938 134.763C303.65 134.229 303.26 133.803 302.768 133.485C302.282 133.167 301.736 133.008 301.13 133.008C300.518 133.008 299.966 133.17 299.474 133.494C298.988 133.812 298.601 134.235 298.313 134.763C298.031 135.291 297.89 135.87 297.89 136.5C297.89 137.148 298.037 137.736 298.331 138.264C298.625 138.786 299.018 139.203 299.51 139.515C300.002 139.821 300.542 139.974 301.13 139.974ZM310.539 141H309.243L306.228 132H307.461L309.909 139.254L312.339 132H313.671L316.101 139.254L318.531 132H319.773L316.758 141H315.453L312.987 133.674L310.539 141ZM321.269 132H322.529V141H321.269V132ZM321.908 130.425C321.704 130.425 321.53 130.359 321.386 130.227C321.248 130.089 321.179 129.918 321.179 129.714C321.179 129.51 321.248 129.342 321.386 129.21C321.53 129.072 321.704 129.003 321.908 129.003C322.106 129.003 322.274 129.072 322.412 129.21C322.556 129.342 322.628 129.51 322.628 129.714C322.628 129.918 322.559 130.089 322.421 130.227C322.283 130.359 322.112 130.425 321.908 130.425ZM332.51 135.429V141H331.25V135.681C331.25 135.189 331.13 134.742 330.89 134.34C330.65 133.938 330.329 133.617 329.927 133.377C329.525 133.137 329.078 133.017 328.586 133.017C328.1 133.017 327.653 133.137 327.245 133.377C326.843 133.617 326.522 133.938 326.282 134.34C326.042 134.742 325.922 135.189 325.922 135.681V141H324.662V132H325.922V133.242C326.24 132.786 326.654 132.423 327.164 132.153C327.674 131.883 328.229 131.748 328.829 131.748C329.507 131.748 330.125 131.913 330.683 132.243C331.241 132.573 331.685 133.017 332.015 133.575C332.345 134.133 332.51 134.751 332.51 135.429ZM341.292 132H342.552V141.333C342.552 141.909 342.426 142.449 342.174 142.953C341.928 143.457 341.592 143.898 341.166 144.276C340.746 144.66 340.266 144.96 339.726 145.176C339.186 145.392 338.625 145.5 338.043 145.5C337.419 145.5 336.816 145.356 336.234 145.068C335.652 144.786 335.145 144.408 334.713 143.934C334.287 143.46 333.984 142.935 333.804 142.359L334.965 141.828C335.079 142.278 335.292 142.683 335.604 143.043C335.922 143.409 336.294 143.697 336.72 143.907C337.152 144.123 337.593 144.231 338.043 144.231C338.457 144.231 338.856 144.153 339.24 143.997C339.63 143.847 339.978 143.64 340.284 143.376C340.596 143.112 340.842 142.803 341.022 142.449C341.202 142.101 341.292 141.729 341.292 141.333V139.344C340.98 139.908 340.557 140.364 340.023 140.712C339.495 141.06 338.88 141.234 338.178 141.234C337.548 141.234 336.954 141.111 336.396 140.865C335.844 140.619 335.358 140.28 334.938 139.848C334.518 139.41 334.188 138.906 333.948 138.336C333.714 137.766 333.597 137.154 333.597 136.5C333.597 135.846 333.714 135.234 333.948 134.664C334.188 134.088 334.518 133.584 334.938 133.152C335.358 132.714 335.844 132.372 336.396 132.126C336.954 131.88 337.548 131.757 338.178 131.757C338.88 131.757 339.495 131.931 340.023 132.279C340.557 132.621 340.98 133.077 341.292 133.647V132ZM338.187 140.01C338.811 140.01 339.348 139.848 339.798 139.524C340.254 139.2 340.605 138.771 340.851 138.237C341.097 137.703 341.22 137.124 341.22 136.5C341.22 135.858 341.094 135.273 340.842 134.745C340.596 134.211 340.245 133.785 339.789 133.467C339.333 133.143 338.799 132.981 338.187 132.981C337.575 132.981 337.017 133.14 336.513 133.458C336.015 133.77 335.619 134.193 335.325 134.727C335.031 135.261 334.884 135.852 334.884 136.5C334.884 137.148 335.034 137.739 335.334 138.273C335.634 138.801 336.033 139.224 336.531 139.542C337.035 139.854 337.587 140.01 338.187 140.01ZM104.245 151H105.577L100.654 164.5H99.313L100.951 160L97.72 151H99.097L101.581 158.263L104.245 151ZM110.794 160.234C109.966 160.234 109.21 160.021 108.526 159.595C107.848 159.169 107.305 158.599 106.897 157.885C106.495 157.165 106.294 156.37 106.294 155.5C106.294 154.84 106.411 154.225 106.645 153.655C106.879 153.079 107.2 152.575 107.608 152.143C108.022 151.705 108.502 151.363 109.048 151.117C109.594 150.871 110.176 150.748 110.794 150.748C111.622 150.748 112.375 150.961 113.053 151.387C113.737 151.813 114.28 152.386 114.682 153.106C115.09 153.826 115.294 154.624 115.294 155.5C115.294 156.154 115.177 156.766 114.943 157.336C114.709 157.906 114.385 158.41 113.971 158.848C113.563 159.28 113.086 159.619 112.54 159.865C112 160.111 111.418 160.234 110.794 160.234ZM110.794 158.974C111.406 158.974 111.955 158.815 112.441 158.497C112.933 158.173 113.32 157.747 113.602 157.219C113.89 156.691 114.034 156.118 114.034 155.5C114.034 154.87 113.89 154.291 113.602 153.763C113.314 153.229 112.924 152.803 112.432 152.485C111.946 152.167 111.4 152.008 110.794 152.008C110.182 152.008 109.63 152.17 109.138 152.494C108.652 152.812 108.265 153.235 107.977 153.763C107.695 154.291 107.554 154.87 107.554 155.5C107.554 156.148 107.701 156.736 107.995 157.264C108.289 157.786 108.682 158.203 109.174 158.515C109.666 158.821 110.206 158.974 110.794 158.974ZM116.37 156.553V151H117.63V156.301C117.63 156.793 117.75 157.24 117.99 157.642C118.23 158.044 118.551 158.365 118.953 158.605C119.361 158.845 119.808 158.965 120.294 158.965C120.786 158.965 121.23 158.845 121.626 158.605C122.028 158.365 122.349 158.044 122.589 157.642C122.829 157.24 122.949 156.793 122.949 156.301V151H124.209L124.218 160H122.958L122.949 158.74C122.631 159.196 122.217 159.559 121.707 159.829C121.203 160.099 120.651 160.234 120.051 160.234C119.373 160.234 118.755 160.069 118.197 159.739C117.639 159.409 117.195 158.965 116.865 158.407C116.535 157.849 116.37 157.231 116.37 156.553ZM126.012 160V151H127.272V152.242C127.59 151.786 128.004 151.423 128.514 151.153C129.024 150.883 129.579 150.748 130.179 150.748C130.527 150.748 130.863 150.793 131.187 150.883L130.674 152.134C130.422 152.056 130.176 152.017 129.936 152.017C129.45 152.017 129.003 152.137 128.595 152.377C128.193 152.617 127.872 152.938 127.632 153.34C127.392 153.742 127.272 154.189 127.272 154.681V160H126.012ZM144.167 151H145.427V160H144.167L144.122 158.326C143.828 158.896 143.417 159.358 142.889 159.712C142.361 160.06 141.731 160.234 140.999 160.234C140.339 160.234 139.721 160.111 139.145 159.865C138.569 159.613 138.062 159.268 137.624 158.83C137.186 158.392 136.844 157.885 136.598 157.309C136.352 156.733 136.229 156.115 136.229 155.455C136.229 154.807 136.349 154.198 136.589 153.628C136.835 153.058 137.171 152.557 137.597 152.125C138.029 151.693 138.527 151.357 139.091 151.117C139.661 150.871 140.27 150.748 140.918 150.748C141.668 150.748 142.322 150.928 142.88 151.288C143.438 151.642 143.882 152.107 144.212 152.683L144.167 151ZM140.972 159.01C141.614 159.01 142.166 158.854 142.628 158.542C143.09 158.224 143.444 157.798 143.69 157.264C143.942 156.73 144.068 156.142 144.068 155.5C144.068 154.84 143.942 154.246 143.69 153.718C143.438 153.184 143.081 152.761 142.619 152.449C142.157 152.137 141.608 151.981 140.972 151.981C140.336 151.981 139.754 152.14 139.226 152.458C138.704 152.77 138.287 153.193 137.975 153.727C137.669 154.261 137.516 154.852 137.516 155.5C137.516 156.154 137.675 156.748 137.993 157.282C138.311 157.81 138.731 158.23 139.253 158.542C139.781 158.854 140.354 159.01 140.972 159.01ZM150.009 160.171C149.517 160.159 149.037 160.069 148.569 159.901C148.101 159.733 147.693 159.505 147.345 159.217C146.997 158.929 146.748 158.602 146.598 158.236L147.687 157.768C147.783 158.002 147.96 158.218 148.218 158.416C148.482 158.608 148.782 158.764 149.118 158.884C149.454 158.998 149.787 159.055 150.117 159.055C150.483 159.055 150.825 158.995 151.143 158.875C151.461 158.755 151.719 158.584 151.917 158.362C152.121 158.134 152.223 157.867 152.223 157.561C152.223 157.231 152.115 156.973 151.899 156.787C151.683 156.595 151.41 156.445 151.08 156.337C150.75 156.223 150.411 156.115 150.063 156.013C149.427 155.839 148.866 155.647 148.38 155.437C147.894 155.227 147.513 154.96 147.237 154.636C146.967 154.306 146.832 153.883 146.832 153.367C146.832 152.821 146.985 152.35 147.291 151.954C147.603 151.552 148.008 151.243 148.506 151.027C149.01 150.805 149.547 150.694 150.117 150.694C150.849 150.694 151.515 150.853 152.115 151.171C152.721 151.489 153.159 151.912 153.429 152.44L152.412 153.043C152.304 152.797 152.133 152.584 151.899 152.404C151.665 152.224 151.398 152.083 151.098 151.981C150.804 151.879 150.504 151.825 150.198 151.819C149.814 151.813 149.457 151.87 149.127 151.99C148.797 152.104 148.53 152.275 148.326 152.503C148.128 152.731 148.029 153.01 148.029 153.34C148.029 153.67 148.128 153.922 148.326 154.096C148.524 154.264 148.791 154.402 149.127 154.51C149.469 154.612 149.853 154.732 150.279 154.87C150.825 155.044 151.338 155.242 151.818 155.464C152.298 155.686 152.685 155.962 152.979 156.292C153.273 156.622 153.417 157.039 153.411 157.543C153.411 158.083 153.249 158.554 152.925 158.956C152.601 159.358 152.181 159.667 151.665 159.883C151.149 160.093 150.597 160.189 150.009 160.171ZM157.744 160.171C157.252 160.159 156.772 160.069 156.304 159.901C155.836 159.733 155.428 159.505 155.08 159.217C154.732 158.929 154.483 158.602 154.333 158.236L155.422 157.768C155.518 158.002 155.695 158.218 155.953 158.416C156.217 158.608 156.517 158.764 156.853 158.884C157.189 158.998 157.522 159.055 157.852 159.055C158.218 159.055 158.56 158.995 158.878 158.875C159.196 158.755 159.454 158.584 159.652 158.362C159.856 158.134 159.958 157.867 159.958 157.561C159.958 157.231 159.85 156.973 159.634 156.787C159.418 156.595 159.145 156.445 158.815 156.337C158.485 156.223 158.146 156.115 157.798 156.013C157.162 155.839 156.601 155.647 156.115 155.437C155.629 155.227 155.248 154.96 154.972 154.636C154.702 154.306 154.567 153.883 154.567 153.367C154.567 152.821 154.72 152.35 155.026 151.954C155.338 151.552 155.743 151.243 156.241 151.027C156.745 150.805 157.282 150.694 157.852 150.694C158.584 150.694 159.25 150.853 159.85 151.171C160.456 151.489 160.894 151.912 161.164 152.44L160.147 153.043C160.039 152.797 159.868 152.584 159.634 152.404C159.4 152.224 159.133 152.083 158.833 151.981C158.539 151.879 158.239 151.825 157.933 151.819C157.549 151.813 157.192 151.87 156.862 151.99C156.532 152.104 156.265 152.275 156.061 152.503C155.863 152.731 155.764 153.01 155.764 153.34C155.764 153.67 155.863 153.922 156.061 154.096C156.259 154.264 156.526 154.402 156.862 154.51C157.204 154.612 157.588 154.732 158.014 154.87C158.56 155.044 159.073 155.242 159.553 155.464C160.033 155.686 160.42 155.962 160.714 156.292C161.008 156.622 161.152 157.039 161.146 157.543C161.146 158.083 160.984 158.554 160.66 158.956C160.336 159.358 159.916 159.667 159.4 159.883C158.884 160.093 158.332 160.189 157.744 160.171ZM166.587 160.234C165.759 160.234 165.003 160.021 164.319 159.595C163.641 159.169 163.098 158.599 162.69 157.885C162.288 157.165 162.087 156.37 162.087 155.5C162.087 154.84 162.204 154.225 162.438 153.655C162.672 153.079 162.993 152.575 163.401 152.143C163.815 151.705 164.295 151.363 164.841 151.117C165.387 150.871 165.969 150.748 166.587 150.748C167.253 150.748 167.865 150.88 168.423 151.144C168.987 151.408 169.47 151.777 169.872 152.251C170.28 152.725 170.586 153.28 170.79 153.916C171 154.552 171.087 155.239 171.051 155.977H163.419C163.491 156.547 163.671 157.057 163.959 157.507C164.253 157.957 164.625 158.314 165.075 158.578C165.531 158.836 166.035 158.968 166.587 158.974C167.187 158.974 167.727 158.818 168.207 158.506C168.693 158.194 169.083 157.765 169.377 157.219L170.655 157.516C170.295 158.314 169.752 158.968 169.026 159.478C168.3 159.982 167.487 160.234 166.587 160.234ZM163.383 154.96H169.782C169.74 154.402 169.569 153.892 169.269 153.43C168.975 152.962 168.594 152.59 168.126 152.314C167.658 152.032 167.145 151.891 166.587 151.891C166.029 151.891 165.519 152.029 165.057 152.305C164.595 152.575 164.217 152.944 163.923 153.412C163.629 153.874 163.449 154.39 163.383 154.96ZM177.034 152.26H174.883L174.874 160H173.614L173.623 152.26H171.994V151H173.623L173.614 148.174H174.874L174.883 151H177.034V152.26ZM181.351 160.171C180.859 160.159 180.379 160.069 179.911 159.901C179.443 159.733 179.035 159.505 178.687 159.217C178.339 158.929 178.09 158.602 177.94 158.236L179.029 157.768C179.125 158.002 179.302 158.218 179.56 158.416C179.824 158.608 180.124 158.764 180.46 158.884C180.796 158.998 181.129 159.055 181.459 159.055C181.825 159.055 182.167 158.995 182.485 158.875C182.803 158.755 183.061 158.584 183.259 158.362C183.463 158.134 183.565 157.867 183.565 157.561C183.565 157.231 183.457 156.973 183.241 156.787C183.025 156.595 182.752 156.445 182.422 156.337C182.092 156.223 181.753 156.115 181.405 156.013C180.769 155.839 180.208 155.647 179.722 155.437C179.236 155.227 178.855 154.96 178.579 154.636C178.309 154.306 178.174 153.883 178.174 153.367C178.174 152.821 178.327 152.35 178.633 151.954C178.945 151.552 179.35 151.243 179.848 151.027C180.352 150.805 180.889 150.694 181.459 150.694C182.191 150.694 182.857 150.853 183.457 151.171C184.063 151.489 184.501 151.912 184.771 152.44L183.754 153.043C183.646 152.797 183.475 152.584 183.241 152.404C183.007 152.224 182.74 152.083 182.44 151.981C182.146 151.879 181.846 151.825 181.54 151.819C181.156 151.813 180.799 151.87 180.469 151.99C180.139 152.104 179.872 152.275 179.668 152.503C179.47 152.731 179.371 153.01 179.371 153.34C179.371 153.67 179.47 153.922 179.668 154.096C179.866 154.264 180.133 154.402 180.469 154.51C180.811 154.612 181.195 154.732 181.621 154.87C182.167 155.044 182.68 155.242 183.16 155.464C183.64 155.686 184.027 155.962 184.321 156.292C184.615 156.622 184.759 157.039 184.753 157.543C184.753 158.083 184.591 158.554 184.267 158.956C183.943 159.358 183.523 159.667 183.007 159.883C182.491 160.093 181.939 160.189 181.351 160.171ZM198.027 151H199.287V160H198.027L197.982 158.326C197.688 158.896 197.277 159.358 196.749 159.712C196.221 160.06 195.591 160.234 194.859 160.234C194.199 160.234 193.581 160.111 193.005 159.865C192.429 159.613 191.922 159.268 191.484 158.83C191.046 158.392 190.704 157.885 190.458 157.309C190.212 156.733 190.089 156.115 190.089 155.455C190.089 154.807 190.209 154.198 190.449 153.628C190.695 153.058 191.031 152.557 191.457 152.125C191.889 151.693 192.387 151.357 192.951 151.117C193.521 150.871 194.13 150.748 194.778 150.748C195.528 150.748 196.182 150.928 196.74 151.288C197.298 151.642 197.742 152.107 198.072 152.683L198.027 151ZM194.832 159.01C195.474 159.01 196.026 158.854 196.488 158.542C196.95 158.224 197.304 157.798 197.55 157.264C197.802 156.73 197.928 156.142 197.928 155.5C197.928 154.84 197.802 154.246 197.55 153.718C197.298 153.184 196.941 152.761 196.479 152.449C196.017 152.137 195.468 151.981 194.832 151.981C194.196 151.981 193.614 152.14 193.086 152.458C192.564 152.77 192.147 153.193 191.835 153.727C191.529 154.261 191.376 154.852 191.376 155.5C191.376 156.154 191.535 156.748 191.853 157.282C192.171 157.81 192.591 158.23 193.113 158.542C193.641 158.854 194.214 159.01 194.832 159.01ZM201.088 160V151H202.348V152.242C202.666 151.786 203.08 151.423 203.59 151.153C204.1 150.883 204.655 150.748 205.255 150.748C205.603 150.748 205.939 150.793 206.263 150.883L205.75 152.134C205.498 152.056 205.252 152.017 205.012 152.017C204.526 152.017 204.079 152.137 203.671 152.377C203.269 152.617 202.948 152.938 202.708 153.34C202.468 153.742 202.348 154.189 202.348 154.681V160H201.088ZM210.884 160.234C210.056 160.234 209.3 160.021 208.616 159.595C207.938 159.169 207.395 158.599 206.987 157.885C206.585 157.165 206.384 156.37 206.384 155.5C206.384 154.84 206.501 154.225 206.735 153.655C206.969 153.079 207.29 152.575 207.698 152.143C208.112 151.705 208.592 151.363 209.138 151.117C209.684 150.871 210.266 150.748 210.884 150.748C211.55 150.748 212.162 150.88 212.72 151.144C213.284 151.408 213.767 151.777 214.169 152.251C214.577 152.725 214.883 153.28 215.087 153.916C215.297 154.552 215.384 155.239 215.348 155.977H207.716C207.788 156.547 207.968 157.057 208.256 157.507C208.55 157.957 208.922 158.314 209.372 158.578C209.828 158.836 210.332 158.968 210.884 158.974C211.484 158.974 212.024 158.818 212.504 158.506C212.99 158.194 213.38 157.765 213.674 157.219L214.952 157.516C214.592 158.314 214.049 158.968 213.323 159.478C212.597 159.982 211.784 160.234 210.884 160.234ZM207.68 154.96H214.079C214.037 154.402 213.866 153.892 213.566 153.43C213.272 152.962 212.891 152.59 212.423 152.314C211.955 152.032 211.442 151.891 210.884 151.891C210.326 151.891 209.816 152.029 209.354 152.305C208.892 152.575 208.514 152.944 208.22 153.412C207.926 153.874 207.746 154.39 207.68 154.96ZM222.563 164.5H221.303V151H222.563V152.683C222.875 152.113 223.301 151.651 223.841 151.297C224.381 150.943 225.023 150.766 225.767 150.766C226.421 150.766 227.033 150.889 227.603 151.135C228.179 151.381 228.683 151.723 229.115 152.161C229.547 152.593 229.886 153.094 230.132 153.664C230.378 154.234 230.501 154.846 230.501 155.5C230.501 156.154 230.378 156.769 230.132 157.345C229.886 157.921 229.547 158.428 229.115 158.866C228.683 159.298 228.179 159.637 227.603 159.883C227.033 160.129 226.421 160.252 225.767 160.252C225.023 160.252 224.381 160.075 223.841 159.721C223.301 159.367 222.875 158.905 222.563 158.335V164.5ZM225.758 151.99C225.128 151.99 224.579 152.149 224.111 152.467C223.649 152.779 223.292 153.199 223.04 153.727C222.788 154.255 222.662 154.846 222.662 155.5C222.662 156.142 222.785 156.73 223.031 157.264C223.283 157.798 223.64 158.224 224.102 158.542C224.57 158.86 225.122 159.019 225.758 159.019C226.382 159.019 226.955 158.863 227.477 158.551C228.005 158.239 228.428 157.819 228.746 157.291C229.064 156.757 229.223 156.16 229.223 155.5C229.223 154.858 229.067 154.273 228.755 153.745C228.443 153.211 228.026 152.785 227.504 152.467C226.982 152.149 226.4 151.99 225.758 151.99ZM232.025 160V151H233.285V152.242C233.603 151.786 234.017 151.423 234.527 151.153C235.037 150.883 235.592 150.748 236.192 150.748C236.54 150.748 236.876 150.793 237.2 150.883L236.687 152.134C236.435 152.056 236.189 152.017 235.949 152.017C235.463 152.017 235.016 152.137 234.608 152.377C234.206 152.617 233.885 152.938 233.645 153.34C233.405 153.742 233.285 154.189 233.285 154.681V160H232.025ZM241.821 160.234C240.993 160.234 240.237 160.021 239.553 159.595C238.875 159.169 238.332 158.599 237.924 157.885C237.522 157.165 237.321 156.37 237.321 155.5C237.321 154.84 237.438 154.225 237.672 153.655C237.906 153.079 238.227 152.575 238.635 152.143C239.049 151.705 239.529 151.363 240.075 151.117C240.621 150.871 241.203 150.748 241.821 150.748C242.649 150.748 243.402 150.961 244.08 151.387C244.764 151.813 245.307 152.386 245.709 153.106C246.117 153.826 246.321 154.624 246.321 155.5C246.321 156.154 246.204 156.766 245.97 157.336C245.736 157.906 245.412 158.41 244.998 158.848C244.59 159.28 244.113 159.619 243.567 159.865C243.027 160.111 242.445 160.234 241.821 160.234ZM241.821 158.974C242.433 158.974 242.982 158.815 243.468 158.497C243.96 158.173 244.347 157.747 244.629 157.219C244.917 156.691 245.061 156.118 245.061 155.5C245.061 154.87 244.917 154.291 244.629 153.763C244.341 153.229 243.951 152.803 243.459 152.485C242.973 152.167 242.427 152.008 241.821 152.008C241.209 152.008 240.657 152.17 240.165 152.494C239.679 152.812 239.292 153.235 239.004 153.763C238.722 154.291 238.581 154.87 238.581 155.5C238.581 156.148 238.728 156.736 239.022 157.264C239.316 157.786 239.709 158.203 240.201 158.515C240.693 158.821 241.233 158.974 241.821 158.974ZM252.286 152.26H250.135L250.126 160H248.866L248.875 152.26H247.246V151H248.875L248.866 148.174H250.126L250.135 151H252.286V152.26ZM257.606 160.234C256.778 160.234 256.022 160.021 255.338 159.595C254.66 159.169 254.117 158.599 253.709 157.885C253.307 157.165 253.106 156.37 253.106 155.5C253.106 154.84 253.223 154.225 253.457 153.655C253.691 153.079 254.012 152.575 254.42 152.143C254.834 151.705 255.314 151.363 255.86 151.117C256.406 150.871 256.988 150.748 257.606 150.748C258.272 150.748 258.884 150.88 259.442 151.144C260.006 151.408 260.489 151.777 260.891 152.251C261.299 152.725 261.605 153.28 261.809 153.916C262.019 154.552 262.106 155.239 262.07 155.977H254.438C254.51 156.547 254.69 157.057 254.978 157.507C255.272 157.957 255.644 158.314 256.094 158.578C256.55 158.836 257.054 158.968 257.606 158.974C258.206 158.974 258.746 158.818 259.226 158.506C259.712 158.194 260.102 157.765 260.396 157.219L261.674 157.516C261.314 158.314 260.771 158.968 260.045 159.478C259.319 159.982 258.506 160.234 257.606 160.234ZM254.402 154.96H260.801C260.759 154.402 260.588 153.892 260.288 153.43C259.994 152.962 259.613 152.59 259.145 152.314C258.677 152.032 258.164 151.891 257.606 151.891C257.048 151.891 256.538 152.029 256.076 152.305C255.614 152.575 255.236 152.944 254.942 153.412C254.648 153.874 254.468 154.39 254.402 154.96ZM269.951 157.741L271.076 158.353C270.668 158.923 270.149 159.379 269.519 159.721C268.895 160.063 268.217 160.234 267.485 160.234C266.657 160.234 265.901 160.021 265.217 159.595C264.539 159.169 263.996 158.599 263.588 157.885C263.186 157.165 262.985 156.37 262.985 155.5C262.985 154.84 263.102 154.225 263.336 153.655C263.57 153.079 263.891 152.575 264.299 152.143C264.713 151.705 265.193 151.363 265.739 151.117C266.285 150.871 266.867 150.748 267.485 150.748C268.217 150.748 268.895 150.919 269.519 151.261C270.149 151.603 270.668 152.062 271.076 152.638L269.951 153.241C269.639 152.845 269.264 152.542 268.826 152.332C268.388 152.116 267.941 152.008 267.485 152.008C266.879 152.008 266.33 152.17 265.838 152.494C265.346 152.812 264.956 153.235 264.668 153.763C264.386 154.291 264.245 154.87 264.245 155.5C264.245 156.13 264.389 156.709 264.677 157.237C264.971 157.765 265.364 158.188 265.856 158.506C266.348 158.818 266.891 158.974 267.485 158.974C267.977 158.974 268.439 158.86 268.871 158.632C269.303 158.404 269.663 158.107 269.951 157.741ZM277.3 152.26H275.149L275.14 160H273.88L273.889 152.26H272.26V151H273.889L273.88 148.174H275.14L275.149 151H277.3V152.26ZM282.62 160.234C281.792 160.234 281.036 160.021 280.352 159.595C279.674 159.169 279.131 158.599 278.723 157.885C278.321 157.165 278.12 156.37 278.12 155.5C278.12 154.84 278.237 154.225 278.471 153.655C278.705 153.079 279.026 152.575 279.434 152.143C279.848 151.705 280.328 151.363 280.874 151.117C281.42 150.871 282.002 150.748 282.62 150.748C283.286 150.748 283.898 150.88 284.456 151.144C285.02 151.408 285.503 151.777 285.905 152.251C286.313 152.725 286.619 153.28 286.823 153.916C287.033 154.552 287.12 155.239 287.084 155.977H279.452C279.524 156.547 279.704 157.057 279.992 157.507C280.286 157.957 280.658 158.314 281.108 158.578C281.564 158.836 282.068 158.968 282.62 158.974C283.22 158.974 283.76 158.818 284.24 158.506C284.726 158.194 285.116 157.765 285.41 157.219L286.688 157.516C286.328 158.314 285.785 158.968 285.059 159.478C284.333 159.982 283.52 160.234 282.62 160.234ZM279.416 154.96H285.815C285.773 154.402 285.602 153.892 285.302 153.43C285.008 152.962 284.627 152.59 284.159 152.314C283.691 152.032 283.178 151.891 282.62 151.891C282.062 151.891 281.552 152.029 281.09 152.305C280.628 152.575 280.25 152.944 279.956 153.412C279.662 153.874 279.482 154.39 279.416 154.96ZM295.946 146.5H297.206V160H295.946V158.317C295.634 158.893 295.205 159.358 294.659 159.712C294.119 160.06 293.477 160.234 292.733 160.234C292.079 160.234 291.467 160.111 290.897 159.865C290.327 159.619 289.823 159.28 289.385 158.848C288.953 158.41 288.614 157.906 288.368 157.336C288.122 156.766 287.999 156.154 287.999 155.5C287.999 154.846 288.122 154.234 288.368 153.664C288.614 153.088 288.953 152.584 289.385 152.152C289.823 151.714 290.327 151.372 290.897 151.126C291.467 150.88 292.079 150.757 292.733 150.757C293.477 150.757 294.119 150.934 294.659 151.288C295.205 151.636 295.634 152.095 295.946 152.665V146.5ZM292.742 159.01C293.384 159.01 293.936 158.854 294.398 158.542C294.86 158.224 295.214 157.798 295.46 157.264C295.712 156.73 295.838 156.142 295.838 155.5C295.838 154.84 295.712 154.246 295.46 153.718C295.208 153.184 294.851 152.761 294.389 152.449C293.927 152.137 293.378 151.981 292.742 151.981C292.106 151.981 291.527 152.14 291.005 152.458C290.483 152.77 290.066 153.193 289.754 153.727C289.442 154.261 289.286 154.852 289.286 155.5C289.286 156.154 289.445 156.748 289.763 157.282C290.081 157.81 290.501 158.23 291.023 158.542C291.551 158.854 292.124 159.01 292.742 159.01ZM308.155 150.748C309.031 150.748 309.826 150.961 310.54 151.387C311.26 151.813 311.833 152.386 312.259 153.106C312.685 153.82 312.898 154.615 312.898 155.491C312.898 156.145 312.775 156.76 312.529 157.336C312.283 157.906 311.941 158.41 311.503 158.848C311.071 159.28 310.567 159.619 309.991 159.865C309.421 160.111 308.809 160.234 308.155 160.234C307.411 160.234 306.769 160.057 306.229 159.703C305.689 159.349 305.263 158.887 304.951 158.317V160H303.691V146.5H304.951V152.665C305.263 152.095 305.689 151.633 306.229 151.279C306.769 150.925 307.411 150.748 308.155 150.748ZM308.146 159.001C308.788 159.001 309.37 158.845 309.892 158.533C310.414 158.215 310.831 157.789 311.143 157.255C311.455 156.721 311.611 156.133 311.611 155.491C311.611 154.831 311.452 154.237 311.134 153.709C310.816 153.175 310.393 152.752 309.865 152.44C309.343 152.128 308.77 151.972 308.146 151.972C307.51 151.972 306.958 152.131 306.49 152.449C306.028 152.767 305.671 153.193 305.419 153.727C305.173 154.261 305.05 154.849 305.05 155.491C305.05 156.145 305.176 156.739 305.428 157.273C305.68 157.801 306.037 158.221 306.499 158.533C306.967 158.845 307.516 159.001 308.146 159.001ZM320.14 151H321.472L316.549 164.5H315.208L316.846 160L313.615 151H314.992L317.476 158.263L320.14 151ZM104.506 176.741L105.631 177.353C105.223 177.923 104.704 178.379 104.074 178.721C103.45 179.063 102.772 179.234 102.04 179.234C101.212 179.234 100.456 179.021 99.772 178.595C99.094 178.169 98.551 177.599 98.143 176.885C97.741 176.165 97.54 175.37 97.54 174.5C97.54 173.84 97.657 173.225 97.891 172.655C98.125 172.079 98.446 171.575 98.854 171.143C99.268 170.705 99.748 170.363 100.294 170.117C100.84 169.871 101.422 169.748 102.04 169.748C102.772 169.748 103.45 169.919 104.074 170.261C104.704 170.603 105.223 171.062 105.631 171.638L104.506 172.241C104.194 171.845 103.819 171.542 103.381 171.332C102.943 171.116 102.496 171.008 102.04 171.008C101.434 171.008 100.885 171.17 100.393 171.494C99.901 171.812 99.511 172.235 99.223 172.763C98.941 173.291 98.8 173.87 98.8 174.5C98.8 175.13 98.944 175.709 99.232 176.237C99.526 176.765 99.919 177.188 100.411 177.506C100.903 177.818 101.446 177.974 102.04 177.974C102.532 177.974 102.994 177.86 103.426 177.632C103.858 177.404 104.218 177.107 104.506 176.741ZM106.808 175.553V170H108.068V175.301C108.068 175.793 108.188 176.24 108.428 176.642C108.668 177.044 108.989 177.365 109.391 177.605C109.799 177.845 110.246 177.965 110.732 177.965C111.224 177.965 111.668 177.845 112.064 177.605C112.466 177.365 112.787 177.044 113.027 176.642C113.267 176.24 113.387 175.793 113.387 175.301V170H114.647L114.656 179H113.396L113.387 177.74C113.069 178.196 112.655 178.559 112.145 178.829C111.641 179.099 111.089 179.234 110.489 179.234C109.811 179.234 109.193 179.069 108.635 178.739C108.077 178.409 107.633 177.965 107.303 177.407C106.973 176.849 106.808 176.231 106.808 175.553ZM121.048 171.26H118.897L118.888 179H117.628L117.637 171.26H116.008V170H117.637L117.628 167.174H118.888L118.897 170H121.048V171.26ZM127.253 171.26H125.102L125.093 179H123.833L123.842 171.26H122.213V170H123.842L123.833 167.174H125.093L125.102 170H127.253V171.26ZM128.789 170H130.049V179H128.789V170ZM129.428 168.425C129.224 168.425 129.05 168.359 128.906 168.227C128.768 168.089 128.699 167.918 128.699 167.714C128.699 167.51 128.768 167.342 128.906 167.21C129.05 167.072 129.224 167.003 129.428 167.003C129.626 167.003 129.794 167.072 129.932 167.21C130.076 167.342 130.148 167.51 130.148 167.714C130.148 167.918 130.079 168.089 129.941 168.227C129.803 168.359 129.632 168.425 129.428 168.425ZM140.03 173.429V179H138.77V173.681C138.77 173.189 138.65 172.742 138.41 172.34C138.17 171.938 137.849 171.617 137.447 171.377C137.045 171.137 136.598 171.017 136.106 171.017C135.62 171.017 135.173 171.137 134.765 171.377C134.363 171.617 134.042 171.938 133.802 172.34C133.562 172.742 133.442 173.189 133.442 173.681V179H132.182V170H133.442V171.242C133.76 170.786 134.174 170.423 134.684 170.153C135.194 169.883 135.749 169.748 136.349 169.748C137.027 169.748 137.645 169.913 138.203 170.243C138.761 170.573 139.205 171.017 139.535 171.575C139.865 172.133 140.03 172.751 140.03 173.429ZM148.811 170H150.071V179.333C150.071 179.909 149.945 180.449 149.693 180.953C149.447 181.457 149.111 181.898 148.685 182.276C148.265 182.66 147.785 182.96 147.245 183.176C146.705 183.392 146.144 183.5 145.562 183.5C144.938 183.5 144.335 183.356 143.753 183.068C143.171 182.786 142.664 182.408 142.232 181.934C141.806 181.46 141.503 180.935 141.323 180.359L142.484 179.828C142.598 180.278 142.811 180.683 143.123 181.043C143.441 181.409 143.813 181.697 144.239 181.907C144.671 182.123 145.112 182.231 145.562 182.231C145.976 182.231 146.375 182.153 146.759 181.997C147.149 181.847 147.497 181.64 147.803 181.376C148.115 181.112 148.361 180.803 148.541 180.449C148.721 180.101 148.811 179.729 148.811 179.333V177.344C148.499 177.908 148.076 178.364 147.542 178.712C147.014 179.06 146.399 179.234 145.697 179.234C145.067 179.234 144.473 179.111 143.915 178.865C143.363 178.619 142.877 178.28 142.457 177.848C142.037 177.41 141.707 176.906 141.467 176.336C141.233 175.766 141.116 175.154 141.116 174.5C141.116 173.846 141.233 173.234 141.467 172.664C141.707 172.088 142.037 171.584 142.457 171.152C142.877 170.714 143.363 170.372 143.915 170.126C144.473 169.88 145.067 169.757 145.697 169.757C146.399 169.757 147.014 169.931 147.542 170.279C148.076 170.621 148.499 171.077 148.811 171.647V170ZM145.706 178.01C146.33 178.01 146.867 177.848 147.317 177.524C147.773 177.2 148.124 176.771 148.37 176.237C148.616 175.703 148.739 175.124 148.739 174.5C148.739 173.858 148.613 173.273 148.361 172.745C148.115 172.211 147.764 171.785 147.308 171.467C146.852 171.143 146.318 170.981 145.706 170.981C145.094 170.981 144.536 171.14 144.032 171.458C143.534 171.77 143.138 172.193 142.844 172.727C142.55 173.261 142.403 173.852 142.403 174.5C142.403 175.148 142.553 175.739 142.853 176.273C143.153 176.801 143.552 177.224 144.05 177.542C144.554 177.854 145.106 178.01 145.706 178.01ZM152.238 172.97H157.998V174.23H152.238V172.97ZM164.126 179.234C163.298 179.234 162.542 179.021 161.858 178.595C161.18 178.169 160.637 177.599 160.229 176.885C159.827 176.165 159.626 175.37 159.626 174.5C159.626 173.84 159.743 173.225 159.977 172.655C160.211 172.079 160.532 171.575 160.94 171.143C161.354 170.705 161.834 170.363 162.38 170.117C162.926 169.871 163.508 169.748 164.126 169.748C164.792 169.748 165.404 169.88 165.962 170.144C166.526 170.408 167.009 170.777 167.411 171.251C167.819 171.725 168.125 172.28 168.329 172.916C168.539 173.552 168.626 174.239 168.59 174.977H160.958C161.03 175.547 161.21 176.057 161.498 176.507C161.792 176.957 162.164 177.314 162.614 177.578C163.07 177.836 163.574 177.968 164.126 177.974C164.726 177.974 165.266 177.818 165.746 177.506C166.232 177.194 166.622 176.765 166.916 176.219L168.194 176.516C167.834 177.314 167.291 177.968 166.565 178.478C165.839 178.982 165.026 179.234 164.126 179.234ZM160.922 173.96H167.321C167.279 173.402 167.108 172.892 166.808 172.43C166.514 171.962 166.133 171.59 165.665 171.314C165.197 171.032 164.684 170.891 164.126 170.891C163.568 170.891 163.058 171.029 162.596 171.305C162.134 171.575 161.756 171.944 161.462 172.412C161.168 172.874 160.988 173.39 160.922 173.96ZM177.452 165.5H178.712V179H177.452V177.317C177.14 177.893 176.711 178.358 176.165 178.712C175.625 179.06 174.983 179.234 174.239 179.234C173.585 179.234 172.973 179.111 172.403 178.865C171.833 178.619 171.329 178.28 170.891 177.848C170.459 177.41 170.12 176.906 169.874 176.336C169.628 175.766 169.505 175.154 169.505 174.5C169.505 173.846 169.628 173.234 169.874 172.664C170.12 172.088 170.459 171.584 170.891 171.152C171.329 170.714 171.833 170.372 172.403 170.126C172.973 169.88 173.585 169.757 174.239 169.757C174.983 169.757 175.625 169.934 176.165 170.288C176.711 170.636 177.14 171.095 177.452 171.665V165.5ZM174.248 178.01C174.89 178.01 175.442 177.854 175.904 177.542C176.366 177.224 176.72 176.798 176.966 176.264C177.218 175.73 177.344 175.142 177.344 174.5C177.344 173.84 177.218 173.246 176.966 172.718C176.714 172.184 176.357 171.761 175.895 171.449C175.433 171.137 174.884 170.981 174.248 170.981C173.612 170.981 173.033 171.14 172.511 171.458C171.989 171.77 171.572 172.193 171.26 172.727C170.948 173.261 170.792 173.852 170.792 174.5C170.792 175.154 170.951 175.748 171.269 176.282C171.587 176.81 172.007 177.23 172.529 177.542C173.057 177.854 173.63 178.01 174.248 178.01ZM187.958 170H189.218V179.333C189.218 179.909 189.092 180.449 188.84 180.953C188.594 181.457 188.258 181.898 187.832 182.276C187.412 182.66 186.932 182.96 186.392 183.176C185.852 183.392 185.291 183.5 184.709 183.5C184.085 183.5 183.482 183.356 182.9 183.068C182.318 182.786 181.811 182.408 181.379 181.934C180.953 181.46 180.65 180.935 180.47 180.359L181.631 179.828C181.745 180.278 181.958 180.683 182.27 181.043C182.588 181.409 182.96 181.697 183.386 181.907C183.818 182.123 184.259 182.231 184.709 182.231C185.123 182.231 185.522 182.153 185.906 181.997C186.296 181.847 186.644 181.64 186.95 181.376C187.262 181.112 187.508 180.803 187.688 180.449C187.868 180.101 187.958 179.729 187.958 179.333V177.344C187.646 177.908 187.223 178.364 186.689 178.712C186.161 179.06 185.546 179.234 184.844 179.234C184.214 179.234 183.62 179.111 183.062 178.865C182.51 178.619 182.024 178.28 181.604 177.848C181.184 177.41 180.854 176.906 180.614 176.336C180.38 175.766 180.263 175.154 180.263 174.5C180.263 173.846 180.38 173.234 180.614 172.664C180.854 172.088 181.184 171.584 181.604 171.152C182.024 170.714 182.51 170.372 183.062 170.126C183.62 169.88 184.214 169.757 184.844 169.757C185.546 169.757 186.161 169.931 186.689 170.279C187.223 170.621 187.646 171.077 187.958 171.647V170ZM184.853 178.01C185.477 178.01 186.014 177.848 186.464 177.524C186.92 177.2 187.271 176.771 187.517 176.237C187.763 175.703 187.886 175.124 187.886 174.5C187.886 173.858 187.76 173.273 187.508 172.745C187.262 172.211 186.911 171.785 186.455 171.467C185.999 171.143 185.465 170.981 184.853 170.981C184.241 170.981 183.683 171.14 183.179 171.458C182.681 171.77 182.285 172.193 181.991 172.727C181.697 173.261 181.55 173.852 181.55 174.5C181.55 175.148 181.7 175.739 182 176.273C182.3 176.801 182.699 177.224 183.197 177.542C183.701 177.854 184.253 178.01 184.853 178.01ZM195.257 179.234C194.429 179.234 193.673 179.021 192.989 178.595C192.311 178.169 191.768 177.599 191.36 176.885C190.958 176.165 190.757 175.37 190.757 174.5C190.757 173.84 190.874 173.225 191.108 172.655C191.342 172.079 191.663 171.575 192.071 171.143C192.485 170.705 192.965 170.363 193.511 170.117C194.057 169.871 194.639 169.748 195.257 169.748C195.923 169.748 196.535 169.88 197.093 170.144C197.657 170.408 198.14 170.777 198.542 171.251C198.95 171.725 199.256 172.28 199.46 172.916C199.67 173.552 199.757 174.239 199.721 174.977H192.089C192.161 175.547 192.341 176.057 192.629 176.507C192.923 176.957 193.295 177.314 193.745 177.578C194.201 177.836 194.705 177.968 195.257 177.974C195.857 177.974 196.397 177.818 196.877 177.506C197.363 177.194 197.753 176.765 198.047 176.219L199.325 176.516C198.965 177.314 198.422 177.968 197.696 178.478C196.97 178.982 196.157 179.234 195.257 179.234ZM192.053 173.96H198.452C198.41 173.402 198.239 172.892 197.939 172.43C197.645 171.962 197.264 171.59 196.796 171.314C196.328 171.032 195.815 170.891 195.257 170.891C194.699 170.891 194.189 171.029 193.727 171.305C193.265 171.575 192.887 171.944 192.593 172.412C192.299 172.874 192.119 173.39 192.053 173.96ZM209.636 179.234C208.808 179.234 208.052 179.021 207.368 178.595C206.69 178.169 206.147 177.599 205.739 176.885C205.337 176.165 205.136 175.37 205.136 174.5C205.136 173.84 205.253 173.225 205.487 172.655C205.721 172.079 206.042 171.575 206.45 171.143C206.864 170.705 207.344 170.363 207.89 170.117C208.436 169.871 209.018 169.748 209.636 169.748C210.302 169.748 210.914 169.88 211.472 170.144C212.036 170.408 212.519 170.777 212.921 171.251C213.329 171.725 213.635 172.28 213.839 172.916C214.049 173.552 214.136 174.239 214.1 174.977H206.468C206.54 175.547 206.72 176.057 207.008 176.507C207.302 176.957 207.674 177.314 208.124 177.578C208.58 177.836 209.084 177.968 209.636 177.974C210.236 177.974 210.776 177.818 211.256 177.506C211.742 177.194 212.132 176.765 212.426 176.219L213.704 176.516C213.344 177.314 212.801 177.968 212.075 178.478C211.349 178.982 210.536 179.234 209.636 179.234ZM206.432 173.96H212.831C212.789 173.402 212.618 172.892 212.318 172.43C212.024 171.962 211.643 171.59 211.175 171.314C210.707 171.032 210.194 170.891 209.636 170.891C209.078 170.891 208.568 171.029 208.106 171.305C207.644 171.575 207.266 171.944 206.972 172.412C206.678 172.874 206.498 173.39 206.432 173.96ZM223.491 173.429V179H222.231V173.681C222.231 173.189 222.111 172.742 221.871 172.34C221.631 171.938 221.31 171.617 220.908 171.377C220.506 171.137 220.059 171.017 219.567 171.017C219.081 171.017 218.634 171.137 218.226 171.377C217.824 171.617 217.503 171.938 217.263 172.34C217.023 172.742 216.903 173.189 216.903 173.681V179H215.643V170H216.903V171.242C217.221 170.786 217.635 170.423 218.145 170.153C218.655 169.883 219.21 169.748 219.81 169.748C220.488 169.748 221.106 169.913 221.664 170.243C222.222 170.573 222.666 171.017 222.996 171.575C223.326 172.133 223.491 172.751 223.491 173.429ZM231.543 176.741L232.668 177.353C232.26 177.923 231.741 178.379 231.111 178.721C230.487 179.063 229.809 179.234 229.077 179.234C228.249 179.234 227.493 179.021 226.809 178.595C226.131 178.169 225.588 177.599 225.18 176.885C224.778 176.165 224.577 175.37 224.577 174.5C224.577 173.84 224.694 173.225 224.928 172.655C225.162 172.079 225.483 171.575 225.891 171.143C226.305 170.705 226.785 170.363 227.331 170.117C227.877 169.871 228.459 169.748 229.077 169.748C229.809 169.748 230.487 169.919 231.111 170.261C231.741 170.603 232.26 171.062 232.668 171.638L231.543 172.241C231.231 171.845 230.856 171.542 230.418 171.332C229.98 171.116 229.533 171.008 229.077 171.008C228.471 171.008 227.922 171.17 227.43 171.494C226.938 171.812 226.548 172.235 226.26 172.763C225.978 173.291 225.837 173.87 225.837 174.5C225.837 175.13 225.981 175.709 226.269 176.237C226.563 176.765 226.956 177.188 227.448 177.506C227.94 177.818 228.483 177.974 229.077 177.974C229.569 177.974 230.031 177.86 230.463 177.632C230.895 177.404 231.255 177.107 231.543 176.741ZM234.293 179V170H235.553V171.242C235.871 170.786 236.285 170.423 236.795 170.153C237.305 169.883 237.86 169.748 238.46 169.748C238.808 169.748 239.144 169.793 239.468 169.883L238.955 171.134C238.703 171.056 238.457 171.017 238.217 171.017C237.731 171.017 237.284 171.137 236.876 171.377C236.474 171.617 236.153 171.938 235.913 172.34C235.673 172.742 235.553 173.189 235.553 173.681V179H234.293ZM246.768 170H248.1L243.177 183.5H241.836L243.474 179L240.243 170H241.62L244.104 177.263L246.768 170ZM250.951 183.5H249.691V170H250.951V171.683C251.263 171.113 251.689 170.651 252.229 170.297C252.769 169.943 253.411 169.766 254.155 169.766C254.809 169.766 255.421 169.889 255.991 170.135C256.567 170.381 257.071 170.723 257.503 171.161C257.935 171.593 258.274 172.094 258.52 172.664C258.766 173.234 258.889 173.846 258.889 174.5C258.889 175.154 258.766 175.769 258.52 176.345C258.274 176.921 257.935 177.428 257.503 177.866C257.071 178.298 256.567 178.637 255.991 178.883C255.421 179.129 254.809 179.252 254.155 179.252C253.411 179.252 252.769 179.075 252.229 178.721C251.689 178.367 251.263 177.905 250.951 177.335V183.5ZM254.146 170.99C253.516 170.99 252.967 171.149 252.499 171.467C252.037 171.779 251.68 172.199 251.428 172.727C251.176 173.255 251.05 173.846 251.05 174.5C251.05 175.142 251.173 175.73 251.419 176.264C251.671 176.798 252.028 177.224 252.49 177.542C252.958 177.86 253.51 178.019 254.146 178.019C254.77 178.019 255.343 177.863 255.865 177.551C256.393 177.239 256.816 176.819 257.134 176.291C257.452 175.757 257.611 175.16 257.611 174.5C257.611 173.858 257.455 173.273 257.143 172.745C256.831 172.211 256.414 171.785 255.892 171.467C255.37 171.149 254.788 170.99 254.146 170.99ZM264.855 171.26H262.704L262.695 179H261.435L261.444 171.26H259.815V170H261.444L261.435 167.174H262.695L262.704 170H264.855V171.26ZM266.391 170H267.651V179H266.391V170ZM267.03 168.425C266.826 168.425 266.652 168.359 266.508 168.227C266.37 168.089 266.301 167.918 266.301 167.714C266.301 167.51 266.37 167.342 266.508 167.21C266.652 167.072 266.826 167.003 267.03 167.003C267.228 167.003 267.396 167.072 267.534 167.21C267.678 167.342 267.75 167.51 267.75 167.714C267.75 167.918 267.681 168.089 267.543 168.227C267.405 168.359 267.234 168.425 267.03 168.425ZM273.69 179.234C272.862 179.234 272.106 179.021 271.422 178.595C270.744 178.169 270.201 177.599 269.793 176.885C269.391 176.165 269.19 175.37 269.19 174.5C269.19 173.84 269.307 173.225 269.541 172.655C269.775 172.079 270.096 171.575 270.504 171.143C270.918 170.705 271.398 170.363 271.944 170.117C272.49 169.871 273.072 169.748 273.69 169.748C274.518 169.748 275.271 169.961 275.949 170.387C276.633 170.813 277.176 171.386 277.578 172.106C277.986 172.826 278.19 173.624 278.19 174.5C278.19 175.154 278.073 175.766 277.839 176.336C277.605 176.906 277.281 177.41 276.867 177.848C276.459 178.28 275.982 178.619 275.436 178.865C274.896 179.111 274.314 179.234 273.69 179.234ZM273.69 177.974C274.302 177.974 274.851 177.815 275.337 177.497C275.829 177.173 276.216 176.747 276.498 176.219C276.786 175.691 276.93 175.118 276.93 174.5C276.93 173.87 276.786 173.291 276.498 172.763C276.21 172.229 275.82 171.803 275.328 171.485C274.842 171.167 274.296 171.008 273.69 171.008C273.078 171.008 272.526 171.17 272.034 171.494C271.548 171.812 271.161 172.235 270.873 172.763C270.591 173.291 270.45 173.87 270.45 174.5C270.45 175.148 270.597 175.736 270.891 176.264C271.185 176.786 271.578 177.203 272.07 177.515C272.562 177.821 273.102 177.974 273.69 177.974ZM287.563 173.429V179H286.303V173.681C286.303 173.189 286.183 172.742 285.943 172.34C285.703 171.938 285.382 171.617 284.98 171.377C284.578 171.137 284.131 171.017 283.639 171.017C283.153 171.017 282.706 171.137 282.298 171.377C281.896 171.617 281.575 171.938 281.335 172.34C281.095 172.742 280.975 173.189 280.975 173.681V179H279.715V170H280.975V171.242C281.293 170.786 281.707 170.423 282.217 170.153C282.727 169.883 283.282 169.748 283.882 169.748C284.56 169.748 285.178 169.913 285.736 170.243C286.294 170.573 286.738 171.017 287.068 171.575C287.398 172.133 287.563 172.751 287.563 173.429ZM289.716 179.234C289.518 179.234 289.35 179.162 289.212 179.018C289.074 178.88 289.005 178.709 289.005 178.505C289.005 178.313 289.074 178.148 289.212 178.01C289.35 177.866 289.518 177.794 289.716 177.794C289.92 177.794 290.091 177.866 290.229 178.01C290.373 178.148 290.445 178.313 290.445 178.505C290.445 178.709 290.373 178.88 290.229 179.018C290.091 179.162 289.92 179.234 289.716 179.234Z" fill="white"/>
</svg>
