<svg width="374" height="224" viewBox="0 0 374 224" fill="none" xmlns="http://www.w3.org/2000/svg">
<g id="Group 36">
<path id="Vector" d="M374 93.9879V204.684C374 215.349 365.334 224 354.65 224H19.3504C8.66613 224 0 215.349 0 204.684V168.643C0 157.978 8.66613 149.328 19.3504 149.328H55.4564C66.1407 149.328 74.8068 140.677 74.8068 130.012V93.9879C74.8068 83.3059 66.1407 74.6723 55.4564 74.6723H19.3504C8.66613 74.6723 0 66.0218 0 55.3567V19.3156C0 8.65052 8.66613 0 19.3504 0H354.65C365.334 0 374 8.65052 374 19.3156V93.9879Z" fill="#ACA22B"/>
<path id="Programmable Interface" d="M95.92 60V37.6H103.632C104.837 37.6 105.925 37.8987 106.896 38.496C107.877 39.0933 108.656 39.8987 109.232 40.912C109.819 41.9253 110.112 43.0453 110.112 44.272C110.112 45.52 109.813 46.6507 109.216 47.664C108.629 48.6667 107.845 49.4667 106.864 50.064C105.883 50.6613 104.805 50.96 103.632 50.96H99.248V60H95.92ZM99.248 47.632H103.296C103.936 47.632 104.517 47.472 105.04 47.152C105.573 46.832 105.995 46.4053 106.304 45.872C106.624 45.3387 106.784 44.736 106.784 44.064C106.784 43.392 106.624 42.7893 106.304 42.256C105.995 41.712 105.573 41.2853 105.04 40.976C104.517 40.656 103.936 40.496 103.296 40.496H99.248V47.632ZM112.733 60V44H116.061V45.696C116.615 45.0347 117.298 44.512 118.109 44.128C118.919 43.744 119.794 43.552 120.733 43.552C121.33 43.552 121.922 43.632 122.509 43.792L121.181 47.152C120.765 46.992 120.349 46.912 119.933 46.912C119.229 46.912 118.583 47.088 117.997 47.44C117.41 47.7813 116.941 48.2453 116.589 48.832C116.237 49.4187 116.061 50.0693 116.061 50.784V60H112.733ZM130.648 60.416C129.176 60.416 127.832 60.0373 126.616 59.28C125.41 58.5227 124.445 57.5093 123.72 56.24C123.005 54.96 122.648 53.5467 122.648 52C122.648 50.8267 122.856 49.7333 123.272 48.72C123.688 47.696 124.258 46.8 124.984 46.032C125.72 45.2533 126.573 44.6453 127.544 44.208C128.514 43.7707 129.549 43.552 130.648 43.552C132.12 43.552 133.458 43.9307 134.664 44.688C135.88 45.4453 136.845 46.464 137.56 47.744C138.285 49.024 138.648 50.4427 138.648 52C138.648 53.1627 138.44 54.2507 138.024 55.264C137.608 56.2773 137.032 57.1733 136.296 57.952C135.57 58.72 134.722 59.3227 133.752 59.76C132.792 60.1973 131.757 60.416 130.648 60.416ZM130.648 57.088C131.533 57.088 132.328 56.8533 133.032 56.384C133.736 55.9147 134.29 55.296 134.696 54.528C135.112 53.7493 135.32 52.9067 135.32 52C135.32 51.072 135.106 50.2187 134.68 49.44C134.264 48.6613 133.704 48.0427 133 47.584C132.296 47.1147 131.512 46.88 130.648 46.88C129.773 46.88 128.978 47.1147 128.264 47.584C127.56 48.0533 127 48.6773 126.584 49.456C126.178 50.2347 125.976 51.0827 125.976 52C125.976 52.9493 126.189 53.808 126.616 54.576C127.042 55.344 127.608 55.9573 128.312 56.416C129.026 56.864 129.805 57.088 130.648 57.088ZM153.377 44H156.705V60.416C156.705 61.5147 156.471 62.528 156.001 63.456C155.543 64.384 154.919 65.184 154.129 65.856C153.34 66.5387 152.433 67.0667 151.409 67.44C150.396 67.8133 149.335 68 148.225 68C147.105 68 146.028 67.76 144.993 67.28C143.959 66.8107 143.047 66.1707 142.257 65.36C141.479 64.5493 140.897 63.632 140.513 62.608L143.569 61.232C143.783 61.8933 144.124 62.48 144.593 62.992C145.073 63.504 145.628 63.9093 146.257 64.208C146.897 64.5067 147.553 64.656 148.225 64.656C148.887 64.656 149.521 64.5493 150.129 64.336C150.748 64.1333 151.297 63.8453 151.777 63.472C152.268 63.0987 152.657 62.6507 152.945 62.128C153.233 61.6053 153.377 61.0347 153.377 60.416V57.712C152.855 58.5227 152.183 59.1787 151.361 59.68C150.54 60.1707 149.585 60.416 148.497 60.416C147.367 60.416 146.3 60.1973 145.297 59.76C144.295 59.3227 143.415 58.72 142.657 57.952C141.9 57.1733 141.308 56.2773 140.881 55.264C140.455 54.2507 140.241 53.1627 140.241 52C140.241 50.8373 140.455 49.7493 140.881 48.736C141.308 47.712 141.9 46.816 142.657 46.048C143.415 45.2693 144.295 44.6613 145.297 44.224C146.3 43.7867 147.367 43.568 148.497 43.568C149.585 43.568 150.54 43.8187 151.361 44.32C152.183 44.8107 152.855 45.4667 153.377 46.288V44ZM148.529 57.2C149.457 57.2 150.268 56.9653 150.961 56.496C151.655 56.016 152.193 55.3813 152.577 54.592C152.961 53.8027 153.153 52.9387 153.153 52C153.153 51.04 152.956 50.1707 152.561 49.392C152.177 48.6027 151.639 47.9733 150.945 47.504C150.252 47.024 149.447 46.784 148.529 46.784C147.633 46.784 146.812 47.0187 146.065 47.488C145.329 47.9573 144.743 48.5867 144.305 49.376C143.868 50.1653 143.649 51.04 143.649 52C143.649 52.96 143.868 53.8347 144.305 54.624C144.753 55.4133 145.345 56.0427 146.081 56.512C146.828 56.9707 147.644 57.2 148.529 57.2ZM160.545 60V44H163.873V45.696C164.428 45.0347 165.11 44.512 165.921 44.128C166.732 43.744 167.606 43.552 168.545 43.552C169.142 43.552 169.734 43.632 170.321 43.792L168.993 47.152C168.577 46.992 168.161 46.912 167.745 46.912C167.041 46.912 166.396 47.088 165.809 47.44C165.222 47.7813 164.753 48.2453 164.401 48.832C164.049 49.4187 163.873 50.0693 163.873 50.784V60H160.545ZM183.868 44H187.196V60H183.852L183.724 57.68C183.255 58.5013 182.62 59.1627 181.82 59.664C181.02 60.1653 180.076 60.416 178.988 60.416C177.815 60.416 176.711 60.1973 175.676 59.76C174.641 59.312 173.729 58.6933 172.94 57.904C172.161 57.1147 171.553 56.208 171.116 55.184C170.679 54.1493 170.46 53.04 170.46 51.856C170.46 50.7147 170.673 49.6427 171.1 48.64C171.527 47.6267 172.119 46.7413 172.876 45.984C173.633 45.2267 174.508 44.6347 175.5 44.208C176.503 43.7707 177.575 43.552 178.716 43.552C179.879 43.552 180.903 43.8187 181.788 44.352C182.684 44.8747 183.425 45.5467 184.012 46.368L183.868 44ZM178.908 57.2C179.847 57.2 180.668 56.9707 181.372 56.512C182.076 56.0427 182.62 55.4133 183.004 54.624C183.399 53.8347 183.596 52.96 183.596 52C183.596 51.0293 183.399 50.1493 183.004 49.36C182.609 48.5707 182.06 47.9467 181.356 47.488C180.663 47.0187 179.847 46.784 178.908 46.784C177.98 46.784 177.132 47.0187 176.364 47.488C175.596 47.9573 174.988 48.5867 174.54 49.376C174.092 50.1653 173.868 51.04 173.868 52C173.868 52.9707 174.097 53.8507 174.556 54.64C175.025 55.4187 175.639 56.0427 176.396 56.512C177.164 56.9707 178.001 57.2 178.908 57.2ZM190.389 60V44H193.717V45.696C194.271 45.0347 194.949 44.512 195.749 44.128C196.559 43.744 197.434 43.552 198.373 43.552C199.514 43.552 200.565 43.8293 201.525 44.384C202.485 44.928 203.247 45.6533 203.813 46.56C204.378 45.6533 205.13 44.928 206.069 44.384C207.018 43.8293 208.063 43.552 209.205 43.552C210.389 43.552 211.466 43.84 212.437 44.416C213.407 44.992 214.181 45.7653 214.757 46.736C215.333 47.7067 215.621 48.784 215.621 49.968V60H212.293V50.816C212.293 50.112 212.122 49.4667 211.781 48.88C211.439 48.2933 210.981 47.8187 210.405 47.456C209.829 47.0933 209.189 46.912 208.485 46.912C207.781 46.912 207.141 47.0827 206.565 47.424C205.989 47.7653 205.53 48.2293 205.189 48.816C204.847 49.4027 204.677 50.0693 204.677 50.816V60H201.349V50.816C201.349 50.0693 201.178 49.4027 200.837 48.816C200.495 48.2293 200.031 47.7653 199.445 47.424C198.869 47.0827 198.229 46.912 197.525 46.912C196.831 46.912 196.191 47.0933 195.605 47.456C195.029 47.8187 194.57 48.2933 194.229 48.88C193.887 49.4667 193.717 50.112 193.717 50.816V60H190.389ZM218.826 60V44H222.154V45.696C222.709 45.0347 223.386 44.512 224.186 44.128C224.997 43.744 225.872 43.552 226.81 43.552C227.952 43.552 229.002 43.8293 229.962 44.384C230.922 44.928 231.685 45.6533 232.25 46.56C232.816 45.6533 233.568 44.928 234.506 44.384C235.456 43.8293 236.501 43.552 237.642 43.552C238.826 43.552 239.904 43.84 240.874 44.416C241.845 44.992 242.618 45.7653 243.194 46.736C243.77 47.7067 244.058 48.784 244.058 49.968V60H240.73V50.816C240.73 50.112 240.56 49.4667 240.218 48.88C239.877 48.2933 239.418 47.8187 238.842 47.456C238.266 47.0933 237.626 46.912 236.922 46.912C236.218 46.912 235.578 47.0827 235.002 47.424C234.426 47.7653 233.968 48.2293 233.626 48.816C233.285 49.4027 233.114 50.0693 233.114 50.816V60H229.786V50.816C229.786 50.0693 229.616 49.4027 229.274 48.816C228.933 48.2293 228.469 47.7653 227.882 47.424C227.306 47.0827 226.666 46.912 225.962 46.912C225.269 46.912 224.629 47.0933 224.042 47.456C223.466 47.8187 223.008 48.2933 222.666 48.88C222.325 49.4667 222.154 50.112 222.154 50.816V60H218.826ZM259.399 44H262.727V60H259.383L259.255 57.68C258.786 58.5013 258.151 59.1627 257.351 59.664C256.551 60.1653 255.607 60.416 254.519 60.416C253.346 60.416 252.242 60.1973 251.207 59.76C250.173 59.312 249.261 58.6933 248.471 57.904C247.693 57.1147 247.085 56.208 246.647 55.184C246.21 54.1493 245.991 53.04 245.991 51.856C245.991 50.7147 246.205 49.6427 246.631 48.64C247.058 47.6267 247.65 46.7413 248.407 45.984C249.165 45.2267 250.039 44.6347 251.031 44.208C252.034 43.7707 253.106 43.552 254.247 43.552C255.41 43.552 256.434 43.8187 257.319 44.352C258.215 44.8747 258.957 45.5467 259.543 46.368L259.399 44ZM254.439 57.2C255.378 57.2 256.199 56.9707 256.903 56.512C257.607 56.0427 258.151 55.4133 258.535 54.624C258.93 53.8347 259.127 52.96 259.127 52C259.127 51.0293 258.93 50.1493 258.535 49.36C258.141 48.5707 257.591 47.9467 256.887 47.488C256.194 47.0187 255.378 46.784 254.439 46.784C253.511 46.784 252.663 47.0187 251.895 47.488C251.127 47.9573 250.519 48.5867 250.071 49.376C249.623 50.1653 249.399 51.04 249.399 52C249.399 52.9707 249.629 53.8507 250.087 54.64C250.557 55.4187 251.17 56.0427 251.927 56.512C252.695 56.9707 253.533 57.2 254.439 57.2ZM274.365 43.552C275.922 43.552 277.336 43.9307 278.605 44.688C279.885 45.4453 280.904 46.464 281.661 47.744C282.418 49.0133 282.797 50.4267 282.797 51.984C282.797 53.1467 282.578 54.24 282.141 55.264C281.704 56.2773 281.096 57.1733 280.317 57.952C279.549 58.72 278.653 59.3227 277.629 59.76C276.616 60.1973 275.528 60.416 274.365 60.416C273.245 60.416 272.264 60.16 271.421 59.648C270.589 59.1253 269.906 58.4587 269.373 57.648V60H266.045V36H269.373V46.32C269.906 45.4987 270.589 44.832 271.421 44.32C272.264 43.808 273.245 43.552 274.365 43.552ZM274.333 57.184C275.261 57.184 276.109 56.9493 276.877 56.48C277.645 56.0107 278.253 55.3813 278.701 54.592C279.16 53.8027 279.389 52.9333 279.389 51.984C279.389 51.0133 279.16 50.1333 278.701 49.344C278.242 48.5547 277.629 47.9307 276.861 47.472C276.093 47.0027 275.25 46.768 274.333 46.768C273.405 46.768 272.589 47.0027 271.885 47.472C271.181 47.9413 270.632 48.5707 270.237 49.36C269.842 50.1493 269.645 51.024 269.645 51.984C269.645 52.944 269.842 53.8187 270.237 54.608C270.632 55.3973 271.181 56.0267 271.885 56.496C272.589 56.9547 273.405 57.184 274.333 57.184ZM285.17 60V36H288.498V60H285.17ZM299.148 60.416C297.676 60.416 296.332 60.0373 295.116 59.28C293.91 58.5227 292.945 57.5093 292.22 56.24C291.505 54.96 291.148 53.5467 291.148 52C291.148 50.8267 291.356 49.7333 291.772 48.72C292.188 47.696 292.758 46.8 293.484 46.032C294.22 45.2533 295.073 44.6453 296.044 44.208C297.014 43.7707 298.049 43.552 299.148 43.552C300.374 43.552 301.5 43.808 302.524 44.32C303.548 44.8213 304.422 45.52 305.148 46.416C305.873 47.3013 306.406 48.3253 306.748 49.488C307.089 50.64 307.19 51.8667 307.052 53.168H294.716C294.854 53.904 295.121 54.5707 295.516 55.168C295.921 55.7547 296.433 56.2187 297.052 56.56C297.681 56.9013 298.38 57.0773 299.148 57.088C299.958 57.088 300.694 56.8853 301.356 56.48C302.028 56.0747 302.577 55.5147 303.004 54.8L306.38 55.584C305.74 57.0027 304.774 58.1653 303.484 59.072C302.193 59.968 300.748 60.416 299.148 60.416ZM294.604 50.624H303.692C303.585 49.856 303.313 49.1627 302.876 48.544C302.449 47.9147 301.91 47.4187 301.26 47.056C300.62 46.6827 299.916 46.496 299.148 46.496C298.39 46.496 297.686 46.6773 297.036 47.04C296.396 47.4027 295.862 47.8987 295.436 48.528C295.02 49.1467 294.742 49.8453 294.604 50.624ZM96.4 98V75.6H99.728V98H96.4ZM118.445 87.968V98H115.117V88.784C115.117 88.0693 114.941 87.4187 114.589 86.832C114.248 86.2453 113.784 85.7813 113.197 85.44C112.621 85.088 111.97 84.912 111.245 84.912C110.541 84.912 109.896 85.088 109.309 85.44C108.722 85.7813 108.253 86.2453 107.901 86.832C107.549 87.4187 107.373 88.0693 107.373 88.784V98H104.045V82H107.373V83.696C107.928 83.0347 108.61 82.512 109.421 82.128C110.232 81.744 111.106 81.552 112.045 81.552C113.229 81.552 114.306 81.84 115.277 82.416C116.248 82.992 117.016 83.7653 117.581 84.736C118.157 85.7067 118.445 86.784 118.445 87.968ZM130.087 85.328H126.727L126.711 98H123.383L123.399 85.328H120.855V82H123.399L123.383 76.976H126.711L126.727 82H130.087V85.328ZM139.616 98.416C138.144 98.416 136.8 98.0373 135.584 97.28C134.379 96.5227 133.414 95.5093 132.688 94.24C131.974 92.96 131.616 91.5467 131.616 90C131.616 88.8267 131.824 87.7333 132.24 86.72C132.656 85.696 133.227 84.8 133.952 84.032C134.688 83.2533 135.542 82.6453 136.512 82.208C137.483 81.7707 138.518 81.552 139.616 81.552C140.843 81.552 141.968 81.808 142.992 82.32C144.016 82.8213 144.891 83.52 145.616 84.416C146.342 85.3013 146.875 86.3253 147.216 87.488C147.558 88.64 147.659 89.8667 147.52 91.168H135.184C135.323 91.904 135.59 92.5707 135.984 93.168C136.39 93.7547 136.902 94.2187 137.52 94.56C138.15 94.9013 138.848 95.0773 139.616 95.088C140.427 95.088 141.163 94.8853 141.824 94.48C142.496 94.0747 143.046 93.5147 143.472 92.8L146.848 93.584C146.208 95.0027 145.243 96.1653 143.952 97.072C142.662 97.968 141.216 98.416 139.616 98.416ZM135.072 88.624H144.16C144.054 87.856 143.782 87.1627 143.344 86.544C142.918 85.9147 142.379 85.4187 141.728 85.056C141.088 84.6827 140.384 84.496 139.616 84.496C138.859 84.496 138.155 84.6773 137.504 85.04C136.864 85.4027 136.331 85.8987 135.904 86.528C135.488 87.1467 135.211 87.8453 135.072 88.624ZM150.17 98V82H153.498V83.696C154.053 83.0347 154.735 82.512 155.546 82.128C156.357 81.744 157.231 81.552 158.17 81.552C158.767 81.552 159.359 81.632 159.946 81.792L158.618 85.152C158.202 84.992 157.786 84.912 157.37 84.912C156.666 84.912 156.021 85.088 155.434 85.44C154.847 85.7813 154.378 86.2453 154.026 86.832C153.674 87.4187 153.498 88.0693 153.498 88.784V98H150.17ZM166.938 78.368V82H171.45V85.328H166.938V98H163.61V85.328H161.706V82H163.61V78.368C163.61 77.4933 163.824 76.6987 164.25 75.984C164.677 75.2587 165.248 74.6827 165.962 74.256C166.688 73.8293 167.493 73.616 168.378 73.616C169.018 73.616 169.642 73.744 170.25 74C170.858 74.256 171.402 74.6507 171.882 75.184L169.498 77.536C169.381 77.344 169.216 77.2 169.002 77.104C168.8 76.9973 168.592 76.944 168.378 76.944C167.984 76.944 167.642 77.0827 167.354 77.36C167.077 77.6373 166.938 77.9733 166.938 78.368ZM186.181 82H189.509V98H186.165L186.037 95.68C185.567 96.5013 184.933 97.1627 184.133 97.664C183.333 98.1653 182.389 98.416 181.301 98.416C180.127 98.416 179.023 98.1973 177.989 97.76C176.954 97.312 176.042 96.6933 175.253 95.904C174.474 95.1147 173.866 94.208 173.429 93.184C172.991 92.1493 172.773 91.04 172.773 89.856C172.773 88.7147 172.986 87.6427 173.413 86.64C173.839 85.6267 174.431 84.7413 175.189 83.984C175.946 83.2267 176.821 82.6347 177.813 82.208C178.815 81.7707 179.887 81.552 181.029 81.552C182.191 81.552 183.215 81.8187 184.101 82.352C184.997 82.8747 185.738 83.5467 186.325 84.368L186.181 82ZM181.22 95.2C182.159 95.2 182.981 94.9707 183.685 94.512C184.389 94.0427 184.933 93.4133 185.317 92.624C185.711 91.8347 185.909 90.96 185.909 90C185.909 89.0293 185.711 88.1493 185.317 87.36C184.922 86.5707 184.373 85.9467 183.669 85.488C182.975 85.0187 182.159 84.784 181.22 84.784C180.293 84.784 179.445 85.0187 178.677 85.488C177.909 85.9573 177.301 86.5867 176.853 87.376C176.405 88.1653 176.181 89.04 176.181 90C176.181 90.9707 176.41 91.8507 176.869 92.64C177.338 93.4187 177.951 94.0427 178.709 94.512C179.477 94.9707 180.314 95.2 181.22 95.2ZM202.837 93.456L205.813 95.072C205.087 96.0853 204.165 96.896 203.045 97.504C201.935 98.112 200.73 98.416 199.429 98.416C197.957 98.416 196.613 98.0373 195.397 97.28C194.191 96.5227 193.226 95.5093 192.501 94.24C191.786 92.96 191.429 91.5467 191.429 90C191.429 88.8267 191.637 87.7333 192.053 86.72C192.469 85.696 193.039 84.8 193.765 84.032C194.501 83.2533 195.354 82.6453 196.325 82.208C197.295 81.7707 198.33 81.552 199.429 81.552C200.73 81.552 201.935 81.856 203.045 82.464C204.165 83.072 205.087 83.888 205.813 84.912L202.837 86.528C202.389 85.9947 201.866 85.5893 201.269 85.312C200.671 85.024 200.058 84.88 199.429 84.88C198.554 84.88 197.759 85.12 197.045 85.6C196.341 86.0693 195.781 86.6933 195.365 87.472C194.959 88.24 194.757 89.0827 194.757 90C194.757 90.9067 194.965 91.7493 195.381 92.528C195.797 93.296 196.357 93.9147 197.061 94.384C197.775 94.8533 198.565 95.088 199.429 95.088C200.09 95.088 200.719 94.9387 201.317 94.64C201.914 94.3413 202.421 93.9467 202.837 93.456ZM215.366 98.416C213.894 98.416 212.55 98.0373 211.334 97.28C210.129 96.5227 209.164 95.5093 208.438 94.24C207.724 92.96 207.366 91.5467 207.366 90C207.366 88.8267 207.574 87.7333 207.99 86.72C208.406 85.696 208.977 84.8 209.702 84.032C210.438 83.2533 211.292 82.6453 212.262 82.208C213.233 81.7707 214.268 81.552 215.366 81.552C216.593 81.552 217.718 81.808 218.742 82.32C219.766 82.8213 220.641 83.52 221.366 84.416C222.092 85.3013 222.625 86.3253 222.966 87.488C223.308 88.64 223.409 89.8667 223.27 91.168H210.934C211.073 91.904 211.34 92.5707 211.734 93.168C212.14 93.7547 212.652 94.2187 213.27 94.56C213.9 94.9013 214.598 95.0773 215.366 95.088C216.177 95.088 216.913 94.8853 217.574 94.48C218.246 94.0747 218.796 93.5147 219.222 92.8L222.598 93.584C221.958 95.0027 220.993 96.1653 219.702 97.072C218.412 97.968 216.966 98.416 215.366 98.416ZM210.822 88.624H219.91C219.804 87.856 219.532 87.1627 219.094 86.544C218.668 85.9147 218.129 85.4187 217.478 85.056C216.838 84.6827 216.134 84.496 215.366 84.496C214.609 84.496 213.905 84.6773 213.254 85.04C212.614 85.4027 212.081 85.8987 211.654 86.528C211.238 87.1467 210.961 87.8453 210.822 88.624Z" fill="white"/>
<path id="Create custom trading strategies with our programmable interface and API." d="M102.912 141.234C102.06 141.234 101.259 141.066 100.509 140.73C99.759 140.388 99.099 139.92 98.529 139.326C97.965 138.726 97.521 138.03 97.197 137.238C96.879 136.446 96.72 135.6 96.72 134.7C96.72 133.8 96.879 132.954 97.197 132.162C97.521 131.37 97.965 130.677 98.529 130.083C99.099 129.483 99.759 129.015 100.509 128.679C101.259 128.337 102.06 128.166 102.912 128.166C103.932 128.166 104.871 128.403 105.729 128.877C106.587 129.351 107.298 129.981 107.862 130.767L106.746 131.37C106.302 130.776 105.738 130.305 105.054 129.957C104.376 129.603 103.662 129.426 102.912 129.426C102.222 129.426 101.577 129.567 100.977 129.849C100.383 130.125 99.861 130.506 99.411 130.992C98.961 131.478 98.61 132.039 98.358 132.675C98.106 133.311 97.98 133.986 97.98 134.7C97.98 135.426 98.106 136.107 98.358 136.743C98.616 137.379 98.97 137.94 99.42 138.426C99.876 138.912 100.401 139.293 100.995 139.569C101.595 139.839 102.234 139.974 102.912 139.974C103.692 139.974 104.415 139.797 105.081 139.443C105.753 139.083 106.308 138.615 106.746 138.039L107.862 138.642C107.298 139.428 106.587 140.058 105.729 140.532C104.871 141 103.932 141.234 102.912 141.234ZM109.684 141V132H110.944V133.242C111.262 132.786 111.676 132.423 112.186 132.153C112.696 131.883 113.251 131.748 113.851 131.748C114.199 131.748 114.535 131.793 114.859 131.883L114.346 133.134C114.094 133.056 113.848 133.017 113.608 133.017C113.122 133.017 112.675 133.137 112.267 133.377C111.865 133.617 111.544 133.938 111.304 134.34C111.064 134.742 110.944 135.189 110.944 135.681V141H109.684ZM119.479 141.234C118.651 141.234 117.895 141.021 117.211 140.595C116.533 140.169 115.99 139.599 115.582 138.885C115.18 138.165 114.979 137.37 114.979 136.5C114.979 135.84 115.096 135.225 115.33 134.655C115.564 134.079 115.885 133.575 116.293 133.143C116.707 132.705 117.187 132.363 117.733 132.117C118.279 131.871 118.861 131.748 119.479 131.748C120.145 131.748 120.757 131.88 121.315 132.144C121.879 132.408 122.362 132.777 122.764 133.251C123.172 133.725 123.478 134.28 123.682 134.916C123.892 135.552 123.979 136.239 123.943 136.977H116.311C116.383 137.547 116.563 138.057 116.851 138.507C117.145 138.957 117.517 139.314 117.967 139.578C118.423 139.836 118.927 139.968 119.479 139.974C120.079 139.974 120.619 139.818 121.099 139.506C121.585 139.194 121.975 138.765 122.269 138.219L123.547 138.516C123.187 139.314 122.644 139.968 121.918 140.478C121.192 140.982 120.379 141.234 119.479 141.234ZM116.275 135.96H122.674C122.632 135.402 122.461 134.892 122.161 134.43C121.867 133.962 121.486 133.59 121.018 133.314C120.55 133.032 120.037 132.891 119.479 132.891C118.921 132.891 118.411 133.029 117.949 133.305C117.487 133.575 117.109 133.944 116.815 134.412C116.521 134.874 116.341 135.39 116.275 135.96ZM132.796 132H134.056V141H132.796L132.751 139.326C132.457 139.896 132.046 140.358 131.518 140.712C130.99 141.06 130.36 141.234 129.628 141.234C128.968 141.234 128.35 141.111 127.774 140.865C127.198 140.613 126.691 140.268 126.253 139.83C125.815 139.392 125.473 138.885 125.227 138.309C124.981 137.733 124.858 137.115 124.858 136.455C124.858 135.807 124.978 135.198 125.218 134.628C125.464 134.058 125.8 133.557 126.226 133.125C126.658 132.693 127.156 132.357 127.72 132.117C128.29 131.871 128.899 131.748 129.547 131.748C130.297 131.748 130.951 131.928 131.509 132.288C132.067 132.642 132.511 133.107 132.841 133.683L132.796 132ZM129.601 140.01C130.243 140.01 130.795 139.854 131.257 139.542C131.719 139.224 132.073 138.798 132.319 138.264C132.571 137.73 132.697 137.142 132.697 136.5C132.697 135.84 132.571 135.246 132.319 134.718C132.067 134.184 131.71 133.761 131.248 133.449C130.786 133.137 130.237 132.981 129.601 132.981C128.965 132.981 128.383 133.14 127.855 133.458C127.333 133.77 126.916 134.193 126.604 134.727C126.298 135.261 126.145 135.852 126.145 136.5C126.145 137.154 126.304 137.748 126.622 138.282C126.94 138.81 127.36 139.23 127.882 139.542C128.41 139.854 128.983 140.01 129.601 140.01ZM140.456 133.26H138.305L138.296 141H137.036L137.045 133.26H135.416V132H137.045L137.036 129.174H138.296L138.305 132H140.456V133.26ZM145.776 141.234C144.948 141.234 144.192 141.021 143.508 140.595C142.83 140.169 142.287 139.599 141.879 138.885C141.477 138.165 141.276 137.37 141.276 136.5C141.276 135.84 141.393 135.225 141.627 134.655C141.861 134.079 142.182 133.575 142.59 133.143C143.004 132.705 143.484 132.363 144.03 132.117C144.576 131.871 145.158 131.748 145.776 131.748C146.442 131.748 147.054 131.88 147.612 132.144C148.176 132.408 148.659 132.777 149.061 133.251C149.469 133.725 149.775 134.28 149.979 134.916C150.189 135.552 150.276 136.239 150.24 136.977H142.608C142.68 137.547 142.86 138.057 143.148 138.507C143.442 138.957 143.814 139.314 144.264 139.578C144.72 139.836 145.224 139.968 145.776 139.974C146.376 139.974 146.916 139.818 147.396 139.506C147.882 139.194 148.272 138.765 148.566 138.219L149.844 138.516C149.484 139.314 148.941 139.968 148.215 140.478C147.489 140.982 146.676 141.234 145.776 141.234ZM142.572 135.96H148.971C148.929 135.402 148.758 134.892 148.458 134.43C148.164 133.962 147.783 133.59 147.315 133.314C146.847 133.032 146.334 132.891 145.776 132.891C145.218 132.891 144.708 133.029 144.246 133.305C143.784 133.575 143.406 133.944 143.112 134.412C142.818 134.874 142.638 135.39 142.572 135.96ZM162.621 138.741L163.746 139.353C163.338 139.923 162.819 140.379 162.189 140.721C161.565 141.063 160.887 141.234 160.155 141.234C159.327 141.234 158.571 141.021 157.887 140.595C157.209 140.169 156.666 139.599 156.258 138.885C155.856 138.165 155.655 137.37 155.655 136.5C155.655 135.84 155.772 135.225 156.006 134.655C156.24 134.079 156.561 133.575 156.969 133.143C157.383 132.705 157.863 132.363 158.409 132.117C158.955 131.871 159.537 131.748 160.155 131.748C160.887 131.748 161.565 131.919 162.189 132.261C162.819 132.603 163.338 133.062 163.746 133.638L162.621 134.241C162.309 133.845 161.934 133.542 161.496 133.332C161.058 133.116 160.611 133.008 160.155 133.008C159.549 133.008 159 133.17 158.508 133.494C158.016 133.812 157.626 134.235 157.338 134.763C157.056 135.291 156.915 135.87 156.915 136.5C156.915 137.13 157.059 137.709 157.347 138.237C157.641 138.765 158.034 139.188 158.526 139.506C159.018 139.818 159.561 139.974 160.155 139.974C160.647 139.974 161.109 139.86 161.541 139.632C161.973 139.404 162.333 139.107 162.621 138.741ZM164.923 137.553V132H166.183V137.301C166.183 137.793 166.303 138.24 166.543 138.642C166.783 139.044 167.104 139.365 167.506 139.605C167.914 139.845 168.361 139.965 168.847 139.965C169.339 139.965 169.783 139.845 170.179 139.605C170.581 139.365 170.902 139.044 171.142 138.642C171.382 138.24 171.502 137.793 171.502 137.301V132H172.762L172.771 141H171.511L171.502 139.74C171.184 140.196 170.77 140.559 170.26 140.829C169.756 141.099 169.204 141.234 168.604 141.234C167.926 141.234 167.308 141.069 166.75 140.739C166.192 140.409 165.748 139.965 165.418 139.407C165.088 138.849 164.923 138.231 164.923 137.553ZM177.345 141.171C176.853 141.159 176.373 141.069 175.905 140.901C175.437 140.733 175.029 140.505 174.681 140.217C174.333 139.929 174.084 139.602 173.934 139.236L175.023 138.768C175.119 139.002 175.296 139.218 175.554 139.416C175.818 139.608 176.118 139.764 176.454 139.884C176.79 139.998 177.123 140.055 177.453 140.055C177.819 140.055 178.161 139.995 178.479 139.875C178.797 139.755 179.055 139.584 179.253 139.362C179.457 139.134 179.559 138.867 179.559 138.561C179.559 138.231 179.451 137.973 179.235 137.787C179.019 137.595 178.746 137.445 178.416 137.337C178.086 137.223 177.747 137.115 177.399 137.013C176.763 136.839 176.202 136.647 175.716 136.437C175.23 136.227 174.849 135.96 174.573 135.636C174.303 135.306 174.168 134.883 174.168 134.367C174.168 133.821 174.321 133.35 174.627 132.954C174.939 132.552 175.344 132.243 175.842 132.027C176.346 131.805 176.883 131.694 177.453 131.694C178.185 131.694 178.851 131.853 179.451 132.171C180.057 132.489 180.495 132.912 180.765 133.44L179.748 134.043C179.64 133.797 179.469 133.584 179.235 133.404C179.001 133.224 178.734 133.083 178.434 132.981C178.14 132.879 177.84 132.825 177.534 132.819C177.15 132.813 176.793 132.87 176.463 132.99C176.133 133.104 175.866 133.275 175.662 133.503C175.464 133.731 175.365 134.01 175.365 134.34C175.365 134.67 175.464 134.922 175.662 135.096C175.86 135.264 176.127 135.402 176.463 135.51C176.805 135.612 177.189 135.732 177.615 135.87C178.161 136.044 178.674 136.242 179.154 136.464C179.634 136.686 180.021 136.962 180.315 137.292C180.609 137.622 180.753 138.039 180.747 138.543C180.747 139.083 180.585 139.554 180.261 139.956C179.937 140.358 179.517 140.667 179.001 140.883C178.485 141.093 177.933 141.189 177.345 141.171ZM186.898 133.26H184.747L184.738 141H183.478L183.487 133.26H181.858V132H183.487L183.478 129.174H184.738L184.747 132H186.898V133.26ZM192.218 141.234C191.39 141.234 190.634 141.021 189.95 140.595C189.272 140.169 188.729 139.599 188.321 138.885C187.919 138.165 187.718 137.37 187.718 136.5C187.718 135.84 187.835 135.225 188.069 134.655C188.303 134.079 188.624 133.575 189.032 133.143C189.446 132.705 189.926 132.363 190.472 132.117C191.018 131.871 191.6 131.748 192.218 131.748C193.046 131.748 193.799 131.961 194.477 132.387C195.161 132.813 195.704 133.386 196.106 134.106C196.514 134.826 196.718 135.624 196.718 136.5C196.718 137.154 196.601 137.766 196.367 138.336C196.133 138.906 195.809 139.41 195.395 139.848C194.987 140.28 194.51 140.619 193.964 140.865C193.424 141.111 192.842 141.234 192.218 141.234ZM192.218 139.974C192.83 139.974 193.379 139.815 193.865 139.497C194.357 139.173 194.744 138.747 195.026 138.219C195.314 137.691 195.458 137.118 195.458 136.5C195.458 135.87 195.314 135.291 195.026 134.763C194.738 134.229 194.348 133.803 193.856 133.485C193.37 133.167 192.824 133.008 192.218 133.008C191.606 133.008 191.054 133.17 190.562 133.494C190.076 133.812 189.689 134.235 189.401 134.763C189.119 135.291 188.978 135.87 188.978 136.5C188.978 137.148 189.125 137.736 189.419 138.264C189.713 138.786 190.106 139.203 190.598 139.515C191.09 139.821 191.63 139.974 192.218 139.974ZM198.242 141V132H199.502V133.242C199.826 132.786 200.24 132.423 200.744 132.153C201.248 131.883 201.8 131.748 202.4 131.748C203.078 131.748 203.699 131.916 204.263 132.252C204.827 132.582 205.268 133.023 205.586 133.575C205.904 133.023 206.342 132.582 206.9 132.252C207.458 131.916 208.076 131.748 208.754 131.748C209.432 131.748 210.05 131.913 210.608 132.243C211.166 132.573 211.61 133.017 211.94 133.575C212.27 134.133 212.435 134.751 212.435 135.429V141H211.175V135.708C211.175 135.228 211.058 134.784 210.824 134.376C210.59 133.968 210.275 133.641 209.879 133.395C209.489 133.143 209.054 133.017 208.574 133.017C208.094 133.017 207.656 133.134 207.26 133.368C206.87 133.596 206.558 133.914 206.324 134.322C206.09 134.724 205.973 135.186 205.973 135.708V141H204.713V135.708C204.713 135.186 204.596 134.724 204.362 134.322C204.128 133.914 203.813 133.596 203.417 133.368C203.021 133.134 202.583 133.017 202.103 133.017C201.629 133.017 201.194 133.143 200.798 133.395C200.402 133.641 200.087 133.968 199.853 134.376C199.619 134.784 199.502 135.228 199.502 135.708V141H198.242ZM223.161 133.26H221.01L221.001 141H219.741L219.75 133.26H218.121V132H219.75L219.741 129.174H221.001L221.01 132H223.161V133.26ZM224.768 141V132H226.028V133.242C226.346 132.786 226.76 132.423 227.27 132.153C227.78 131.883 228.335 131.748 228.935 131.748C229.283 131.748 229.619 131.793 229.943 131.883L229.43 133.134C229.178 133.056 228.932 133.017 228.692 133.017C228.206 133.017 227.759 133.137 227.351 133.377C226.949 133.617 226.628 133.938 226.388 134.34C226.148 134.742 226.028 135.189 226.028 135.681V141H224.768ZM238.001 132H239.261V141H238.001L237.956 139.326C237.662 139.896 237.251 140.358 236.723 140.712C236.195 141.06 235.565 141.234 234.833 141.234C234.173 141.234 233.555 141.111 232.979 140.865C232.403 140.613 231.896 140.268 231.458 139.83C231.02 139.392 230.678 138.885 230.432 138.309C230.186 137.733 230.063 137.115 230.063 136.455C230.063 135.807 230.183 135.198 230.423 134.628C230.669 134.058 231.005 133.557 231.431 133.125C231.863 132.693 232.361 132.357 232.925 132.117C233.495 131.871 234.104 131.748 234.752 131.748C235.502 131.748 236.156 131.928 236.714 132.288C237.272 132.642 237.716 133.107 238.046 133.683L238.001 132ZM234.806 140.01C235.448 140.01 236 139.854 236.462 139.542C236.924 139.224 237.278 138.798 237.524 138.264C237.776 137.73 237.902 137.142 237.902 136.5C237.902 135.84 237.776 135.246 237.524 134.718C237.272 134.184 236.915 133.761 236.453 133.449C235.991 133.137 235.442 132.981 234.806 132.981C234.17 132.981 233.588 133.14 233.06 133.458C232.538 133.77 232.121 134.193 231.809 134.727C231.503 135.261 231.35 135.852 231.35 136.5C231.35 137.154 231.509 137.748 231.827 138.282C232.145 138.81 232.565 139.23 233.087 139.542C233.615 139.854 234.188 140.01 234.806 140.01ZM248.294 127.5H249.554V141H248.294V139.317C247.982 139.893 247.553 140.358 247.007 140.712C246.467 141.06 245.825 141.234 245.081 141.234C244.427 141.234 243.815 141.111 243.245 140.865C242.675 140.619 242.171 140.28 241.733 139.848C241.301 139.41 240.962 138.906 240.716 138.336C240.47 137.766 240.347 137.154 240.347 136.5C240.347 135.846 240.47 135.234 240.716 134.664C240.962 134.088 241.301 133.584 241.733 133.152C242.171 132.714 242.675 132.372 243.245 132.126C243.815 131.88 244.427 131.757 245.081 131.757C245.825 131.757 246.467 131.934 247.007 132.288C247.553 132.636 247.982 133.095 248.294 133.665V127.5ZM245.09 140.01C245.732 140.01 246.284 139.854 246.746 139.542C247.208 139.224 247.562 138.798 247.808 138.264C248.06 137.73 248.186 137.142 248.186 136.5C248.186 135.84 248.06 135.246 247.808 134.718C247.556 134.184 247.199 133.761 246.737 133.449C246.275 133.137 245.726 132.981 245.09 132.981C244.454 132.981 243.875 133.14 243.353 133.458C242.831 133.77 242.414 134.193 242.102 134.727C241.79 135.261 241.634 135.852 241.634 136.5C241.634 137.154 241.793 137.748 242.111 138.282C242.429 138.81 242.849 139.23 243.371 139.542C243.899 139.854 244.472 140.01 245.09 140.01ZM251.715 132H252.975V141H251.715V132ZM252.354 130.425C252.15 130.425 251.976 130.359 251.832 130.227C251.694 130.089 251.625 129.918 251.625 129.714C251.625 129.51 251.694 129.342 251.832 129.21C251.976 129.072 252.15 129.003 252.354 129.003C252.552 129.003 252.72 129.072 252.858 129.21C253.002 129.342 253.074 129.51 253.074 129.714C253.074 129.918 253.005 130.089 252.867 130.227C252.729 130.359 252.558 130.425 252.354 130.425ZM262.955 135.429V141H261.695V135.681C261.695 135.189 261.575 134.742 261.335 134.34C261.095 133.938 260.774 133.617 260.372 133.377C259.97 133.137 259.523 133.017 259.031 133.017C258.545 133.017 258.098 133.137 257.69 133.377C257.288 133.617 256.967 133.938 256.727 134.34C256.487 134.742 256.367 135.189 256.367 135.681V141H255.107V132H256.367V133.242C256.685 132.786 257.099 132.423 257.609 132.153C258.119 131.883 258.674 131.748 259.274 131.748C259.952 131.748 260.57 131.913 261.128 132.243C261.686 132.573 262.13 133.017 262.46 133.575C262.79 134.133 262.955 134.751 262.955 135.429ZM271.737 132H272.997V141.333C272.997 141.909 272.871 142.449 272.619 142.953C272.373 143.457 272.037 143.898 271.611 144.276C271.191 144.66 270.711 144.96 270.171 145.176C269.631 145.392 269.07 145.5 268.488 145.5C267.864 145.5 267.261 145.356 266.679 145.068C266.097 144.786 265.59 144.408 265.158 143.934C264.732 143.46 264.429 142.935 264.249 142.359L265.41 141.828C265.524 142.278 265.737 142.683 266.049 143.043C266.367 143.409 266.739 143.697 267.165 143.907C267.597 144.123 268.038 144.231 268.488 144.231C268.902 144.231 269.301 144.153 269.685 143.997C270.075 143.847 270.423 143.64 270.729 143.376C271.041 143.112 271.287 142.803 271.467 142.449C271.647 142.101 271.737 141.729 271.737 141.333V139.344C271.425 139.908 271.002 140.364 270.468 140.712C269.94 141.06 269.325 141.234 268.623 141.234C267.993 141.234 267.399 141.111 266.841 140.865C266.289 140.619 265.803 140.28 265.383 139.848C264.963 139.41 264.633 138.906 264.393 138.336C264.159 137.766 264.042 137.154 264.042 136.5C264.042 135.846 264.159 135.234 264.393 134.664C264.633 134.088 264.963 133.584 265.383 133.152C265.803 132.714 266.289 132.372 266.841 132.126C267.399 131.88 267.993 131.757 268.623 131.757C269.325 131.757 269.94 131.931 270.468 132.279C271.002 132.621 271.425 133.077 271.737 133.647V132ZM268.632 140.01C269.256 140.01 269.793 139.848 270.243 139.524C270.699 139.2 271.05 138.771 271.296 138.237C271.542 137.703 271.665 137.124 271.665 136.5C271.665 135.858 271.539 135.273 271.287 134.745C271.041 134.211 270.69 133.785 270.234 133.467C269.778 133.143 269.244 132.981 268.632 132.981C268.02 132.981 267.462 133.14 266.958 133.458C266.46 133.77 266.064 134.193 265.77 134.727C265.476 135.261 265.329 135.852 265.329 136.5C265.329 137.148 265.479 137.739 265.779 138.273C266.079 138.801 266.478 139.224 266.976 139.542C267.48 139.854 268.032 140.01 268.632 140.01ZM282.269 141.171C281.777 141.159 281.297 141.069 280.829 140.901C280.361 140.733 279.953 140.505 279.605 140.217C279.257 139.929 279.008 139.602 278.858 139.236L279.947 138.768C280.043 139.002 280.22 139.218 280.478 139.416C280.742 139.608 281.042 139.764 281.378 139.884C281.714 139.998 282.047 140.055 282.377 140.055C282.743 140.055 283.085 139.995 283.403 139.875C283.721 139.755 283.979 139.584 284.177 139.362C284.381 139.134 284.483 138.867 284.483 138.561C284.483 138.231 284.375 137.973 284.159 137.787C283.943 137.595 283.67 137.445 283.34 137.337C283.01 137.223 282.671 137.115 282.323 137.013C281.687 136.839 281.126 136.647 280.64 136.437C280.154 136.227 279.773 135.96 279.497 135.636C279.227 135.306 279.092 134.883 279.092 134.367C279.092 133.821 279.245 133.35 279.551 132.954C279.863 132.552 280.268 132.243 280.766 132.027C281.27 131.805 281.807 131.694 282.377 131.694C283.109 131.694 283.775 131.853 284.375 132.171C284.981 132.489 285.419 132.912 285.689 133.44L284.672 134.043C284.564 133.797 284.393 133.584 284.159 133.404C283.925 133.224 283.658 133.083 283.358 132.981C283.064 132.879 282.764 132.825 282.458 132.819C282.074 132.813 281.717 132.87 281.387 132.99C281.057 133.104 280.79 133.275 280.586 133.503C280.388 133.731 280.289 134.01 280.289 134.34C280.289 134.67 280.388 134.922 280.586 135.096C280.784 135.264 281.051 135.402 281.387 135.51C281.729 135.612 282.113 135.732 282.539 135.87C283.085 136.044 283.598 136.242 284.078 136.464C284.558 136.686 284.945 136.962 285.239 137.292C285.533 137.622 285.677 138.039 285.671 138.543C285.671 139.083 285.509 139.554 285.185 139.956C284.861 140.358 284.441 140.667 283.925 140.883C283.409 141.093 282.857 141.189 282.269 141.171ZM291.822 133.26H289.671L289.662 141H288.402L288.411 133.26H286.782V132H288.411L288.402 129.174H289.662L289.671 132H291.822V133.26ZM293.428 141V132H294.688V133.242C295.006 132.786 295.42 132.423 295.93 132.153C296.44 131.883 296.995 131.748 297.595 131.748C297.943 131.748 298.279 131.793 298.603 131.883L298.09 133.134C297.838 133.056 297.592 133.017 297.352 133.017C296.866 133.017 296.419 133.137 296.011 133.377C295.609 133.617 295.288 133.938 295.048 134.34C294.808 134.742 294.688 135.189 294.688 135.681V141H293.428ZM306.662 132H307.922V141H306.662L306.617 139.326C306.323 139.896 305.912 140.358 305.384 140.712C304.856 141.06 304.226 141.234 303.494 141.234C302.834 141.234 302.216 141.111 301.64 140.865C301.064 140.613 300.557 140.268 300.119 139.83C299.681 139.392 299.339 138.885 299.093 138.309C298.847 137.733 298.724 137.115 298.724 136.455C298.724 135.807 298.844 135.198 299.084 134.628C299.33 134.058 299.666 133.557 300.092 133.125C300.524 132.693 301.022 132.357 301.586 132.117C302.156 131.871 302.765 131.748 303.413 131.748C304.163 131.748 304.817 131.928 305.375 132.288C305.933 132.642 306.377 133.107 306.707 133.683L306.662 132ZM303.467 140.01C304.109 140.01 304.661 139.854 305.123 139.542C305.585 139.224 305.939 138.798 306.185 138.264C306.437 137.73 306.563 137.142 306.563 136.5C306.563 135.84 306.437 135.246 306.185 134.718C305.933 134.184 305.576 133.761 305.114 133.449C304.652 133.137 304.103 132.981 303.467 132.981C302.831 132.981 302.249 133.14 301.721 133.458C301.199 133.77 300.782 134.193 300.47 134.727C300.164 135.261 300.011 135.852 300.011 136.5C300.011 137.154 300.17 137.748 300.488 138.282C300.806 138.81 301.226 139.23 301.748 139.542C302.276 139.854 302.849 140.01 303.467 140.01ZM314.322 133.26H312.171L312.162 141H310.902L310.911 133.26H309.282V132H310.911L310.902 129.174H312.162L312.171 132H314.322V133.26ZM319.642 141.234C318.814 141.234 318.058 141.021 317.374 140.595C316.696 140.169 316.153 139.599 315.745 138.885C315.343 138.165 315.142 137.37 315.142 136.5C315.142 135.84 315.259 135.225 315.493 134.655C315.727 134.079 316.048 133.575 316.456 133.143C316.87 132.705 317.35 132.363 317.896 132.117C318.442 131.871 319.024 131.748 319.642 131.748C320.308 131.748 320.92 131.88 321.478 132.144C322.042 132.408 322.525 132.777 322.927 133.251C323.335 133.725 323.641 134.28 323.845 134.916C324.055 135.552 324.142 136.239 324.106 136.977H316.474C316.546 137.547 316.726 138.057 317.014 138.507C317.308 138.957 317.68 139.314 318.13 139.578C318.586 139.836 319.09 139.968 319.642 139.974C320.242 139.974 320.782 139.818 321.262 139.506C321.748 139.194 322.138 138.765 322.432 138.219L323.71 138.516C323.35 139.314 322.807 139.968 322.081 140.478C321.355 140.982 320.542 141.234 319.642 141.234ZM316.438 135.96H322.837C322.795 135.402 322.624 134.892 322.324 134.43C322.03 133.962 321.649 133.59 321.181 133.314C320.713 133.032 320.2 132.891 319.642 132.891C319.084 132.891 318.574 133.029 318.112 133.305C317.65 133.575 317.272 133.944 316.978 134.412C316.684 134.874 316.504 135.39 316.438 135.96ZM332.715 132H333.975V141.333C333.975 141.909 333.849 142.449 333.597 142.953C333.351 143.457 333.015 143.898 332.589 144.276C332.169 144.66 331.689 144.96 331.149 145.176C330.609 145.392 330.048 145.5 329.466 145.5C328.842 145.5 328.239 145.356 327.657 145.068C327.075 144.786 326.568 144.408 326.136 143.934C325.71 143.46 325.407 142.935 325.227 142.359L326.388 141.828C326.502 142.278 326.715 142.683 327.027 143.043C327.345 143.409 327.717 143.697 328.143 143.907C328.575 144.123 329.016 144.231 329.466 144.231C329.88 144.231 330.279 144.153 330.663 143.997C331.053 143.847 331.401 143.64 331.707 143.376C332.019 143.112 332.265 142.803 332.445 142.449C332.625 142.101 332.715 141.729 332.715 141.333V139.344C332.403 139.908 331.98 140.364 331.446 140.712C330.918 141.06 330.303 141.234 329.601 141.234C328.971 141.234 328.377 141.111 327.819 140.865C327.267 140.619 326.781 140.28 326.361 139.848C325.941 139.41 325.611 138.906 325.371 138.336C325.137 137.766 325.02 137.154 325.02 136.5C325.02 135.846 325.137 135.234 325.371 134.664C325.611 134.088 325.941 133.584 326.361 133.152C326.781 132.714 327.267 132.372 327.819 132.126C328.377 131.88 328.971 131.757 329.601 131.757C330.303 131.757 330.918 131.931 331.446 132.279C331.98 132.621 332.403 133.077 332.715 133.647V132ZM329.61 140.01C330.234 140.01 330.771 139.848 331.221 139.524C331.677 139.2 332.028 138.771 332.274 138.237C332.52 137.703 332.643 137.124 332.643 136.5C332.643 135.858 332.517 135.273 332.265 134.745C332.019 134.211 331.668 133.785 331.212 133.467C330.756 133.143 330.222 132.981 329.61 132.981C328.998 132.981 328.44 133.14 327.936 133.458C327.438 133.77 327.042 134.193 326.748 134.727C326.454 135.261 326.307 135.852 326.307 136.5C326.307 137.148 326.457 137.739 326.757 138.273C327.057 138.801 327.456 139.224 327.954 139.542C328.458 139.854 329.01 140.01 329.61 140.01ZM336.055 132H337.315V141H336.055V132ZM336.694 130.425C336.49 130.425 336.316 130.359 336.172 130.227C336.034 130.089 335.965 129.918 335.965 129.714C335.965 129.51 336.034 129.342 336.172 129.21C336.316 129.072 336.49 129.003 336.694 129.003C336.892 129.003 337.06 129.072 337.198 129.21C337.342 129.342 337.414 129.51 337.414 129.714C337.414 129.918 337.345 130.089 337.207 130.227C337.069 130.359 336.898 130.425 336.694 130.425ZM343.354 141.234C342.526 141.234 341.77 141.021 341.086 140.595C340.408 140.169 339.865 139.599 339.457 138.885C339.055 138.165 338.854 137.37 338.854 136.5C338.854 135.84 338.971 135.225 339.205 134.655C339.439 134.079 339.76 133.575 340.168 133.143C340.582 132.705 341.062 132.363 341.608 132.117C342.154 131.871 342.736 131.748 343.354 131.748C344.02 131.748 344.632 131.88 345.19 132.144C345.754 132.408 346.237 132.777 346.639 133.251C347.047 133.725 347.353 134.28 347.557 134.916C347.767 135.552 347.854 136.239 347.818 136.977H340.186C340.258 137.547 340.438 138.057 340.726 138.507C341.02 138.957 341.392 139.314 341.842 139.578C342.298 139.836 342.802 139.968 343.354 139.974C343.954 139.974 344.494 139.818 344.974 139.506C345.46 139.194 345.85 138.765 346.144 138.219L347.422 138.516C347.062 139.314 346.519 139.968 345.793 140.478C345.067 140.982 344.254 141.234 343.354 141.234ZM340.15 135.96H346.549C346.507 135.402 346.336 134.892 346.036 134.43C345.742 133.962 345.361 133.59 344.893 133.314C344.425 133.032 343.912 132.891 343.354 132.891C342.796 132.891 342.286 133.029 341.824 133.305C341.362 133.575 340.984 133.944 340.69 134.412C340.396 134.874 340.216 135.39 340.15 135.96ZM352.16 141.171C351.668 141.159 351.188 141.069 350.72 140.901C350.252 140.733 349.844 140.505 349.496 140.217C349.148 139.929 348.899 139.602 348.749 139.236L349.838 138.768C349.934 139.002 350.111 139.218 350.369 139.416C350.633 139.608 350.933 139.764 351.269 139.884C351.605 139.998 351.938 140.055 352.268 140.055C352.634 140.055 352.976 139.995 353.294 139.875C353.612 139.755 353.87 139.584 354.068 139.362C354.272 139.134 354.374 138.867 354.374 138.561C354.374 138.231 354.266 137.973 354.05 137.787C353.834 137.595 353.561 137.445 353.231 137.337C352.901 137.223 352.562 137.115 352.214 137.013C351.578 136.839 351.017 136.647 350.531 136.437C350.045 136.227 349.664 135.96 349.388 135.636C349.118 135.306 348.983 134.883 348.983 134.367C348.983 133.821 349.136 133.35 349.442 132.954C349.754 132.552 350.159 132.243 350.657 132.027C351.161 131.805 351.698 131.694 352.268 131.694C353 131.694 353.666 131.853 354.266 132.171C354.872 132.489 355.31 132.912 355.58 133.44L354.563 134.043C354.455 133.797 354.284 133.584 354.05 133.404C353.816 133.224 353.549 133.083 353.249 132.981C352.955 132.879 352.655 132.825 352.349 132.819C351.965 132.813 351.608 132.87 351.278 132.99C350.948 133.104 350.681 133.275 350.477 133.503C350.279 133.731 350.18 134.01 350.18 134.34C350.18 134.67 350.279 134.922 350.477 135.096C350.675 135.264 350.942 135.402 351.278 135.51C351.62 135.612 352.004 135.732 352.43 135.87C352.976 136.044 353.489 136.242 353.969 136.464C354.449 136.686 354.836 136.962 355.13 137.292C355.424 137.622 355.568 138.039 355.562 138.543C355.562 139.083 355.4 139.554 355.076 139.956C354.752 140.358 354.332 140.667 353.816 140.883C353.3 141.093 352.748 141.189 352.16 141.171ZM100.851 160H99.555L96.54 151H97.773L100.221 158.254L102.651 151H103.983L106.413 158.254L108.843 151H110.085L107.07 160H105.765L103.299 152.674L100.851 160ZM111.582 151H112.842V160H111.582V151ZM112.221 149.425C112.017 149.425 111.843 149.359 111.699 149.227C111.561 149.089 111.492 148.918 111.492 148.714C111.492 148.51 111.561 148.342 111.699 148.21C111.843 148.072 112.017 148.003 112.221 148.003C112.419 148.003 112.587 148.072 112.725 148.21C112.869 148.342 112.941 148.51 112.941 148.714C112.941 148.918 112.872 149.089 112.734 149.227C112.596 149.359 112.425 149.425 112.221 149.425ZM119.609 152.26H117.458L117.449 160H116.189L116.198 152.26H114.569V151H116.198L116.189 148.174H117.449L117.458 151H119.609V152.26ZM129.063 154.429V160H127.803V154.681C127.803 154.189 127.683 153.742 127.443 153.34C127.203 152.938 126.882 152.617 126.48 152.377C126.078 152.137 125.631 152.017 125.139 152.017C124.653 152.017 124.206 152.137 123.798 152.377C123.396 152.617 123.075 152.938 122.835 153.34C122.595 153.742 122.475 154.189 122.475 154.681V160H121.215V146.5H122.475V152.242C122.793 151.786 123.207 151.423 123.717 151.153C124.227 150.883 124.782 150.748 125.382 150.748C126.06 150.748 126.678 150.913 127.236 151.243C127.794 151.573 128.238 152.017 128.568 152.575C128.898 153.133 129.063 153.751 129.063 154.429ZM139.149 160.234C138.321 160.234 137.565 160.021 136.881 159.595C136.203 159.169 135.66 158.599 135.252 157.885C134.85 157.165 134.649 156.37 134.649 155.5C134.649 154.84 134.766 154.225 135 153.655C135.234 153.079 135.555 152.575 135.963 152.143C136.377 151.705 136.857 151.363 137.403 151.117C137.949 150.871 138.531 150.748 139.149 150.748C139.977 150.748 140.73 150.961 141.408 151.387C142.092 151.813 142.635 152.386 143.037 153.106C143.445 153.826 143.649 154.624 143.649 155.5C143.649 156.154 143.532 156.766 143.298 157.336C143.064 157.906 142.74 158.41 142.326 158.848C141.918 159.28 141.441 159.619 140.895 159.865C140.355 160.111 139.773 160.234 139.149 160.234ZM139.149 158.974C139.761 158.974 140.31 158.815 140.796 158.497C141.288 158.173 141.675 157.747 141.957 157.219C142.245 156.691 142.389 156.118 142.389 155.5C142.389 154.87 142.245 154.291 141.957 153.763C141.669 153.229 141.279 152.803 140.787 152.485C140.301 152.167 139.755 152.008 139.149 152.008C138.537 152.008 137.985 152.17 137.493 152.494C137.007 152.812 136.62 153.235 136.332 153.763C136.05 154.291 135.909 154.87 135.909 155.5C135.909 156.148 136.056 156.736 136.35 157.264C136.644 157.786 137.037 158.203 137.529 158.515C138.021 158.821 138.561 158.974 139.149 158.974ZM144.726 156.553V151H145.986V156.301C145.986 156.793 146.106 157.24 146.346 157.642C146.586 158.044 146.907 158.365 147.309 158.605C147.717 158.845 148.164 158.965 148.65 158.965C149.142 158.965 149.586 158.845 149.982 158.605C150.384 158.365 150.705 158.044 150.945 157.642C151.185 157.24 151.305 156.793 151.305 156.301V151H152.565L152.574 160H151.314L151.305 158.74C150.987 159.196 150.573 159.559 150.063 159.829C149.559 160.099 149.007 160.234 148.407 160.234C147.729 160.234 147.111 160.069 146.553 159.739C145.995 159.409 145.551 158.965 145.221 158.407C144.891 157.849 144.726 157.231 144.726 156.553ZM154.367 160V151H155.627V152.242C155.945 151.786 156.359 151.423 156.869 151.153C157.379 150.883 157.934 150.748 158.534 150.748C158.882 150.748 159.218 150.793 159.542 150.883L159.029 152.134C158.777 152.056 158.531 152.017 158.291 152.017C157.805 152.017 157.358 152.137 156.95 152.377C156.548 152.617 156.227 152.938 155.987 153.34C155.747 153.742 155.627 154.189 155.627 154.681V160H154.367ZM166.385 164.5H165.125V151H166.385V152.683C166.697 152.113 167.123 151.651 167.663 151.297C168.203 150.943 168.845 150.766 169.589 150.766C170.243 150.766 170.855 150.889 171.425 151.135C172.001 151.381 172.505 151.723 172.937 152.161C173.369 152.593 173.708 153.094 173.954 153.664C174.2 154.234 174.323 154.846 174.323 155.5C174.323 156.154 174.2 156.769 173.954 157.345C173.708 157.921 173.369 158.428 172.937 158.866C172.505 159.298 172.001 159.637 171.425 159.883C170.855 160.129 170.243 160.252 169.589 160.252C168.845 160.252 168.203 160.075 167.663 159.721C167.123 159.367 166.697 158.905 166.385 158.335V164.5ZM169.58 151.99C168.95 151.99 168.401 152.149 167.933 152.467C167.471 152.779 167.114 153.199 166.862 153.727C166.61 154.255 166.484 154.846 166.484 155.5C166.484 156.142 166.607 156.73 166.853 157.264C167.105 157.798 167.462 158.224 167.924 158.542C168.392 158.86 168.944 159.019 169.58 159.019C170.204 159.019 170.777 158.863 171.299 158.551C171.827 158.239 172.25 157.819 172.568 157.291C172.886 156.757 173.045 156.16 173.045 155.5C173.045 154.858 172.889 154.273 172.577 153.745C172.265 153.211 171.848 152.785 171.326 152.467C170.804 152.149 170.222 151.99 169.58 151.99ZM175.848 160V151H177.108V152.242C177.426 151.786 177.84 151.423 178.35 151.153C178.86 150.883 179.415 150.748 180.015 150.748C180.363 150.748 180.699 150.793 181.023 150.883L180.51 152.134C180.258 152.056 180.012 152.017 179.772 152.017C179.286 152.017 178.839 152.137 178.431 152.377C178.029 152.617 177.708 152.938 177.468 153.34C177.228 153.742 177.108 154.189 177.108 154.681V160H175.848ZM185.644 160.234C184.816 160.234 184.06 160.021 183.376 159.595C182.698 159.169 182.155 158.599 181.747 157.885C181.345 157.165 181.144 156.37 181.144 155.5C181.144 154.84 181.261 154.225 181.495 153.655C181.729 153.079 182.05 152.575 182.458 152.143C182.872 151.705 183.352 151.363 183.898 151.117C184.444 150.871 185.026 150.748 185.644 150.748C186.472 150.748 187.225 150.961 187.903 151.387C188.587 151.813 189.13 152.386 189.532 153.106C189.94 153.826 190.144 154.624 190.144 155.5C190.144 156.154 190.027 156.766 189.793 157.336C189.559 157.906 189.235 158.41 188.821 158.848C188.413 159.28 187.936 159.619 187.39 159.865C186.85 160.111 186.268 160.234 185.644 160.234ZM185.644 158.974C186.256 158.974 186.805 158.815 187.291 158.497C187.783 158.173 188.17 157.747 188.452 157.219C188.74 156.691 188.884 156.118 188.884 155.5C188.884 154.87 188.74 154.291 188.452 153.763C188.164 153.229 187.774 152.803 187.282 152.485C186.796 152.167 186.25 152.008 185.644 152.008C185.032 152.008 184.48 152.17 183.988 152.494C183.502 152.812 183.115 153.235 182.827 153.763C182.545 154.291 182.404 154.87 182.404 155.5C182.404 156.148 182.551 156.736 182.845 157.264C183.139 157.786 183.532 158.203 184.024 158.515C184.516 158.821 185.056 158.974 185.644 158.974ZM198.735 151H199.995V160.333C199.995 160.909 199.869 161.449 199.617 161.953C199.371 162.457 199.035 162.898 198.609 163.276C198.189 163.66 197.709 163.96 197.169 164.176C196.629 164.392 196.068 164.5 195.486 164.5C194.862 164.5 194.259 164.356 193.677 164.068C193.095 163.786 192.588 163.408 192.156 162.934C191.73 162.46 191.427 161.935 191.247 161.359L192.408 160.828C192.522 161.278 192.735 161.683 193.047 162.043C193.365 162.409 193.737 162.697 194.163 162.907C194.595 163.123 195.036 163.231 195.486 163.231C195.9 163.231 196.299 163.153 196.683 162.997C197.073 162.847 197.421 162.64 197.727 162.376C198.039 162.112 198.285 161.803 198.465 161.449C198.645 161.101 198.735 160.729 198.735 160.333V158.344C198.423 158.908 198 159.364 197.466 159.712C196.938 160.06 196.323 160.234 195.621 160.234C194.991 160.234 194.397 160.111 193.839 159.865C193.287 159.619 192.801 159.28 192.381 158.848C191.961 158.41 191.631 157.906 191.391 157.336C191.157 156.766 191.04 156.154 191.04 155.5C191.04 154.846 191.157 154.234 191.391 153.664C191.631 153.088 191.961 152.584 192.381 152.152C192.801 151.714 193.287 151.372 193.839 151.126C194.397 150.88 194.991 150.757 195.621 150.757C196.323 150.757 196.938 150.931 197.466 151.279C198 151.621 198.423 152.077 198.735 152.647V151ZM195.63 159.01C196.254 159.01 196.791 158.848 197.241 158.524C197.697 158.2 198.048 157.771 198.294 157.237C198.54 156.703 198.663 156.124 198.663 155.5C198.663 154.858 198.537 154.273 198.285 153.745C198.039 153.211 197.688 152.785 197.232 152.467C196.776 152.143 196.242 151.981 195.63 151.981C195.018 151.981 194.46 152.14 193.956 152.458C193.458 152.77 193.062 153.193 192.768 153.727C192.474 154.261 192.327 154.852 192.327 155.5C192.327 156.148 192.477 156.739 192.777 157.273C193.077 157.801 193.476 158.224 193.974 158.542C194.478 158.854 195.03 159.01 195.63 159.01ZM202.162 160V151H203.422V152.242C203.74 151.786 204.154 151.423 204.664 151.153C205.174 150.883 205.729 150.748 206.329 150.748C206.677 150.748 207.013 150.793 207.337 150.883L206.824 152.134C206.572 152.056 206.326 152.017 206.086 152.017C205.6 152.017 205.153 152.137 204.745 152.377C204.343 152.617 204.022 152.938 203.782 153.34C203.542 153.742 203.422 154.189 203.422 154.681V160H202.162ZM215.396 151H216.656V160H215.396L215.351 158.326C215.057 158.896 214.646 159.358 214.118 159.712C213.59 160.06 212.96 160.234 212.228 160.234C211.568 160.234 210.95 160.111 210.374 159.865C209.798 159.613 209.291 159.268 208.853 158.83C208.415 158.392 208.073 157.885 207.827 157.309C207.581 156.733 207.458 156.115 207.458 155.455C207.458 154.807 207.578 154.198 207.818 153.628C208.064 153.058 208.4 152.557 208.826 152.125C209.258 151.693 209.756 151.357 210.32 151.117C210.89 150.871 211.499 150.748 212.147 150.748C212.897 150.748 213.551 150.928 214.109 151.288C214.667 151.642 215.111 152.107 215.441 152.683L215.396 151ZM212.201 159.01C212.843 159.01 213.395 158.854 213.857 158.542C214.319 158.224 214.673 157.798 214.919 157.264C215.171 156.73 215.297 156.142 215.297 155.5C215.297 154.84 215.171 154.246 214.919 153.718C214.667 153.184 214.31 152.761 213.848 152.449C213.386 152.137 212.837 151.981 212.201 151.981C211.565 151.981 210.983 152.14 210.455 152.458C209.933 152.77 209.516 153.193 209.204 153.727C208.898 154.261 208.745 154.852 208.745 155.5C208.745 156.154 208.904 156.748 209.222 157.282C209.54 157.81 209.96 158.23 210.482 158.542C211.01 158.854 211.583 159.01 212.201 159.01ZM218.457 160V151H219.717V152.242C220.041 151.786 220.455 151.423 220.959 151.153C221.463 150.883 222.015 150.748 222.615 150.748C223.293 150.748 223.914 150.916 224.478 151.252C225.042 151.582 225.483 152.023 225.801 152.575C226.119 152.023 226.557 151.582 227.115 151.252C227.673 150.916 228.291 150.748 228.969 150.748C229.647 150.748 230.265 150.913 230.823 151.243C231.381 151.573 231.825 152.017 232.155 152.575C232.485 153.133 232.65 153.751 232.65 154.429V160H231.39V154.708C231.39 154.228 231.273 153.784 231.039 153.376C230.805 152.968 230.49 152.641 230.094 152.395C229.704 152.143 229.269 152.017 228.789 152.017C228.309 152.017 227.871 152.134 227.475 152.368C227.085 152.596 226.773 152.914 226.539 153.322C226.305 153.724 226.188 154.186 226.188 154.708V160H224.928V154.708C224.928 154.186 224.811 153.724 224.577 153.322C224.343 152.914 224.028 152.596 223.632 152.368C223.236 152.134 222.798 152.017 222.318 152.017C221.844 152.017 221.409 152.143 221.013 152.395C220.617 152.641 220.302 152.968 220.068 153.376C219.834 153.784 219.717 154.228 219.717 154.708V160H218.457ZM234.453 160V151H235.713V152.242C236.037 151.786 236.451 151.423 236.955 151.153C237.459 150.883 238.011 150.748 238.611 150.748C239.289 150.748 239.91 150.916 240.474 151.252C241.038 151.582 241.479 152.023 241.797 152.575C242.115 152.023 242.553 151.582 243.111 151.252C243.669 150.916 244.287 150.748 244.965 150.748C245.643 150.748 246.261 150.913 246.819 151.243C247.377 151.573 247.821 152.017 248.151 152.575C248.481 153.133 248.646 153.751 248.646 154.429V160H247.386V154.708C247.386 154.228 247.269 153.784 247.035 153.376C246.801 152.968 246.486 152.641 246.09 152.395C245.7 152.143 245.265 152.017 244.785 152.017C244.305 152.017 243.867 152.134 243.471 152.368C243.081 152.596 242.769 152.914 242.535 153.322C242.301 153.724 242.184 154.186 242.184 154.708V160H240.924V154.708C240.924 154.186 240.807 153.724 240.573 153.322C240.339 152.914 240.024 152.596 239.628 152.368C239.232 152.134 238.794 152.017 238.314 152.017C237.84 152.017 237.405 152.143 237.009 152.395C236.613 152.641 236.298 152.968 236.064 153.376C235.83 153.784 235.713 154.228 235.713 154.708V160H234.453ZM257.671 151H258.931V160H257.671L257.626 158.326C257.332 158.896 256.921 159.358 256.393 159.712C255.865 160.06 255.235 160.234 254.503 160.234C253.843 160.234 253.225 160.111 252.649 159.865C252.073 159.613 251.566 159.268 251.128 158.83C250.69 158.392 250.348 157.885 250.102 157.309C249.856 156.733 249.733 156.115 249.733 155.455C249.733 154.807 249.853 154.198 250.093 153.628C250.339 153.058 250.675 152.557 251.101 152.125C251.533 151.693 252.031 151.357 252.595 151.117C253.165 150.871 253.774 150.748 254.422 150.748C255.172 150.748 255.826 150.928 256.384 151.288C256.942 151.642 257.386 152.107 257.716 152.683L257.671 151ZM254.476 159.01C255.118 159.01 255.67 158.854 256.132 158.542C256.594 158.224 256.948 157.798 257.194 157.264C257.446 156.73 257.572 156.142 257.572 155.5C257.572 154.84 257.446 154.246 257.194 153.718C256.942 153.184 256.585 152.761 256.123 152.449C255.661 152.137 255.112 151.981 254.476 151.981C253.84 151.981 253.258 152.14 252.73 152.458C252.208 152.77 251.791 153.193 251.479 153.727C251.173 154.261 251.02 154.852 251.02 155.5C251.02 156.154 251.179 156.748 251.497 157.282C251.815 157.81 252.235 158.23 252.757 158.542C253.285 158.854 253.858 159.01 254.476 159.01ZM265.319 150.748C266.195 150.748 266.99 150.961 267.704 151.387C268.424 151.813 268.997 152.386 269.423 153.106C269.849 153.82 270.062 154.615 270.062 155.491C270.062 156.145 269.939 156.76 269.693 157.336C269.447 157.906 269.105 158.41 268.667 158.848C268.235 159.28 267.731 159.619 267.155 159.865C266.585 160.111 265.973 160.234 265.319 160.234C264.575 160.234 263.933 160.057 263.393 159.703C262.853 159.349 262.427 158.887 262.115 158.317V160H260.855V146.5H262.115V152.665C262.427 152.095 262.853 151.633 263.393 151.279C263.933 150.925 264.575 150.748 265.319 150.748ZM265.31 159.001C265.952 159.001 266.534 158.845 267.056 158.533C267.578 158.215 267.995 157.789 268.307 157.255C268.619 156.721 268.775 156.133 268.775 155.491C268.775 154.831 268.616 154.237 268.298 153.709C267.98 153.175 267.557 152.752 267.029 152.44C266.507 152.128 265.934 151.972 265.31 151.972C264.674 151.972 264.122 152.131 263.654 152.449C263.192 152.767 262.835 153.193 262.583 153.727C262.337 154.261 262.214 154.849 262.214 155.491C262.214 156.145 262.34 156.739 262.592 157.273C262.844 157.801 263.201 158.221 263.663 158.533C264.131 158.845 264.68 159.001 265.31 159.001ZM271.525 160V146.5H272.785V160H271.525ZM278.843 160.234C278.015 160.234 277.259 160.021 276.575 159.595C275.897 159.169 275.354 158.599 274.946 157.885C274.544 157.165 274.343 156.37 274.343 155.5C274.343 154.84 274.46 154.225 274.694 153.655C274.928 153.079 275.249 152.575 275.657 152.143C276.071 151.705 276.551 151.363 277.097 151.117C277.643 150.871 278.225 150.748 278.843 150.748C279.509 150.748 280.121 150.88 280.679 151.144C281.243 151.408 281.726 151.777 282.128 152.251C282.536 152.725 282.842 153.28 283.046 153.916C283.256 154.552 283.343 155.239 283.307 155.977H275.675C275.747 156.547 275.927 157.057 276.215 157.507C276.509 157.957 276.881 158.314 277.331 158.578C277.787 158.836 278.291 158.968 278.843 158.974C279.443 158.974 279.983 158.818 280.463 158.506C280.949 158.194 281.339 157.765 281.633 157.219L282.911 157.516C282.551 158.314 282.008 158.968 281.282 159.478C280.556 159.982 279.743 160.234 278.843 160.234ZM275.639 154.96H282.038C281.996 154.402 281.825 153.892 281.525 153.43C281.231 152.962 280.85 152.59 280.382 152.314C279.914 152.032 279.401 151.891 278.843 151.891C278.285 151.891 277.775 152.029 277.313 152.305C276.851 152.575 276.473 152.944 276.179 153.412C275.885 153.874 275.705 154.39 275.639 154.96ZM97.08 170H98.34V179H97.08V170ZM97.719 168.425C97.515 168.425 97.341 168.359 97.197 168.227C97.059 168.089 96.99 167.918 96.99 167.714C96.99 167.51 97.059 167.342 97.197 167.21C97.341 167.072 97.515 167.003 97.719 167.003C97.917 167.003 98.085 167.072 98.223 167.21C98.367 167.342 98.439 167.51 98.439 167.714C98.439 167.918 98.37 168.089 98.232 168.227C98.094 168.359 97.923 168.425 97.719 168.425ZM108.321 173.429V179H107.061V173.681C107.061 173.189 106.941 172.742 106.701 172.34C106.461 171.938 106.14 171.617 105.738 171.377C105.336 171.137 104.889 171.017 104.397 171.017C103.911 171.017 103.464 171.137 103.056 171.377C102.654 171.617 102.333 171.938 102.093 172.34C101.853 172.742 101.733 173.189 101.733 173.681V179H100.473V170H101.733V171.242C102.051 170.786 102.465 170.423 102.975 170.153C103.485 169.883 104.04 169.748 104.64 169.748C105.318 169.748 105.936 169.913 106.494 170.243C107.052 170.573 107.496 171.017 107.826 171.575C108.156 172.133 108.321 172.751 108.321 173.429ZM114.722 171.26H112.571L112.562 179H111.302L111.311 171.26H109.682V170H111.311L111.302 167.174H112.562L112.571 170H114.722V171.26ZM120.042 179.234C119.214 179.234 118.458 179.021 117.774 178.595C117.096 178.169 116.553 177.599 116.145 176.885C115.743 176.165 115.542 175.37 115.542 174.5C115.542 173.84 115.659 173.225 115.893 172.655C116.127 172.079 116.448 171.575 116.856 171.143C117.27 170.705 117.75 170.363 118.296 170.117C118.842 169.871 119.424 169.748 120.042 169.748C120.708 169.748 121.32 169.88 121.878 170.144C122.442 170.408 122.925 170.777 123.327 171.251C123.735 171.725 124.041 172.28 124.245 172.916C124.455 173.552 124.542 174.239 124.506 174.977H116.874C116.946 175.547 117.126 176.057 117.414 176.507C117.708 176.957 118.08 177.314 118.53 177.578C118.986 177.836 119.49 177.968 120.042 177.974C120.642 177.974 121.182 177.818 121.662 177.506C122.148 177.194 122.538 176.765 122.832 176.219L124.11 176.516C123.75 177.314 123.207 177.968 122.481 178.478C121.755 178.982 120.942 179.234 120.042 179.234ZM116.838 173.96H123.237C123.195 173.402 123.024 172.892 122.724 172.43C122.43 171.962 122.049 171.59 121.581 171.314C121.113 171.032 120.6 170.891 120.042 170.891C119.484 170.891 118.974 171.029 118.512 171.305C118.05 171.575 117.672 171.944 117.378 172.412C117.084 172.874 116.904 173.39 116.838 173.96ZM126.049 179V170H127.309V171.242C127.627 170.786 128.041 170.423 128.551 170.153C129.061 169.883 129.616 169.748 130.216 169.748C130.564 169.748 130.9 169.793 131.224 169.883L130.711 171.134C130.459 171.056 130.213 171.017 129.973 171.017C129.487 171.017 129.04 171.137 128.632 171.377C128.23 171.617 127.909 171.938 127.669 172.34C127.429 172.742 127.309 173.189 127.309 173.681V179H126.049ZM134.697 167.651V170H137.397V171.26H134.697V179H133.437V171.26H132.204V170H133.437V167.651C133.437 167.213 133.542 166.817 133.752 166.463C133.968 166.103 134.256 165.818 134.616 165.608C134.976 165.392 135.375 165.284 135.813 165.284C136.131 165.284 136.437 165.347 136.731 165.473C137.031 165.599 137.298 165.785 137.532 166.031L136.632 166.922C136.536 166.802 136.413 166.709 136.263 166.643C136.119 166.577 135.969 166.544 135.813 166.544C135.507 166.544 135.243 166.652 135.021 166.868C134.805 167.084 134.697 167.345 134.697 167.651ZM146.033 170H147.293V179H146.033L145.988 177.326C145.694 177.896 145.283 178.358 144.755 178.712C144.227 179.06 143.597 179.234 142.865 179.234C142.205 179.234 141.587 179.111 141.011 178.865C140.435 178.613 139.928 178.268 139.49 177.83C139.052 177.392 138.71 176.885 138.464 176.309C138.218 175.733 138.095 175.115 138.095 174.455C138.095 173.807 138.215 173.198 138.455 172.628C138.701 172.058 139.037 171.557 139.463 171.125C139.895 170.693 140.393 170.357 140.957 170.117C141.527 169.871 142.136 169.748 142.784 169.748C143.534 169.748 144.188 169.928 144.746 170.288C145.304 170.642 145.748 171.107 146.078 171.683L146.033 170ZM142.838 178.01C143.48 178.01 144.032 177.854 144.494 177.542C144.956 177.224 145.31 176.798 145.556 176.264C145.808 175.73 145.934 175.142 145.934 174.5C145.934 173.84 145.808 173.246 145.556 172.718C145.304 172.184 144.947 171.761 144.485 171.449C144.023 171.137 143.474 170.981 142.838 170.981C142.202 170.981 141.62 171.14 141.092 171.458C140.57 171.77 140.153 172.193 139.841 172.727C139.535 173.261 139.382 173.852 139.382 174.5C139.382 175.154 139.541 175.748 139.859 176.282C140.177 176.81 140.597 177.23 141.119 177.542C141.647 177.854 142.22 178.01 142.838 178.01ZM155.344 176.741L156.469 177.353C156.061 177.923 155.542 178.379 154.912 178.721C154.288 179.063 153.61 179.234 152.878 179.234C152.05 179.234 151.294 179.021 150.61 178.595C149.932 178.169 149.389 177.599 148.981 176.885C148.579 176.165 148.378 175.37 148.378 174.5C148.378 173.84 148.495 173.225 148.729 172.655C148.963 172.079 149.284 171.575 149.692 171.143C150.106 170.705 150.586 170.363 151.132 170.117C151.678 169.871 152.26 169.748 152.878 169.748C153.61 169.748 154.288 169.919 154.912 170.261C155.542 170.603 156.061 171.062 156.469 171.638L155.344 172.241C155.032 171.845 154.657 171.542 154.219 171.332C153.781 171.116 153.334 171.008 152.878 171.008C152.272 171.008 151.723 171.17 151.231 171.494C150.739 171.812 150.349 172.235 150.061 172.763C149.779 173.291 149.638 173.87 149.638 174.5C149.638 175.13 149.782 175.709 150.07 176.237C150.364 176.765 150.757 177.188 151.249 177.506C151.741 177.818 152.284 177.974 152.878 177.974C153.37 177.974 153.832 177.86 154.264 177.632C154.696 177.404 155.056 177.107 155.344 176.741ZM161.931 179.234C161.103 179.234 160.347 179.021 159.663 178.595C158.985 178.169 158.442 177.599 158.034 176.885C157.632 176.165 157.431 175.37 157.431 174.5C157.431 173.84 157.548 173.225 157.782 172.655C158.016 172.079 158.337 171.575 158.745 171.143C159.159 170.705 159.639 170.363 160.185 170.117C160.731 169.871 161.313 169.748 161.931 169.748C162.597 169.748 163.209 169.88 163.767 170.144C164.331 170.408 164.814 170.777 165.216 171.251C165.624 171.725 165.93 172.28 166.134 172.916C166.344 173.552 166.431 174.239 166.395 174.977H158.763C158.835 175.547 159.015 176.057 159.303 176.507C159.597 176.957 159.969 177.314 160.419 177.578C160.875 177.836 161.379 177.968 161.931 177.974C162.531 177.974 163.071 177.818 163.551 177.506C164.037 177.194 164.427 176.765 164.721 176.219L165.999 176.516C165.639 177.314 165.096 177.968 164.37 178.478C163.644 178.982 162.831 179.234 161.931 179.234ZM158.727 173.96H165.126C165.084 173.402 164.913 172.892 164.613 172.43C164.319 171.962 163.938 171.59 163.47 171.314C163.002 171.032 162.489 170.891 161.931 170.891C161.373 170.891 160.863 171.029 160.401 171.305C159.939 171.575 159.561 171.944 159.267 172.412C158.973 172.874 158.793 173.39 158.727 173.96ZM179.748 170H181.008V179H179.748L179.703 177.326C179.409 177.896 178.998 178.358 178.47 178.712C177.942 179.06 177.312 179.234 176.58 179.234C175.92 179.234 175.302 179.111 174.726 178.865C174.15 178.613 173.643 178.268 173.205 177.83C172.767 177.392 172.425 176.885 172.179 176.309C171.933 175.733 171.81 175.115 171.81 174.455C171.81 173.807 171.93 173.198 172.17 172.628C172.416 172.058 172.752 171.557 173.178 171.125C173.61 170.693 174.108 170.357 174.672 170.117C175.242 169.871 175.851 169.748 176.499 169.748C177.249 169.748 177.903 169.928 178.461 170.288C179.019 170.642 179.463 171.107 179.793 171.683L179.748 170ZM176.553 178.01C177.195 178.01 177.747 177.854 178.209 177.542C178.671 177.224 179.025 176.798 179.271 176.264C179.523 175.73 179.649 175.142 179.649 174.5C179.649 173.84 179.523 173.246 179.271 172.718C179.019 172.184 178.662 171.761 178.2 171.449C177.738 171.137 177.189 170.981 176.553 170.981C175.917 170.981 175.335 171.14 174.807 171.458C174.285 171.77 173.868 172.193 173.556 172.727C173.25 173.261 173.097 173.852 173.097 174.5C173.097 175.154 173.256 175.748 173.574 176.282C173.892 176.81 174.312 177.23 174.834 177.542C175.362 177.854 175.935 178.01 176.553 178.01ZM190.657 173.429V179H189.397V173.681C189.397 173.189 189.277 172.742 189.037 172.34C188.797 171.938 188.476 171.617 188.074 171.377C187.672 171.137 187.225 171.017 186.733 171.017C186.247 171.017 185.8 171.137 185.392 171.377C184.99 171.617 184.669 171.938 184.429 172.34C184.189 172.742 184.069 173.189 184.069 173.681V179H182.809V170H184.069V171.242C184.387 170.786 184.801 170.423 185.311 170.153C185.821 169.883 186.376 169.748 186.976 169.748C187.654 169.748 188.272 169.913 188.83 170.243C189.388 170.573 189.832 171.017 190.162 171.575C190.492 172.133 190.657 172.751 190.657 173.429ZM199.69 165.5H200.95V179H199.69V177.317C199.378 177.893 198.949 178.358 198.403 178.712C197.863 179.06 197.221 179.234 196.477 179.234C195.823 179.234 195.211 179.111 194.641 178.865C194.071 178.619 193.567 178.28 193.129 177.848C192.697 177.41 192.358 176.906 192.112 176.336C191.866 175.766 191.743 175.154 191.743 174.5C191.743 173.846 191.866 173.234 192.112 172.664C192.358 172.088 192.697 171.584 193.129 171.152C193.567 170.714 194.071 170.372 194.641 170.126C195.211 169.88 195.823 169.757 196.477 169.757C197.221 169.757 197.863 169.934 198.403 170.288C198.949 170.636 199.378 171.095 199.69 171.665V165.5ZM196.486 178.01C197.128 178.01 197.68 177.854 198.142 177.542C198.604 177.224 198.958 176.798 199.204 176.264C199.456 175.73 199.582 175.142 199.582 174.5C199.582 173.84 199.456 173.246 199.204 172.718C198.952 172.184 198.595 171.761 198.133 171.449C197.671 171.137 197.122 170.981 196.486 170.981C195.85 170.981 195.271 171.14 194.749 171.458C194.227 171.77 193.81 172.193 193.498 172.727C193.186 173.261 193.03 173.852 193.03 174.5C193.03 175.154 193.189 175.748 193.507 176.282C193.825 176.81 194.245 177.23 194.767 177.542C195.295 177.854 195.868 178.01 196.486 178.01ZM211.656 166.4H213.222L217.812 179H216.471L215.49 176.3H209.397L208.416 179H207.075L211.656 166.4ZM209.856 175.04H215.022L212.439 167.948L209.856 175.04ZM219.494 179V166.4H223.526C224.198 166.4 224.804 166.565 225.344 166.895C225.884 167.219 226.313 167.66 226.631 168.218C226.955 168.77 227.117 169.391 227.117 170.081C227.117 170.777 226.952 171.404 226.622 171.962C226.298 172.52 225.863 172.961 225.317 173.285C224.777 173.609 224.18 173.771 223.526 173.771H220.754V179H219.494ZM220.754 172.511H223.427C223.871 172.511 224.276 172.403 224.642 172.187C225.014 171.965 225.308 171.668 225.524 171.296C225.746 170.918 225.857 170.492 225.857 170.018C225.857 169.544 225.746 169.121 225.524 168.749C225.308 168.371 225.014 168.074 224.642 167.858C224.276 167.636 223.871 167.525 223.427 167.525H220.754V172.511ZM229.221 179V166.4H230.481V179H229.221ZM233.257 179.234C233.059 179.234 232.891 179.162 232.753 179.018C232.615 178.88 232.546 178.709 232.546 178.505C232.546 178.313 232.615 178.148 232.753 178.01C232.891 177.866 233.059 177.794 233.257 177.794C233.461 177.794 233.632 177.866 233.77 178.01C233.914 178.148 233.986 178.313 233.986 178.505C233.986 178.709 233.914 178.88 233.77 179.018C233.632 179.162 233.461 179.234 233.257 179.234Z" fill="white"/>
</g>
</svg>
