<?xml version="1.0" encoding="UTF-8"?>
<svg id="Layer_2" data-name="Layer 2" xmlns="http://www.w3.org/2000/svg" viewBox="0 0 223.17 249.22">
  <defs>
    <style>
      .cls-1 {
        fill-rule: evenodd;
      }

      .cls-1, .cls-2 {
        fill: #2f1f49;
        stroke-width: 0px;
      }
    </style>
  </defs>
  <g id="Layer_1-2" data-name="Layer 1">
    <g>
      <path class="cls-1" d="M128.31,6.9l58.37,58.37c9.21,9.21,9.21,24.14,0,33.33l-58.48,58.49c-9.21,9.2-24.13,9.2-33.34,0l-58.37-58.37c-9.21-9.21-9.21-24.14,0-33.33L94.97,6.9c9.21-9.2,24.13-9.2,33.34,0ZM107.69,21.71l-.23.22-55.94,55.94c-2.22,2.23-2.3,5.78-.22,8.1l.22.23,55.86,55.86c2.22,2.23,5.79,2.3,8.1.22l.23-.22,55.94-55.94c2.3-2.3,2.3-6.03,0-8.34l-55.86-55.86c-2.22-2.23-5.79-2.3-8.1-.22ZM112.65,46.33l34.6,34.6c.58.57.58,1.5,0,2.09l-34.64,34.64c-.58.57-1.51.57-2.08,0l-34.6-34.6c-.58-.57-.58-1.5,0-2.09l34.64-34.64c.58-.57,1.51-.57,2.08,0Z"/>
      <g>
        <path class="cls-2" d="M23.48,186.28L0,248.27h10.96l5.27-14.16h26.76l5.35,14.16h11.14l-23.48-61.99h-12.52ZM29.53,198.54l9.84,25.9h-19.51l9.67-25.9Z"/>
        <path class="cls-2" d="M100.32,239.46h-23.91l23.66-28.66v-7.85h-36.35v8.81h24l-24.35,28.74v7.77h36.95v-8.81Z"/>
        <path class="cls-2" d="M110.68,236.87c0,9.23,4.66,11.91,13.3,11.91,2.68,0,5.27-.26,7.17-.6v-8.72c-1.55.17-2.5.26-4.23.26-3.71,0-6.04-.43-6.04-4.49v-23.48h9.5v-8.81h-9.5v-13.3h-10.19v13.3h-6.3v8.81h6.3v25.12Z"/>
        <path class="cls-2" d="M157.21,249.22c9.07,0,16.23-4.75,19.43-12.7l-8.89-3.37c-1.38,4.66-5.44,7.26-10.53,7.26-6.65,0-11.31-4.75-12.09-12.52h31.77v-3.45c0-12.43-6.99-22.36-20.12-22.36s-21.58,10.27-21.58,23.57c0,13.98,9.07,23.57,22.02,23.57ZM156.69,210.8c6.56,0,9.67,4.31,9.76,9.33h-20.81c1.55-6.13,5.7-9.33,11.05-9.33Z"/>
        <path class="cls-2" d="M192.18,225.65c0-9.24,4.84-14.68,11.91-14.68,5.53,0,8.89,3.72,10.19,8.64l8.72-4.75c-2.42-7.26-9.15-12.78-18.91-12.78-12.95,0-22.27,9.58-22.27,23.57s9.32,23.57,22.27,23.57c9.84,0,16.75-5.79,19.08-13.13l-8.89-4.49c-1.29,5.01-4.66,8.64-10.19,8.64-7.08,0-11.91-5.36-11.91-14.6Z"/>
      </g>
    </g>
  </g>
</svg>
