<svg width="276" height="218" viewBox="0 0 276 218" fill="none" xmlns="http://www.w3.org/2000/svg">
<path d="M-35 15.1915V-14.8503C-35 -23.7443 -27.7931 -30.9561 -18.9051 -30.9561H11.1165L43.258 -31H73.2796C82.1676 -31 89.3746 -23.7926 89.3746 -14.8987V15.1432C89.3746 24.0371 96.5771 31.2489 105.465 31.2489H135.491C144.379 31.2489 151.582 24.0371 151.582 15.1432V-14.8987C151.582 -23.7926 158.789 -31 167.676 -31H197.698C206.586 -31 213.789 -23.7926 213.789 -14.8987V15.1432C213.789 24.0371 206.586 31.2489 197.698 31.2489H167.676C158.789 31.2489 151.582 38.4563 151.582 47.3503V77.3964C151.582 86.2904 158.789 93.4978 167.676 93.4978H197.698C206.586 93.4978 213.789 100.71 213.789 109.604V139.645C213.789 148.539 220.996 155.747 229.884 155.747H259.905C268.793 155.747 276 162.958 276 171.852V201.894C276 210.788 268.793 218 259.905 218H167.676C158.789 218 151.582 210.788 151.582 201.894V171.852C151.582 162.958 144.379 155.747 135.491 155.747H105.465L11.1165 155.795H-18.9051C-27.7931 155.795 -35 148.583 -35 139.694V15.1915Z" fill="#4382BD"/>
</svg>
