<svg width="592" height="592" viewBox="0 0 592 592" fill="none" xmlns="http://www.w3.org/2000/svg">
<g id="Group 57">
<g id="&#208;&#168;&#208;&#176;&#209;&#128; 1">
<path id="Vector" d="M379.157 526.152C378.657 526.195 378.162 526.08 377.655 526.08C386.764 526.08 394.192 533.371 394.648 542.356C394.665 542.603 394.67 542.847 394.67 543.094V574.986C394.67 575.233 394.661 575.476 394.648 575.719C394.627 576.108 394.593 576.492 394.546 576.871C393.667 584.871 387.259 591.202 379.208 591.932C378.696 591.983 378.175 592.004 377.655 592.004H345.908C345.387 592.004 344.867 591.983 344.355 591.932C336.304 591.206 321.473 591.206 313.431 591.932C312.919 591.983 312.398 592.004 311.878 592.004H280.131C279.61 592.004 279.09 591.983 278.578 591.932C270.527 591.206 255.696 591.206 247.646 591.932C247.134 591.983 246.613 592.004 246.093 592.004H214.345C213.825 592.004 213.313 591.983 212.801 591.932C204.759 591.211 189.92 591.206 181.869 591.932C181.357 591.983 180.836 592.004 180.316 592.004H148.569C148.048 592.004 147.528 591.983 147.016 591.932C138.965 591.206 132.556 584.871 131.678 576.871C131.631 576.492 131.596 576.108 131.575 575.719C131.558 575.476 131.554 575.237 131.554 574.986V543.094C131.554 542.847 131.545 542.603 131.532 542.356C131.08 533.371 123.639 526.22 114.539 526.22H82.7875C82.2841 526.22 81.7849 526.199 81.2857 526.156C73.2135 525.448 66.7582 519.095 65.8921 511.066C65.8495 510.695 65.8111 510.319 65.794 509.94C65.7812 509.696 65.7727 509.449 65.7727 509.206V477.323C65.7727 477.075 65.7642 476.832 65.7514 476.585C65.2991 467.6 57.8668 460.449 48.7578 460.449H17.0192C16.5158 460.449 16.0166 460.428 15.5174 460.385C7.43666 459.677 0.989959 453.32 0.123857 445.299C0.0811918 444.928 0.0427931 444.552 0.0257271 444.169C0.0129276 443.925 0.00439453 443.678 0.00439453 443.435C0.00439453 443.435 0.0129276 411.053 0.0257271 410.809C0.477977 401.82 0.00439453 377.902 0.00439453 377.651V345.768C0.00439453 345.52 0.0129276 345.277 0.0257271 345.034C0.477977 336.045 7.91024 328.89 17.0192 328.89H48.7664C49.2698 328.89 49.769 328.869 50.2682 328.826C58.7244 328.088 65.4015 321.176 65.7599 312.618C65.7727 312.37 65.7812 312.127 65.7812 311.88C65.7812 312.127 65.7897 312.37 65.8026 312.618C66.1609 321.176 72.8466 328.088 81.2943 328.826C81.7934 328.869 82.2884 328.89 82.7961 328.89H114.547C115.051 328.89 115.55 328.869 116.041 328.826C124.497 328.092 131.183 321.176 131.541 312.618C131.558 312.37 131.562 312.127 131.562 311.88C131.562 311.973 131.562 312.076 131.571 312.174V312.439C131.571 321.129 138.291 328.246 146.836 328.847H146.858C147.135 328.869 147.417 328.877 147.694 328.886C147.767 328.894 147.848 328.894 147.92 328.894H148.287C148.381 328.903 148.483 328.903 148.581 328.903H164.922C165.076 328.903 165.238 328.903 165.391 328.911C182.773 329.393 196.772 343.336 197.343 360.679V377.664C197.343 377.911 197.352 378.154 197.365 378.402C197.356 378.444 197.365 378.496 197.365 378.542V378.551C197.365 378.581 197.365 378.611 197.373 378.641V378.679C197.591 387.148 204.204 394.017 212.566 394.64C212.976 394.678 213.394 394.691 213.816 394.691H246.673C247.082 394.691 247.492 394.678 247.897 394.64C256.413 394.025 263.124 386.917 263.124 378.24V361.78C263.124 361.289 263.133 360.807 263.154 360.325C263.163 360.048 263.176 359.774 263.197 359.506C263.214 359.292 263.227 359.088 263.248 358.874C263.27 358.61 263.299 358.345 263.329 358.089C263.351 357.872 263.38 357.658 263.419 357.436C263.427 357.372 263.44 357.296 263.449 357.232C263.47 357.07 263.491 356.903 263.521 356.741C263.534 356.609 263.56 356.485 263.581 356.361C263.581 356.349 263.59 356.34 263.59 356.323C263.59 356.263 263.598 356.199 263.611 356.139C263.632 355.986 263.662 355.832 263.696 355.687C263.735 355.474 263.769 355.269 263.811 355.056C263.854 354.83 263.905 354.604 263.956 354.373L264.089 353.844C264.11 353.755 264.131 353.661 264.148 353.571C264.311 352.957 264.486 352.342 264.682 351.741C264.712 351.647 264.741 351.557 264.776 351.463C264.788 351.412 264.814 351.353 264.827 351.297C265.164 350.303 265.544 349.322 265.975 348.37C266.013 348.281 266.047 348.204 266.085 348.127C266.226 347.82 266.371 347.521 266.516 347.218C266.934 346.369 267.387 345.542 267.877 344.744C268.001 344.531 268.125 344.326 268.266 344.121C268.274 344.1 268.283 344.083 268.296 344.07C268.581 343.622 268.876 343.182 269.183 342.76C269.294 342.606 269.405 342.453 269.52 342.299C269.665 342.094 269.819 341.898 269.968 341.698C270.186 341.42 270.407 341.147 270.629 340.878C270.796 340.674 270.966 340.477 271.141 340.273C271.367 340.008 271.602 339.744 271.854 339.488C272.148 339.168 272.447 338.852 272.754 338.545V338.536C272.946 338.353 273.129 338.169 273.317 337.986C273.505 337.802 273.697 337.627 273.897 337.453C274.089 337.269 274.286 337.094 274.49 336.924C274.687 336.749 274.887 336.578 275.092 336.42C275.399 336.164 275.706 335.921 276.022 335.682C276.125 335.601 276.227 335.52 276.338 335.439C276.5 335.324 276.658 335.196 276.829 335.08C276.893 335.038 276.961 334.987 277.025 334.94C277.042 334.927 277.063 334.918 277.076 334.901C277.076 334.901 277.08 334.898 277.089 334.893C277.089 334.893 277.089 334.884 277.097 334.88C277.272 334.756 277.447 334.637 277.626 334.522C277.737 334.449 277.844 334.376 277.955 334.304C278.057 334.231 278.172 334.159 278.283 334.086C278.394 334.022 278.505 333.946 278.612 333.882C278.642 333.869 278.672 333.843 278.702 333.83C279.009 333.638 279.324 333.451 279.64 333.267C279.875 333.135 280.101 333.011 280.336 332.879C280.579 332.747 280.809 332.623 281.052 332.499C281.287 332.384 281.522 332.265 281.756 332.154C282 332.038 282.238 331.919 282.482 331.817C282.725 331.701 282.964 331.59 283.215 331.497C283.459 331.394 283.698 331.283 283.954 331.198C283.962 331.198 283.962 331.189 283.962 331.189C284.461 330.993 284.956 330.81 285.472 330.639C286.526 330.281 287.61 329.982 288.706 329.722C288.933 329.671 289.159 329.628 289.389 329.577C289.726 329.513 290.072 329.444 290.409 329.385C290.43 329.385 290.447 329.376 290.469 329.376C290.609 329.346 290.754 329.325 290.895 329.304C290.938 329.295 290.976 329.291 291.019 329.291C291.185 329.261 291.356 329.231 291.522 329.21C291.625 329.197 291.736 329.188 291.838 329.171C291.932 329.159 292.034 329.15 292.137 329.133C292.299 329.112 292.465 329.09 292.627 329.073H292.666C293.485 328.979 294.326 328.928 295.17 328.907C295.456 328.898 295.75 328.898 296.041 328.898C296.331 328.898 296.612 328.898 296.907 328.907C297.141 328.915 297.38 328.92 297.615 328.928C298.195 328.958 298.771 329.001 299.343 329.069C299.637 329.107 299.927 329.133 300.213 329.171C300.486 329.201 300.764 329.235 301.032 329.287C301.574 329.368 302.116 329.462 302.649 329.572C302.854 329.615 303.059 329.662 303.255 329.713C318.06 333.118 328.829 346.839 328.901 362.535V378.231C328.901 386.905 335.617 394.017 344.128 394.631C344.53 394.67 344.939 394.682 345.353 394.682H345.925C337.2 394.682 330.019 401.24 329.029 409.696C328.991 410.067 328.948 410.442 328.931 410.818C328.914 411.061 328.91 411.309 328.91 411.552V443.443C328.829 452.778 321.239 460.317 311.895 460.317H280.148C270.749 460.317 263.124 467.933 263.124 477.331V509.078C263.124 518.473 270.744 526.092 280.148 526.092H377.668" fill="#F5BD28"/>
<path id="Vector_2" d="M328.897 82.7942V114.541C328.897 123.867 321.384 131.444 312.078 131.555H312.027C311.976 131.547 311.925 131.547 311.882 131.547H280.135C279.636 131.547 279.154 131.525 278.672 131.487C279.09 131.529 279.512 131.551 279.939 131.551H279.572C270.484 131.551 263.12 138.915 263.12 148.002V148.267C263.112 148.361 263.112 148.463 263.112 148.561V164.995C262.813 182.897 248.213 197.309 230.238 197.309H204.165C199.801 197.309 195.62 199.046 192.531 202.134L136.383 258.281C133.294 261.369 131.566 265.559 131.566 269.915V279.826C131.558 279.916 131.558 280.022 131.558 280.112V311.863C131.558 321.257 123.938 328.877 114.543 328.877H82.7917C73.4011 328.877 65.7768 321.257 65.7768 311.863V280.112C65.7768 279.835 65.7683 279.561 65.7555 279.293C65.7256 278.661 65.6659 278.047 65.5635 277.45C65.5336 277.236 65.4995 277.023 65.4526 276.814C65.3886 276.456 65.3075 276.11 65.2094 275.769C65.1667 275.585 65.1155 275.41 65.0558 275.235C65.0259 275.124 64.9961 275.018 64.9619 274.915C64.8979 274.702 64.8211 274.489 64.7443 274.28C64.6803 274.083 64.5993 273.883 64.5182 273.687C64.4755 273.584 64.4329 273.473 64.3774 273.362C64.1812 272.902 63.9593 272.445 63.7161 272.01C63.5924 271.775 63.4601 271.541 63.315 271.306V271.297C63.1743 271.071 63.0292 270.837 62.8671 270.615C62.7561 270.431 62.6324 270.256 62.4959 270.082C62.4532 270.009 62.3935 269.936 62.3337 269.864C62.193 269.672 62.0479 269.488 61.8943 269.309C61.5572 268.891 61.1818 268.482 60.7978 268.102C60.6357 267.936 60.4607 267.765 60.2858 267.611C60.2432 267.56 60.192 267.517 60.145 267.488C59.9914 267.334 59.8293 267.193 59.6714 267.078C59.5904 266.997 59.5179 266.933 59.4368 266.886C59.2747 266.741 59.1125 266.617 58.9461 266.498C58.0758 265.841 57.1286 265.269 56.143 264.791C55.6439 264.544 55.1319 264.33 54.6114 264.147C54.0908 263.951 53.5575 263.789 53.0157 263.648C52.7469 263.575 52.4738 263.507 52.1965 263.456C51.6376 263.341 51.0744 263.259 50.507 263.2C50.2339 263.17 49.9651 263.149 49.6878 263.136C49.4318 263.123 49.1758 263.114 48.9113 263.114C48.8942 263.114 48.8729 263.106 48.8601 263.114C48.8302 263.106 48.8004 263.106 48.7662 263.106H17.0191C14.6683 263.106 12.4284 262.628 10.3932 261.775C9.88978 261.557 9.39059 261.314 8.90848 261.058C8.66529 260.926 8.42636 260.785 8.20024 260.648C7.73092 260.363 7.27867 260.055 6.83922 259.731C6.50217 259.475 6.17364 259.211 5.85792 258.933C5.71286 258.81 5.56353 258.677 5.41847 258.537C5.37581 258.498 5.32887 258.456 5.28621 258.413C5.08995 258.229 4.89796 258.033 4.70596 257.833C4.68463 257.811 4.6633 257.79 4.6377 257.769C4.44571 257.564 4.25798 257.351 4.07452 257.133C4.04465 257.112 4.02332 257.082 3.99346 257.052C3.7972 256.809 3.6052 256.57 3.41321 256.318C3.17855 256.011 2.96096 255.695 2.75617 255.367C2.63244 255.175 2.50871 254.987 2.38925 254.786C2.33805 254.705 2.29538 254.62 2.24419 254.53C2.12899 254.338 2.02659 254.142 1.91566 253.937C1.75354 253.613 1.59568 253.285 1.44635 252.948C1.38662 252.815 1.33115 252.683 1.27569 252.551C1.18609 252.346 1.10929 252.141 1.0325 251.936C0.947166 251.71 0.870369 251.476 0.797838 251.241C0.780772 251.198 0.759439 251.147 0.74664 251.096C0.682642 250.87 0.614378 250.644 0.55038 250.409C0.490649 250.162 0.426651 249.906 0.375453 249.65C0.345588 249.526 0.324255 249.394 0.302922 249.27C0.221859 248.852 0.157861 248.429 0.110929 248.003C0.0981298 247.888 0.0810637 247.768 0.0725307 247.653V247.644C0.0511982 247.427 0.0341321 247.205 0.0213326 246.987V246.945C0.00853302 246.659 0 246.382 0 246.096V148.531C0 148.224 0.00853303 147.908 0.0298656 147.61C0.0426651 147.315 0.0682642 147.038 0.0938633 146.752C0.115196 146.577 0.136528 146.406 0.166394 146.232C0.174927 146.099 0.19626 145.967 0.217592 145.843C0.238925 145.69 0.26879 145.545 0.298656 145.395C0.319988 145.263 0.341321 145.131 0.371187 145.007C0.413852 144.811 0.460783 144.619 0.503448 144.427C0.533314 144.316 0.56318 144.209 0.593045 144.107C0.631444 143.962 0.674109 143.813 0.716774 143.667C0.755173 143.527 0.797838 143.399 0.849036 143.266C0.900234 143.083 0.964232 142.908 1.0325 142.733C1.21596 142.204 1.43781 141.692 1.67674 141.197C1.9114 140.698 2.17592 140.224 2.45751 139.755C2.59831 139.52 2.74337 139.294 2.9055 139.068C3.02922 138.885 3.15295 138.701 3.28521 138.526C3.33641 138.445 3.39614 138.364 3.46014 138.292C3.56254 138.151 3.67347 138.014 3.7844 137.874C3.85693 137.78 3.92946 137.69 4.01052 137.601C4.14278 137.438 4.27505 137.285 4.41157 137.14C4.59503 136.935 4.78703 136.739 4.97475 136.547C5.36301 136.159 5.76406 135.792 6.18218 135.45C6.6003 135.1 7.03975 134.768 7.492 134.469C8.17464 134.008 8.88288 133.59 9.62952 133.24C9.87698 133.125 10.1287 133.006 10.3847 132.903C10.8881 132.686 11.4172 132.485 11.9505 132.323C12.215 132.242 12.4838 132.169 12.7569 132.097C13.0854 132.007 13.4139 131.935 13.7467 131.879C13.9728 131.837 14.1947 131.79 14.4208 131.764C14.6981 131.721 14.984 131.683 15.2698 131.653C15.7989 131.593 16.3237 131.564 16.8655 131.564C16.8783 131.564 16.9039 131.555 16.9167 131.564C16.9466 131.555 16.9765 131.555 17.0106 131.555H48.7577C51.9875 131.555 55.0039 130.655 57.5809 129.093L57.5894 129.085C58.7541 128.377 59.8378 127.523 60.7978 126.568C63.874 123.492 65.7768 119.246 65.7768 114.545V82.7942C65.7768 82.5083 65.7854 82.2225 65.7982 81.9366V81.9153C65.8152 81.6892 65.828 81.4673 65.8494 81.2412C65.8579 81.1303 65.8664 81.0236 65.8792 80.9212C65.9091 80.6866 65.9389 80.4434 65.9731 80.213C66.0243 79.8845 66.084 79.5602 66.148 79.2402C66.1992 79.0141 66.2504 78.7795 66.3101 78.5533C66.3741 78.2974 66.4509 78.0414 66.5235 77.7939C66.532 77.7811 66.5405 77.7641 66.5405 77.7513C66.6301 77.4825 66.7155 77.2179 66.8136 76.962C66.9074 76.6974 67.0098 76.4415 67.1208 76.1855C67.2232 75.9295 67.3384 75.682 67.4578 75.4303C67.5816 75.1829 67.7053 74.9397 67.8376 74.6965C67.9613 74.4533 68.1021 74.2144 68.2471 73.9883C68.3879 73.7536 68.533 73.519 68.6866 73.2928C69.0023 72.8235 69.3394 72.3713 69.702 71.9404C69.8172 71.7996 69.9281 71.6716 70.0519 71.5393C70.1244 71.4497 70.1969 71.3644 70.2865 71.2748C70.3975 71.1511 70.5041 71.0316 70.6236 70.925C70.7174 70.8141 70.8156 70.7202 70.9094 70.6391C71.0332 70.5069 71.1654 70.3831 71.3062 70.2637C71.7243 69.8754 72.1638 69.5085 72.616 69.1715C73.0555 68.843 73.5035 68.5358 73.9685 68.2542C74.2032 68.1134 74.4464 67.9769 74.6853 67.8446C75.1589 67.5801 75.6581 67.3412 76.1701 67.1279C76.6692 66.9145 77.1812 66.7268 77.7017 66.5647C77.7103 66.5562 77.7145 66.5562 77.7316 66.5562C78.794 66.2191 79.899 65.993 81.0467 65.8821C81.5672 65.8223 82.1005 65.7925 82.6423 65.7925C82.6552 65.7925 82.6807 65.7839 82.6935 65.7925C82.7234 65.7839 82.7533 65.7839 82.7874 65.7839H114.539C119.232 65.7839 123.494 63.8811 126.57 60.7965C128.307 59.0686 129.668 56.9695 130.525 54.6187C130.717 54.1068 130.875 53.5734 131.025 53.0316C131.374 51.6706 131.558 50.2499 131.558 48.778V17.0145C131.558 7.61556 139.174 0 148.573 0H180.32C189.719 0 197.335 7.61556 197.335 17.0145V48.7652C197.335 53.4583 199.238 57.7119 202.322 60.788C203.09 61.5559 203.935 62.2514 204.84 62.8657C205.514 63.3265 206.23 63.7361 206.969 64.0944H206.977C209.213 65.1781 211.709 65.7797 214.35 65.7797H311.878C321.273 65.7797 328.893 73.3952 328.893 82.7942H328.897Z" fill="#EA789C"/>
<path id="Vector_3" d="M592.004 246.087C592.004 246.373 591.996 246.65 591.983 246.936V246.979C591.97 247.196 591.953 247.418 591.932 247.636V247.644C591.923 247.76 591.91 247.879 591.893 247.994C591.851 248.421 591.782 248.843 591.701 249.261C591.68 249.385 591.659 249.517 591.629 249.641C591.578 249.897 591.518 250.153 591.454 250.4C591.39 250.635 591.322 250.861 591.258 251.087C591.245 251.139 591.228 251.19 591.206 251.232C591.134 251.467 591.053 251.702 590.972 251.928C590.955 251.966 590.95 252 590.933 252.03C590.852 252.256 590.763 252.47 590.669 252.687C590.558 252.943 590.451 253.199 590.323 253.455C590.212 253.673 590.11 253.886 589.995 254.091C589.965 254.155 589.935 254.215 589.892 254.274C589.781 254.488 589.666 254.693 589.534 254.897C589.188 255.469 588.817 256.019 588.399 256.536C588.275 256.702 588.143 256.864 588.002 257.026C587.972 257.069 587.938 257.116 587.9 257.15C587.759 257.316 587.614 257.478 587.469 257.632C587.379 257.734 587.286 257.828 587.183 257.926C587.038 258.089 586.889 258.234 586.735 258.374C586.684 258.434 586.633 258.477 586.582 258.519C586.436 258.66 586.287 258.788 586.142 258.916C585.826 259.202 585.506 259.467 585.161 259.714C584.73 260.034 584.273 260.346 583.804 260.631C583.569 260.776 583.335 260.917 583.096 261.041C582.614 261.297 582.114 261.54 581.611 261.758C579.576 262.615 577.336 263.089 574.985 263.089H543.238C543.2 263.089 543.174 263.089 543.144 263.097H543.093C542.837 263.097 542.59 263.106 542.338 263.119C542.06 263.131 541.783 263.157 541.502 263.183C540.644 263.264 539.804 263.417 538.984 263.631C538.443 263.763 537.909 263.929 537.389 264.13C535.567 264.787 533.89 265.764 532.418 266.984C532.205 267.146 532 267.321 531.804 267.517C531.198 268.059 530.626 268.652 530.114 269.288C529.939 269.493 529.777 269.698 529.624 269.911C529.607 269.924 529.602 269.941 529.594 269.962C529.432 270.167 529.287 270.372 529.146 270.576C528.984 270.802 528.839 271.046 528.694 271.285C528.548 271.519 528.408 271.754 528.284 271.993C528.152 272.236 528.028 272.475 527.904 272.727C527.896 272.739 527.887 272.757 527.883 272.769C527.772 273.004 527.665 273.239 527.567 273.478C527.456 273.734 527.354 273.998 527.26 274.254C527.179 274.467 527.106 274.681 527.042 274.89C527.013 274.992 526.978 275.103 526.948 275.21C526.889 275.385 526.838 275.56 526.795 275.743C526.701 276.089 526.62 276.438 526.552 276.788C526.509 277.002 526.471 277.215 526.441 277.424C526.338 278.03 526.279 278.648 526.249 279.267C526.236 279.54 526.227 279.809 526.227 280.086V311.837C526.227 321.232 518.607 328.851 509.213 328.851H477.465C468.066 328.851 460.451 321.232 460.451 311.837V280.086C460.451 279.997 460.451 279.89 460.442 279.8V279.532C460.442 270.444 453.07 263.08 443.982 263.08H443.717C443.717 263.08 443.679 263.072 443.658 263.072C443.615 263.08 443.564 263.08 443.517 263.08C443.478 263.072 443.449 263.072 443.423 263.072H411.676C409.363 263.072 407.158 262.611 405.152 261.775C404.896 261.672 404.649 261.561 404.406 261.446C404.244 261.374 404.09 261.293 403.936 261.212C403.608 261.049 403.275 260.866 402.964 260.678C402.729 260.537 402.503 260.392 402.277 260.239C402.085 260.115 401.897 259.983 401.705 259.842C401.522 259.71 401.338 259.578 401.163 259.432C400.681 259.057 400.225 258.656 399.794 258.234C399.602 258.042 399.414 257.854 399.23 257.653C399.038 257.457 398.864 257.257 398.697 257.052C398.573 256.911 398.454 256.757 398.339 256.612C398.275 256.54 398.215 256.459 398.155 256.378C398.002 256.181 397.857 255.981 397.716 255.776C397.652 255.687 397.592 255.601 397.532 255.507C397.468 255.418 397.409 255.324 397.357 255.239C397.225 255.034 397.093 254.829 396.978 254.616C396.632 254.044 396.333 253.451 396.069 252.837C396.009 252.696 395.958 252.572 395.907 252.436C395.89 252.423 395.885 252.397 395.885 252.376C395.834 252.282 395.796 252.18 395.762 252.077C395.753 252.069 395.753 252.064 395.753 252.056C395.694 251.911 395.642 251.757 395.591 251.608C395.561 251.527 395.531 251.446 395.51 251.365C395.438 251.16 395.369 250.947 395.318 250.742C395.297 250.691 395.28 250.639 395.275 250.588C395.224 250.413 395.182 250.238 395.135 250.055C395.105 249.961 395.083 249.863 395.066 249.769C395.015 249.551 394.972 249.321 394.934 249.103C394.926 249.095 394.926 249.091 394.926 249.082C394.917 249.039 394.908 249.001 394.904 248.958C394.896 248.95 394.896 248.946 394.904 248.937C394.874 248.796 394.853 248.66 394.84 248.519C394.802 248.336 394.78 248.144 394.768 247.964C394.746 247.824 394.729 247.696 394.725 247.555C394.712 247.44 394.704 247.32 394.704 247.205C394.691 247.021 394.682 246.847 394.674 246.663V246.655C394.665 246.603 394.665 246.561 394.665 246.509V246.386C394.665 246.386 394.657 246.373 394.665 246.364C394.665 246.283 394.665 246.198 394.674 246.117C394.674 246.079 394.674 246.053 394.682 246.015C394.785 243.19 395.634 240.575 397.046 238.314C397.178 238.096 397.323 237.866 397.473 237.648C397.605 237.452 397.746 237.26 397.891 237.068C398.032 236.876 398.177 236.688 398.33 236.505C398.501 236.3 398.667 236.104 398.842 235.903C399.06 235.669 399.282 235.434 399.508 235.208C401.121 233.633 403.045 232.366 405.165 231.505C405.268 231.453 405.37 231.415 405.481 231.381C407.452 230.621 409.581 230.208 411.783 230.208C416.13 230.208 420.077 228.437 422.935 225.578C425.789 222.724 427.556 218.786 427.556 214.43V180.862C427.556 180.721 427.547 180.576 427.547 180.435C427.539 180.158 427.526 179.881 427.505 179.599C427.496 179.454 427.483 179.322 427.466 179.173C427.436 178.9 427.402 178.622 427.364 178.353C427.274 177.803 427.168 177.27 427.035 176.741C426.971 176.485 426.895 176.22 426.818 175.964C426.758 175.798 426.707 175.627 426.651 175.461C426.643 175.448 426.643 175.431 426.634 175.418C426.626 175.405 426.621 175.38 426.613 175.358C426.549 175.183 426.481 175 426.417 174.825C426.378 174.744 426.344 174.642 426.301 174.548C426.263 174.454 426.229 174.364 426.186 174.279C426.148 174.185 426.105 174.096 426.063 174.002C426.024 173.908 425.981 173.818 425.939 173.733C425.879 173.618 425.824 173.49 425.764 173.375C425.67 173.2 425.58 173.025 425.478 172.845C425.384 172.679 425.282 172.5 425.179 172.334C425.039 172.107 424.902 171.886 424.753 171.668C424.71 171.604 424.659 171.527 424.608 171.472C424.565 171.399 424.514 171.327 424.467 171.258C424.373 171.126 424.271 170.994 424.172 170.862C424.07 170.738 423.968 170.606 423.857 170.473C423.763 170.358 423.652 170.226 423.541 170.102C423.49 170.038 423.43 169.978 423.379 169.919C423.319 169.855 423.268 169.795 423.213 169.727C423.102 169.612 422.995 169.484 422.875 169.368C422.765 169.257 422.649 169.134 422.526 169.023C422.291 168.797 422.052 168.575 421.792 168.357C421.668 168.255 421.544 168.161 421.412 168.041C421.288 167.939 421.156 167.845 421.024 167.743C420.892 167.64 420.768 167.547 420.627 167.448C420.486 167.346 420.341 167.256 420.196 167.15C420.102 167.09 420.004 167.026 419.91 166.958C419.757 166.864 419.603 166.766 419.441 166.672C419.428 166.672 419.411 166.659 419.403 166.651C419.403 166.651 419.397 166.648 419.385 166.642C419.313 166.599 419.24 166.553 419.159 166.527C419.036 166.446 418.903 166.373 418.78 166.309C418.647 166.245 418.515 166.177 418.383 166.113C418.259 166.049 418.127 165.989 417.995 165.921C417.862 165.861 417.722 165.806 417.594 165.746C417.448 165.682 417.295 165.622 417.141 165.554H417.133C416.979 165.494 416.817 165.43 416.663 165.379C416.523 165.328 416.39 165.285 416.262 165.238H416.241C416.198 165.217 416.16 165.2 416.126 165.196C415.985 165.153 415.849 165.106 415.703 165.064C415.541 165.021 415.379 164.974 415.221 164.931C415.038 164.88 414.846 164.837 414.658 164.799C414.65 164.799 414.645 164.79 414.645 164.79C414.522 164.761 414.389 164.739 414.266 164.718C414.15 164.697 414.031 164.667 413.916 164.645C413.822 164.633 413.72 164.616 413.621 164.603C413.348 164.564 413.071 164.53 412.794 164.5C412.764 164.5 412.73 164.5 412.7 164.488H412.657C412.627 164.479 412.606 164.479 412.576 164.479C412.559 164.479 412.546 164.471 412.533 164.471H412.525C412.41 164.462 412.29 164.458 412.167 164.449C411.992 164.436 411.817 164.428 411.637 164.419C411.458 164.411 411.288 164.411 411.108 164.411H378.252C378.056 164.411 377.847 164.411 377.65 164.424C377.527 164.424 377.403 164.432 377.279 164.436C377.198 164.445 377.126 164.445 377.053 164.449C376.912 164.458 376.767 164.471 376.622 164.492C376.447 164.505 376.272 164.522 376.093 164.543C375.901 164.573 375.705 164.603 375.513 164.633C375.419 164.645 375.321 164.675 375.227 164.692C375.133 164.701 375.044 164.722 374.941 164.735C374.779 164.773 374.613 164.808 374.451 164.846C374.442 164.846 374.438 164.859 374.429 164.859C374.421 164.859 374.408 164.867 374.391 164.867C374.382 164.867 374.382 164.876 374.378 164.876C374.357 164.876 374.335 164.876 374.314 164.884C374.173 164.914 374.037 164.957 373.904 164.995C373.793 165.025 373.687 165.059 373.576 165.085C373.444 165.128 373.311 165.166 373.179 165.209C373.085 165.247 372.983 165.268 372.893 165.302C372.667 165.384 372.441 165.465 372.219 165.55C372.095 165.61 371.972 165.652 371.852 165.695C371.729 165.755 371.605 165.806 371.481 165.857C371.246 165.972 371.003 166.083 370.777 166.203C370.769 166.203 370.76 166.211 370.756 166.211C370.739 166.22 370.734 166.224 370.717 166.233C370.606 166.284 370.5 166.343 370.393 166.399C370.282 166.459 370.18 166.523 370.073 166.574C370.073 166.582 370.065 166.582 370.056 166.587C365.414 169.266 362.193 174.134 361.834 179.778C361.817 179.996 361.813 180.209 361.805 180.431C361.796 180.572 361.796 180.717 361.796 180.858C361.796 181.075 361.788 181.284 361.783 181.494C361.775 181.604 361.775 181.711 361.766 181.809C361.758 181.92 361.753 182.023 361.745 182.125C361.728 182.308 361.715 182.492 361.694 182.68C361.685 182.769 361.672 182.863 361.655 182.948C361.638 183.089 361.625 183.226 361.604 183.358C361.574 183.541 361.544 183.708 361.514 183.87C361.502 183.93 361.493 183.994 361.476 184.062C361.446 184.228 361.412 184.399 361.365 184.565C361.335 184.71 361.301 184.864 361.254 185.005C361.254 185.026 361.246 185.047 361.237 185.069C361.216 185.171 361.186 185.261 361.156 185.363C361.126 185.487 361.084 185.611 361.045 185.743C360.964 185.999 360.879 186.255 360.781 186.502C360.721 186.669 360.657 186.839 360.589 187.014C360.546 187.108 360.499 187.211 360.456 187.313C360.418 187.407 360.375 187.505 360.333 187.599C360.324 187.607 360.324 187.612 360.324 187.612C360.264 187.752 360.2 187.88 360.132 188.021C360.051 188.183 359.97 188.341 359.885 188.503C359.825 188.618 359.761 188.738 359.693 188.853C359.65 188.934 359.603 189.015 359.56 189.079C359.488 189.203 359.415 189.327 359.339 189.455C359.245 189.608 359.142 189.762 359.044 189.907C358.942 190.06 358.839 190.206 358.737 190.359C358.583 190.572 358.43 190.786 358.259 190.991C358.144 191.144 358.012 191.298 357.888 191.451C357.824 191.524 357.764 191.596 357.692 191.669C357.628 191.759 357.559 191.823 357.495 191.887C357.32 192.083 357.146 192.275 356.954 192.458L356.74 192.672C356.676 192.736 356.599 192.804 356.527 192.868C356.382 193.009 356.233 193.141 356.087 193.265C355.883 193.439 355.686 193.602 355.473 193.777C355.268 193.93 355.055 194.084 354.842 194.237C354.701 194.34 354.564 194.434 354.415 194.532C354.274 194.621 354.138 194.715 353.988 194.805C353.856 194.886 353.724 194.967 353.587 195.052C353.446 195.125 353.301 195.206 353.156 195.287C352.922 195.428 352.687 195.534 352.448 195.654C352.333 195.705 352.205 195.765 352.09 195.82C351.847 195.931 351.599 196.033 351.352 196.14C351.104 196.23 350.852 196.332 350.596 196.405C350.34 196.494 350.084 196.571 349.82 196.648C349.299 196.793 348.775 196.917 348.233 197.015C347.964 197.074 347.691 197.104 347.422 197.138C347.281 197.151 347.149 197.177 347.021 197.181C346.949 197.19 346.876 197.194 346.808 197.202C346.667 197.215 346.522 197.224 346.39 197.241H346.373C346.257 197.249 346.138 197.254 346.023 197.254C345.933 197.262 345.839 197.262 345.745 197.262C345.605 197.271 345.468 197.271 345.319 197.271C345.319 197.271 345.313 197.271 345.302 197.271C345.118 197.262 344.935 197.258 344.76 197.241C344.589 197.232 344.414 197.228 344.248 197.202C344.116 197.19 343.983 197.173 343.851 197.16C343.77 197.151 343.698 197.147 343.616 197.13C343.471 197.117 343.322 197.092 343.177 197.066C342.994 197.045 342.81 197.006 342.627 196.972C342.456 196.942 342.29 196.908 342.123 196.861C341.778 196.789 341.436 196.699 341.099 196.597C340.929 196.554 340.762 196.503 340.596 196.443C340.259 196.332 339.93 196.217 339.606 196.085C339.452 196.025 339.29 195.961 339.137 195.893C338.983 195.829 338.821 195.752 338.667 195.679C338.514 195.607 338.36 195.534 338.207 195.453C337.899 195.3 337.601 195.138 337.306 194.963C337.114 194.847 336.918 194.728 336.735 194.613C336.214 194.284 335.711 193.926 335.224 193.529C335.1 193.435 334.977 193.333 334.857 193.222C334.563 192.979 334.277 192.723 334.008 192.454C333.782 192.236 333.556 192.002 333.343 191.767C333.321 191.754 333.304 191.737 333.291 191.716C333.129 191.541 332.967 191.357 332.822 191.174C332.75 191.093 332.681 191.008 332.617 190.927C332.442 190.713 332.28 190.496 332.118 190.27C331.901 189.984 331.7 189.689 331.525 189.399C331.423 189.254 331.333 189.101 331.239 188.947C331.013 188.576 330.808 188.188 330.616 187.799C330.523 187.616 330.433 187.424 330.352 187.236C330.313 187.147 330.271 187.053 330.237 186.963C330.198 186.869 330.164 186.78 330.126 186.686C329.908 186.152 329.716 185.594 329.554 185.039C329.473 184.753 329.4 184.467 329.328 184.181C329.264 183.904 329.204 183.61 329.144 183.315C329.063 182.846 328.991 182.372 328.948 181.895C328.906 181.476 328.884 181.054 328.876 180.627C328.876 180.619 328.867 180.619 328.867 180.619C328.867 180.619 328.876 180.619 328.876 180.61C328.876 180.602 328.867 180.602 328.867 180.602H328.876V180.593L328.867 180.572C328.867 180.572 328.876 180.572 328.876 180.563V180.555L328.867 180.546L328.876 180.538L328.867 180.529V180.521L328.876 180.508L328.867 180.499L328.876 180.491L328.867 180.482L328.876 180.474L328.867 180.465L328.876 180.457C328.867 180.427 328.867 180.406 328.867 180.376V148.506C328.867 148.412 328.867 148.309 328.859 148.211V147.947C328.859 138.859 321.495 131.495 312.407 131.495H312.049C321.354 131.384 328.867 123.807 328.867 114.481V82.7344C328.867 73.3355 321.247 65.7199 311.852 65.7199H280.105C270.706 65.7199 246.118 65.7114 246.067 65.7114H214.32C211.675 65.7114 209.179 65.1098 206.947 64.0347C206.939 64.0262 206.939 64.0347 206.939 64.0347C206.192 63.6678 205.48 63.2582 204.81 62.806C203.901 62.1916 203.06 61.4962 202.292 60.7282C199.212 57.6521 197.305 53.3985 197.305 48.7055V17.0145C197.305 7.61556 204.925 0 214.32 0H443.397C448.978 0 453.931 2.68785 457.037 6.83907C457.302 7.18892 457.549 7.55583 457.776 7.93128C458.573 9.17707 459.205 10.521 459.648 11.9588C459.883 12.7139 460.067 13.4819 460.19 14.2797C460.344 15.1714 460.417 16.0887 460.417 17.0188V48.7695C460.417 50.2328 460.6 51.6621 460.95 53.0231C461.095 53.5649 461.257 54.0982 461.449 54.6102C462.307 56.9524 463.659 59.0558 465.404 60.788C465.984 61.3682 466.599 61.9015 467.247 62.3921C467.247 62.3921 467.25 62.395 467.256 62.4007C470.097 64.5253 473.617 65.7754 477.431 65.7754H509.178C509.217 65.7754 509.242 65.7754 509.272 65.7839H509.324C509.857 65.7925 510.394 65.8223 510.911 65.8735C511.773 65.9546 512.617 66.1082 513.428 66.3215C513.701 66.394 513.961 66.4666 514.234 66.5476C514.243 66.5562 514.247 66.5562 514.264 66.5562C514.785 66.7183 515.297 66.906 515.796 67.1193C516.308 67.3326 516.807 67.5716 517.289 67.8361C517.532 67.9683 517.763 68.1091 517.997 68.2457C518.467 68.523 518.919 68.8302 519.35 69.1629C519.811 69.5085 520.242 69.8712 520.66 70.2551C520.8 70.3703 520.933 70.4983 521.056 70.6306C521.15 70.7244 521.248 70.814 521.342 70.9164C521.453 71.0188 521.556 71.1298 521.658 71.245C521.803 71.4071 521.952 71.5649 522.089 71.7271C522.127 71.7697 522.161 71.8081 522.191 71.8508C522.332 72.0129 522.46 72.175 522.588 72.3414C522.836 72.6486 523.066 72.9643 523.284 73.2843C523.437 73.5104 523.582 73.7451 523.723 73.9797C523.868 74.2058 524.009 74.449 524.133 74.688C524.265 74.9311 524.397 75.1701 524.512 75.4218C524.628 75.6692 524.747 75.921 524.849 76.1769C524.96 76.4329 525.063 76.6889 525.157 76.9534C525.25 77.2094 525.34 77.4739 525.43 77.7427C525.43 77.7555 525.438 77.7726 525.442 77.7854C525.515 78.0328 525.587 78.2888 525.656 78.5448C525.715 78.7709 525.767 79.0056 525.818 79.2317C525.882 79.5559 525.942 79.8759 525.993 80.2044C526.031 80.4391 526.057 80.6823 526.087 80.9127C526.104 81.0236 526.108 81.126 526.117 81.2326C526.138 81.4588 526.155 81.6806 526.168 81.9067V81.9281C526.181 82.2139 526.189 82.4998 526.189 82.7856V114.536C526.189 116 526.373 117.429 526.722 118.79C526.867 119.332 527.03 119.865 527.222 120.377C528.079 122.719 529.44 124.823 531.177 126.555C534.253 129.635 538.511 131.542 543.204 131.542H574.951C574.989 131.542 575.015 131.542 575.045 131.551H575.096C575.629 131.559 576.167 131.589 576.692 131.64C576.978 131.67 577.263 131.704 577.541 131.751C577.737 131.781 577.942 131.815 578.142 131.854C578.501 131.918 578.851 131.999 579.205 132.088C579.478 132.161 579.747 132.233 580.011 132.314C580.544 132.477 581.065 132.673 581.577 132.895C581.833 132.997 582.08 133.108 582.332 133.232C583.569 133.825 584.726 134.571 585.775 135.442C586.411 135.962 587 136.525 587.546 137.131C587.712 137.315 587.883 137.507 588.045 137.703C588.066 137.724 588.083 137.746 588.096 137.767C588.263 137.972 588.425 138.168 588.578 138.381C588.591 138.39 588.6 138.394 588.6 138.411C588.745 138.603 588.885 138.799 589.018 138.996C589.193 139.239 589.355 139.486 589.5 139.742C589.794 140.212 590.05 140.685 590.289 141.184C590.404 141.432 590.524 141.688 590.626 141.944C590.737 142.187 590.831 142.434 590.925 142.682C590.925 142.695 590.933 142.703 590.933 142.72C590.997 142.882 591.049 143.049 591.108 143.219C591.168 143.382 591.219 143.544 591.262 143.71C591.292 143.804 591.313 143.894 591.343 143.987C591.386 144.15 591.433 144.312 591.467 144.478C591.509 144.632 591.548 144.794 591.578 144.956C591.62 145.122 591.65 145.293 591.68 145.459C591.701 145.57 591.723 145.677 591.74 145.796C591.77 145.959 591.791 146.121 591.804 146.278C591.834 146.424 591.846 146.577 591.863 146.726C591.893 146.982 591.915 147.238 591.932 147.503C591.94 147.533 591.94 147.563 591.94 147.593C591.962 147.913 591.97 148.237 591.97 148.565V246.083L592.004 246.087Z" fill="#E9661E"/>
<path id="Vector_4" d="M443.991 263.119H411.109C402.307 263.119 395.139 256.199 394.7 247.508V247.499C394.682 247.222 394.678 246.936 394.678 246.659C394.678 246.659 394.678 246.655 394.678 246.646C394.678 246.646 394.67 246.638 394.678 246.633C394.67 246.603 394.67 246.569 394.678 246.539V246.399C394.678 246.318 394.678 246.232 394.687 246.151C394.687 246.113 394.687 246.087 394.695 246.049C394.798 243.224 395.647 240.609 397.059 238.348C397.191 238.122 397.336 237.9 397.486 237.682C397.618 237.486 397.759 237.294 397.904 237.102C398.044 236.91 398.19 236.722 398.343 236.539C398.514 236.334 398.68 236.138 398.855 235.937C399.073 235.703 399.295 235.468 399.521 235.242C401.133 233.668 403.058 232.401 405.178 231.539C405.28 231.487 405.383 231.449 405.494 231.415C407.465 230.656 409.594 230.237 411.795 230.237C416.143 230.237 420.09 228.471 422.948 225.617C425.802 222.763 427.569 218.825 427.569 214.469V180.901C427.569 180.76 427.56 180.615 427.56 180.474C427.552 180.197 427.539 179.911 427.518 179.638C427.509 179.493 427.496 179.352 427.479 179.211C427.449 178.942 427.415 178.661 427.377 178.392C427.287 177.842 427.18 177.308 427.048 176.779C426.984 176.523 426.907 176.259 426.831 176.003C426.771 175.836 426.72 175.666 426.664 175.499C426.656 175.486 426.656 175.469 426.647 175.457C426.639 175.444 426.634 175.418 426.626 175.397C426.562 175.222 426.494 175.038 426.43 174.864C426.391 174.774 426.357 174.68 426.314 174.586C426.276 174.492 426.242 174.403 426.199 174.313C426.161 174.219 426.118 174.13 426.076 174.036C426.037 173.942 425.994 173.852 425.952 173.763C425.892 173.648 425.837 173.52 425.777 173.404C425.683 173.23 425.593 173.055 425.491 172.875C425.397 172.709 425.295 172.53 425.192 172.363C425.052 172.137 424.915 171.915 424.766 171.698C424.723 171.634 424.672 171.557 424.621 171.493C424.578 171.429 424.527 171.352 424.48 171.288C424.386 171.156 424.284 171.024 424.185 170.892C424.083 170.768 423.981 170.636 423.87 170.503C423.776 170.38 423.665 170.256 423.554 170.128C423.503 170.064 423.443 170.004 423.392 169.944C423.332 169.88 423.281 169.821 423.225 169.752C423.115 169.637 423.008 169.509 422.888 169.394C422.777 169.279 422.662 169.159 422.539 169.048C422.304 168.822 422.065 168.6 421.805 168.383C421.681 168.28 421.557 168.178 421.425 168.067C421.301 167.965 421.169 167.871 421.037 167.769C420.904 167.666 420.781 167.572 420.64 167.474C420.499 167.372 420.354 167.278 420.209 167.175C420.115 167.116 420.017 167.052 419.923 166.983C419.77 166.89 419.616 166.791 419.454 166.698C419.441 166.698 419.424 166.685 419.415 166.676C419.415 166.676 419.41 166.673 419.398 166.668C419.326 166.625 419.253 166.578 419.172 166.544C419.049 166.471 418.916 166.399 418.793 166.331C418.66 166.267 418.528 166.198 418.396 166.134C418.272 166.07 418.14 166.011 418.008 165.942C417.875 165.883 417.734 165.827 417.606 165.768C417.461 165.704 417.308 165.644 417.154 165.576H417.146C416.992 165.516 416.83 165.452 416.676 165.401C416.536 165.349 416.403 165.307 416.275 165.256H416.254C416.211 165.243 416.173 165.226 416.139 165.217C415.998 165.175 415.861 165.128 415.716 165.085C415.554 165.042 415.392 164.995 415.234 164.953C415.051 164.901 414.859 164.859 414.671 164.82C414.663 164.82 414.658 164.812 414.658 164.812C414.535 164.782 414.402 164.761 414.279 164.739C414.163 164.709 414.044 164.688 413.929 164.667C413.835 164.654 413.732 164.637 413.634 164.624C413.361 164.586 413.084 164.552 412.807 164.513C412.777 164.513 412.743 164.513 412.713 164.505H412.67C412.64 164.496 412.619 164.496 412.589 164.496C412.572 164.496 412.559 164.488 412.546 164.488H412.538C412.423 164.479 412.303 164.475 412.179 164.466C412.005 164.453 411.83 164.445 411.65 164.436C411.471 164.428 411.301 164.428 411.121 164.428H378.265C378.069 164.428 377.86 164.428 377.663 164.441C377.54 164.441 377.416 164.449 377.292 164.453C377.211 164.462 377.139 164.462 377.066 164.466C376.925 164.475 376.78 164.488 376.635 164.505C376.46 164.517 376.285 164.543 376.106 164.564C375.914 164.594 375.718 164.624 375.526 164.654C375.432 164.667 375.334 164.692 375.24 164.705C375.146 164.718 375.057 164.744 374.954 164.756C374.792 164.795 374.626 164.829 374.463 164.867C374.455 164.867 374.451 164.876 374.442 164.876C374.434 164.876 374.421 164.884 374.404 164.884C374.395 164.884 374.395 164.893 374.391 164.893C374.37 164.901 374.348 164.901 374.327 164.906C374.186 164.936 374.05 164.978 373.917 165.017C373.806 165.047 373.7 165.076 373.589 165.106C373.457 165.149 373.324 165.187 373.192 165.23C373.098 165.26 372.996 165.29 372.906 165.324C372.68 165.405 372.454 165.486 372.232 165.571C372.108 165.622 371.985 165.674 371.865 165.716C371.741 165.776 371.618 165.827 371.494 165.878C371.259 165.989 371.016 166.105 370.79 166.224C370.781 166.224 370.773 166.233 370.769 166.233C370.752 166.241 370.747 166.245 370.73 166.254C370.619 166.305 370.513 166.365 370.406 166.42C370.295 166.48 370.193 166.536 370.086 166.595C370.086 166.604 370.077 166.604 370.069 166.608C365.427 169.279 362.206 174.155 361.847 179.8C361.83 180.017 361.826 180.231 361.818 180.453C361.809 180.593 361.809 180.738 361.809 180.879C361.809 181.097 361.8 181.306 361.796 181.515C361.788 181.626 361.788 181.728 361.779 181.831C361.771 181.942 361.766 182.044 361.758 182.146C361.741 182.33 361.728 182.513 361.707 182.701C361.698 182.791 361.685 182.884 361.668 182.974C361.651 183.115 361.638 183.251 361.617 183.384C361.587 183.559 361.557 183.729 361.527 183.896C361.515 183.955 361.506 184.019 361.489 184.088C361.459 184.254 361.425 184.425 361.378 184.591C361.348 184.736 361.314 184.89 361.267 185.03C361.267 185.052 361.259 185.073 361.25 185.094C361.229 185.188 361.199 185.286 361.169 185.38C361.139 185.513 361.096 185.636 361.058 185.769C360.977 186.025 360.892 186.281 360.794 186.528C360.734 186.694 360.67 186.865 360.602 187.031C360.559 187.134 360.512 187.236 360.469 187.339C360.431 187.432 360.388 187.531 360.346 187.624C360.337 187.633 360.337 187.637 360.337 187.637C360.277 187.778 360.213 187.91 360.145 188.047C360.064 188.209 359.983 188.367 359.898 188.529C359.838 188.644 359.774 188.764 359.706 188.879C359.663 188.96 359.616 189.032 359.573 189.105C359.501 189.229 359.428 189.352 359.351 189.48C359.258 189.634 359.155 189.787 359.057 189.933C358.955 190.086 358.852 190.231 358.75 190.385C358.596 190.598 358.443 190.811 358.272 191.016C358.157 191.17 358.025 191.323 357.901 191.477C357.837 191.55 357.777 191.622 357.705 191.695C357.641 191.776 357.572 191.848 357.508 191.912C357.333 192.108 357.158 192.3 356.966 192.484C356.894 192.556 356.826 192.625 356.753 192.689C356.689 192.761 356.612 192.829 356.54 192.893C356.395 193.034 356.245 193.162 356.1 193.29C355.896 193.465 355.699 193.627 355.486 193.794C355.281 193.956 355.068 194.109 354.855 194.263C354.714 194.365 354.577 194.459 354.428 194.557C354.287 194.647 354.151 194.741 354.001 194.826C353.869 194.907 353.737 194.988 353.6 195.069C353.459 195.15 353.314 195.231 353.169 195.313C352.935 195.445 352.7 195.56 352.461 195.679C352.346 195.731 352.218 195.79 352.103 195.846C351.859 195.957 351.612 196.059 351.365 196.162C351.117 196.255 350.865 196.354 350.609 196.43C350.353 196.52 350.097 196.597 349.833 196.674C349.312 196.819 348.788 196.942 348.246 197.04C347.977 197.092 347.704 197.13 347.435 197.164C347.294 197.177 347.162 197.203 347.034 197.207C346.962 197.215 346.889 197.22 346.821 197.228C346.68 197.241 346.535 197.249 346.403 197.258H346.386C346.27 197.267 346.151 197.271 346.036 197.279C345.946 197.288 345.852 197.288 345.758 197.288C345.618 197.296 345.481 197.296 345.332 197.296H345.059C344.692 197.288 344.325 197.284 343.966 197.245C343.826 197.232 343.681 197.215 343.54 197.203C343.531 197.211 343.527 197.211 343.518 197.203C343.501 197.211 343.489 197.211 343.48 197.203C343.356 197.19 343.237 197.173 343.122 197.151C342.772 197.1 342.426 197.036 342.081 196.959C342.042 196.951 342.008 196.947 341.97 196.938C337.541 195.978 333.812 193.154 331.491 189.361C331.44 189.28 331.397 189.199 331.346 189.118C331.201 188.883 331.06 188.648 330.937 188.409C330.804 188.175 330.689 187.932 330.565 187.693C330.514 187.577 330.463 187.467 330.412 187.347C330.399 187.317 330.382 187.283 330.369 187.253C330.331 187.164 330.288 187.07 330.254 186.984C330.215 186.891 330.181 186.801 330.143 186.707C329.925 186.174 329.733 185.615 329.571 185.06C329.49 184.774 329.418 184.489 329.345 184.203C329.281 183.917 329.221 183.631 329.162 183.341C329.081 182.872 329.008 182.398 328.965 181.92C328.953 181.775 328.936 181.626 328.927 181.481C328.918 181.378 328.914 181.276 328.906 181.174C328.897 181.033 328.889 180.888 328.889 180.743C328.88 180.721 328.889 180.704 328.889 180.683C328.889 180.674 328.88 180.674 328.88 180.674C328.88 180.674 328.889 180.674 328.889 180.666C328.889 180.657 328.88 180.657 328.88 180.657H328.889V180.649L328.88 180.64C328.88 180.64 328.889 180.64 328.889 180.632C328.889 180.623 328.88 180.623 328.88 180.623C328.88 180.623 328.889 180.623 328.889 180.615V180.606L328.88 180.593C328.88 180.593 328.889 180.593 328.889 180.585V180.576L328.88 180.568L328.889 180.559L328.88 180.551V180.542L328.889 180.529L328.88 180.521L328.889 180.512L328.88 180.504L328.889 180.495L328.88 180.487L328.889 180.478V180.47L328.88 180.461V180.35C328.88 180.329 328.872 180.299 328.88 180.278C328.872 180.235 328.872 180.188 328.872 180.137V147.968C328.872 138.881 321.508 131.517 312.42 131.517H279.555C270.467 131.517 263.103 138.881 263.103 147.968V164.398C263.103 164.59 263.103 164.778 263.095 164.961C262.796 182.863 248.196 197.279 230.221 197.279H204.149C199.784 197.279 195.603 199.016 192.514 202.105L136.366 258.251C133.277 261.34 131.55 265.521 131.55 269.885V312.383C131.55 321.36 138.726 328.659 147.673 328.826C147.745 328.834 147.826 328.834 147.899 328.834H164.432C164.585 328.834 164.747 328.834 164.901 328.843C165.054 328.843 165.217 328.843 165.37 328.851C182.752 329.334 196.75 343.276 197.322 360.619C197.339 360.986 197.343 361.353 197.343 361.716V378.487C197.343 378.487 197.343 378.508 197.352 378.517V378.611C197.587 387.498 204.857 394.623 213.795 394.623H246.652C255.739 394.623 263.103 387.259 263.103 378.171V361.711C263.103 361.221 263.112 360.739 263.133 360.257C263.142 359.979 263.154 359.706 263.176 359.437C263.193 359.224 263.206 359.019 263.227 358.806C263.248 358.542 263.278 358.277 263.308 358.021C263.329 357.803 263.359 357.59 263.398 357.368C263.406 357.304 263.419 357.227 263.427 357.163C263.449 357.001 263.47 356.835 263.5 356.673C263.513 356.541 263.538 356.417 263.56 356.293C263.56 356.28 263.568 356.272 263.568 356.255C263.568 356.195 263.577 356.131 263.59 356.071C263.611 355.918 263.641 355.764 263.675 355.619C263.713 355.406 263.747 355.201 263.79 354.988C263.833 354.761 263.884 354.535 263.935 354.305L264.067 353.776C264.089 353.686 264.11 353.592 264.127 353.507C264.289 352.893 264.464 352.278 264.66 351.677C264.69 351.583 264.72 351.493 264.754 351.4C264.767 351.348 264.793 351.289 264.806 351.233C265.143 350.239 265.522 349.258 265.953 348.306C265.992 348.217 266.026 348.14 266.064 348.063C266.205 347.756 266.35 347.457 266.495 347.154C266.913 346.305 267.365 345.478 267.856 344.68C267.98 344.467 268.104 344.262 268.244 344.057C268.253 344.036 268.261 344.019 268.274 344.006C268.56 343.558 268.854 343.118 269.162 342.696C269.273 342.542 269.384 342.389 269.499 342.235C269.644 342.03 269.797 341.834 269.947 341.634C270.164 341.356 270.386 341.083 270.608 340.815C270.774 340.61 270.945 340.413 271.12 340.209C271.346 339.944 271.581 339.68 271.833 339.424C272.127 339.104 272.426 338.788 272.733 338.481V338.472C272.925 338.289 273.108 338.105 273.296 337.922C273.484 337.738 273.676 337.564 273.876 337.389C274.068 337.205 274.264 337.03 274.469 336.86C274.665 336.685 274.866 336.514 275.071 336.356C275.378 336.1 275.685 335.857 276.001 335.618C276.103 335.537 276.206 335.456 276.317 335.375C276.479 335.26 276.637 335.132 276.807 335.016C276.871 334.974 276.94 334.923 277.004 334.876C277.021 334.863 277.042 334.854 277.055 334.837C277.055 334.837 277.059 334.834 277.068 334.829C277.068 334.829 277.068 334.82 277.076 334.816C277.251 334.692 277.426 334.573 277.605 334.458C277.716 334.385 277.823 334.312 277.934 334.24C278.036 334.167 278.151 334.095 278.262 334.022C278.373 333.958 278.484 333.882 278.591 333.818C278.621 333.805 278.65 333.779 278.68 333.766C278.987 333.574 279.303 333.387 279.619 333.203C279.854 333.071 280.08 332.947 280.314 332.815C280.558 332.683 280.788 332.559 281.031 332.435C281.266 332.32 281.5 332.201 281.735 332.09C281.978 331.975 282.217 331.855 282.46 331.753C282.704 331.637 282.943 331.527 283.194 331.428C283.437 331.326 283.676 331.215 283.932 331.13C283.941 331.13 283.941 331.121 283.941 331.121C284.44 330.925 284.935 330.742 285.451 330.571C286.505 330.212 287.589 329.914 288.685 329.654C288.911 329.602 289.137 329.56 289.368 329.509C289.705 329.445 290.05 329.376 290.388 329.317C290.409 329.317 290.426 329.308 290.447 329.308C290.588 329.278 290.733 329.257 290.874 329.235C290.917 329.227 290.955 329.223 290.998 329.223C291.164 329.193 291.335 329.163 291.501 329.142C291.604 329.129 291.714 329.12 291.817 329.103C291.911 329.09 292.013 329.082 292.115 329.065C292.278 329.043 292.444 329.022 292.606 329.005H292.645C293.464 328.911 294.304 328.86 295.149 328.839C295.435 328.83 295.729 328.83 296.019 328.83C296.309 328.83 296.591 328.83 296.885 328.839C297.12 328.847 297.359 328.851 297.594 328.86C298.174 328.89 298.75 328.933 299.322 329.001C299.616 329.039 299.906 329.065 300.192 329.103C300.465 329.133 300.742 329.167 301.011 329.218C301.553 329.299 302.095 329.393 302.628 329.504C302.833 329.547 303.038 329.594 303.234 329.645C318.039 333.05 328.808 346.77 328.88 362.467V378.163C328.88 387.25 336.244 394.614 345.332 394.614H378.218C387.306 394.614 394.67 387.25 394.67 378.163V361.703C394.67 343.852 408.886 329.329 426.622 328.839C426.775 328.83 426.937 328.83 427.091 328.83C427.244 328.822 427.407 328.822 427.56 328.822H444.084C444.157 328.822 444.238 328.822 444.311 328.813C453.249 328.647 460.438 321.347 460.438 312.37V279.51C460.438 270.423 453.065 263.059 443.978 263.059L443.991 263.119ZM197.318 246.894H197.361C206.307 246.902 213.548 254.142 213.565 263.089V263.132C213.556 272.078 206.307 279.318 197.361 279.335H197.318C188.38 279.323 181.131 272.074 181.122 263.132V263.089C181.135 254.142 188.38 246.911 197.318 246.894Z" fill="#232323"/>
<path id="Vector_5" d="M377.655 526.08C386.111 526.813 394.29 533.798 394.648 542.356C394.665 542.603 394.67 542.847 394.67 543.094V574.986C394.67 575.233 394.678 575.476 394.691 575.719C395.143 584.709 402.584 591.855 411.684 591.855H443.432C452.541 591.855 459.977 584.709 460.434 575.719C460.446 575.476 460.455 575.237 460.455 574.986V543.094C460.455 542.847 460.464 542.603 460.476 542.356C460.929 533.371 468.361 526.22 477.47 526.22H509.217C509.72 526.22 510.22 526.199 510.71 526.156C518.782 525.457 525.225 519.108 526.108 511.092C526.155 510.712 526.189 510.328 526.21 509.94C526.223 509.697 526.232 509.449 526.232 509.206V477.323C526.232 477.075 526.24 476.832 526.253 476.585C526.705 467.6 534.146 460.449 543.247 460.449H574.994C575.497 460.449 575.996 460.428 576.496 460.385C584.576 459.677 591.023 453.32 591.889 445.299C591.932 444.928 591.97 444.553 591.987 444.173C592 443.93 592.009 443.682 592.009 443.439V345.772C592.009 345.525 592 345.281 591.987 345.038C591.535 336.049 584.103 328.894 574.994 328.894H543.247C542.743 328.894 542.244 328.873 541.753 328.83C533.297 328.096 526.612 321.18 526.253 312.622C526.24 312.375 526.232 312.131 526.232 311.884C526.232 312.131 526.223 312.375 526.21 312.622C525.852 321.18 519.166 328.101 510.71 328.83C510.22 328.873 509.72 328.894 509.217 328.894H477.47C476.966 328.894 476.467 328.873 475.968 328.83C467.512 328.092 460.835 321.18 460.476 312.622C460.464 312.375 460.455 312.131 460.455 311.884C460.455 311.978 460.455 312.08 460.446 312.178V312.443C460.446 321.134 453.71 328.25 445.172 328.851H445.151C444.874 328.873 444.596 328.881 444.315 328.89C444.242 328.898 444.161 328.898 444.089 328.898H443.722C443.628 328.907 443.525 328.907 443.427 328.907H427.095C426.942 328.907 426.779 328.907 426.626 328.915C408.894 329.406 394.674 343.933 394.674 361.78V378.24C394.674 386.913 387.958 394.025 379.447 394.64C379.046 394.678 378.632 394.691 378.222 394.691H345.908C336.799 394.691 329.366 401.837 328.914 410.826C328.897 411.07 328.893 411.317 328.893 411.56V443.452C328.812 452.787 321.222 460.325 311.878 460.325H280.131C270.732 460.325 263.107 467.941 263.107 477.34V509.086C263.107 518.481 270.727 526.101 280.131 526.101H377.651M329.017 445.295C329.068 445.781 329.145 446.263 329.238 446.737C329.145 446.263 329.072 445.781 329.017 445.295ZM329.247 446.792C329.341 447.253 329.452 447.71 329.58 448.153C329.452 447.705 329.341 447.253 329.247 446.792ZM329.61 448.247C329.738 448.682 329.883 449.105 330.045 449.523C329.883 449.105 329.738 448.678 329.61 448.247ZM330.092 449.655C330.25 450.056 330.424 450.453 330.612 450.837C330.424 450.449 330.25 450.056 330.092 449.655ZM331.414 452.309C331.619 452.642 331.837 452.97 332.063 453.29C331.837 452.97 331.619 452.646 331.414 452.309ZM332.246 453.542C332.468 453.841 332.699 454.131 332.937 454.416C332.699 454.135 332.468 453.841 332.246 453.542ZM335.365 456.759C335.608 456.951 335.851 457.143 336.103 457.318C335.851 457.138 335.608 456.951 335.365 456.759ZM336.59 457.646C336.829 457.804 337.072 457.962 337.319 458.111C337.072 457.966 336.829 457.804 336.59 457.646ZM339.295 459.088C339.521 459.186 339.747 459.284 339.977 459.374C339.747 459.289 339.521 459.186 339.295 459.088ZM340.767 459.634C340.98 459.703 341.185 459.775 341.402 459.835C341.185 459.775 340.98 459.698 340.767 459.634Z" fill="#4382BD"/>
<g id="Group">
<path id="Vector_6" d="M108.301 435.666C108.301 441.007 103.847 445.376 98.3389 445.376H93.01C92.3402 445.376 91.7983 444.834 91.7983 444.164V427.133C91.7983 426.463 92.3402 425.921 93.01 425.921H98.3389C103.847 425.921 108.301 430.29 108.301 435.661V435.666ZM105.434 435.666C105.434 431.881 102.234 428.818 98.3389 428.818H95.9027C95.2329 428.818 94.691 429.36 94.691 430.03V441.272C94.691 441.942 95.2329 442.483 95.9027 442.483H98.3389C102.234 442.483 105.434 439.424 105.434 435.666Z" fill="white"/>
<path id="Vector_7" d="M113.788 429.838V432.619C113.788 433.289 114.33 433.831 115 433.831H123.183C123.853 433.831 124.394 434.373 124.394 435.043V435.516C124.394 436.186 123.853 436.728 123.183 436.728H115C114.33 436.728 113.788 437.27 113.788 437.94V441.114C113.788 441.784 114.33 442.325 115 442.325H123.183C123.853 442.325 124.394 442.867 124.394 443.537V444.011C124.394 444.681 123.853 445.222 123.183 445.222H112.137C111.467 445.222 110.925 444.681 110.925 444.011V426.979C110.925 426.309 111.467 425.768 112.137 425.768H123.183C123.853 425.768 124.394 426.309 124.394 426.979V427.423C124.394 428.093 123.853 428.635 123.183 428.635H115C114.33 428.635 113.788 429.176 113.788 429.846V429.838Z" fill="white"/>
<path id="Vector_8" d="M144.865 438.784C145.539 439.049 145.842 439.851 145.492 440.487C144.451 442.364 142.809 443.87 140.808 444.766C139.498 445.321 138.107 445.628 136.746 445.628C135.522 445.628 134.327 445.406 133.158 444.958C130.709 444.011 128.734 442.121 127.646 439.672C126.587 437.223 126.506 434.522 127.449 432.048C128.422 429.599 130.287 427.623 132.736 426.54C135.184 425.456 137.885 425.401 140.36 426.343C142.165 427.043 143.73 428.251 144.852 429.825C145.275 430.418 145.066 431.25 144.421 431.591L144.016 431.804C143.487 432.082 142.834 431.932 142.48 431.455C141.682 430.371 140.594 429.53 139.327 429.04C137.574 428.37 135.628 428.4 133.9 429.181C132.147 429.961 130.811 431.352 130.141 433.106C129.472 434.859 129.531 436.779 130.282 438.503C131.063 440.256 132.454 441.592 134.207 442.261C137.523 443.55 141.226 442.151 142.915 439.147C143.214 438.618 143.85 438.388 144.413 438.609L144.861 438.784H144.865Z" fill="white"/>
<path id="Vector_9" d="M150.996 429.838V432.619C150.996 433.289 151.538 433.831 152.208 433.831H160.391C161.061 433.831 161.603 434.373 161.603 435.043V435.516C161.603 436.186 161.061 436.728 160.391 436.728H152.208C151.538 436.728 150.996 437.27 150.996 437.94V441.114C150.996 441.784 151.538 442.325 152.208 442.325H160.391C161.061 442.325 161.603 442.867 161.603 443.537V444.011C161.603 444.681 161.061 445.222 160.391 445.222H149.345C148.675 445.222 148.133 444.681 148.133 444.011V426.979C148.133 426.309 148.675 425.768 149.345 425.768H160.391C161.061 425.768 161.603 426.309 161.603 426.979V427.423C161.603 428.093 161.061 428.635 160.391 428.635H152.208C151.538 428.635 150.996 429.176 150.996 429.846V429.838Z" fill="white"/>
<path id="Vector_10" d="M173.895 444.459L169.824 432.909C169.372 431.625 167.474 431.95 167.474 433.311V444.053C167.474 444.723 166.932 445.265 166.262 445.265H165.818C165.148 445.265 164.606 444.723 164.606 444.053V427.052C164.606 426.382 165.148 425.84 165.818 425.84H169.372C169.888 425.84 170.345 426.164 170.516 426.651L174.53 438.106C174.983 439.39 176.885 439.07 176.885 437.705V427.052C176.885 426.382 177.427 425.84 178.097 425.84H178.571C179.241 425.84 179.782 426.382 179.782 427.052V444.053C179.782 444.723 179.241 445.265 178.571 445.265H175.047C174.535 445.265 174.074 444.941 173.903 444.459H173.895Z" fill="white"/>
<path id="Vector_11" d="M195.82 428.626H192.01C191.34 428.626 190.799 429.168 190.799 429.838V444.083C190.799 444.753 190.257 445.295 189.587 445.295H189.143C188.473 445.295 187.931 444.753 187.931 444.083V429.838C187.931 429.168 187.39 428.626 186.72 428.626H182.906C182.236 428.626 181.694 428.084 181.694 427.414V426.971C181.694 426.301 182.236 425.759 182.906 425.759H195.816C196.486 425.759 197.028 426.301 197.028 426.971V427.414C197.028 428.084 196.486 428.626 195.816 428.626H195.82Z" fill="white"/>
<path id="Vector_12" d="M208.974 438.499L212.012 443.362C212.515 444.169 211.935 445.214 210.983 445.214H210.057C209.639 445.214 209.247 444.996 209.029 444.638L204.648 437.547C204.426 437.189 204.037 436.971 203.619 436.971H203.056C202.386 436.971 201.844 437.513 201.844 438.183V444.028C201.844 444.698 201.303 445.239 200.633 445.239H200.159C199.489 445.239 198.948 444.698 198.948 444.028V425.814H207.907C211.052 425.814 213.612 428.319 213.612 431.382C213.612 433.869 211.931 435.981 209.622 436.707C208.871 436.941 208.556 437.829 208.97 438.499H208.974ZM201.844 432.871C201.844 433.541 202.386 434.083 203.056 434.083H207.911C209.469 434.083 210.723 432.888 210.723 431.382C210.723 429.876 209.469 428.682 207.911 428.682H203.056C202.386 428.682 201.844 429.223 201.844 429.893V432.871Z" fill="white"/>
<path id="Vector_13" d="M225.076 438.366H220.472C219.926 438.366 219.444 438.733 219.303 439.262L217.895 444.484C217.754 445.013 217.272 445.38 216.726 445.38H216.363C215.566 445.38 214.99 444.625 215.194 443.857L219.751 426.826C219.892 426.297 220.374 425.93 220.92 425.93H224.628C225.174 425.93 225.656 426.297 225.797 426.826L230.353 443.857C230.558 444.625 229.978 445.38 229.184 445.38H228.822C228.276 445.38 227.793 445.013 227.653 444.484L226.245 439.262C226.104 438.733 225.622 438.366 225.076 438.366ZM224.815 433.946L223.945 430.687C223.625 429.488 221.927 429.488 221.607 430.687L220.737 433.946C220.532 434.714 221.112 435.469 221.906 435.469H223.651C224.449 435.469 225.025 434.714 224.82 433.946H224.815Z" fill="white"/>
<path id="Vector_14" d="M233.366 436.527H240.964C241.634 436.527 242.176 437.069 242.176 437.739C242.176 438.409 241.634 438.951 240.964 438.951H233.366C232.696 438.951 232.154 438.409 232.154 437.739C232.154 437.069 232.696 436.527 233.366 436.527Z" fill="white"/>
<path id="Vector_15" d="M105.268 468.961V469.404C105.268 470.074 104.726 470.616 104.056 470.616H93.01C92.3402 470.616 91.7983 470.074 91.7983 469.404V452.403C91.7983 451.733 92.3402 451.191 93.01 451.191H93.4537C94.1236 451.191 94.6654 451.733 94.6654 452.403V466.537C94.6654 467.207 95.2073 467.749 95.8771 467.749H104.06C104.73 467.749 105.272 468.291 105.272 468.961H105.268Z" fill="white"/>
<path id="Vector_16" d="M107.247 469.52V452.488C107.247 451.818 107.789 451.276 108.459 451.276H108.903C109.573 451.276 110.114 451.818 110.114 452.488V469.52C110.114 470.189 109.573 470.731 108.903 470.731H108.459C107.789 470.731 107.247 470.189 107.247 469.52Z" fill="white"/>
<path id="Vector_17" d="M128.785 468.961V469.404C128.785 470.074 128.243 470.616 127.573 470.616H114.159C113.489 470.616 112.947 470.074 112.947 469.404V464.92C112.947 464.515 113.152 464.135 113.489 463.914L124.992 456.281C125.99 455.62 125.521 454.062 124.322 454.062H114.155C113.485 454.062 112.943 453.521 112.943 452.851V452.407C112.943 451.737 113.485 451.195 114.155 451.195H127.569C128.239 451.195 128.78 451.737 128.78 452.407V456.592C128.78 456.993 128.58 457.369 128.247 457.595L116.518 465.539C115.529 466.209 116.002 467.753 117.197 467.753H127.569C128.239 467.753 128.78 468.295 128.78 468.965L128.785 468.961Z" fill="white"/>
<path id="Vector_18" d="M140.466 463.717H135.867C135.321 463.717 134.839 464.084 134.698 464.613L133.29 469.835C133.149 470.364 132.667 470.731 132.121 470.731H131.759C130.961 470.731 130.385 469.976 130.589 469.208L135.146 452.177C135.287 451.648 135.769 451.281 136.315 451.281H140.023C140.569 451.281 141.051 451.648 141.192 452.177L145.748 469.208C145.953 469.976 145.373 470.731 144.579 470.731H144.217C143.671 470.731 143.189 470.364 143.048 469.835L141.64 464.613C141.499 464.084 141.017 463.717 140.471 463.717H140.466ZM140.206 459.297L139.336 456.038C139.016 454.839 137.318 454.839 136.998 456.038L136.127 459.297C135.923 460.065 136.503 460.82 137.296 460.82H139.041C139.839 460.82 140.415 460.065 140.21 459.297H140.206Z" fill="white"/>
<path id="Vector_19" d="M158.356 453.977H154.546C153.876 453.977 153.334 454.519 153.334 455.189V469.434C153.334 470.104 152.792 470.646 152.123 470.646H151.679C151.009 470.646 150.467 470.104 150.467 469.434V455.189C150.467 454.519 149.925 453.977 149.255 453.977H145.441C144.771 453.977 144.229 453.435 144.229 452.765V452.322C144.229 451.652 144.771 451.11 145.441 451.11H158.352C159.021 451.11 159.563 451.652 159.563 452.322V452.765C159.563 453.435 159.021 453.977 158.352 453.977H158.356Z" fill="white"/>
<path id="Vector_20" d="M161.488 469.52V452.488C161.488 451.818 162.029 451.276 162.699 451.276H163.143C163.813 451.276 164.355 451.818 164.355 452.488V469.52C164.355 470.189 163.813 470.731 163.143 470.731H162.699C162.029 470.731 161.488 470.189 161.488 469.52Z" fill="white"/>
<path id="Vector_21" d="M184.471 468.056C184.399 468.154 184.314 468.244 184.215 468.317C176.088 474.563 167 468.863 167 461.017C167 455.509 171.48 451.025 176.962 451.025C184.723 451.025 190.444 459.92 184.467 468.056H184.471ZM182.219 455.944C182.146 455.85 182.057 455.76 181.963 455.692C174.535 450.206 166.172 458.538 171.676 466.068C171.753 466.171 171.847 466.264 171.949 466.341C179.501 471.879 187.842 463.325 182.223 455.948L182.219 455.944Z" fill="white"/>
<path id="Vector_22" d="M198.858 469.81L194.788 458.261C194.336 456.976 192.437 457.301 192.437 458.662V469.404C192.437 470.074 191.895 470.616 191.225 470.616H190.782C190.112 470.616 189.57 470.074 189.57 469.404V452.403C189.57 451.733 190.112 451.191 190.782 451.191H194.336C194.852 451.191 195.308 451.515 195.479 452.002L199.494 463.457C199.946 464.741 201.849 464.421 201.849 463.056V452.403C201.849 451.733 202.391 451.191 203.061 451.191H203.534C204.204 451.191 204.746 451.733 204.746 452.403V469.404C204.746 470.074 204.204 470.616 203.534 470.616H200.01C199.498 470.616 199.037 470.292 198.867 469.81H198.858Z" fill="white"/>
</g>
<g id="Group_2">
<path id="Vector_23" d="M97.9975 161.855C97.925 161.953 97.8396 162.043 97.7415 162.115C89.6138 168.362 80.5261 162.662 80.5261 154.816C80.5261 149.308 85.006 144.824 90.4884 144.824C98.2492 144.824 103.971 153.719 97.9932 161.855H97.9975ZM95.7448 149.743C95.6722 149.649 95.5826 149.559 95.4888 149.491C88.0608 144 79.6984 152.337 85.2022 159.867C85.279 159.969 85.3729 160.063 85.4753 160.14C93.027 165.678 101.368 157.124 95.749 149.747L95.7448 149.743Z" fill="white"/>
<path id="Vector_24" d="M123.648 146.304L121.357 163.366C121.276 163.967 120.764 164.415 120.158 164.415H116.651C116.045 164.415 115.533 163.967 115.452 163.366L114.232 154.261C114.044 152.862 112.021 152.862 111.834 154.261L110.614 163.366C110.532 163.967 110.02 164.415 109.415 164.415H105.937C105.332 164.415 104.82 163.967 104.739 163.366L102.447 146.304C102.349 145.579 102.912 144.935 103.646 144.935H104.073C104.679 144.935 105.191 145.383 105.272 145.984L106.466 154.888C106.654 156.288 108.677 156.288 108.864 154.888L110.059 145.984C110.14 145.383 110.652 144.935 111.258 144.935H114.79C115.396 144.935 115.908 145.383 115.989 145.984L117.205 155.012C117.393 156.411 119.415 156.407 119.603 155.012L120.802 145.988C120.883 145.387 121.395 144.939 122.001 144.939H122.453C123.187 144.939 123.75 145.583 123.652 146.308L123.648 146.304Z" fill="white"/>
<path id="Vector_25" d="M135.79 163.609L131.72 152.051C131.268 150.767 129.369 151.091 129.369 152.452V163.203C129.369 163.873 128.827 164.411 128.162 164.411H127.714C127.044 164.411 126.506 163.869 126.506 163.203V146.197C126.506 145.528 127.048 144.99 127.714 144.99H131.268C131.78 144.99 132.241 145.314 132.411 145.801L136.43 157.265C136.883 158.549 138.781 158.224 138.781 156.864V146.202C138.781 145.532 139.323 144.994 139.989 144.994H140.462C141.132 144.994 141.67 145.536 141.67 146.202V163.208C141.67 163.878 141.128 164.415 140.462 164.415H136.934C136.422 164.415 135.965 164.091 135.795 163.609H135.79Z" fill="white"/>
<path id="Vector_26" d="M148.099 148.983V151.769C148.099 152.439 148.641 152.977 149.307 152.977H157.49C158.16 152.977 158.697 153.519 158.697 154.184V154.658C158.697 155.328 158.155 155.865 157.49 155.865H149.307C148.637 155.865 148.099 156.407 148.099 157.073V160.247C148.099 160.917 148.641 161.454 149.307 161.454H157.49C158.16 161.454 158.697 161.996 158.697 162.662V163.135C158.697 163.805 158.155 164.343 157.49 164.343H146.44C145.77 164.343 145.232 163.801 145.232 163.135V146.104C145.232 145.434 145.774 144.896 146.44 144.896H157.49C158.16 144.896 158.697 145.438 158.697 146.104V146.552C158.697 147.221 158.155 147.759 157.49 147.759H149.307C148.637 147.759 148.099 148.301 148.099 148.966V148.983Z" fill="white"/>
<path id="Vector_27" d="M171.787 157.644L174.829 162.508C175.332 163.314 174.752 164.36 173.805 164.36H172.875C172.457 164.36 172.068 164.142 171.847 163.788L167.465 156.697C167.243 156.339 166.855 156.125 166.437 156.125H165.873C165.204 156.125 164.666 156.667 164.666 157.333V163.178C164.666 163.848 164.124 164.385 163.459 164.385H162.985C162.315 164.385 161.778 163.843 161.778 163.178V144.964H170.737C173.882 144.964 176.442 147.469 176.442 150.532C176.442 153.019 174.756 155.131 172.448 155.857C171.697 156.091 171.381 156.979 171.795 157.644H171.787ZM164.662 152.017C164.662 152.687 165.204 153.224 165.869 153.224H170.724C172.282 153.224 173.536 152.03 173.536 150.524C173.536 149.018 172.282 147.823 170.724 147.823H165.869C165.199 147.823 164.662 148.365 164.662 149.03V152.008V152.017Z" fill="white"/>
<path id="Vector_28" d="M190.069 162.521C188.9 163.775 187.091 164.496 185.115 164.496H184.808C183.788 164.496 181.165 164.206 178.831 161.522C178.361 160.981 178.489 160.144 179.083 159.743L179.479 159.475C179.983 159.133 180.657 159.227 181.062 159.679C182.863 161.697 184.719 161.625 184.889 161.604H185.086C186.255 161.604 187.338 161.215 187.953 160.545C188.426 160.046 188.648 159.406 188.593 158.681C188.482 157.235 186.728 156.62 184.501 155.955L184.194 155.869C182.662 155.396 181.493 154.841 180.631 154.146C179.492 153.229 178.878 152.06 178.822 150.669C178.767 149.248 179.296 147.887 180.324 146.829C181.382 145.715 182.884 145.075 184.441 145.05C185.077 144.977 187.662 144.862 189.941 147.051C190.478 147.567 190.427 148.442 189.834 148.894L189.467 149.171C189.011 149.517 188.362 149.504 187.94 149.116C186.412 147.704 184.774 147.913 184.748 147.913L184.638 147.942H184.527C183.72 147.942 182.939 148.25 182.385 148.834C181.911 149.308 181.689 149.918 181.689 150.558C181.719 151.001 181.77 152.145 185.03 153.118L185.307 153.203C186.421 153.51 187.786 153.928 188.925 154.624C190.483 155.571 191.349 156.851 191.46 158.463C191.571 160.021 191.097 161.412 190.069 162.525V162.521Z" fill="white"/>
<path id="Vector_29" d="M205.253 155.733H198.265C197.595 155.733 197.057 156.275 197.057 156.94V163.148C197.057 163.818 196.516 164.355 195.85 164.355H195.402C194.732 164.355 194.195 163.814 194.195 163.148V146.116C194.195 145.447 194.736 144.909 195.402 144.909H195.85C196.52 144.909 197.057 145.451 197.057 146.116V151.629C197.057 152.298 197.599 152.836 198.265 152.836H205.253C205.923 152.836 206.461 152.294 206.461 151.629V146.116C206.461 145.447 207.003 144.909 207.668 144.909H208.142C208.812 144.909 209.349 145.451 209.349 146.116V163.148C209.349 163.818 208.807 164.355 208.142 164.355H207.668C206.998 164.355 206.461 163.814 206.461 163.148V156.94C206.461 156.27 205.919 155.733 205.253 155.733Z" fill="white"/>
<path id="Vector_30" d="M212.92 163.314V146.283C212.92 145.613 213.462 145.075 214.128 145.075H214.576C215.246 145.075 215.783 145.617 215.783 146.283V163.314C215.783 163.984 215.241 164.522 214.576 164.522H214.128C213.458 164.522 212.92 163.98 212.92 163.314Z" fill="white"/>
<path id="Vector_31" d="M234.044 150.558C234.044 153.647 231.484 156.151 228.34 156.151H223.484C222.814 156.151 222.277 156.693 222.277 157.358V163.203C222.277 163.873 221.735 164.411 221.069 164.411H220.596C219.926 164.411 219.388 163.869 219.388 163.203V144.99H228.348C231.493 144.99 234.052 147.494 234.052 150.558H234.044ZM231.147 150.558C231.147 149.082 229.893 147.857 228.335 147.857H223.48C222.81 147.857 222.273 148.399 222.273 149.064V152.042C222.273 152.712 222.814 153.25 223.48 153.25H228.335C229.893 153.25 231.147 152.055 231.147 150.549V150.558Z" fill="white"/>
</g>
<g id="Group_3">
<path id="Vector_32" d="M382.305 125.975C381.136 127.229 379.327 127.95 377.352 127.95H377.045C376.025 127.95 373.401 127.66 371.067 124.976C370.598 124.434 370.726 123.598 371.319 123.197L371.716 122.928C372.219 122.587 372.893 122.681 373.299 123.133C375.099 125.151 376.955 125.079 377.126 125.057H377.322C378.491 125.057 379.575 124.669 380.189 123.999C380.663 123.5 380.884 122.86 380.829 122.135C380.718 120.689 378.964 120.074 376.737 119.409L376.43 119.323C374.898 118.85 373.729 118.295 372.868 117.6C371.728 116.682 371.114 115.513 371.059 114.123C371.003 112.702 371.532 111.341 372.56 110.283C373.619 109.169 375.12 108.529 376.678 108.504C377.313 108.431 379.899 108.316 382.177 110.505C382.715 111.021 382.664 111.895 382.07 112.348L381.704 112.625C381.247 112.971 380.599 112.958 380.176 112.57C378.649 111.157 377.01 111.366 376.985 111.366L376.874 111.396H376.763C375.957 111.396 375.176 111.703 374.621 112.288C374.148 112.762 373.926 113.372 373.926 114.012C373.956 114.455 374.007 115.599 377.266 116.571L377.544 116.657C378.657 116.964 380.018 117.382 381.162 118.078C382.719 119.025 383.585 120.305 383.696 121.917C383.807 123.475 383.333 124.865 382.305 125.979V125.975Z" fill="white"/>
<path id="Vector_33" d="M389.289 112.437V115.223C389.289 115.893 389.831 116.431 390.497 116.431H398.68C399.35 116.431 399.887 116.972 399.887 117.638V118.112C399.887 118.781 399.346 119.319 398.68 119.319H390.497C389.827 119.319 389.289 119.861 389.289 120.526V123.701C389.289 124.37 389.831 124.908 390.497 124.908H398.68C399.35 124.908 399.887 125.45 399.887 126.115V126.589C399.887 127.259 399.346 127.796 398.68 127.796H387.63C386.96 127.796 386.422 127.255 386.422 126.589V109.557C386.422 108.888 386.964 108.35 387.63 108.35H398.68C399.35 108.35 399.887 108.892 399.887 109.557V110.005C399.887 110.675 399.346 111.213 398.68 111.213H390.497C389.827 111.213 389.289 111.755 389.289 112.42V112.437Z" fill="white"/>
<path id="Vector_34" d="M420.426 121.384C421.101 121.648 421.404 122.451 421.054 123.082C420.013 124.959 418.37 126.465 416.369 127.361C415.059 127.916 413.668 128.223 412.307 128.223C411.083 128.223 409.888 128.001 408.719 127.553C406.27 126.606 404.295 124.716 403.207 122.267C402.149 119.818 402.068 117.118 403.011 114.643C403.983 112.194 405.848 110.219 408.297 109.135C410.746 108.051 413.446 107.996 415.921 108.939C417.726 109.639 419.292 110.85 420.414 112.424C420.836 113.018 420.627 113.849 419.987 114.191L419.577 114.404C419.048 114.681 418.4 114.532 418.046 114.054C417.248 112.971 416.16 112.126 414.893 111.639C413.139 110.97 411.194 110.999 409.466 111.78C407.712 112.561 406.377 113.952 405.707 115.705C405.037 117.459 405.097 119.379 405.848 121.102C406.629 122.856 408.019 124.191 409.773 124.861C413.088 126.15 416.791 124.75 418.485 121.747C418.78 121.222 419.415 120.987 419.978 121.209L420.426 121.384Z" fill="white"/>
<path id="Vector_35" d="M438.341 108.444C439.011 108.444 439.549 108.986 439.549 109.651V120.13C439.464 122.549 438.576 124.639 436.959 126.086C435.513 127.421 433.563 128.146 431.506 128.146C429.45 128.146 427.5 127.421 426.054 126.086C424.411 124.639 423.549 122.553 423.464 120.13V109.651C423.464 108.981 424.006 108.444 424.672 108.444H425.145C425.815 108.444 426.353 108.986 426.353 109.651V119.963C426.408 123.637 428.968 125.279 431.502 125.279C434.037 125.279 436.596 123.637 436.652 119.963V109.651C436.652 108.981 437.194 108.444 437.859 108.444H438.333H438.341Z" fill="white"/>
<path id="Vector_36" d="M452.861 121.094L455.903 125.958C456.406 126.764 455.826 127.809 454.879 127.809H453.949C453.53 127.809 453.142 127.592 452.92 127.238L448.539 120.147C448.317 119.788 447.928 119.575 447.51 119.575H446.947C446.277 119.575 445.74 120.117 445.74 120.782V126.627C445.74 127.297 445.198 127.835 444.532 127.835H444.059C443.389 127.835 442.851 127.293 442.851 126.627V108.414H451.811C454.955 108.414 457.515 110.918 457.515 113.982C457.515 116.469 455.83 118.581 453.522 119.306C452.771 119.541 452.455 120.428 452.869 121.094H452.861ZM445.731 115.471C445.731 116.141 446.273 116.678 446.939 116.678H451.794C453.351 116.678 454.606 115.484 454.606 113.977C454.606 112.471 453.351 111.277 451.794 111.277H446.939C446.269 111.277 445.731 111.819 445.731 112.484V115.462V115.471Z" fill="white"/>
<path id="Vector_37" d="M460.148 126.768V109.737C460.148 109.067 460.69 108.529 461.355 108.529H461.803C462.473 108.529 463.011 109.071 463.011 109.737V126.768C463.011 127.438 462.469 127.976 461.803 127.976H461.355C460.685 127.976 460.148 127.434 460.148 126.768Z" fill="white"/>
<path id="Vector_38" d="M479.142 111.226H475.328C474.658 111.226 474.121 111.767 474.121 112.433V126.683C474.121 127.353 473.579 127.89 472.913 127.89H472.465C471.795 127.89 471.258 127.348 471.258 126.683V112.433C471.258 111.763 470.716 111.226 470.05 111.226H466.236C465.566 111.226 465.029 110.684 465.029 110.018V109.57C465.029 108.9 465.57 108.363 466.236 108.363H479.151C479.821 108.363 480.358 108.905 480.358 109.57V110.018C480.358 110.688 479.816 111.226 479.151 111.226H479.142Z" fill="white"/>
<path id="Vector_39" d="M493.38 110.129L488.9 121.303C488.844 121.448 488.814 121.597 488.814 121.751V126.708C488.814 127.378 488.273 127.916 487.607 127.916H487.159C486.489 127.916 485.952 127.374 485.952 126.708V121.751C485.952 121.597 485.922 121.444 485.866 121.303L481.386 110.129C481.066 109.336 481.651 108.469 482.508 108.469H482.769C483.264 108.469 483.707 108.772 483.891 109.229L486.254 115.134C486.66 116.145 488.093 116.149 488.499 115.134L490.879 109.225C491.063 108.768 491.507 108.465 492.001 108.465H492.262C493.119 108.465 493.704 109.331 493.384 110.125L493.38 110.129Z" fill="white"/>
</g>
<g id="Group_4">
<path id="Vector_40" d="M394.013 433.814C394.687 434.079 394.99 434.881 394.64 435.512C393.599 437.389 391.956 438.895 389.955 439.791C388.645 440.346 387.255 440.653 385.894 440.653C384.669 440.653 383.474 440.431 382.305 439.983C379.856 439.036 377.881 437.146 376.793 434.697C375.735 432.248 375.654 429.548 376.597 427.073C377.57 424.624 379.434 422.649 381.883 421.565C384.332 420.482 387.033 420.426 389.507 421.369C391.312 422.069 392.878 423.28 394 424.855C394.422 425.448 394.213 426.28 393.573 426.621L393.164 426.834C392.635 427.112 391.986 426.962 391.632 426.484C390.834 425.401 389.746 424.556 388.479 424.07C386.725 423.4 384.78 423.43 383.052 424.21C381.298 424.991 379.963 426.382 379.293 428.136C378.623 429.889 378.683 431.809 379.434 433.533C380.215 435.286 381.606 436.621 383.359 437.291C386.674 438.58 390.378 437.18 392.071 434.177C392.366 433.652 393.002 433.417 393.565 433.639L394.013 433.814Z" fill="white"/>
<path id="Vector_41" d="M413.852 437.735C413.779 437.833 413.694 437.923 413.596 437.995C405.468 444.245 396.381 438.541 396.381 430.695C396.381 425.187 400.86 420.703 406.343 420.703C414.104 420.703 419.825 429.594 413.852 437.731V437.735ZM401.33 436.02C408.882 441.557 417.223 433.003 411.604 425.627C411.531 425.533 411.441 425.443 411.348 425.375C403.92 419.884 395.557 428.221 401.061 435.751C401.138 435.853 401.232 435.947 401.334 436.024L401.33 436.02Z" fill="white"/>
<path id="Vector_42" d="M438.128 422.081V439.087C438.128 439.757 437.587 440.295 436.921 440.295H436.447C435.778 440.295 435.24 439.753 435.24 439.087V431.361C435.24 429.932 433.192 429.684 432.855 431.075L430.846 439.348C430.713 439.889 430.227 440.273 429.672 440.273H427.398C426.839 440.273 426.353 439.894 426.225 439.348L424.215 431.075C423.878 429.684 421.83 429.932 421.83 431.361V439.087C421.83 439.757 421.289 440.295 420.623 440.295H420.175C419.505 440.295 418.968 439.753 418.968 439.087V422.081C418.968 421.411 419.509 420.874 420.175 420.874H423.665C424.224 420.874 424.71 421.254 424.838 421.8L427.368 432.218C427.667 433.451 429.416 433.451 429.719 432.218L432.266 421.795C432.399 421.254 432.885 420.874 433.44 420.874H436.93C437.599 420.874 438.137 421.416 438.137 422.081H438.128Z" fill="white"/>
<path id="Vector_43" d="M456.304 426.437C456.304 429.526 453.744 432.031 450.599 432.031H445.744C445.074 432.031 444.537 432.572 444.537 433.238V439.083C444.537 439.753 443.995 440.29 443.329 440.29H442.856C442.186 440.29 441.648 439.749 441.648 439.083V420.87H450.608C453.752 420.87 456.312 423.374 456.312 426.437H456.304ZM453.411 426.437C453.411 424.961 452.157 423.737 450.599 423.737H445.744C445.074 423.737 444.537 424.279 444.537 424.944V427.922C444.537 428.592 445.078 429.129 445.744 429.129H450.599C452.157 429.129 453.411 427.935 453.411 426.429V426.437Z" fill="white"/>
<path id="Vector_44" d="M472.086 438.639V439.087C472.086 439.757 471.544 440.295 470.878 440.295H459.828C459.158 440.295 458.621 439.753 458.621 439.087V422.081C458.621 421.411 459.162 420.874 459.828 420.874H460.276C460.946 420.874 461.483 421.416 461.483 422.081V436.22C461.483 436.89 462.025 437.428 462.691 437.428H470.874C471.544 437.428 472.081 437.969 472.081 438.635L472.086 438.639Z" fill="white"/>
<path id="Vector_45" d="M474.061 439.198V422.167C474.061 421.497 474.603 420.959 475.268 420.959H475.716C476.386 420.959 476.924 421.501 476.924 422.167V439.198C476.924 439.868 476.382 440.406 475.716 440.406H475.268C474.599 440.406 474.061 439.864 474.061 439.198Z" fill="white"/>
<path id="Vector_46" d="M489.331 433.396H484.727C484.181 433.396 483.703 433.763 483.558 434.292L482.15 439.514C482.01 440.043 481.527 440.41 480.981 440.41H480.619C479.825 440.41 479.245 439.655 479.45 438.887L484.006 421.855C484.147 421.326 484.625 420.959 485.175 420.959H488.883C489.429 420.959 489.911 421.326 490.052 421.855L494.609 438.887C494.813 439.655 494.237 440.41 493.44 440.41H493.077C492.531 440.41 492.053 440.043 491.908 439.514L490.5 434.292C490.359 433.763 489.877 433.396 489.331 433.396ZM489.071 428.98L488.196 425.712C487.876 424.517 486.178 424.517 485.858 425.712L484.983 428.98C484.779 429.748 485.354 430.503 486.152 430.503H487.902C488.695 430.503 489.275 429.748 489.071 428.98Z" fill="white"/>
<path id="Vector_47" d="M506.422 439.488L502.352 427.931C501.9 426.646 500.001 426.971 500.001 428.332V439.083C500.001 439.753 499.459 440.29 498.794 440.29H498.346C497.676 440.29 497.138 439.749 497.138 439.083V422.077C497.138 421.407 497.68 420.87 498.346 420.87H501.9C502.412 420.87 502.873 421.194 503.043 421.68L507.062 433.144C507.515 434.428 509.413 434.104 509.413 432.743V422.081C509.413 421.411 509.955 420.874 510.621 420.874H511.094C511.764 420.874 512.302 421.416 512.302 422.081V439.087C512.302 439.757 511.76 440.295 511.094 440.295H507.566C507.054 440.295 506.597 439.97 506.427 439.488H506.422Z" fill="white"/>
<path id="Vector_48" d="M533.28 433.814C533.954 434.078 534.257 434.881 533.907 435.512C532.866 437.389 531.224 438.895 529.223 439.791C527.913 440.346 526.522 440.653 525.161 440.653C523.937 440.653 522.742 440.431 521.573 439.983C519.124 439.036 517.149 437.146 516.061 434.697C515.003 432.248 514.921 429.548 515.864 427.073C516.837 424.624 518.702 422.649 521.151 421.565C523.6 420.481 526.3 420.426 528.775 421.369C530.58 422.069 532.145 423.28 533.267 424.854C533.69 425.447 533.481 426.279 532.841 426.621L532.431 426.834C531.902 427.111 531.254 426.962 530.9 426.484C530.102 425.401 529.014 424.556 527.747 424.069C525.993 423.4 524.047 423.429 522.32 424.21C520.566 424.991 519.231 426.382 518.561 428.135C517.891 429.889 517.951 431.809 518.702 433.532C519.482 435.286 520.873 436.621 522.627 437.291C525.942 438.58 529.645 437.18 531.339 434.177C531.633 433.652 532.269 433.417 532.832 433.639L533.28 433.814Z" fill="white"/>
<path id="Vector_49" d="M539.411 424.867V427.653C539.411 428.323 539.953 428.861 540.619 428.861H548.802C549.472 428.861 550.009 429.402 550.009 430.068V430.542C550.009 431.211 549.467 431.749 548.802 431.749H540.619C539.949 431.749 539.411 432.291 539.411 432.956V436.131C539.411 436.8 539.953 437.338 540.619 437.338H548.802C549.472 437.338 550.009 437.88 550.009 438.545V439.019C550.009 439.689 549.467 440.226 548.802 440.226H537.752C537.082 440.226 536.544 439.685 536.544 439.019V421.987C536.544 421.318 537.086 420.78 537.752 420.78H548.802C549.472 420.78 550.009 421.322 550.009 421.987V422.435C550.009 423.105 549.467 423.643 548.802 423.643H540.619C539.949 423.643 539.411 424.185 539.411 424.85V424.867Z" fill="white"/>
</g>
<g id="Group_5">
<path id="Vector_50" d="M271.15 259.45C271.15 262.291 268.795 264.591 265.906 264.591H261.537C260.867 264.591 260.33 265.132 260.33 265.798V270.977C260.33 271.647 259.788 272.185 259.122 272.185H258.879C258.209 272.185 257.672 271.643 257.672 270.977V254.33H265.911C268.803 254.33 271.154 256.634 271.154 259.445L271.15 259.45ZM268.488 259.45C268.488 258.093 267.336 256.967 265.906 256.967H261.537C260.867 256.967 260.33 257.508 260.33 258.174V260.717C260.33 261.387 260.872 261.924 261.537 261.924H265.906C267.34 261.924 268.488 260.823 268.488 259.441V259.45Z" fill="white"/>
<path id="Vector_51" d="M282.605 266.071L285.242 270.291C285.746 271.097 285.165 272.142 284.218 272.142H283.595C283.177 272.142 282.789 271.925 282.567 271.57L278.595 265.145C278.373 264.787 277.985 264.574 277.567 264.574H277.2C276.53 264.574 275.992 265.115 275.992 265.781V270.96C275.992 271.63 275.45 272.168 274.785 272.168H274.542C273.872 272.168 273.334 271.626 273.334 270.96V254.313H281.573C284.466 254.313 286.816 256.617 286.816 259.428C286.816 261.672 285.327 263.584 283.267 264.288C282.524 264.539 282.2 265.41 282.614 266.075L282.605 266.071ZM275.984 260.695C275.984 261.365 276.526 261.903 277.191 261.903H281.56C282.994 261.903 284.141 260.802 284.141 259.42C284.141 258.037 282.989 256.937 281.56 256.937H277.191C276.521 256.937 275.984 257.478 275.984 258.144V260.687V260.695Z" fill="white"/>
<path id="Vector_52" d="M289.24 271.084V255.623C289.24 254.953 289.782 254.415 290.447 254.415H290.665C291.335 254.415 291.872 254.957 291.872 255.623V271.084C291.872 271.754 291.33 272.292 290.665 272.292H290.447C289.777 272.292 289.24 271.75 289.24 271.084Z" fill="white"/>
<path id="Vector_53" d="M308.094 255.857L303.934 271.293C303.793 271.822 303.311 272.189 302.765 272.189H299.578C299.031 272.189 298.549 271.822 298.409 271.293L294.274 255.857C294.07 255.089 294.646 254.334 295.443 254.334H295.576C296.122 254.334 296.6 254.701 296.745 255.23L300.013 267.381C300.333 268.575 302.031 268.575 302.351 267.381L305.602 255.234C305.743 254.705 306.221 254.338 306.771 254.338H306.925C307.722 254.338 308.298 255.094 308.094 255.862V255.857Z" fill="white"/>
<path id="Vector_54" d="M316.968 265.845H312.885C312.339 265.845 311.861 266.212 311.716 266.741L310.457 271.4C310.316 271.929 309.834 272.296 309.288 272.296H309.156C308.362 272.296 307.782 271.541 307.987 270.773L312.125 255.311C312.266 254.782 312.744 254.415 313.294 254.415H316.554C317.1 254.415 317.582 254.782 317.723 255.311L321.861 270.773C322.066 271.541 321.49 272.296 320.692 272.296H320.56C320.014 272.296 319.536 271.929 319.391 271.4L318.133 266.741C317.992 266.212 317.51 265.845 316.964 265.845H316.968ZM316.767 261.664L316.093 259.138C315.773 257.944 314.075 257.944 313.755 259.138L313.081 261.664C312.876 262.432 313.456 263.187 314.25 263.187H315.602C316.396 263.187 316.976 262.432 316.772 261.664H316.767Z" fill="white"/>
<path id="Vector_55" d="M339.888 266.191C340.57 266.459 340.869 267.274 340.506 267.91C339.546 269.582 338.066 270.922 336.265 271.728C335.062 272.24 333.782 272.522 332.532 272.522C331.406 272.522 330.305 272.317 329.23 271.908C326.977 271.037 325.16 269.296 324.165 267.048C323.193 264.795 323.116 262.317 323.986 260.038C324.882 257.786 326.593 255.972 328.846 254.974C331.099 253.976 333.577 253.925 335.856 254.795C337.481 255.422 338.893 256.506 339.922 257.909C340.353 258.498 340.139 259.334 339.495 259.671L339.29 259.778C338.761 260.055 338.117 259.902 337.759 259.428C337.029 258.464 336.048 257.713 334.913 257.274C333.3 256.659 331.508 256.685 329.925 257.402C328.313 258.118 327.084 259.398 326.469 261.011C325.855 262.624 325.906 264.386 326.597 265.973C327.314 267.586 328.594 268.814 330.203 269.424C333.232 270.602 336.615 269.339 338.181 266.609C338.475 266.092 339.107 265.879 339.661 266.097L339.892 266.186L339.888 266.191Z" fill="white"/>
<path id="Vector_56" d="M352.662 256.019L348.604 266.144C348.549 266.289 348.519 266.438 348.519 266.592V271.033C348.519 271.703 347.977 272.24 347.311 272.24H347.094C346.424 272.24 345.886 271.698 345.886 271.033V266.592C345.886 266.438 345.856 266.284 345.801 266.144L341.744 256.019C341.424 255.226 342.008 254.36 342.866 254.36H342.896C343.39 254.36 343.834 254.663 344.018 255.119L346.074 260.26C346.479 261.271 347.913 261.276 348.318 260.26L350.392 255.115C350.575 254.658 351.019 254.355 351.514 254.355H351.544C352.401 254.355 352.986 255.222 352.666 256.015L352.662 256.019Z" fill="white"/>
</g>
</g>
<circle id="Ellipse 712" cx="197" cy="263" r="16" fill="white"/>
</g>
</svg>
