<svg width="375" height="501" viewBox="0 0 375 501" fill="none" xmlns="http://www.w3.org/2000/svg">
<path d="M0.290039 94.2281V32.8882C0.290039 15.0482 14.7501 0.578125 32.6001 0.578125H217.77C235.61 0.578125 250.08 15.0482 250.08 32.8882V93.1682C250.08 111.008 235.62 125.478 217.77 125.478H157.49C139.65 125.478 125.18 139.938 125.18 157.788V218.068C125.18 235.908 139.64 250.378 157.49 250.378H217.77C235.61 250.378 250.08 264.838 250.08 282.688V342.968C250.08 360.808 264.54 375.278 282.39 375.278H342.67C360.51 375.278 374.98 389.748 374.98 407.588V467.868C374.98 485.708 360.52 500.178 342.67 500.178H282.39C264.55 500.178 250.08 485.718 250.08 467.868V407.588C250.08 389.748 235.62 375.278 217.77 375.278H157.49C139.65 375.278 125.18 389.738 125.18 407.588V467.868C125.18 476.788 121.56 484.858 115.72 490.708C114.26 492.168 112.66 493.498 110.93 494.658C110.5 494.948 110.07 495.228 109.63 495.498C107.63 496.708 105.5 497.718 103.25 498.478C102.25 498.818 101.23 499.108 100.19 499.348C99.6699 499.478 99.1401 499.588 98.6101 499.668C96.7501 499.998 94.8399 500.168 92.8899 500.168H32.1899C14.5399 499.948 0.300049 485.568 0.300049 467.868V94.2382L0.290039 94.2281Z" fill="#2A6235"/>
</svg>
