<svg width="473" height="378" viewBox="0 0 473 378" fill="none" xmlns="http://www.w3.org/2000/svg">
<path d="M449.348 189H402.058C388.758 189 378.036 178.005 378.434 164.619C378.833 151.704 390.096 141.761 403.04 141.761C415.571 141.761 425.724 131.619 425.724 119.101V70.8803C425.724 57.8223 415.13 47.2393 402.058 47.2393H354.796C341.724 47.2393 331.13 57.8223 331.13 70.8803C331.13 84.1802 320.108 94.8912 306.709 94.4645C293.765 94.0662 283.797 82.7862 283.797 69.8562V23.641C283.797 10.583 273.203 0 260.131 0H212.869C199.797 0 189.203 10.583 189.203 23.641V47.2393C189.203 73.3269 168.028 94.4787 141.913 94.4787H104.42C98.14 94.4787 92.1309 96.9679 87.6881 101.406L6.93473 182.073C2.49194 186.511 0 192.513 0 198.786V259.838C0 272.896 10.5943 283.479 23.6664 283.479H47.2901C73.4484 283.479 94.6228 304.63 94.6228 330.718V354.359C94.6228 367.417 105.217 378 118.289 378H165.551C178.623 378 189.217 367.417 189.217 354.359V330.718C189.217 303.877 211.645 282.255 238.8 283.536C264.232 284.73 283.797 306.622 283.797 332.055V354.359C283.797 367.417 294.391 378 307.464 378H354.754C367.826 378 378.42 367.417 378.42 354.359V330.718C378.42 304.63 399.594 283.479 425.71 283.479H449.334C462.406 283.479 473 272.896 473 259.838V212.627C473 199.569 462.406 188.986 449.334 188.986L449.348 189ZM94.6086 212.3C81.7216 212.3 71.2839 201.873 71.2839 189C71.2839 176.127 81.7216 165.7 94.6086 165.7C107.495 165.7 117.933 176.127 117.933 189C117.933 201.873 107.495 212.3 94.6086 212.3Z" fill="white"/>
</svg>
