<svg width="250" height="201" viewBox="0 0 250 201" fill="none" xmlns="http://www.w3.org/2000/svg">
<path d="M199.331 63.4407V87.5004C199.331 94.6233 205.1 100.396 212.22 100.396H236.27C243.39 100.396 249.163 106.171 249.163 113.294V137.354C249.163 144.477 243.39 150.253 236.27 150.253H212.22C205.1 150.253 199.331 156.025 199.331 163.148V187.207C199.331 194.33 193.557 200.106 186.437 200.106H162.388C155.268 200.106 149.494 194.33 149.494 187.207V163.148C149.494 156.025 143.725 150.253 136.605 150.253H112.555C105.435 150.253 99.6616 156.025 99.6616 163.148V187.207C99.6616 194.33 93.8918 200.106 86.7718 200.106H62.7186C55.6022 200.106 49.8288 194.33 49.8288 187.207V163.148C49.8288 156.025 55.6022 150.253 62.7186 150.253H86.7718C93.8918 150.253 99.6616 144.477 99.6616 137.354V113.294C99.6616 106.171 93.8918 100.396 86.7718 100.396H62.7186C55.6022 100.396 49.8288 94.6233 49.8288 87.5004V63.4407C49.8288 56.3177 44.0555 50.542 36.9391 50.542H12.8859C5.7659 50.542 -0.00390625 44.7698 -0.00390625 37.6469V13.5836C-0.00390625 6.46422 5.7659 0.688477 12.8859 0.688477H36.9391C44.0555 0.688477 49.8288 6.46422 49.8288 13.5836V37.6469C49.8288 44.7698 55.6022 50.542 62.7186 50.542H86.7718C93.8918 50.542 99.6616 44.7698 99.6616 37.6469V13.5836C99.6616 6.46422 105.435 0.688477 112.555 0.688477H136.605C143.725 0.688477 149.494 6.46422 149.494 13.5836V37.6469C149.494 44.7698 155.268 50.542 162.388 50.542H186.437C193.557 50.542 199.331 44.7698 199.331 37.6469V13.5836C199.331 6.46422 205.1 0.688477 212.22 0.688477H236.27C243.39 0.688477 249.163 6.46422 249.163 13.5836V37.6469C249.163 44.7698 243.39 50.542 236.27 50.542H212.22C205.1 50.542 199.331 56.3177 199.331 63.4407Z" fill="#E9661E"/>
</svg>
