<svg width="250" height="200" viewBox="0 0 250 200" fill="none" xmlns="http://www.w3.org/2000/svg">
<path d="M149.502 62.7522V86.8119C149.502 93.9349 155.275 99.7106 162.395 99.7106H186.445C193.565 99.7106 199.334 105.483 199.334 112.606V136.665C199.334 143.788 205.108 149.564 212.228 149.564H236.277C243.397 149.564 249.171 155.336 249.171 162.459V186.522C249.171 193.645 243.397 199.418 236.277 199.418H212.228C205.108 199.418 199.334 193.645 199.334 186.522V162.459C199.334 155.336 193.565 149.564 186.445 149.564H112.559C105.439 149.564 99.669 155.336 99.669 162.459V186.522C99.669 193.645 93.8956 199.418 86.7757 199.418H62.726C55.606 199.418 49.8363 193.645 49.8363 186.522V162.459C49.8363 155.336 44.0629 149.564 36.9429 149.564H12.8933C5.7733 149.564 0 143.788 0 136.665V112.606C0 105.483 5.7733 99.7106 12.8933 99.7106H36.9429C44.0629 99.7106 49.8363 93.9349 49.8363 86.8119V62.7522C49.8363 55.6293 55.606 49.8536 62.726 49.8536H86.7757C93.8956 49.8536 99.669 44.0813 99.669 36.9584V12.8987C99.669 5.77575 105.439 0 112.559 0H136.612C143.732 0 149.502 5.77575 149.502 12.8987V62.7522Z" fill="#EA789C"/>
</svg>
