<svg width="269" height="174" viewBox="0 0 269 174" fill="none" xmlns="http://www.w3.org/2000/svg">
<g clip-path="url(#clip0_2552_696)">
<path d="M269 25.976V106.036C269 113.75 262.767 120.006 255.082 120.006H175.32C167.623 120.006 161.402 126.263 161.402 133.976V160.03C161.402 167.756 155.169 174 147.485 174H121.515C113.831 174 107.598 167.756 107.598 160.03V133.976C107.598 126.263 101.364 120.006 93.6798 120.006H13.9178C6.23312 120.006 0 113.75 0 106.036V-28.0302C0 -35.7436 6.23312 -42 13.9178 -42H255.082C262.767 -42 269 -35.7436 269 -28.0302V25.976Z" fill="#1F6237"/>
<path d="M45.2 34V20H50.02C50.7733 20 51.4533 20.1867 52.06 20.56C52.6733 20.9333 53.16 21.4367 53.52 22.07C53.8867 22.7033 54.07 23.4033 54.07 24.17C54.07 24.95 53.8833 25.6567 53.51 26.29C53.1433 26.9167 52.6533 27.4167 52.04 27.79C51.4267 28.1633 50.7533 28.35 50.02 28.35H47.28V34H45.2ZM47.28 26.27H49.81C50.21 26.27 50.5733 26.17 50.9 25.97C51.2333 25.77 51.4967 25.5033 51.69 25.17C51.89 24.8367 51.99 24.46 51.99 24.04C51.99 23.62 51.89 23.2433 51.69 22.91C51.4967 22.57 51.2333 22.3033 50.9 22.11C50.5733 21.91 50.21 21.81 49.81 21.81H47.28V26.27ZM55.7078 34V24H57.7878V25.06C58.1345 24.6467 58.5611 24.32 59.0678 24.08C59.5745 23.84 60.1211 23.72 60.7078 23.72C61.0811 23.72 61.4511 23.77 61.8178 23.87L60.9878 25.97C60.7278 25.87 60.4678 25.82 60.2078 25.82C59.7678 25.82 59.3645 25.93 58.9978 26.15C58.6311 26.3633 58.3378 26.6533 58.1178 27.02C57.8978 27.3867 57.7878 27.7933 57.7878 28.24V34H55.7078ZM62.993 24H65.073V34H62.993V24ZM64.053 22.55C63.733 22.55 63.4663 22.4467 63.253 22.24C63.0396 22.0333 62.933 21.7733 62.933 21.46C62.933 21.1533 63.0396 20.8967 63.253 20.69C63.4663 20.4767 63.7296 20.37 64.043 20.37C64.3496 20.37 64.6096 20.4767 64.823 20.69C65.0363 20.8967 65.143 21.1533 65.143 21.46C65.143 21.7733 65.0363 22.0333 64.823 22.24C64.6163 22.4467 64.3596 22.55 64.053 22.55ZM72.9513 34H70.2813L66.6313 23.98H68.8513L71.6113 31.6L74.3813 23.98H76.5912L72.9513 34ZM85.5191 24H87.5991V34H85.5091L85.4291 32.55C85.1357 33.0633 84.7391 33.4767 84.2391 33.79C83.7391 34.1033 83.1491 34.26 82.4691 34.26C81.7357 34.26 81.0457 34.1233 80.3991 33.85C79.7524 33.57 79.1824 33.1833 78.6891 32.69C78.2024 32.1967 77.8224 31.63 77.5491 30.99C77.2757 30.3433 77.1391 29.65 77.1391 28.91C77.1391 28.1967 77.2724 27.5267 77.5391 26.9C77.8057 26.2667 78.1757 25.7133 78.6491 25.24C79.1224 24.7667 79.6691 24.3967 80.2891 24.13C80.9157 23.8567 81.5857 23.72 82.2991 23.72C83.0257 23.72 83.6657 23.8867 84.2191 24.22C84.7791 24.5467 85.2424 24.9667 85.6091 25.48L85.5191 24ZM82.4191 32.25C83.0057 32.25 83.5191 32.1067 83.9591 31.82C84.3991 31.5267 84.7391 31.1333 84.9791 30.64C85.2257 30.1467 85.3491 29.6 85.3491 29C85.3491 28.3933 85.2257 27.8433 84.9791 27.35C84.7324 26.8567 84.3891 26.4667 83.9491 26.18C83.5157 25.8867 83.0057 25.74 82.4191 25.74C81.8391 25.74 81.3091 25.8867 80.8291 26.18C80.3491 26.4733 79.9691 26.8667 79.6891 27.36C79.4091 27.8533 79.2691 28.4 79.2691 29C79.2691 29.6067 79.4124 30.1567 79.6991 30.65C79.9924 31.1367 80.3757 31.5267 80.8491 31.82C81.3291 32.1067 81.8524 32.25 82.4191 32.25ZM94.8745 26.08H92.7745L92.7645 34H90.6845L90.6945 26.08H89.1045V24H90.6945L90.6845 20.86H92.7645L92.7745 24H94.8745V26.08ZM100.83 34.26C99.9105 34.26 99.0705 34.0233 98.3105 33.55C97.5571 33.0767 96.9538 32.4433 96.5005 31.65C96.0538 30.85 95.8305 29.9667 95.8305 29C95.8305 28.2667 95.9605 27.5833 96.2205 26.95C96.4805 26.31 96.8371 25.75 97.2905 25.27C97.7505 24.7833 98.2838 24.4033 98.8905 24.13C99.4971 23.8567 100.144 23.72 100.83 23.72C101.597 23.72 102.3 23.88 102.94 24.2C103.58 24.5133 104.127 24.95 104.58 25.51C105.034 26.0633 105.367 26.7033 105.58 27.43C105.794 28.15 105.857 28.9167 105.77 29.73H98.0605C98.1471 30.19 98.3138 30.6067 98.5605 30.98C98.8138 31.3467 99.1338 31.6367 99.5205 31.85C99.9138 32.0633 100.35 32.1733 100.83 32.18C101.337 32.18 101.797 32.0533 102.21 31.8C102.63 31.5467 102.974 31.1967 103.24 30.75L105.35 31.24C104.95 32.1267 104.347 32.8533 103.54 33.42C102.734 33.98 101.83 34.26 100.83 34.26ZM97.9905 28.14H103.67C103.604 27.66 103.434 27.2267 103.16 26.84C102.894 26.4467 102.557 26.1367 102.15 25.91C101.75 25.6767 101.31 25.56 100.83 25.56C100.357 25.56 99.9171 25.6733 99.5105 25.9C99.1105 26.1267 98.7771 26.4367 98.5105 26.83C98.2505 27.2167 98.0771 27.6533 97.9905 28.14ZM122.997 20V22.08H118.537V34H116.457V22.08H112.007V20H122.997ZM123.559 34V24H125.639V25.06C125.986 24.6467 126.413 24.32 126.919 24.08C127.426 23.84 127.973 23.72 128.559 23.72C128.933 23.72 129.303 23.77 129.669 23.87L128.839 25.97C128.579 25.87 128.319 25.82 128.059 25.82C127.619 25.82 127.216 25.93 126.849 26.15C126.483 26.3633 126.189 26.6533 125.969 27.02C125.749 27.3867 125.639 27.7933 125.639 28.24V34H123.559ZM138.136 24H140.216V34H138.126L138.046 32.55C137.753 33.0633 137.356 33.4767 136.856 33.79C136.356 34.1033 135.766 34.26 135.086 34.26C134.353 34.26 133.663 34.1233 133.016 33.85C132.37 33.57 131.8 33.1833 131.306 32.69C130.82 32.1967 130.44 31.63 130.166 30.99C129.893 30.3433 129.756 29.65 129.756 28.91C129.756 28.1967 129.89 27.5267 130.156 26.9C130.423 26.2667 130.793 25.7133 131.266 25.24C131.74 24.7667 132.286 24.3967 132.906 24.13C133.533 23.8567 134.203 23.72 134.916 23.72C135.643 23.72 136.283 23.8867 136.836 24.22C137.396 24.5467 137.86 24.9667 138.226 25.48L138.136 24ZM135.036 32.25C135.623 32.25 136.136 32.1067 136.576 31.82C137.016 31.5267 137.356 31.1333 137.596 30.64C137.843 30.1467 137.966 29.6 137.966 29C137.966 28.3933 137.843 27.8433 137.596 27.35C137.35 26.8567 137.006 26.4667 136.566 26.18C136.133 25.8867 135.623 25.74 135.036 25.74C134.456 25.74 133.926 25.8867 133.446 26.18C132.966 26.4733 132.586 26.8667 132.306 27.36C132.026 27.8533 131.886 28.4 131.886 29C131.886 29.6067 132.03 30.1567 132.316 30.65C132.61 31.1367 132.993 31.5267 133.466 31.82C133.946 32.1067 134.47 32.25 135.036 32.25ZM151.212 27.73V34H149.132V28.24C149.132 27.7933 149.022 27.3867 148.802 27.02C148.588 26.6533 148.298 26.3633 147.932 26.15C147.572 25.93 147.165 25.82 146.712 25.82C146.272 25.82 145.868 25.93 145.502 26.15C145.135 26.3633 144.842 26.6533 144.622 27.02C144.402 27.3867 144.292 27.7933 144.292 28.24V34H142.212V24H144.292V25.06C144.638 24.6467 145.065 24.32 145.572 24.08C146.078 23.84 146.625 23.72 147.212 23.72C147.952 23.72 148.625 23.9 149.232 24.26C149.838 24.62 150.318 25.1033 150.672 25.71C151.032 26.3167 151.212 26.99 151.212 27.73ZM156.208 34.19C155.681 34.1567 155.168 34.05 154.668 33.87C154.168 33.69 153.728 33.4467 153.348 33.14C152.974 32.8267 152.694 32.46 152.508 32.04L154.278 31.28C154.364 31.46 154.514 31.6367 154.728 31.81C154.948 31.9833 155.204 32.1267 155.498 32.24C155.791 32.3467 156.098 32.4 156.418 32.4C156.731 32.4 157.021 32.3567 157.288 32.27C157.561 32.1767 157.784 32.0367 157.958 31.85C158.131 31.6633 158.218 31.44 158.218 31.18C158.218 30.8867 158.118 30.66 157.918 30.5C157.724 30.3333 157.481 30.2067 157.188 30.12C156.894 30.0333 156.601 29.95 156.308 29.87C155.654 29.7233 155.054 29.5233 154.508 29.27C153.968 29.01 153.538 28.68 153.218 28.28C152.898 27.8733 152.738 27.3767 152.738 26.79C152.738 26.15 152.911 25.5967 153.258 25.13C153.604 24.6567 154.058 24.2933 154.618 24.04C155.184 23.7867 155.788 23.66 156.428 23.66C157.228 23.66 157.961 23.83 158.628 24.17C159.294 24.51 159.804 24.9767 160.158 25.57L158.508 26.55C158.408 26.35 158.258 26.17 158.058 26.01C157.858 25.85 157.631 25.7233 157.378 25.63C157.124 25.53 156.861 25.4733 156.588 25.46C156.248 25.4467 155.931 25.4867 155.638 25.58C155.351 25.6667 155.121 25.8067 154.948 26C154.774 26.1933 154.688 26.44 154.688 26.74C154.688 27.0333 154.791 27.2533 154.998 27.4C155.204 27.54 155.464 27.6533 155.778 27.74C156.098 27.8267 156.424 27.9233 156.758 28.03C157.351 28.2167 157.908 28.4467 158.428 28.72C158.948 28.9867 159.368 29.3167 159.688 29.71C160.008 30.1033 160.161 30.5833 160.148 31.15C160.148 31.7767 159.958 32.3267 159.578 32.8C159.204 33.2733 158.718 33.6333 158.118 33.88C157.518 34.1267 156.881 34.23 156.208 34.19ZM169.503 24H171.583V34H169.493L169.413 32.55C169.12 33.0633 168.723 33.4767 168.223 33.79C167.723 34.1033 167.133 34.26 166.453 34.26C165.72 34.26 165.03 34.1233 164.383 33.85C163.737 33.57 163.167 33.1833 162.673 32.69C162.187 32.1967 161.807 31.63 161.533 30.99C161.26 30.3433 161.123 29.65 161.123 28.91C161.123 28.1967 161.257 27.5267 161.523 26.9C161.79 26.2667 162.16 25.7133 162.633 25.24C163.107 24.7667 163.653 24.3967 164.273 24.13C164.9 23.8567 165.57 23.72 166.283 23.72C167.01 23.72 167.65 23.8867 168.203 24.22C168.763 24.5467 169.227 24.9667 169.593 25.48L169.503 24ZM166.403 32.25C166.99 32.25 167.503 32.1067 167.943 31.82C168.383 31.5267 168.723 31.1333 168.963 30.64C169.21 30.1467 169.333 29.6 169.333 29C169.333 28.3933 169.21 27.8433 168.963 27.35C168.717 26.8567 168.373 26.4667 167.933 26.18C167.5 25.8867 166.99 25.74 166.403 25.74C165.823 25.74 165.293 25.8867 164.813 26.18C164.333 26.4733 163.953 26.8667 163.673 27.36C163.393 27.8533 163.253 28.4 163.253 29C163.253 29.6067 163.397 30.1567 163.683 30.65C163.977 31.1367 164.36 31.5267 164.833 31.82C165.313 32.1067 165.837 32.25 166.403 32.25ZM179.914 31.16L181.774 32.17C181.32 32.8033 180.744 33.31 180.044 33.69C179.35 34.07 178.597 34.26 177.784 34.26C176.864 34.26 176.024 34.0233 175.264 33.55C174.51 33.0767 173.907 32.4433 173.454 31.65C173.007 30.85 172.784 29.9667 172.784 29C172.784 28.2667 172.914 27.5833 173.174 26.95C173.434 26.31 173.79 25.75 174.244 25.27C174.704 24.7833 175.237 24.4033 175.844 24.13C176.45 23.8567 177.097 23.72 177.784 23.72C178.597 23.72 179.35 23.91 180.044 24.29C180.744 24.67 181.32 25.18 181.774 25.82L179.914 26.83C179.634 26.4967 179.307 26.2433 178.934 26.07C178.56 25.89 178.177 25.8 177.784 25.8C177.237 25.8 176.74 25.95 176.294 26.25C175.854 26.5433 175.504 26.9333 175.244 27.42C174.99 27.9 174.864 28.4267 174.864 29C174.864 29.5667 174.994 30.0933 175.254 30.58C175.514 31.06 175.864 31.4467 176.304 31.74C176.75 32.0333 177.244 32.18 177.784 32.18C178.197 32.18 178.59 32.0867 178.964 31.9C179.337 31.7133 179.654 31.4667 179.914 31.16ZM188.859 26.08H186.759L186.749 34H184.669L184.679 26.08H183.089V24H184.679L184.669 20.86H186.749L186.759 24H188.859V26.08ZM190.513 24H192.593V34H190.513V24ZM191.573 22.55C191.253 22.55 190.986 22.4467 190.773 22.24C190.559 22.0333 190.453 21.7733 190.453 21.46C190.453 21.1533 190.559 20.8967 190.773 20.69C190.986 20.4767 191.249 20.37 191.563 20.37C191.869 20.37 192.129 20.4767 192.343 20.69C192.556 20.8967 192.663 21.1533 192.663 21.46C192.663 21.7733 192.556 22.0333 192.343 22.24C192.136 22.4467 191.879 22.55 191.573 22.55ZM199.209 34.26C198.289 34.26 197.449 34.0233 196.689 33.55C195.936 33.0767 195.333 32.4433 194.879 31.65C194.433 30.85 194.209 29.9667 194.209 29C194.209 28.2667 194.339 27.5833 194.599 26.95C194.859 26.31 195.216 25.75 195.669 25.27C196.129 24.7833 196.663 24.4033 197.269 24.13C197.876 23.8567 198.523 23.72 199.209 23.72C200.129 23.72 200.966 23.9567 201.719 24.43C202.479 24.9033 203.083 25.54 203.529 26.34C203.983 27.14 204.209 28.0267 204.209 29C204.209 29.7267 204.079 30.4067 203.819 31.04C203.559 31.6733 203.199 32.2333 202.739 32.72C202.286 33.2 201.756 33.5767 201.149 33.85C200.549 34.1233 199.903 34.26 199.209 34.26ZM199.209 32.18C199.763 32.18 200.259 32.0333 200.699 31.74C201.139 31.4467 201.486 31.06 201.739 30.58C201.999 30.0933 202.129 29.5667 202.129 29C202.129 28.42 201.996 27.8867 201.729 27.4C201.469 26.9133 201.119 26.5267 200.679 26.24C200.239 25.9467 199.749 25.8 199.209 25.8C198.663 25.8 198.166 25.9467 197.719 26.24C197.279 26.5333 196.929 26.9233 196.669 27.41C196.416 27.8967 196.289 28.4267 196.289 29C196.289 29.5933 196.423 30.13 196.689 30.61C196.956 31.09 197.309 31.4733 197.749 31.76C198.196 32.04 198.683 32.18 199.209 32.18ZM214.825 27.73V34H212.745V28.24C212.745 27.7933 212.635 27.3867 212.415 27.02C212.202 26.6533 211.912 26.3633 211.545 26.15C211.185 25.93 210.778 25.82 210.325 25.82C209.885 25.82 209.482 25.93 209.115 26.15C208.748 26.3633 208.455 26.6533 208.235 27.02C208.015 27.3867 207.905 27.7933 207.905 28.24V34H205.825V24H207.905V25.06C208.252 24.6467 208.678 24.32 209.185 24.08C209.692 23.84 210.238 23.72 210.825 23.72C211.565 23.72 212.238 23.9 212.845 24.26C213.452 24.62 213.932 25.1033 214.285 25.71C214.645 26.3167 214.825 26.99 214.825 27.73ZM219.821 34.19C219.294 34.1567 218.781 34.05 218.281 33.87C217.781 33.69 217.341 33.4467 216.961 33.14C216.588 32.8267 216.308 32.46 216.121 32.04L217.891 31.28C217.978 31.46 218.128 31.6367 218.341 31.81C218.561 31.9833 218.818 32.1267 219.111 32.24C219.404 32.3467 219.711 32.4 220.031 32.4C220.344 32.4 220.634 32.3567 220.901 32.27C221.174 32.1767 221.398 32.0367 221.571 31.85C221.744 31.6633 221.831 31.44 221.831 31.18C221.831 30.8867 221.731 30.66 221.531 30.5C221.338 30.3333 221.094 30.2067 220.801 30.12C220.508 30.0333 220.214 29.95 219.921 29.87C219.268 29.7233 218.668 29.5233 218.121 29.27C217.581 29.01 217.151 28.68 216.831 28.28C216.511 27.8733 216.351 27.3767 216.351 26.79C216.351 26.15 216.524 25.5967 216.871 25.13C217.218 24.6567 217.671 24.2933 218.231 24.04C218.798 23.7867 219.401 23.66 220.041 23.66C220.841 23.66 221.574 23.83 222.241 24.17C222.908 24.51 223.418 24.9767 223.771 25.57L222.121 26.55C222.021 26.35 221.871 26.17 221.671 26.01C221.471 25.85 221.244 25.7233 220.991 25.63C220.738 25.53 220.474 25.4733 220.201 25.46C219.861 25.4467 219.544 25.4867 219.251 25.58C218.964 25.6667 218.734 25.8067 218.561 26C218.388 26.1933 218.301 26.44 218.301 26.74C218.301 27.0333 218.404 27.2533 218.611 27.4C218.818 27.54 219.078 27.6533 219.391 27.74C219.711 27.8267 220.038 27.9233 220.371 28.03C220.964 28.2167 221.521 28.4467 222.041 28.72C222.561 28.9867 222.981 29.3167 223.301 29.71C223.621 30.1033 223.774 30.5833 223.761 31.15C223.761 31.7767 223.571 32.3267 223.191 32.8C222.818 33.2733 222.331 33.6333 221.731 33.88C221.131 34.1267 220.494 34.23 219.821 34.19Z" fill="white"/>
<path d="M41.9787 58H40.7117L37.4987 53.597L36.6657 54.598V58H35.6857V48.2H36.6657V53.072L40.7467 48.2H42.0277L38.1427 52.827L41.9787 58ZM45.7247 58.182C45.0807 58.182 44.4927 58.0163 43.9607 57.685C43.4334 57.3537 43.011 56.9103 42.6937 56.355C42.381 55.795 42.2247 55.1767 42.2247 54.5C42.2247 53.9867 42.3157 53.5083 42.4977 53.065C42.6797 52.617 42.9294 52.225 43.2467 51.889C43.5687 51.5483 43.942 51.2823 44.3667 51.091C44.7914 50.8997 45.244 50.804 45.7247 50.804C46.2427 50.804 46.7187 50.9067 47.1527 51.112C47.5914 51.3173 47.967 51.6043 48.2797 51.973C48.597 52.3417 48.835 52.7733 48.9937 53.268C49.157 53.7627 49.2247 54.297 49.1967 54.871H43.2607C43.3167 55.3143 43.4567 55.711 43.6807 56.061C43.9094 56.411 44.1987 56.6887 44.5487 56.894C44.9034 57.0947 45.2954 57.1973 45.7247 57.202C46.1914 57.202 46.6114 57.0807 46.9847 56.838C47.3627 56.5953 47.666 56.2617 47.8947 55.837L48.8887 56.068C48.6087 56.6887 48.1864 57.1973 47.6217 57.594C47.057 57.986 46.4247 58.182 45.7247 58.182ZM43.2327 54.08H48.2097C48.177 53.646 48.044 53.2493 47.8107 52.89C47.582 52.526 47.2857 52.2367 46.9217 52.022C46.5577 51.8027 46.1587 51.693 45.7247 51.693C45.2907 51.693 44.894 51.8003 44.5347 52.015C44.1754 52.225 43.8814 52.512 43.6527 52.876C43.424 53.2353 43.284 53.6367 43.2327 54.08ZM53.4083 58.182C52.7643 58.182 52.1763 58.0163 51.6443 57.685C51.1169 57.3537 50.6946 56.9103 50.3773 56.355C50.0646 55.795 49.9083 55.1767 49.9083 54.5C49.9083 53.9867 49.9993 53.5083 50.1813 53.065C50.3633 52.617 50.6129 52.225 50.9303 51.889C51.2523 51.5483 51.6256 51.2823 52.0503 51.091C52.4749 50.8997 52.9276 50.804 53.4083 50.804C53.9263 50.804 54.4023 50.9067 54.8363 51.112C55.2749 51.3173 55.6506 51.6043 55.9633 51.973C56.2806 52.3417 56.5186 52.7733 56.6773 53.268C56.8406 53.7627 56.9083 54.297 56.8803 54.871H50.9443C51.0003 55.3143 51.1403 55.711 51.3643 56.061C51.5929 56.411 51.8823 56.6887 52.2323 56.894C52.5869 57.0947 52.9789 57.1973 53.4083 57.202C53.8749 57.202 54.2949 57.0807 54.6683 56.838C55.0463 56.5953 55.3496 56.2617 55.5783 55.837L56.5723 56.068C56.2923 56.6887 55.8699 57.1973 55.3053 57.594C54.7406 57.986 54.1083 58.182 53.4083 58.182ZM50.9163 54.08H55.8933C55.8606 53.646 55.7276 53.2493 55.4943 52.89C55.2656 52.526 54.9693 52.2367 54.6053 52.022C54.2413 51.8027 53.8423 51.693 53.4083 51.693C52.9743 51.693 52.5776 51.8003 52.2183 52.015C51.8589 52.225 51.5649 52.512 51.3363 52.876C51.1076 53.2353 50.9676 53.6367 50.9163 54.08ZM59.0602 61.5H58.0802V51H59.0602V52.309C59.3029 51.8657 59.6342 51.5063 60.0542 51.231C60.4742 50.9557 60.9736 50.818 61.5522 50.818C62.0609 50.818 62.5369 50.9137 62.9802 51.105C63.4282 51.2963 63.8202 51.5623 64.1562 51.903C64.4922 52.239 64.7559 52.6287 64.9472 53.072C65.1386 53.5153 65.2342 53.9913 65.2342 54.5C65.2342 55.0087 65.1386 55.487 64.9472 55.935C64.7559 56.383 64.4922 56.7773 64.1562 57.118C63.8202 57.454 63.4282 57.7177 62.9802 57.909C62.5369 58.1003 62.0609 58.196 61.5522 58.196C60.9736 58.196 60.4742 58.0583 60.0542 57.783C59.6342 57.5077 59.3029 57.1483 59.0602 56.705V61.5ZM61.5452 51.77C61.0552 51.77 60.6282 51.8937 60.2642 52.141C59.9049 52.3837 59.6272 52.7103 59.4312 53.121C59.2352 53.5317 59.1372 53.9913 59.1372 54.5C59.1372 54.9993 59.2329 55.4567 59.4242 55.872C59.6202 56.2873 59.8979 56.6187 60.2572 56.866C60.6212 57.1133 61.0506 57.237 61.5452 57.237C62.0306 57.237 62.4762 57.1157 62.8822 56.873C63.2929 56.6303 63.6219 56.3037 63.8692 55.893C64.1166 55.4777 64.2402 55.0133 64.2402 54.5C64.2402 54.0007 64.1189 53.5457 63.8762 53.135C63.6336 52.7197 63.3092 52.3883 62.9032 52.141C62.4972 51.8937 62.0446 51.77 61.5452 51.77ZM74.6467 51H75.6827L71.8537 61.5H70.8107L72.0847 58L69.5717 51H70.6427L72.5747 56.649L74.6467 51ZM79.7403 58.182C79.0963 58.182 78.5083 58.0163 77.9763 57.685C77.449 57.3537 77.0266 56.9103 76.7093 56.355C76.3966 55.795 76.2403 55.1767 76.2403 54.5C76.2403 53.9867 76.3313 53.5083 76.5133 53.065C76.6953 52.617 76.945 52.225 77.2623 51.889C77.5843 51.5483 77.9576 51.2823 78.3823 51.091C78.807 50.8997 79.2596 50.804 79.7403 50.804C80.3843 50.804 80.97 50.9697 81.4973 51.301C82.0293 51.6323 82.4516 52.078 82.7643 52.638C83.0816 53.198 83.2403 53.8187 83.2403 54.5C83.2403 55.0087 83.1493 55.4847 82.9673 55.928C82.7853 56.3713 82.5333 56.7633 82.2113 57.104C81.894 57.44 81.523 57.7037 81.0983 57.895C80.6783 58.0863 80.2256 58.182 79.7403 58.182ZM79.7403 57.202C80.2163 57.202 80.6433 57.0783 81.0213 56.831C81.404 56.579 81.705 56.2477 81.9243 55.837C82.1483 55.4263 82.2603 54.9807 82.2603 54.5C82.2603 54.01 82.1483 53.5597 81.9243 53.149C81.7003 52.7337 81.397 52.4023 81.0143 52.155C80.6363 51.9077 80.2116 51.784 79.7403 51.784C79.2643 51.784 78.835 51.91 78.4523 52.162C78.0743 52.4093 77.7733 52.7383 77.5493 53.149C77.33 53.5597 77.2203 54.01 77.2203 54.5C77.2203 55.004 77.3346 55.4613 77.5633 55.872C77.792 56.278 78.0976 56.6023 78.4803 56.845C78.863 57.083 79.283 57.202 79.7403 57.202ZM84.0776 55.319V51H85.0576V55.123C85.0576 55.5057 85.1509 55.8533 85.3376 56.166C85.5242 56.4787 85.7739 56.7283 86.0866 56.915C86.4039 57.1017 86.7516 57.195 87.1296 57.195C87.5122 57.195 87.8576 57.1017 88.1656 56.915C88.4782 56.7283 88.7279 56.4787 88.9146 56.166C89.1012 55.8533 89.1946 55.5057 89.1946 55.123V51H90.1746L90.1816 58H89.2016L89.1946 57.02C88.9472 57.3747 88.6252 57.657 88.2286 57.867C87.8366 58.077 87.4072 58.182 86.9406 58.182C86.4132 58.182 85.9326 58.0537 85.4986 57.797C85.0646 57.5403 84.7192 57.195 84.4626 56.761C84.2059 56.327 84.0776 55.8463 84.0776 55.319ZM91.5763 58V51H92.5563V51.966C92.8037 51.6113 93.1257 51.329 93.5223 51.119C93.919 50.909 94.3507 50.804 94.8173 50.804C95.088 50.804 95.3493 50.839 95.6013 50.909L95.2023 51.882C95.0063 51.8213 94.815 51.791 94.6283 51.791C94.2503 51.791 93.9027 51.8843 93.5853 52.071C93.2727 52.2577 93.023 52.5073 92.8363 52.82C92.6497 53.1327 92.5563 53.4803 92.5563 53.863V58H91.5763ZM103.521 51.98H101.848L101.841 58H100.861L100.868 51.98H99.6005V51H100.868L100.861 48.802H101.841L101.848 51H103.521V51.98ZM104.77 58V51H105.75V51.966C105.997 51.6113 106.319 51.329 106.716 51.119C107.112 50.909 107.544 50.804 108.011 50.804C108.281 50.804 108.543 50.839 108.795 50.909L108.396 51.882C108.2 51.8213 108.008 51.791 107.822 51.791C107.444 51.791 107.096 51.8843 106.779 52.071C106.466 52.2577 106.216 52.5073 106.03 52.82C105.843 53.1327 105.75 53.4803 105.75 53.863V58H104.77ZM115.063 51H116.043V58H115.063L115.028 56.698C114.799 57.1413 114.479 57.5007 114.069 57.776C113.658 58.0467 113.168 58.182 112.599 58.182C112.085 58.182 111.605 58.0863 111.157 57.895C110.709 57.699 110.314 57.4307 109.974 57.09C109.633 56.7493 109.367 56.355 109.176 55.907C108.984 55.459 108.889 54.9783 108.889 54.465C108.889 53.961 108.982 53.4873 109.169 53.044C109.36 52.6007 109.621 52.211 109.953 51.875C110.289 51.539 110.676 51.2777 111.115 51.091C111.558 50.8997 112.032 50.804 112.536 50.804C113.119 50.804 113.628 50.944 114.062 51.224C114.496 51.4993 114.841 51.861 115.098 52.309L115.063 51ZM112.578 57.23C113.077 57.23 113.506 57.1087 113.866 56.866C114.225 56.6187 114.5 56.2873 114.692 55.872C114.888 55.4567 114.986 54.9993 114.986 54.5C114.986 53.9867 114.888 53.5247 114.692 53.114C114.496 52.6987 114.218 52.3697 113.859 52.127C113.499 51.8843 113.072 51.763 112.578 51.763C112.083 51.763 111.63 51.8867 111.22 52.134C110.814 52.3767 110.489 52.7057 110.247 53.121C110.009 53.5363 109.89 53.996 109.89 54.5C109.89 55.0087 110.013 55.4707 110.261 55.886C110.508 56.2967 110.835 56.6233 111.241 56.866C111.651 57.1087 112.097 57.23 112.578 57.23ZM123.068 47.5H124.048V58H123.068V56.691C122.825 57.139 122.491 57.5007 122.067 57.776C121.647 58.0467 121.147 58.182 120.569 58.182C120.06 58.182 119.584 58.0863 119.141 57.895C118.697 57.7037 118.305 57.44 117.965 57.104C117.629 56.7633 117.365 56.3713 117.174 55.928C116.982 55.4847 116.887 55.0087 116.887 54.5C116.887 53.9913 116.982 53.5153 117.174 53.072C117.365 52.624 117.629 52.232 117.965 51.896C118.305 51.5553 118.697 51.2893 119.141 51.098C119.584 50.9067 120.06 50.811 120.569 50.811C121.147 50.811 121.647 50.9487 122.067 51.224C122.491 51.4947 122.825 51.8517 123.068 52.295V47.5ZM120.576 57.23C121.075 57.23 121.504 57.1087 121.864 56.866C122.223 56.6187 122.498 56.2873 122.69 55.872C122.886 55.4567 122.984 54.9993 122.984 54.5C122.984 53.9867 122.886 53.5247 122.69 53.114C122.494 52.6987 122.216 52.3697 121.857 52.127C121.497 51.8843 121.07 51.763 120.576 51.763C120.081 51.763 119.631 51.8867 119.225 52.134C118.819 52.3767 118.494 52.7057 118.252 53.121C118.009 53.5363 117.888 53.996 117.888 54.5C117.888 55.0087 118.011 55.4707 118.259 55.886C118.506 56.2967 118.833 56.6233 119.239 56.866C119.649 57.1087 120.095 57.23 120.576 57.23ZM125.729 51H126.709V58H125.729V51ZM126.226 49.775C126.067 49.775 125.932 49.7237 125.82 49.621C125.712 49.5137 125.659 49.3807 125.659 49.222C125.659 49.0633 125.712 48.9327 125.82 48.83C125.932 48.7227 126.067 48.669 126.226 48.669C126.38 48.669 126.51 48.7227 126.618 48.83C126.73 48.9327 126.786 49.0633 126.786 49.222C126.786 49.3807 126.732 49.5137 126.625 49.621C126.517 49.7237 126.384 49.775 126.226 49.775ZM134.471 53.667V58H133.491V53.863C133.491 53.4803 133.398 53.1327 133.211 52.82C133.025 52.5073 132.775 52.2577 132.462 52.071C132.15 51.8843 131.802 51.791 131.419 51.791C131.041 51.791 130.694 51.8843 130.376 52.071C130.064 52.2577 129.814 52.5073 129.627 52.82C129.441 53.1327 129.347 53.4803 129.347 53.863V58H128.367V51H129.347V51.966C129.595 51.6113 129.917 51.329 130.313 51.119C130.71 50.909 131.142 50.804 131.608 50.804C132.136 50.804 132.616 50.9323 133.05 51.189C133.484 51.4457 133.83 51.791 134.086 52.225C134.343 52.659 134.471 53.1397 134.471 53.667ZM141.301 51H142.281V58.259C142.281 58.707 142.183 59.127 141.987 59.519C141.796 59.911 141.535 60.254 141.203 60.548C140.877 60.8467 140.503 61.08 140.083 61.248C139.663 61.416 139.227 61.5 138.774 61.5C138.289 61.5 137.82 61.388 137.367 61.164C136.915 60.9447 136.52 60.6507 136.184 60.282C135.853 59.9133 135.617 59.505 135.477 59.057L136.38 58.644C136.469 58.994 136.635 59.309 136.877 59.589C137.125 59.8737 137.414 60.0977 137.745 60.261C138.081 60.429 138.424 60.513 138.774 60.513C139.096 60.513 139.407 60.4523 139.705 60.331C140.009 60.2143 140.279 60.0533 140.517 59.848C140.76 59.6427 140.951 59.4023 141.091 59.127C141.231 58.8563 141.301 58.567 141.301 58.259V56.712C141.059 57.1507 140.73 57.5053 140.314 57.776C139.904 58.0467 139.425 58.182 138.879 58.182C138.389 58.182 137.927 58.0863 137.493 57.895C137.064 57.7037 136.686 57.44 136.359 57.104C136.033 56.7633 135.776 56.3713 135.589 55.928C135.407 55.4847 135.316 55.0087 135.316 54.5C135.316 53.9913 135.407 53.5153 135.589 53.072C135.776 52.624 136.033 52.232 136.359 51.896C136.686 51.5553 137.064 51.2893 137.493 51.098C137.927 50.9067 138.389 50.811 138.879 50.811C139.425 50.811 139.904 50.9463 140.314 51.217C140.73 51.483 141.059 51.8377 141.301 52.281V51ZM138.886 57.23C139.372 57.23 139.789 57.104 140.139 56.852C140.494 56.6 140.767 56.2663 140.958 55.851C141.15 55.4357 141.245 54.9853 141.245 54.5C141.245 54.0007 141.147 53.5457 140.951 53.135C140.76 52.7197 140.487 52.3883 140.132 52.141C139.778 51.889 139.362 51.763 138.886 51.763C138.41 51.763 137.976 51.8867 137.584 52.134C137.197 52.3767 136.889 52.7057 136.66 53.121C136.432 53.5363 136.317 53.996 136.317 54.5C136.317 55.004 136.434 55.4637 136.667 55.879C136.901 56.2897 137.211 56.6187 137.598 56.866C137.99 57.1087 138.42 57.23 138.886 57.23ZM149.493 58.133C149.111 58.1237 148.737 58.0537 148.373 57.923C148.009 57.7923 147.692 57.615 147.421 57.391C147.151 57.167 146.957 56.9127 146.84 56.628L147.687 56.264C147.762 56.446 147.9 56.614 148.1 56.768C148.306 56.9173 148.539 57.0387 148.8 57.132C149.062 57.2207 149.321 57.265 149.577 57.265C149.862 57.265 150.128 57.2183 150.375 57.125C150.623 57.0317 150.823 56.8987 150.977 56.726C151.136 56.5487 151.215 56.341 151.215 56.103C151.215 55.8463 151.131 55.6457 150.963 55.501C150.795 55.3517 150.583 55.235 150.326 55.151C150.07 55.0623 149.806 54.9783 149.535 54.899C149.041 54.7637 148.604 54.6143 148.226 54.451C147.848 54.2877 147.552 54.08 147.337 53.828C147.127 53.5713 147.022 53.2423 147.022 52.841C147.022 52.4163 147.141 52.05 147.379 51.742C147.622 51.4293 147.937 51.189 148.324 51.021C148.716 50.8483 149.134 50.762 149.577 50.762C150.147 50.762 150.665 50.8857 151.131 51.133C151.603 51.3803 151.943 51.7093 152.153 52.12L151.362 52.589C151.278 52.3977 151.145 52.232 150.963 52.092C150.781 51.952 150.574 51.8423 150.34 51.763C150.112 51.6837 149.878 51.6417 149.64 51.637C149.342 51.6323 149.064 51.6767 148.807 51.77C148.551 51.8587 148.343 51.9917 148.184 52.169C148.03 52.3463 147.953 52.5633 147.953 52.82C147.953 53.0767 148.03 53.2727 148.184 53.408C148.338 53.5387 148.546 53.646 148.807 53.73C149.073 53.8093 149.372 53.9027 149.703 54.01C150.128 54.1453 150.527 54.2993 150.9 54.472C151.274 54.6447 151.575 54.8593 151.803 55.116C152.032 55.3727 152.144 55.697 152.139 56.089C152.139 56.509 152.013 56.8753 151.761 57.188C151.509 57.5007 151.183 57.741 150.781 57.909C150.38 58.0723 149.951 58.147 149.493 58.133ZM156.923 51.98H155.25L155.243 58H154.263L154.27 51.98H153.003V51H154.27L154.263 48.802H155.243L155.25 51H156.923V51.98ZM158.172 58V51H159.152V51.966C159.399 51.6113 159.721 51.329 160.118 51.119C160.515 50.909 160.946 50.804 161.413 50.804C161.684 50.804 161.945 50.839 162.197 50.909L161.798 51.882C161.602 51.8213 161.411 51.791 161.224 51.791C160.846 51.791 160.498 51.8843 160.181 52.071C159.868 52.2577 159.619 52.5073 159.432 52.82C159.245 53.1327 159.152 53.4803 159.152 53.863V58H158.172ZM168.465 51H169.445V58H168.465L168.43 56.698C168.201 57.1413 167.882 57.5007 167.471 57.776C167.06 58.0467 166.57 58.182 166.001 58.182C165.488 58.182 165.007 58.0863 164.559 57.895C164.111 57.699 163.717 57.4307 163.376 57.09C163.035 56.7493 162.769 56.355 162.578 55.907C162.387 55.459 162.291 54.9783 162.291 54.465C162.291 53.961 162.384 53.4873 162.571 53.044C162.762 52.6007 163.024 52.211 163.355 51.875C163.691 51.539 164.078 51.2777 164.517 51.091C164.96 50.8997 165.434 50.804 165.938 50.804C166.521 50.804 167.03 50.944 167.464 51.224C167.898 51.4993 168.243 51.861 168.5 52.309L168.465 51ZM165.98 57.23C166.479 57.23 166.909 57.1087 167.268 56.866C167.627 56.6187 167.903 56.2873 168.094 55.872C168.29 55.4567 168.388 54.9993 168.388 54.5C168.388 53.9867 168.29 53.5247 168.094 53.114C167.898 52.6987 167.62 52.3697 167.261 52.127C166.902 51.8843 166.475 51.763 165.98 51.763C165.485 51.763 165.033 51.8867 164.622 52.134C164.216 52.3767 163.892 52.7057 163.649 53.121C163.411 53.5363 163.292 53.996 163.292 54.5C163.292 55.0087 163.416 55.4707 163.663 55.886C163.91 56.2967 164.237 56.6233 164.643 56.866C165.054 57.1087 165.499 57.23 165.98 57.23ZM174.423 51.98H172.75L172.743 58H171.763L171.77 51.98H170.503V51H171.77L171.763 48.802H172.743L172.75 51H174.423V51.98ZM178.561 58.182C177.917 58.182 177.329 58.0163 176.797 57.685C176.269 57.3537 175.847 56.9103 175.53 56.355C175.217 55.795 175.061 55.1767 175.061 54.5C175.061 53.9867 175.152 53.5083 175.334 53.065C175.516 52.617 175.765 52.225 176.083 51.889C176.405 51.5483 176.778 51.2823 177.203 51.091C177.627 50.8997 178.08 50.804 178.561 50.804C179.079 50.804 179.555 50.9067 179.989 51.112C180.427 51.3173 180.803 51.6043 181.116 51.973C181.433 52.3417 181.671 52.7733 181.83 53.268C181.993 53.7627 182.061 54.297 182.033 54.871H176.097C176.153 55.3143 176.293 55.711 176.517 56.061C176.745 56.411 177.035 56.6887 177.385 56.894C177.739 57.0947 178.131 57.1973 178.561 57.202C179.027 57.202 179.447 57.0807 179.821 56.838C180.199 56.5953 180.502 56.2617 180.731 55.837L181.725 56.068C181.445 56.6887 181.022 57.1973 180.458 57.594C179.893 57.986 179.261 58.182 178.561 58.182ZM176.069 54.08H181.046C181.013 53.646 180.88 53.2493 180.647 52.89C180.418 52.526 180.122 52.2367 179.758 52.022C179.394 51.8027 178.995 51.693 178.561 51.693C178.127 51.693 177.73 51.8003 177.371 52.015C177.011 52.225 176.717 52.512 176.489 52.876C176.26 53.2353 176.12 53.6367 176.069 54.08ZM188.729 51H189.709V58.259C189.709 58.707 189.611 59.127 189.415 59.519C189.224 59.911 188.963 60.254 188.631 60.548C188.305 60.8467 187.931 61.08 187.511 61.248C187.091 61.416 186.655 61.5 186.202 61.5C185.717 61.5 185.248 61.388 184.795 61.164C184.343 60.9447 183.948 60.6507 183.612 60.282C183.281 59.9133 183.045 59.505 182.905 59.057L183.808 58.644C183.897 58.994 184.063 59.309 184.305 59.589C184.553 59.8737 184.842 60.0977 185.173 60.261C185.509 60.429 185.852 60.513 186.202 60.513C186.524 60.513 186.835 60.4523 187.133 60.331C187.437 60.2143 187.707 60.0533 187.945 59.848C188.188 59.6427 188.379 59.4023 188.519 59.127C188.659 58.8563 188.729 58.567 188.729 58.259V56.712C188.487 57.1507 188.158 57.5053 187.742 57.776C187.332 58.0467 186.853 58.182 186.307 58.182C185.817 58.182 185.355 58.0863 184.921 57.895C184.492 57.7037 184.114 57.44 183.787 57.104C183.461 56.7633 183.204 56.3713 183.017 55.928C182.835 55.4847 182.744 55.0087 182.744 54.5C182.744 53.9913 182.835 53.5153 183.017 53.072C183.204 52.624 183.461 52.232 183.787 51.896C184.114 51.5553 184.492 51.2893 184.921 51.098C185.355 50.9067 185.817 50.811 186.307 50.811C186.853 50.811 187.332 50.9463 187.742 51.217C188.158 51.483 188.487 51.8377 188.729 52.281V51ZM186.314 57.23C186.8 57.23 187.217 57.104 187.567 56.852C187.922 56.6 188.195 56.2663 188.386 55.851C188.578 55.4357 188.673 54.9853 188.673 54.5C188.673 54.0007 188.575 53.5457 188.379 53.135C188.188 52.7197 187.915 52.3883 187.56 52.141C187.206 51.889 186.79 51.763 186.314 51.763C185.838 51.763 185.404 51.8867 185.012 52.134C184.625 52.3767 184.317 52.7057 184.088 53.121C183.86 53.5363 183.745 53.996 183.745 54.5C183.745 55.004 183.862 55.4637 184.095 55.879C184.329 56.2897 184.639 56.6187 185.026 56.866C185.418 57.1087 185.848 57.23 186.314 57.23ZM191.326 51H192.306V58H191.326V51ZM191.823 49.775C191.665 49.775 191.529 49.7237 191.417 49.621C191.31 49.5137 191.256 49.3807 191.256 49.222C191.256 49.0633 191.31 48.9327 191.417 48.83C191.529 48.7227 191.665 48.669 191.823 48.669C191.977 48.669 192.108 48.7227 192.215 48.83C192.327 48.9327 192.383 49.0633 192.383 49.222C192.383 49.3807 192.33 49.5137 192.222 49.621C192.115 49.7237 191.982 49.775 191.823 49.775ZM197.004 58.182C196.36 58.182 195.772 58.0163 195.24 57.685C194.713 57.3537 194.29 56.9103 193.973 56.355C193.66 55.795 193.504 55.1767 193.504 54.5C193.504 53.9867 193.595 53.5083 193.777 53.065C193.959 52.617 194.209 52.225 194.526 51.889C194.848 51.5483 195.221 51.2823 195.646 51.091C196.071 50.8997 196.523 50.804 197.004 50.804C197.522 50.804 197.998 50.9067 198.432 51.112C198.871 51.3173 199.246 51.6043 199.559 51.973C199.876 52.3417 200.114 52.7733 200.273 53.268C200.436 53.7627 200.504 54.297 200.476 54.871H194.54C194.596 55.3143 194.736 55.711 194.96 56.061C195.189 56.411 195.478 56.6887 195.828 56.894C196.183 57.0947 196.575 57.1973 197.004 57.202C197.471 57.202 197.891 57.0807 198.264 56.838C198.642 56.5953 198.945 56.2617 199.174 55.837L200.168 56.068C199.888 56.6887 199.466 57.1973 198.901 57.594C198.336 57.986 197.704 58.182 197.004 58.182ZM194.512 54.08H199.489C199.456 53.646 199.323 53.2493 199.09 52.89C198.861 52.526 198.565 52.2367 198.201 52.022C197.837 51.8027 197.438 51.693 197.004 51.693C196.57 51.693 196.173 51.8003 195.814 52.015C195.455 52.225 195.161 52.512 194.932 52.876C194.703 53.2353 194.563 53.6367 194.512 54.08ZM203.853 58.133C203.47 58.1237 203.097 58.0537 202.733 57.923C202.369 57.7923 202.051 57.615 201.781 57.391C201.51 57.167 201.316 56.9127 201.2 56.628L202.047 56.264C202.121 56.446 202.259 56.614 202.46 56.768C202.665 56.9173 202.898 57.0387 203.16 57.132C203.421 57.2207 203.68 57.265 203.937 57.265C204.221 57.265 204.487 57.2183 204.735 57.125C204.982 57.0317 205.183 56.8987 205.337 56.726C205.495 56.5487 205.575 56.341 205.575 56.103C205.575 55.8463 205.491 55.6457 205.323 55.501C205.155 55.3517 204.942 55.235 204.686 55.151C204.429 55.0623 204.165 54.9783 203.895 54.899C203.4 54.7637 202.964 54.6143 202.586 54.451C202.208 54.2877 201.911 54.08 201.697 53.828C201.487 53.5713 201.382 53.2423 201.382 52.841C201.382 52.4163 201.501 52.05 201.739 51.742C201.981 51.4293 202.296 51.189 202.684 51.021C203.076 50.8483 203.493 50.762 203.937 50.762C204.506 50.762 205.024 50.8857 205.491 51.133C205.962 51.3803 206.303 51.7093 206.513 52.12L205.722 52.589C205.638 52.3977 205.505 52.232 205.323 52.092C205.141 51.952 204.933 51.8423 204.7 51.763C204.471 51.6837 204.238 51.6417 204 51.637C203.701 51.6323 203.423 51.6767 203.167 51.77C202.91 51.8587 202.702 51.9917 202.544 52.169C202.39 52.3463 202.313 52.5633 202.313 52.82C202.313 53.0767 202.39 53.2727 202.544 53.408C202.698 53.5387 202.905 53.646 203.167 53.73C203.433 53.8093 203.731 53.9027 204.063 54.01C204.487 54.1453 204.886 54.2993 205.26 54.472C205.633 54.6447 205.934 54.8593 206.163 55.116C206.391 55.3727 206.503 55.697 206.499 56.089C206.499 56.509 206.373 56.8753 206.121 57.188C205.869 57.5007 205.542 57.741 205.141 57.909C204.739 58.0723 204.31 58.147 203.853 58.133ZM216.823 51H217.803V58H216.823L216.788 56.698C216.559 57.1413 216.239 57.5007 215.829 57.776C215.418 58.0467 214.928 58.182 214.359 58.182C213.845 58.182 213.365 58.0863 212.917 57.895C212.469 57.699 212.074 57.4307 211.734 57.09C211.393 56.7493 211.127 56.355 210.936 55.907C210.744 55.459 210.649 54.9783 210.649 54.465C210.649 53.961 210.742 53.4873 210.929 53.044C211.12 52.6007 211.381 52.211 211.713 51.875C212.049 51.539 212.436 51.2777 212.875 51.091C213.318 50.8997 213.792 50.804 214.296 50.804C214.879 50.804 215.388 50.944 215.822 51.224C216.256 51.4993 216.601 51.861 216.858 52.309L216.823 51ZM214.338 57.23C214.837 57.23 215.266 57.1087 215.626 56.866C215.985 56.6187 216.26 56.2873 216.452 55.872C216.648 55.4567 216.746 54.9993 216.746 54.5C216.746 53.9867 216.648 53.5247 216.452 53.114C216.256 52.6987 215.978 52.3697 215.619 52.127C215.259 51.8843 214.832 51.763 214.338 51.763C213.843 51.763 213.39 51.8867 212.98 52.134C212.574 52.3767 212.249 52.7057 212.007 53.121C211.769 53.5363 211.65 53.996 211.65 54.5C211.65 55.0087 211.773 55.4707 212.021 55.886C212.268 56.2967 212.595 56.6233 213.001 56.866C213.411 57.1087 213.857 57.23 214.338 57.23ZM225.307 53.667V58H224.327V53.863C224.327 53.4803 224.234 53.1327 224.047 52.82C223.861 52.5073 223.611 52.2577 223.298 52.071C222.986 51.8843 222.638 51.791 222.255 51.791C221.877 51.791 221.53 51.8843 221.212 52.071C220.9 52.2577 220.65 52.5073 220.463 52.82C220.277 53.1327 220.183 53.4803 220.183 53.863V58H219.203V51H220.183V51.966C220.431 51.6113 220.753 51.329 221.149 51.119C221.546 50.909 221.978 50.804 222.444 50.804C222.972 50.804 223.452 50.9323 223.886 51.189C224.32 51.4457 224.666 51.791 224.922 52.225C225.179 52.659 225.307 53.1397 225.307 53.667ZM232.333 47.5H233.313V58H232.333V56.691C232.091 57.139 231.757 57.5007 231.332 57.776C230.912 58.0467 230.413 58.182 229.834 58.182C229.326 58.182 228.85 58.0863 228.406 57.895C227.963 57.7037 227.571 57.44 227.23 57.104C226.894 56.7633 226.631 56.3713 226.439 55.928C226.248 55.4847 226.152 55.0087 226.152 54.5C226.152 53.9913 226.248 53.5153 226.439 53.072C226.631 52.624 226.894 52.232 227.23 51.896C227.571 51.5553 227.963 51.2893 228.406 51.098C228.85 50.9067 229.326 50.811 229.834 50.811C230.413 50.811 230.912 50.9487 231.332 51.224C231.757 51.4947 232.091 51.8517 232.333 52.295V47.5ZM229.841 57.23C230.341 57.23 230.77 57.1087 231.129 56.866C231.489 56.6187 231.764 56.2873 231.955 55.872C232.151 55.4567 232.249 54.9993 232.249 54.5C232.249 53.9867 232.151 53.5247 231.955 53.114C231.759 52.6987 231.482 52.3697 231.122 52.127C230.763 51.8843 230.336 51.763 229.841 51.763C229.347 51.763 228.896 51.8867 228.49 52.134C228.084 52.3767 227.76 52.7057 227.517 53.121C227.275 53.5363 227.153 53.996 227.153 54.5C227.153 55.0087 227.277 55.4707 227.524 55.886C227.772 56.2967 228.098 56.6233 228.504 56.866C228.915 57.1087 229.361 57.23 229.841 57.23ZM19.5485 80.5H18.5685V70H19.5485V71.309C19.7912 70.8657 20.1225 70.5063 20.5425 70.231C20.9625 69.9557 21.4618 69.818 22.0405 69.818C22.5492 69.818 23.0252 69.9137 23.4685 70.105C23.9165 70.2963 24.3085 70.5623 24.6445 70.903C24.9805 71.239 25.2442 71.6287 25.4355 72.072C25.6268 72.5153 25.7225 72.9913 25.7225 73.5C25.7225 74.0087 25.6268 74.487 25.4355 74.935C25.2442 75.383 24.9805 75.7773 24.6445 76.118C24.3085 76.454 23.9165 76.7177 23.4685 76.909C23.0252 77.1003 22.5492 77.196 22.0405 77.196C21.4618 77.196 20.9625 77.0583 20.5425 76.783C20.1225 76.5077 19.7912 76.1483 19.5485 75.705V80.5ZM22.0335 70.77C21.5435 70.77 21.1165 70.8937 20.7525 71.141C20.3932 71.3837 20.1155 71.7103 19.9195 72.121C19.7235 72.5317 19.6255 72.9913 19.6255 73.5C19.6255 73.9993 19.7212 74.4567 19.9125 74.872C20.1085 75.2873 20.3862 75.6187 20.7455 75.866C21.1095 76.1133 21.5388 76.237 22.0335 76.237C22.5188 76.237 22.9645 76.1157 23.3705 75.873C23.7812 75.6303 24.1102 75.3037 24.3575 74.893C24.6048 74.4777 24.7285 74.0133 24.7285 73.5C24.7285 73.0007 24.6072 72.5457 24.3645 72.135C24.1218 71.7197 23.7975 71.3883 23.3915 71.141C22.9855 70.8937 22.5328 70.77 22.0335 70.77ZM29.92 77.182C29.276 77.182 28.688 77.0163 28.156 76.685C27.6287 76.3537 27.2063 75.9103 26.889 75.355C26.5763 74.795 26.42 74.1767 26.42 73.5C26.42 72.9867 26.511 72.5083 26.693 72.065C26.875 71.617 27.1247 71.225 27.442 70.889C27.764 70.5483 28.1373 70.2823 28.562 70.091C28.9867 69.8997 29.4393 69.804 29.92 69.804C30.564 69.804 31.1497 69.9697 31.677 70.301C32.209 70.6323 32.6313 71.078 32.944 71.638C33.2613 72.198 33.42 72.8187 33.42 73.5C33.42 74.0087 33.329 74.4847 33.147 74.928C32.965 75.3713 32.713 75.7633 32.391 76.104C32.0737 76.44 31.7027 76.7037 31.278 76.895C30.858 77.0863 30.4053 77.182 29.92 77.182ZM29.92 76.202C30.396 76.202 30.823 76.0783 31.201 75.831C31.5837 75.579 31.8847 75.2477 32.104 74.837C32.328 74.4263 32.44 73.9807 32.44 73.5C32.44 73.01 32.328 72.5597 32.104 72.149C31.88 71.7337 31.5767 71.4023 31.194 71.155C30.816 70.9077 30.3913 70.784 29.92 70.784C29.444 70.784 29.0147 70.91 28.632 71.162C28.254 71.4093 27.953 71.7383 27.729 72.149C27.5097 72.5597 27.4 73.01 27.4 73.5C27.4 74.004 27.5143 74.4613 27.743 74.872C27.9717 75.278 28.2773 75.6023 28.66 75.845C29.0427 76.083 29.4627 76.202 29.92 76.202ZM34.6056 77V70H35.5856V70.966C35.833 70.6113 36.155 70.329 36.5516 70.119C36.9483 69.909 37.38 69.804 37.8466 69.804C38.1173 69.804 38.3786 69.839 38.6306 69.909L38.2316 70.882C38.0356 70.8213 37.8443 70.791 37.6576 70.791C37.2796 70.791 36.932 70.8843 36.6146 71.071C36.302 71.2577 36.0523 71.5073 35.8656 71.82C35.679 72.1327 35.5856 72.4803 35.5856 72.863V77H34.6056ZM43.1865 70.98H41.5135L41.5065 77H40.5265L40.5335 70.98H39.2665V70H40.5335L40.5265 67.802H41.5065L41.5135 70H43.1865V70.98ZM45.8847 68.173V70H47.9847V70.98H45.8847V77H44.9047V70.98H43.9457V70H44.9047V68.173C44.9047 67.8323 44.9864 67.5243 45.1497 67.249C45.3177 66.969 45.5417 66.7473 45.8217 66.584C46.1017 66.416 46.412 66.332 46.7527 66.332C47 66.332 47.238 66.381 47.4667 66.479C47.7 66.577 47.9077 66.7217 48.0897 66.913L47.3897 67.606C47.315 67.5127 47.2194 67.4403 47.1027 67.389C46.9907 67.3377 46.874 67.312 46.7527 67.312C46.5147 67.312 46.3094 67.396 46.1367 67.564C45.9687 67.732 45.8847 67.935 45.8847 68.173ZM52.0274 77.182C51.3834 77.182 50.7954 77.0163 50.2634 76.685C49.7361 76.3537 49.3138 75.9103 48.9964 75.355C48.6838 74.795 48.5274 74.1767 48.5274 73.5C48.5274 72.9867 48.6184 72.5083 48.8004 72.065C48.9824 71.617 49.2321 71.225 49.5494 70.889C49.8714 70.5483 50.2448 70.2823 50.6694 70.091C51.0941 69.8997 51.5468 69.804 52.0274 69.804C52.6714 69.804 53.2571 69.9697 53.7844 70.301C54.3164 70.6323 54.7388 71.078 55.0514 71.638C55.3688 72.198 55.5274 72.8187 55.5274 73.5C55.5274 74.0087 55.4364 74.4847 55.2544 74.928C55.0724 75.3713 54.8204 75.7633 54.4984 76.104C54.1811 76.44 53.8101 76.7037 53.3854 76.895C52.9654 77.0863 52.5128 77.182 52.0274 77.182ZM52.0274 76.202C52.5034 76.202 52.9304 76.0783 53.3084 75.831C53.6911 75.579 53.9921 75.2477 54.2114 74.837C54.4354 74.4263 54.5474 73.9807 54.5474 73.5C54.5474 73.01 54.4354 72.5597 54.2114 72.149C53.9874 71.7337 53.6841 71.4023 53.3014 71.155C52.9234 70.9077 52.4988 70.784 52.0274 70.784C51.5514 70.784 51.1221 70.91 50.7394 71.162C50.3614 71.4093 50.0604 71.7383 49.8364 72.149C49.6171 72.5597 49.5074 73.01 49.5074 73.5C49.5074 74.004 49.6218 74.4613 49.8504 74.872C50.0791 75.278 50.3848 75.6023 50.7674 75.845C51.1501 76.083 51.5701 76.202 52.0274 76.202ZM56.6584 77V66.5H57.6384V77H56.6584ZM59.3244 70H60.3044V77H59.3244V70ZM59.8214 68.775C59.6627 68.775 59.5274 68.7237 59.4154 68.621C59.308 68.5137 59.2544 68.3807 59.2544 68.222C59.2544 68.0633 59.308 67.9327 59.4154 67.83C59.5274 67.7227 59.6627 67.669 59.8214 67.669C59.9754 67.669 60.106 67.7227 60.2134 67.83C60.3254 67.9327 60.3814 68.0633 60.3814 68.222C60.3814 68.3807 60.3277 68.5137 60.2204 68.621C60.113 68.7237 59.98 68.775 59.8214 68.775ZM65.002 77.182C64.358 77.182 63.77 77.0163 63.238 76.685C62.7107 76.3537 62.2884 75.9103 61.971 75.355C61.6584 74.795 61.502 74.1767 61.502 73.5C61.502 72.9867 61.593 72.5083 61.775 72.065C61.957 71.617 62.2067 71.225 62.524 70.889C62.846 70.5483 63.2194 70.2823 63.644 70.091C64.0687 69.8997 64.5214 69.804 65.002 69.804C65.646 69.804 66.2317 69.9697 66.759 70.301C67.291 70.6323 67.7134 71.078 68.026 71.638C68.3434 72.198 68.502 72.8187 68.502 73.5C68.502 74.0087 68.411 74.4847 68.229 74.928C68.047 75.3713 67.795 75.7633 67.473 76.104C67.1557 76.44 66.7847 76.7037 66.36 76.895C65.94 77.0863 65.4874 77.182 65.002 77.182ZM65.002 76.202C65.478 76.202 65.905 76.0783 66.283 75.831C66.6657 75.579 66.9667 75.2477 67.186 74.837C67.41 74.4263 67.522 73.9807 67.522 73.5C67.522 73.01 67.41 72.5597 67.186 72.149C66.962 71.7337 66.6587 71.4023 66.276 71.155C65.898 70.9077 65.4734 70.784 65.002 70.784C64.526 70.784 64.0967 70.91 63.714 71.162C63.336 71.4093 63.035 71.7383 62.811 72.149C62.5917 72.5597 62.482 73.01 62.482 73.5C62.482 74.004 62.5964 74.4613 62.825 74.872C63.0537 75.278 63.3594 75.6023 63.742 75.845C64.1247 76.083 64.5447 76.202 65.002 76.202ZM74.0993 80.5H73.1193V70H74.0993V71.309C74.342 70.8657 74.6733 70.5063 75.0933 70.231C75.5133 69.9557 76.0126 69.818 76.5913 69.818C77.1 69.818 77.576 69.9137 78.0193 70.105C78.4673 70.2963 78.8593 70.5623 79.1953 70.903C79.5313 71.239 79.795 71.6287 79.9863 72.072C80.1776 72.5153 80.2733 72.9913 80.2733 73.5C80.2733 74.0087 80.1776 74.487 79.9863 74.935C79.795 75.383 79.5313 75.7773 79.1953 76.118C78.8593 76.454 78.4673 76.7177 78.0193 76.909C77.576 77.1003 77.1 77.196 76.5913 77.196C76.0126 77.196 75.5133 77.0583 75.0933 76.783C74.6733 76.5077 74.342 76.1483 74.0993 75.705V80.5ZM76.5843 70.77C76.0943 70.77 75.6673 70.8937 75.3033 71.141C74.944 71.3837 74.6663 71.7103 74.4703 72.121C74.2743 72.5317 74.1763 72.9913 74.1763 73.5C74.1763 73.9993 74.272 74.4567 74.4633 74.872C74.6593 75.2873 74.937 75.6187 75.2963 75.866C75.6603 76.1133 76.0896 76.237 76.5843 76.237C77.0696 76.237 77.5153 76.1157 77.9213 75.873C78.332 75.6303 78.661 75.3037 78.9083 74.893C79.1556 74.4777 79.2793 74.0133 79.2793 73.5C79.2793 73.0007 79.158 72.5457 78.9153 72.135C78.6726 71.7197 78.3483 71.3883 77.9423 71.141C77.5363 70.8937 77.0836 70.77 76.5843 70.77ZM81.4591 77V70H82.4391V70.966C82.6865 70.6113 83.0085 70.329 83.4051 70.119C83.8018 69.909 84.2335 69.804 84.7001 69.804C84.9708 69.804 85.2321 69.839 85.4841 69.909L85.0851 70.882C84.8891 70.8213 84.6978 70.791 84.5111 70.791C84.1331 70.791 83.7855 70.8843 83.4681 71.071C83.1555 71.2577 82.9058 71.5073 82.7191 71.82C82.5325 72.1327 82.4391 72.4803 82.4391 72.863V77H81.4591ZM86.3673 70H87.3473V77H86.3673V70ZM86.8643 68.775C86.7057 68.775 86.5703 68.7237 86.4583 68.621C86.351 68.5137 86.2973 68.3807 86.2973 68.222C86.2973 68.0633 86.351 67.9327 86.4583 67.83C86.5703 67.7227 86.7057 67.669 86.8643 67.669C87.0183 67.669 87.149 67.7227 87.2563 67.83C87.3683 67.9327 87.4243 68.0633 87.4243 68.222C87.4243 68.3807 87.3707 68.5137 87.2633 68.621C87.156 68.7237 87.023 68.775 86.8643 68.775ZM92.3187 77H91.0727L88.5177 69.979H89.5607L91.6957 75.852L93.8307 69.979H94.8737L92.3187 77ZM101.514 70H102.494V77H101.514L101.479 75.698C101.25 76.1413 100.931 76.5007 100.52 76.776C100.109 77.0467 99.6193 77.182 99.0499 77.182C98.5366 77.182 98.0559 77.0863 97.6079 76.895C97.1599 76.699 96.7656 76.4307 96.4249 76.09C96.0843 75.7493 95.8183 75.355 95.6269 74.907C95.4356 74.459 95.3399 73.9783 95.3399 73.465C95.3399 72.961 95.4333 72.4873 95.6199 72.044C95.8113 71.6007 96.0726 71.211 96.4039 70.875C96.7399 70.539 97.1273 70.2777 97.5659 70.091C98.0093 69.8997 98.4829 69.804 98.9869 69.804C99.5703 69.804 100.079 69.944 100.513 70.224C100.947 70.4993 101.292 70.861 101.549 71.309L101.514 70ZM99.0289 76.23C99.5283 76.23 99.9576 76.1087 100.317 75.866C100.676 75.6187 100.952 75.2873 101.143 74.872C101.339 74.4567 101.437 73.9993 101.437 73.5C101.437 72.9867 101.339 72.5247 101.143 72.114C100.947 71.6987 100.669 71.3697 100.31 71.127C99.9506 70.8843 99.5236 70.763 99.0289 70.763C98.5343 70.763 98.0816 70.8867 97.6709 71.134C97.2649 71.3767 96.9406 71.7057 96.6979 72.121C96.4599 72.5363 96.3409 72.996 96.3409 73.5C96.3409 74.0087 96.4646 74.4707 96.7119 74.886C96.9593 75.2967 97.2859 75.6233 97.6919 75.866C98.1026 76.1087 98.5483 76.23 99.0289 76.23ZM107.472 70.98H105.799L105.792 77H104.812L104.819 70.98H103.552V70H104.819L104.812 67.802H105.792L105.799 70H107.472V70.98ZM111.609 77.182C110.965 77.182 110.377 77.0163 109.845 76.685C109.318 76.3537 108.896 75.9103 108.578 75.355C108.266 74.795 108.109 74.1767 108.109 73.5C108.109 72.9867 108.2 72.5083 108.382 72.065C108.564 71.617 108.814 71.225 109.131 70.889C109.453 70.5483 109.827 70.2823 110.251 70.091C110.676 69.8997 111.129 69.804 111.609 69.804C112.127 69.804 112.603 69.9067 113.037 70.112C113.476 70.3173 113.852 70.6043 114.164 70.973C114.482 71.3417 114.72 71.7733 114.878 72.268C115.042 72.7627 115.109 73.297 115.081 73.871H109.145C109.201 74.3143 109.341 74.711 109.565 75.061C109.794 75.411 110.083 75.6887 110.433 75.894C110.788 76.0947 111.18 76.1973 111.609 76.202C112.076 76.202 112.496 76.0807 112.869 75.838C113.247 75.5953 113.551 75.2617 113.779 74.837L114.773 75.068C114.493 75.6887 114.071 76.1973 113.506 76.594C112.942 76.986 112.309 77.182 111.609 77.182ZM109.117 73.08H114.094C114.062 72.646 113.929 72.2493 113.695 71.89C113.467 71.526 113.17 71.2367 112.806 71.022C112.442 70.8027 112.043 70.693 111.609 70.693C111.175 70.693 110.779 70.8003 110.419 71.015C110.06 71.225 109.766 71.512 109.537 71.876C109.309 72.2353 109.169 72.6367 109.117 73.08ZM122.646 77H121.638L119.293 70H120.252L122.156 75.642L124.046 70H125.082L126.972 75.642L128.862 70H129.828L127.483 77H126.468L124.55 71.302L122.646 77ZM130.992 70H131.972V77H130.992V70ZM131.489 68.775C131.331 68.775 131.195 68.7237 131.083 68.621C130.976 68.5137 130.922 68.3807 130.922 68.222C130.922 68.0633 130.976 67.9327 131.083 67.83C131.195 67.7227 131.331 67.669 131.489 67.669C131.643 67.669 131.774 67.7227 131.881 67.83C131.993 67.9327 132.049 68.0633 132.049 68.222C132.049 68.3807 131.996 68.5137 131.888 68.621C131.781 68.7237 131.648 68.775 131.489 68.775ZM137.235 70.98H135.562L135.555 77H134.575L134.582 70.98H133.315V70H134.582L134.575 67.802H135.555L135.562 70H137.235V70.98ZM144.589 72.667V77H143.609V72.863C143.609 72.4803 143.515 72.1327 143.329 71.82C143.142 71.5073 142.892 71.2577 142.58 71.071C142.267 70.8843 141.919 70.791 141.537 70.791C141.159 70.791 140.811 70.8843 140.494 71.071C140.181 71.2577 139.931 71.5073 139.745 71.82C139.558 72.1327 139.465 72.4803 139.465 72.863V77H138.485V66.5H139.465V70.966C139.712 70.6113 140.034 70.329 140.431 70.119C140.827 69.909 141.259 69.804 141.726 69.804C142.253 69.804 142.734 69.9323 143.168 70.189C143.602 70.4457 143.947 70.791 144.204 71.225C144.46 71.659 144.589 72.1397 144.589 72.667ZM155.052 71.456L151.16 75.544H155.052V77H149.074V75.544L152.966 71.456H149.074V70H155.052V71.456ZM159.406 77.182C158.762 77.182 158.174 77.0163 157.642 76.685C157.115 76.3537 156.693 75.9103 156.375 75.355C156.063 74.795 155.906 74.1767 155.906 73.5C155.906 72.9867 155.997 72.5083 156.179 72.065C156.361 71.617 156.611 71.225 156.928 70.889C157.25 70.5483 157.624 70.2823 158.048 70.091C158.473 69.8997 158.926 69.804 159.406 69.804C159.943 69.804 160.435 69.916 160.883 70.14C161.331 70.3593 161.714 70.665 162.031 71.057C162.349 71.4443 162.582 71.8923 162.731 72.401C162.881 72.905 162.925 73.4417 162.864 74.011H157.467C157.528 74.333 157.645 74.6247 157.817 74.886C157.995 75.1427 158.219 75.3457 158.489 75.495C158.765 75.6443 159.07 75.7213 159.406 75.726C159.761 75.726 160.083 75.6373 160.372 75.46C160.666 75.2827 160.907 75.0377 161.093 74.725L162.57 75.068C162.29 75.6887 161.868 76.1973 161.303 76.594C160.739 76.986 160.106 77.182 159.406 77.182ZM157.418 72.898H161.394C161.348 72.562 161.229 72.2587 161.037 71.988C160.851 71.7127 160.615 71.4957 160.33 71.337C160.05 71.1737 159.742 71.092 159.406 71.092C159.075 71.092 158.767 71.1713 158.482 71.33C158.202 71.4887 157.969 71.7057 157.782 71.981C157.6 72.2517 157.479 72.5573 157.418 72.898ZM164.024 77V70H165.48V70.742C165.722 70.4527 166.021 70.224 166.376 70.056C166.73 69.888 167.113 69.804 167.524 69.804C167.785 69.804 168.044 69.839 168.301 69.909L167.72 71.379C167.538 71.309 167.356 71.274 167.174 71.274C166.866 71.274 166.583 71.351 166.327 71.505C166.07 71.6543 165.865 71.8573 165.711 72.114C165.557 72.3707 165.48 72.6553 165.48 72.968V77H164.024ZM171.861 77.182C171.217 77.182 170.629 77.0163 170.097 76.685C169.57 76.3537 169.148 75.9103 168.83 75.355C168.518 74.795 168.361 74.1767 168.361 73.5C168.361 72.9867 168.452 72.5083 168.634 72.065C168.816 71.617 169.066 71.225 169.383 70.889C169.705 70.5483 170.079 70.2823 170.503 70.091C170.928 69.8997 171.381 69.804 171.861 69.804C172.505 69.804 173.091 69.9697 173.618 70.301C174.15 70.6323 174.573 71.078 174.885 71.638C175.203 72.198 175.361 72.8187 175.361 73.5C175.361 74.0087 175.27 74.4847 175.088 74.928C174.906 75.3713 174.654 75.7633 174.332 76.104C174.015 76.44 173.644 76.7037 173.219 76.895C172.799 77.0863 172.347 77.182 171.861 77.182ZM171.861 75.726C172.249 75.726 172.596 75.6233 172.904 75.418C173.212 75.2127 173.455 74.942 173.632 74.606C173.814 74.2653 173.905 73.8967 173.905 73.5C173.905 73.094 173.812 72.7207 173.625 72.38C173.443 72.0393 173.198 71.7687 172.89 71.568C172.582 71.3627 172.239 71.26 171.861 71.26C171.479 71.26 171.131 71.3627 170.818 71.568C170.51 71.7733 170.265 72.0463 170.083 72.387C169.906 72.7277 169.817 73.0987 169.817 73.5C169.817 73.9153 169.911 74.291 170.097 74.627C170.284 74.963 170.531 75.2313 170.839 75.432C171.152 75.628 171.493 75.726 171.861 75.726ZM176.615 72.072H181.095V73.528H176.615V72.072ZM188.766 77H187.086L185.364 74.032L184.237 75.376V77H182.781V66.5H184.237V73.115L186.841 70H188.745L186.358 72.849L188.766 77ZM196.355 72.611V77H194.899V72.968C194.899 72.6553 194.822 72.3707 194.668 72.114C194.519 71.8573 194.316 71.6543 194.059 71.505C193.807 71.351 193.522 71.274 193.205 71.274C192.897 71.274 192.615 71.351 192.358 71.505C192.101 71.6543 191.896 71.8573 191.742 72.114C191.588 72.3707 191.511 72.6553 191.511 72.968V77H190.055V70H191.511V70.742C191.754 70.4527 192.052 70.224 192.407 70.056C192.762 69.888 193.144 69.804 193.555 69.804C194.073 69.804 194.544 69.93 194.969 70.182C195.394 70.434 195.73 70.7723 195.977 71.197C196.229 71.6217 196.355 72.093 196.355 72.611ZM200.695 77.182C200.051 77.182 199.463 77.0163 198.931 76.685C198.404 76.3537 197.982 75.9103 197.664 75.355C197.352 74.795 197.195 74.1767 197.195 73.5C197.195 72.9867 197.286 72.5083 197.468 72.065C197.65 71.617 197.9 71.225 198.217 70.889C198.539 70.5483 198.913 70.2823 199.337 70.091C199.762 69.8997 200.215 69.804 200.695 69.804C201.339 69.804 201.925 69.9697 202.452 70.301C202.984 70.6323 203.407 71.078 203.719 71.638C204.037 72.198 204.195 72.8187 204.195 73.5C204.195 74.0087 204.104 74.4847 203.922 74.928C203.74 75.3713 203.488 75.7633 203.166 76.104C202.849 76.44 202.478 76.7037 202.053 76.895C201.633 77.0863 201.181 77.182 200.695 77.182ZM200.695 75.726C201.083 75.726 201.43 75.6233 201.738 75.418C202.046 75.2127 202.289 74.942 202.466 74.606C202.648 74.2653 202.739 73.8967 202.739 73.5C202.739 73.094 202.646 72.7207 202.459 72.38C202.277 72.0393 202.032 71.7687 201.724 71.568C201.416 71.3627 201.073 71.26 200.695 71.26C200.313 71.26 199.965 71.3627 199.652 71.568C199.344 71.7733 199.099 72.0463 198.917 72.387C198.74 72.7277 198.651 73.0987 198.651 73.5C198.651 73.9153 198.745 74.291 198.931 74.627C199.118 74.963 199.365 75.2313 199.673 75.432C199.986 75.628 200.327 75.726 200.695 75.726ZM208.372 77H206.923L204.578 70H206.006L207.658 74.914L209.296 70H210.766L212.404 74.914L214.049 70H215.477L213.139 77H211.676L210.024 72.051L208.372 77ZM216.742 77V66.5H218.198V77H216.742ZM222.858 77.182C222.214 77.182 221.626 77.0163 221.094 76.685C220.566 76.3537 220.144 75.9103 219.827 75.355C219.514 74.795 219.358 74.1767 219.358 73.5C219.358 72.9867 219.449 72.5083 219.631 72.065C219.813 71.617 220.062 71.225 220.38 70.889C220.702 70.5483 221.075 70.2823 221.5 70.091C221.924 69.8997 222.377 69.804 222.858 69.804C223.394 69.804 223.887 69.916 224.335 70.14C224.783 70.3593 225.165 70.665 225.483 71.057C225.8 71.4443 226.033 71.8923 226.183 72.401C226.332 72.905 226.376 73.4417 226.316 74.011H220.919C220.979 74.333 221.096 74.6247 221.269 74.886C221.446 75.1427 221.67 75.3457 221.941 75.495C222.216 75.6443 222.522 75.7213 222.858 75.726C223.212 75.726 223.534 75.6373 223.824 75.46C224.118 75.2827 224.358 75.0377 224.545 74.725L226.022 75.068C225.742 75.6887 225.319 76.1973 224.755 76.594C224.19 76.986 223.558 77.182 222.858 77.182ZM220.87 72.898H224.846C224.799 72.562 224.68 72.2587 224.489 71.988C224.302 71.7127 224.066 71.4957 223.782 71.337C223.502 71.1737 223.194 71.092 222.858 71.092C222.526 71.092 222.218 71.1713 221.934 71.33C221.654 71.4887 221.42 71.7057 221.234 71.981C221.052 72.2517 220.93 72.5573 220.87 72.898ZM232.914 66.5H234.37V77H232.914V75.971C232.685 76.335 232.387 76.629 232.018 76.853C231.649 77.0723 231.218 77.182 230.723 77.182C230.214 77.182 229.738 77.0863 229.295 76.895C228.852 76.7037 228.46 76.44 228.119 76.104C227.783 75.7633 227.519 75.3713 227.328 74.928C227.137 74.4847 227.041 74.0087 227.041 73.5C227.041 72.9913 227.137 72.5153 227.328 72.072C227.519 71.624 227.783 71.232 228.119 70.896C228.46 70.5553 228.852 70.2893 229.295 70.098C229.738 69.9067 230.214 69.811 230.723 69.811C231.218 69.811 231.649 69.923 232.018 70.147C232.387 70.3663 232.685 70.6557 232.914 71.015V66.5ZM230.737 75.775C231.148 75.775 231.507 75.6747 231.815 75.474C232.123 75.2687 232.361 74.9933 232.529 74.648C232.702 74.3027 232.788 73.92 232.788 73.5C232.788 73.0753 232.702 72.6903 232.529 72.345C232.356 71.9997 232.116 71.7267 231.808 71.526C231.505 71.3207 231.148 71.218 230.737 71.218C230.331 71.218 229.96 71.3207 229.624 71.526C229.293 71.7313 229.027 72.0067 228.826 72.352C228.63 72.6973 228.532 73.08 228.532 73.5C228.532 73.9247 228.632 74.3097 228.833 74.655C229.038 74.9957 229.307 75.2687 229.638 75.474C229.974 75.6747 230.34 75.775 230.737 75.775ZM241.278 70H242.734V77.182C242.734 77.6627 242.632 78.106 242.426 78.512C242.226 78.918 241.953 79.268 241.607 79.562C241.262 79.8607 240.865 80.0917 240.417 80.255C239.974 80.4183 239.51 80.5 239.024 80.5C238.534 80.5 238.063 80.395 237.61 80.185C237.158 79.9797 236.759 79.6997 236.413 79.345C236.073 78.9903 235.818 78.589 235.65 78.141L236.987 77.539C237.081 77.8283 237.23 78.085 237.435 78.309C237.645 78.533 237.888 78.7103 238.163 78.841C238.443 78.9717 238.73 79.037 239.024 79.037C239.314 79.037 239.591 78.9903 239.857 78.897C240.128 78.8083 240.368 78.6823 240.578 78.519C240.793 78.3557 240.963 78.1597 241.089 77.931C241.215 77.7023 241.278 77.4527 241.278 77.182V75.999C241.05 76.3537 240.756 76.6407 240.396 76.86C240.037 77.0747 239.619 77.182 239.143 77.182C238.649 77.182 238.182 77.0863 237.743 76.895C237.305 76.7037 236.92 76.44 236.588 76.104C236.257 75.7633 235.998 75.3713 235.811 74.928C235.625 74.4847 235.531 74.0087 235.531 73.5C235.531 72.9913 235.625 72.5153 235.811 72.072C235.998 71.624 236.257 71.232 236.588 70.896C236.92 70.5553 237.305 70.2893 237.743 70.098C238.182 69.9067 238.649 69.811 239.143 69.811C239.619 69.811 240.037 69.9207 240.396 70.14C240.756 70.3547 241.05 70.6417 241.278 71.001V70ZM239.157 75.775C239.563 75.775 239.918 75.6723 240.221 75.467C240.525 75.257 240.76 74.9793 240.928 74.634C241.096 74.2887 241.18 73.9107 241.18 73.5C241.18 73.08 241.094 72.6997 240.921 72.359C240.753 72.0137 240.518 71.7383 240.214 71.533C239.911 71.323 239.559 71.218 239.157 71.218C238.765 71.218 238.406 71.3207 238.079 71.526C237.757 71.7313 237.501 72.0067 237.309 72.352C237.118 72.6973 237.022 73.08 237.022 73.5C237.022 73.92 237.118 74.3027 237.309 74.648C237.505 74.9933 237.764 75.2687 238.086 75.474C238.413 75.6747 238.77 75.775 239.157 75.775ZM247.371 77.182C246.727 77.182 246.139 77.0163 245.607 76.685C245.08 76.3537 244.658 75.9103 244.34 75.355C244.028 74.795 243.871 74.1767 243.871 73.5C243.871 72.9867 243.962 72.5083 244.144 72.065C244.326 71.617 244.576 71.225 244.893 70.889C245.215 70.5483 245.589 70.2823 246.013 70.091C246.438 69.8997 246.891 69.804 247.371 69.804C247.908 69.804 248.4 69.916 248.848 70.14C249.296 70.3593 249.679 70.665 249.996 71.057C250.314 71.4443 250.547 71.8923 250.696 72.401C250.846 72.905 250.89 73.4417 250.829 74.011H245.432C245.493 74.333 245.61 74.6247 245.782 74.886C245.96 75.1427 246.184 75.3457 246.454 75.495C246.73 75.6443 247.035 75.7213 247.371 75.726C247.726 75.726 248.048 75.6373 248.337 75.46C248.631 75.2827 248.872 75.0377 249.058 74.725L250.535 75.068C250.255 75.6887 249.833 76.1973 249.268 76.594C248.704 76.986 248.071 77.182 247.371 77.182ZM245.383 72.898H249.359C249.313 72.562 249.194 72.2587 249.002 71.988C248.816 71.7127 248.58 71.4957 248.295 71.337C248.015 71.1737 247.707 71.092 247.371 71.092C247.04 71.092 246.732 71.1713 246.447 71.33C246.167 71.4887 245.934 71.7057 245.747 71.981C245.565 72.2517 245.444 72.5573 245.383 72.898ZM83.6261 99.5H82.1701V89H83.6261V90.029C83.8594 89.6697 84.1581 89.378 84.5221 89.154C84.8861 88.93 85.3154 88.818 85.8101 88.818C86.3187 88.818 86.7947 88.9137 87.2381 89.105C87.6861 89.2963 88.0781 89.5623 88.4141 89.903C88.7501 90.239 89.0137 90.6287 89.2051 91.072C89.3964 91.5153 89.4921 91.9913 89.4921 92.5C89.4921 93.0087 89.3964 93.487 89.2051 93.935C89.0137 94.383 88.7501 94.7773 88.4141 95.118C88.0781 95.454 87.6861 95.7177 87.2381 95.909C86.7947 96.1003 86.3187 96.196 85.8101 96.196C85.3154 96.196 84.8861 96.084 84.5221 95.86C84.1581 95.6313 83.8594 95.3397 83.6261 94.985V99.5ZM85.7961 90.225C85.3901 90.225 85.0331 90.3277 84.7251 90.533C84.4171 90.7383 84.1767 91.0137 84.0041 91.359C83.8314 91.6997 83.7451 92.08 83.7451 92.5C83.7451 92.92 83.8314 93.3027 84.0041 93.648C84.1767 93.9933 84.4171 94.2687 84.7251 94.474C85.0331 94.6793 85.3901 94.782 85.7961 94.782C86.1974 94.782 86.5661 94.6817 86.9021 94.481C87.2381 94.2757 87.5064 94.0003 87.7071 93.655C87.9077 93.3097 88.0081 92.9247 88.0081 92.5C88.0081 92.0847 87.9077 91.7043 87.7071 91.359C87.5111 91.0137 87.2451 90.7383 86.9091 90.533C86.5731 90.3277 86.2021 90.225 85.7961 90.225ZM90.633 96V89H92.089V89.742C92.3316 89.4527 92.6303 89.224 92.985 89.056C93.3396 88.888 93.7223 88.804 94.133 88.804C94.3943 88.804 94.6533 88.839 94.91 88.909L94.329 90.379C94.147 90.309 93.965 90.274 93.783 90.274C93.475 90.274 93.1926 90.351 92.936 90.505C92.6793 90.6543 92.474 90.8573 92.32 91.114C92.166 91.3707 92.089 91.6553 92.089 91.968V96H90.633ZM98.4708 96.182C97.8268 96.182 97.2388 96.0163 96.7068 95.685C96.1794 95.3537 95.7571 94.9103 95.4398 94.355C95.1271 93.795 94.9708 93.1767 94.9708 92.5C94.9708 91.9867 95.0618 91.5083 95.2438 91.065C95.4258 90.617 95.6754 90.225 95.9928 89.889C96.3148 89.5483 96.6881 89.2823 97.1128 89.091C97.5374 88.8997 97.9901 88.804 98.4708 88.804C99.1148 88.804 99.7004 88.9697 100.228 89.301C100.76 89.6323 101.182 90.078 101.495 90.638C101.812 91.198 101.971 91.8187 101.971 92.5C101.971 93.0087 101.88 93.4847 101.698 93.928C101.516 94.3713 101.264 94.7633 100.942 95.104C100.624 95.44 100.253 95.7037 99.8288 95.895C99.4088 96.0863 98.9561 96.182 98.4708 96.182ZM98.4708 94.726C98.8581 94.726 99.2058 94.6233 99.5138 94.418C99.8218 94.2127 100.064 93.942 100.242 93.606C100.424 93.2653 100.515 92.8967 100.515 92.5C100.515 92.094 100.421 91.7207 100.235 91.38C100.053 91.0393 99.8078 90.7687 99.4998 90.568C99.1918 90.3627 98.8488 90.26 98.4708 90.26C98.0881 90.26 97.7404 90.3627 97.4278 90.568C97.1198 90.7733 96.8748 91.0463 96.6928 91.387C96.5154 91.7277 96.4268 92.0987 96.4268 92.5C96.4268 92.9153 96.5201 93.291 96.7068 93.627C96.8934 93.963 97.1408 94.2313 97.4488 94.432C97.7614 94.628 98.1021 94.726 98.4708 94.726ZM106.168 96.182C105.524 96.182 104.936 96.0163 104.404 95.685C103.877 95.3537 103.454 94.9103 103.137 94.355C102.824 93.795 102.668 93.1767 102.668 92.5C102.668 91.9867 102.759 91.5083 102.941 91.065C103.123 90.617 103.373 90.225 103.69 89.889C104.012 89.5483 104.385 89.2823 104.81 89.091C105.235 88.8997 105.687 88.804 106.168 88.804C106.812 88.804 107.398 88.9697 107.925 89.301C108.457 89.6323 108.879 90.078 109.192 90.638C109.509 91.198 109.668 91.8187 109.668 92.5C109.668 93.0087 109.577 93.4847 109.395 93.928C109.213 94.3713 108.961 94.7633 108.639 95.104C108.322 95.44 107.951 95.7037 107.526 95.895C107.106 96.0863 106.653 96.182 106.168 96.182ZM106.168 94.726C106.555 94.726 106.903 94.6233 107.211 94.418C107.519 94.2127 107.762 93.942 107.939 93.606C108.121 93.2653 108.212 92.8967 108.212 92.5C108.212 92.094 108.119 91.7207 107.932 91.38C107.75 91.0393 107.505 90.7687 107.197 90.568C106.889 90.3627 106.546 90.26 106.168 90.26C105.785 90.26 105.438 90.3627 105.125 90.568C104.817 90.7733 104.572 91.0463 104.39 91.387C104.213 91.7277 104.124 92.0987 104.124 92.5C104.124 92.9153 104.217 93.291 104.404 93.627C104.591 93.963 104.838 94.2313 105.146 94.432C105.459 94.628 105.799 94.726 106.168 94.726ZM112.721 87.411V89H114.695V90.456H112.721V96H111.265V90.456H110.432V89H111.265V87.411C111.265 87.0283 111.358 86.6807 111.545 86.368C111.732 86.0507 111.981 85.7987 112.294 85.612C112.611 85.4253 112.964 85.332 113.351 85.332C113.631 85.332 113.904 85.388 114.17 85.5C114.436 85.612 114.674 85.7847 114.884 86.018L113.841 87.047C113.79 86.963 113.717 86.9 113.624 86.858C113.535 86.8113 113.444 86.788 113.351 86.788C113.178 86.788 113.029 86.8487 112.903 86.97C112.782 87.0913 112.721 87.2383 112.721 87.411ZM122.812 89.98H121.139L121.132 96H120.152L120.159 89.98H118.892V89H120.159L120.152 86.802H121.132L121.139 89H122.812V89.98ZM126.949 96.182C126.305 96.182 125.717 96.0163 125.185 95.685C124.658 95.3537 124.236 94.9103 123.918 94.355C123.606 93.795 123.449 93.1767 123.449 92.5C123.449 91.9867 123.54 91.5083 123.722 91.065C123.904 90.617 124.154 90.225 124.471 89.889C124.793 89.5483 125.167 89.2823 125.591 89.091C126.016 88.8997 126.469 88.804 126.949 88.804C127.467 88.804 127.943 88.9067 128.377 89.112C128.816 89.3173 129.192 89.6043 129.504 89.973C129.822 90.3417 130.06 90.7733 130.218 91.268C130.382 91.7627 130.449 92.297 130.421 92.871H124.485C124.541 93.3143 124.681 93.711 124.905 94.061C125.134 94.411 125.423 94.6887 125.773 94.894C126.128 95.0947 126.52 95.1973 126.949 95.202C127.416 95.202 127.836 95.0807 128.209 94.838C128.587 94.5953 128.891 94.2617 129.119 93.837L130.113 94.068C129.833 94.6887 129.411 95.1973 128.846 95.594C128.282 95.986 127.649 96.182 126.949 96.182ZM124.457 92.08H129.434C129.402 91.646 129.269 91.2493 129.035 90.89C128.807 90.526 128.51 90.2367 128.146 90.022C127.782 89.8027 127.383 89.693 126.949 89.693C126.515 89.693 126.119 89.8003 125.759 90.015C125.4 90.225 125.106 90.512 124.877 90.876C124.649 91.2353 124.509 91.6367 124.457 92.08ZM136.551 94.243L137.426 94.719C137.109 95.1623 136.705 95.517 136.215 95.783C135.73 96.049 135.202 96.182 134.633 96.182C133.989 96.182 133.401 96.0163 132.869 95.685C132.342 95.3537 131.919 94.9103 131.602 94.355C131.289 93.795 131.133 93.1767 131.133 92.5C131.133 91.9867 131.224 91.5083 131.406 91.065C131.588 90.617 131.838 90.225 132.155 89.889C132.477 89.5483 132.85 89.2823 133.275 89.091C133.7 88.8997 134.152 88.804 134.633 88.804C135.202 88.804 135.73 88.937 136.215 89.203C136.705 89.469 137.109 89.826 137.426 90.274L136.551 90.743C136.308 90.435 136.017 90.1993 135.676 90.036C135.335 89.868 134.988 89.784 134.633 89.784C134.162 89.784 133.735 89.91 133.352 90.162C132.969 90.4093 132.666 90.7383 132.442 91.149C132.223 91.5597 132.113 92.01 132.113 92.5C132.113 92.99 132.225 93.4403 132.449 93.851C132.678 94.2617 132.983 94.5907 133.366 94.838C133.749 95.0807 134.171 95.202 134.633 95.202C135.016 95.202 135.375 95.1133 135.711 94.936C136.047 94.7587 136.327 94.5277 136.551 94.243ZM144.698 91.667V96H143.718V91.863C143.718 91.4803 143.625 91.1327 143.438 90.82C143.251 90.5073 143.002 90.2577 142.689 90.071C142.376 89.8843 142.029 89.791 141.646 89.791C141.268 89.791 140.92 89.8843 140.603 90.071C140.29 90.2577 140.041 90.5073 139.854 90.82C139.667 91.1327 139.574 91.4803 139.574 91.863V96H138.594V85.5H139.574V89.966C139.821 89.6113 140.143 89.329 140.54 89.119C140.937 88.909 141.368 88.804 141.835 88.804C142.362 88.804 142.843 88.9323 143.277 89.189C143.711 89.4457 144.056 89.791 144.313 90.225C144.57 90.659 144.698 91.1397 144.698 91.667ZM152.204 91.667V96H151.224V91.863C151.224 91.4803 151.13 91.1327 150.944 90.82C150.757 90.5073 150.507 90.2577 150.195 90.071C149.882 89.8843 149.534 89.791 149.152 89.791C148.774 89.791 148.426 89.8843 148.109 90.071C147.796 90.2577 147.546 90.5073 147.36 90.82C147.173 91.1327 147.08 91.4803 147.08 91.863V96H146.1V89H147.08V89.966C147.327 89.6113 147.649 89.329 148.046 89.119C148.442 88.909 148.874 88.804 149.341 88.804C149.868 88.804 150.349 88.9323 150.783 89.189C151.217 89.4457 151.562 89.791 151.819 90.225C152.075 90.659 152.204 91.1397 152.204 91.667ZM156.549 96.182C155.905 96.182 155.317 96.0163 154.785 95.685C154.258 95.3537 153.835 94.9103 153.518 94.355C153.205 93.795 153.049 93.1767 153.049 92.5C153.049 91.9867 153.14 91.5083 153.322 91.065C153.504 90.617 153.754 90.225 154.071 89.889C154.393 89.5483 154.766 89.2823 155.191 89.091C155.616 88.8997 156.068 88.804 156.549 88.804C157.193 88.804 157.779 88.9697 158.306 89.301C158.838 89.6323 159.26 90.078 159.573 90.638C159.89 91.198 160.049 91.8187 160.049 92.5C160.049 93.0087 159.958 93.4847 159.776 93.928C159.594 94.3713 159.342 94.7633 159.02 95.104C158.703 95.44 158.332 95.7037 157.907 95.895C157.487 96.0863 157.034 96.182 156.549 96.182ZM156.549 95.202C157.025 95.202 157.452 95.0783 157.83 94.831C158.213 94.579 158.514 94.2477 158.733 93.837C158.957 93.4263 159.069 92.9807 159.069 92.5C159.069 92.01 158.957 91.5597 158.733 91.149C158.509 90.7337 158.206 90.4023 157.823 90.155C157.445 89.9077 157.02 89.784 156.549 89.784C156.073 89.784 155.644 89.91 155.261 90.162C154.883 90.4093 154.582 90.7383 154.358 91.149C154.139 91.5597 154.029 92.01 154.029 92.5C154.029 93.004 154.143 93.4613 154.372 93.872C154.601 94.278 154.906 94.6023 155.289 94.845C155.672 95.083 156.092 95.202 156.549 95.202ZM161.18 96V85.5H162.16V96H161.18ZM166.871 96.182C166.227 96.182 165.639 96.0163 165.107 95.685C164.58 95.3537 164.158 94.9103 163.84 94.355C163.528 93.795 163.371 93.1767 163.371 92.5C163.371 91.9867 163.462 91.5083 163.644 91.065C163.826 90.617 164.076 90.225 164.393 89.889C164.715 89.5483 165.089 89.2823 165.513 89.091C165.938 88.8997 166.391 88.804 166.871 88.804C167.515 88.804 168.101 88.9697 168.628 89.301C169.16 89.6323 169.583 90.078 169.895 90.638C170.213 91.198 170.371 91.8187 170.371 92.5C170.371 93.0087 170.28 93.4847 170.098 93.928C169.916 94.3713 169.664 94.7633 169.342 95.104C169.025 95.44 168.654 95.7037 168.229 95.895C167.809 96.0863 167.357 96.182 166.871 96.182ZM166.871 95.202C167.347 95.202 167.774 95.0783 168.152 94.831C168.535 94.579 168.836 94.2477 169.055 93.837C169.279 93.4263 169.391 92.9807 169.391 92.5C169.391 92.01 169.279 91.5597 169.055 91.149C168.831 90.7337 168.528 90.4023 168.145 90.155C167.767 89.9077 167.343 89.784 166.871 89.784C166.395 89.784 165.966 89.91 165.583 90.162C165.205 90.4093 164.904 90.7383 164.68 91.149C164.461 91.5597 164.351 92.01 164.351 92.5C164.351 93.004 164.466 93.4613 164.694 93.872C164.923 94.278 165.229 94.6023 165.611 94.845C165.994 95.083 166.414 95.202 166.871 95.202ZM177.053 89H178.033V96.259C178.033 96.707 177.935 97.127 177.739 97.519C177.548 97.911 177.287 98.254 176.955 98.548C176.629 98.8467 176.255 99.08 175.835 99.248C175.415 99.416 174.979 99.5 174.526 99.5C174.041 99.5 173.572 99.388 173.119 99.164C172.667 98.9447 172.272 98.6507 171.936 98.282C171.605 97.9133 171.369 97.505 171.229 97.057L172.132 96.644C172.221 96.994 172.387 97.309 172.629 97.589C172.877 97.8737 173.166 98.0977 173.497 98.261C173.833 98.429 174.176 98.513 174.526 98.513C174.848 98.513 175.159 98.4523 175.457 98.331C175.761 98.2143 176.031 98.0533 176.269 97.848C176.512 97.6427 176.703 97.4023 176.843 97.127C176.983 96.8563 177.053 96.567 177.053 96.259V94.712C176.811 95.1507 176.482 95.5053 176.066 95.776C175.656 96.0467 175.177 96.182 174.631 96.182C174.141 96.182 173.679 96.0863 173.245 95.895C172.816 95.7037 172.438 95.44 172.111 95.104C171.785 94.7633 171.528 94.3713 171.341 93.928C171.159 93.4847 171.068 93.0087 171.068 92.5C171.068 91.9913 171.159 91.5153 171.341 91.072C171.528 90.624 171.785 90.232 172.111 89.896C172.438 89.5553 172.816 89.2893 173.245 89.098C173.679 88.9067 174.141 88.811 174.631 88.811C175.177 88.811 175.656 88.9463 176.066 89.217C176.482 89.483 176.811 89.8377 177.053 90.281V89ZM174.638 95.23C175.124 95.23 175.541 95.104 175.891 94.852C176.246 94.6 176.519 94.2663 176.71 93.851C176.902 93.4357 176.997 92.9853 176.997 92.5C176.997 92.0007 176.899 91.5457 176.703 91.135C176.512 90.7197 176.239 90.3883 175.884 90.141C175.53 89.889 175.114 89.763 174.638 89.763C174.162 89.763 173.728 89.8867 173.336 90.134C172.949 90.3767 172.641 90.7057 172.412 91.121C172.184 91.5363 172.069 91.996 172.069 92.5C172.069 93.004 172.186 93.4637 172.419 93.879C172.653 94.2897 172.963 94.6187 173.35 94.866C173.742 95.1087 174.172 95.23 174.638 95.23ZM184.049 89H185.085L181.256 99.5H180.213L181.487 96L178.974 89H180.045L181.977 94.649L184.049 89ZM186.267 96.182C186.113 96.182 185.983 96.126 185.875 96.014C185.768 95.9067 185.714 95.7737 185.714 95.615C185.714 95.4657 185.768 95.3373 185.875 95.23C185.983 95.118 186.113 95.062 186.267 95.062C186.426 95.062 186.559 95.118 186.666 95.23C186.778 95.3373 186.834 95.4657 186.834 95.615C186.834 95.7737 186.778 95.9067 186.666 96.014C186.559 96.126 186.426 96.182 186.267 96.182Z" fill="white"/>
</g>
<defs>
<clipPath id="clip0_2552_696">
<path d="M0 15C0 6.71573 6.71573 0 15 0H254C262.284 0 269 6.71573 269 15V174H0V15Z" fill="white"/>
</clipPath>
</defs>
</svg>
