<svg width="273" height="215" viewBox="0 0 273 215" fill="none" xmlns="http://www.w3.org/2000/svg">
<path d="M269 67.6574V147.343C269 155.02 262.767 161.247 255.082 161.247H175.32C167.623 161.247 161.402 167.474 161.402 175.151V201.096C161.402 208.773 155.169 215 147.485 215H121.515C113.831 215 107.598 208.773 107.598 201.096V175.151C107.598 167.474 101.364 161.247 93.6798 161.247H13.9178C6.23312 161.247 0 155.02 0 147.343V13.9044C0 6.22712 6.23312 0 13.9178 0H93.6798C101.364 0 107.598 6.22712 107.598 13.9044V39.8487C107.598 47.5259 113.831 53.753 121.515 53.753H147.485C155.169 53.753 161.402 47.5259 161.402 39.8487V13.9044C161.402 6.22712 167.623 0 175.32 0H255.082C262.767 0 269 6.22712 269 13.9044V67.6574Z" fill="#EA789C"/>
<path d="M51.2759 83.26C50.5093 83.26 49.7726 83.14 49.0659 82.9C48.3593 82.66 47.7426 82.3167 47.2159 81.87C46.6893 81.4167 46.3126 80.88 46.0859 80.26L48.0359 79.53C48.1493 79.85 48.3659 80.1367 48.6859 80.39C49.0126 80.6367 49.3993 80.83 49.8459 80.97C50.2993 81.11 50.7759 81.18 51.2759 81.18C51.8093 81.18 52.3093 81.0933 52.7759 80.92C53.2493 80.7467 53.6293 80.5067 53.9159 80.2C54.2093 79.8933 54.3559 79.5333 54.3559 79.12C54.3559 78.6933 54.2026 78.3433 53.8959 78.07C53.5959 77.7967 53.2093 77.58 52.7359 77.42C52.2693 77.26 51.7826 77.14 51.2759 77.06C50.2959 76.9 49.4159 76.6667 48.6359 76.36C47.8626 76.0533 47.2493 75.6233 46.7959 75.07C46.3493 74.5167 46.1259 73.7967 46.1259 72.91C46.1259 72.0767 46.3626 71.35 46.8359 70.73C47.3159 70.11 47.9459 69.63 48.7259 69.29C49.5126 68.9433 50.3626 68.77 51.2759 68.77C52.0293 68.77 52.7559 68.89 53.4559 69.13C54.1626 69.3633 54.7826 69.7067 55.3159 70.16C55.8559 70.6067 56.2426 71.15 56.4759 71.79L54.5059 72.5C54.3926 72.1733 54.1759 71.89 53.8559 71.65C53.5359 71.4033 53.1493 71.21 52.6959 71.07C52.2493 70.93 51.7759 70.86 51.2759 70.86C50.7426 70.8533 50.2426 70.94 49.7759 71.12C49.3159 71.2933 48.9393 71.5333 48.6459 71.84C48.3526 72.1467 48.2059 72.5033 48.2059 72.91C48.2059 73.41 48.3426 73.79 48.6159 74.05C48.8893 74.31 49.2559 74.5033 49.7159 74.63C50.1826 74.75 50.7026 74.86 51.2759 74.96C52.1959 75.1067 53.0459 75.35 53.8259 75.69C54.6126 76.03 55.2426 76.4833 55.7159 77.05C56.1959 77.61 56.4359 78.3 56.4359 79.12C56.4359 79.9467 56.1959 80.6733 55.7159 81.3C55.2426 81.92 54.6126 82.4033 53.8259 82.75C53.0459 83.09 52.1959 83.26 51.2759 83.26ZM62.8344 83.26C61.9144 83.26 61.0744 83.0233 60.3144 82.55C59.561 82.0767 58.9577 81.4433 58.5044 80.65C58.0577 79.85 57.8344 78.9667 57.8344 78C57.8344 77.2667 57.9644 76.5833 58.2244 75.95C58.4844 75.31 58.841 74.75 59.2944 74.27C59.7544 73.7833 60.2877 73.4033 60.8944 73.13C61.501 72.8567 62.1477 72.72 62.8344 72.72C63.601 72.72 64.3044 72.88 64.9444 73.2C65.5844 73.5133 66.131 73.95 66.5844 74.51C67.0377 75.0633 67.371 75.7033 67.5844 76.43C67.7977 77.15 67.861 77.9167 67.7744 78.73H60.0644C60.151 79.19 60.3177 79.6067 60.5644 79.98C60.8177 80.3467 61.1377 80.6367 61.5244 80.85C61.9177 81.0633 62.3544 81.1733 62.8344 81.18C63.341 81.18 63.801 81.0533 64.2144 80.8C64.6344 80.5467 64.9777 80.1967 65.2444 79.75L67.3544 80.24C66.9544 81.1267 66.351 81.8533 65.5444 82.42C64.7377 82.98 63.8344 83.26 62.8344 83.26ZM59.9944 77.14H65.6744C65.6077 76.66 65.4377 76.2267 65.1644 75.84C64.8977 75.4467 64.561 75.1367 64.1544 74.91C63.7544 74.6767 63.3144 74.56 62.8344 74.56C62.361 74.56 61.921 74.6733 61.5144 74.9C61.1144 75.1267 60.781 75.4367 60.5144 75.83C60.2544 76.2167 60.081 76.6533 59.9944 77.14ZM75.9409 80.16L77.8009 81.17C77.3476 81.8033 76.7709 82.31 76.0709 82.69C75.3776 83.07 74.6243 83.26 73.8109 83.26C72.8909 83.26 72.0509 83.0233 71.2909 82.55C70.5376 82.0767 69.9343 81.4433 69.4809 80.65C69.0343 79.85 68.8109 78.9667 68.8109 78C68.8109 77.2667 68.9409 76.5833 69.2009 75.95C69.4609 75.31 69.8176 74.75 70.2709 74.27C70.7309 73.7833 71.2643 73.4033 71.8709 73.13C72.4776 72.8567 73.1243 72.72 73.8109 72.72C74.6243 72.72 75.3776 72.91 76.0709 73.29C76.7709 73.67 77.3476 74.18 77.8009 74.82L75.9409 75.83C75.6609 75.4967 75.3343 75.2433 74.9609 75.07C74.5876 74.89 74.2043 74.8 73.8109 74.8C73.2643 74.8 72.7676 74.95 72.3209 75.25C71.8809 75.5433 71.5309 75.9333 71.2709 76.42C71.0176 76.9 70.8909 77.4267 70.8909 78C70.8909 78.5667 71.0209 79.0933 71.2809 79.58C71.5409 80.06 71.8909 80.4467 72.3309 80.74C72.7776 81.0333 73.2709 81.18 73.8109 81.18C74.2243 81.18 74.6176 81.0867 74.9909 80.9C75.3643 80.7133 75.6809 80.4667 75.9409 80.16ZM79.0305 79.25V73H81.1105V78.74C81.1105 79.1867 81.2205 79.5933 81.4405 79.96C81.6605 80.3267 81.9538 80.62 82.3205 80.84C82.6871 81.0533 83.0905 81.16 83.5305 81.16C83.9771 81.16 84.3805 81.0533 84.7405 80.84C85.1071 80.62 85.3971 80.3267 85.6105 79.96C85.8305 79.5933 85.9405 79.1867 85.9405 78.74V73H88.0205L88.0305 83H85.9505L85.9405 81.92C85.6005 82.3333 85.1771 82.66 84.6705 82.9C84.1638 83.14 83.6205 83.26 83.0405 83.26C82.3005 83.26 81.6271 83.08 81.0205 82.72C80.4138 82.36 79.9305 81.8767 79.5705 81.27C79.2105 80.6633 79.0305 79.99 79.0305 79.25ZM90.0359 83V73H92.1159V74.06C92.4626 73.6467 92.8893 73.32 93.3959 73.08C93.9026 72.84 94.4493 72.72 95.0359 72.72C95.4093 72.72 95.7793 72.77 96.1459 72.87L95.3159 74.97C95.0559 74.87 94.7959 74.82 94.5359 74.82C94.0959 74.82 93.6926 74.93 93.3259 75.15C92.9593 75.3633 92.6659 75.6533 92.4459 76.02C92.2259 76.3867 92.1159 76.7933 92.1159 77.24V83H90.0359ZM101.233 83.26C100.313 83.26 99.4728 83.0233 98.7128 82.55C97.9595 82.0767 97.3561 81.4433 96.9028 80.65C96.4561 79.85 96.2328 78.9667 96.2328 78C96.2328 77.2667 96.3628 76.5833 96.6228 75.95C96.8828 75.31 97.2395 74.75 97.6928 74.27C98.1528 73.7833 98.6861 73.4033 99.2928 73.13C99.8995 72.8567 100.546 72.72 101.233 72.72C101.999 72.72 102.703 72.88 103.343 73.2C103.983 73.5133 104.529 73.95 104.983 74.51C105.436 75.0633 105.769 75.7033 105.983 76.43C106.196 77.15 106.259 77.9167 106.173 78.73H98.4628C98.5495 79.19 98.7161 79.6067 98.9628 79.98C99.2161 80.3467 99.5361 80.6367 99.9228 80.85C100.316 81.0633 100.753 81.1733 101.233 81.18C101.739 81.18 102.199 81.0533 102.613 80.8C103.033 80.5467 103.376 80.1967 103.643 79.75L105.753 80.24C105.353 81.1267 104.749 81.8533 103.943 82.42C103.136 82.98 102.233 83.26 101.233 83.26ZM98.3928 77.14H104.073C104.006 76.66 103.836 76.2267 103.563 75.84C103.296 75.4467 102.959 75.1367 102.553 74.91C102.153 74.6767 101.713 74.56 101.233 74.56C100.759 74.56 100.319 74.6733 99.9128 74.9C99.5128 75.1267 99.1795 75.4367 98.9128 75.83C98.6528 76.2167 98.4795 76.6533 98.3928 77.14ZM112.809 83V69H121.499V71.08H114.889V74.46H120.209V76.54H114.889V80.92H121.499V83H112.809ZM132.708 76.73V83H130.628V77.24C130.628 76.7933 130.518 76.3867 130.298 76.02C130.084 75.6533 129.794 75.3633 129.428 75.15C129.068 74.93 128.661 74.82 128.208 74.82C127.768 74.82 127.364 74.93 126.998 75.15C126.631 75.3633 126.338 75.6533 126.118 76.02C125.898 76.3867 125.788 76.7933 125.788 77.24V83H123.708V73H125.788V74.06C126.134 73.6467 126.561 73.32 127.068 73.08C127.574 72.84 128.121 72.72 128.708 72.72C129.448 72.72 130.121 72.9 130.728 73.26C131.334 73.62 131.814 74.1033 132.168 74.71C132.528 75.3167 132.708 75.99 132.708 76.73ZM140.053 83H137.383L133.733 72.98H135.953L138.713 80.6L141.483 72.98H143.693L140.053 83ZM145.251 73H147.331V83H145.251V73ZM146.311 71.55C145.991 71.55 145.724 71.4467 145.511 71.24C145.297 71.0333 145.191 70.7733 145.191 70.46C145.191 70.1533 145.297 69.8967 145.511 69.69C145.724 69.4767 145.987 69.37 146.301 69.37C146.607 69.37 146.867 69.4767 147.081 69.69C147.294 69.8967 147.401 70.1533 147.401 70.46C147.401 70.7733 147.294 71.0333 147.081 71.24C146.874 71.4467 146.617 71.55 146.311 71.55ZM149.665 83V73H151.745V74.06C152.092 73.6467 152.518 73.32 153.025 73.08C153.532 72.84 154.078 72.72 154.665 72.72C155.038 72.72 155.408 72.77 155.775 72.87L154.945 74.97C154.685 74.87 154.425 74.82 154.165 74.82C153.725 74.82 153.322 74.93 152.955 75.15C152.588 75.3633 152.295 75.6533 152.075 76.02C151.855 76.3867 151.745 76.7933 151.745 77.24V83H149.665ZM160.862 83.26C159.942 83.26 159.102 83.0233 158.342 82.55C157.588 82.0767 156.985 81.4433 156.532 80.65C156.085 79.85 155.862 78.9667 155.862 78C155.862 77.2667 155.992 76.5833 156.252 75.95C156.512 75.31 156.868 74.75 157.322 74.27C157.782 73.7833 158.315 73.4033 158.922 73.13C159.528 72.8567 160.175 72.72 160.862 72.72C161.782 72.72 162.618 72.9567 163.372 73.43C164.132 73.9033 164.735 74.54 165.182 75.34C165.635 76.14 165.862 77.0267 165.862 78C165.862 78.7267 165.732 79.4067 165.472 80.04C165.212 80.6733 164.852 81.2333 164.392 81.72C163.938 82.2 163.408 82.5767 162.802 82.85C162.202 83.1233 161.555 83.26 160.862 83.26ZM160.862 81.18C161.415 81.18 161.912 81.0333 162.352 80.74C162.792 80.4467 163.138 80.06 163.392 79.58C163.652 79.0933 163.782 78.5667 163.782 78C163.782 77.42 163.648 76.8867 163.382 76.4C163.122 75.9133 162.772 75.5267 162.332 75.24C161.892 74.9467 161.402 74.8 160.862 74.8C160.315 74.8 159.818 74.9467 159.372 75.24C158.932 75.5333 158.582 75.9233 158.322 76.41C158.068 76.8967 157.942 77.4267 157.942 78C157.942 78.5933 158.075 79.13 158.342 79.61C158.608 80.09 158.962 80.4733 159.402 80.76C159.848 81.04 160.335 81.18 160.862 81.18ZM176.477 76.73V83H174.397V77.24C174.397 76.7933 174.287 76.3867 174.067 76.02C173.854 75.6533 173.564 75.3633 173.197 75.15C172.837 74.93 172.431 74.82 171.977 74.82C171.537 74.82 171.134 74.93 170.767 75.15C170.401 75.3633 170.107 75.6533 169.887 76.02C169.667 76.3867 169.557 76.7933 169.557 77.24V83H167.477V73H169.557V74.06C169.904 73.6467 170.331 73.32 170.837 73.08C171.344 72.84 171.891 72.72 172.477 72.72C173.217 72.72 173.891 72.9 174.497 73.26C175.104 73.62 175.584 74.1033 175.937 74.71C176.297 75.3167 176.477 75.99 176.477 76.73ZM178.473 83V73H180.553V74.06C180.9 73.6467 181.323 73.32 181.823 73.08C182.33 72.84 182.877 72.72 183.463 72.72C184.177 72.72 184.833 72.8933 185.433 73.24C186.033 73.58 186.51 74.0333 186.863 74.6C187.217 74.0333 187.687 73.58 188.273 73.24C188.867 72.8933 189.52 72.72 190.233 72.72C190.973 72.72 191.647 72.9 192.253 73.26C192.86 73.62 193.343 74.1033 193.703 74.71C194.063 75.3167 194.243 75.99 194.243 76.73V83H192.163V77.26C192.163 76.82 192.057 76.4167 191.843 76.05C191.63 75.6833 191.343 75.3867 190.983 75.16C190.623 74.9333 190.223 74.82 189.783 74.82C189.343 74.82 188.943 74.9267 188.583 75.14C188.223 75.3533 187.937 75.6433 187.723 76.01C187.51 76.3767 187.403 76.7933 187.403 77.26V83H185.323V77.26C185.323 76.7933 185.217 76.3767 185.003 76.01C184.79 75.6433 184.5 75.3533 184.133 75.14C183.773 74.9267 183.373 74.82 182.933 74.82C182.5 74.82 182.1 74.9333 181.733 75.16C181.373 75.3867 181.087 75.6833 180.873 76.05C180.66 76.4167 180.553 76.82 180.553 77.26V83H178.473ZM200.452 83.26C199.532 83.26 198.692 83.0233 197.932 82.55C197.178 82.0767 196.575 81.4433 196.122 80.65C195.675 79.85 195.452 78.9667 195.452 78C195.452 77.2667 195.582 76.5833 195.842 75.95C196.102 75.31 196.458 74.75 196.912 74.27C197.372 73.7833 197.905 73.4033 198.512 73.13C199.118 72.8567 199.765 72.72 200.452 72.72C201.218 72.72 201.922 72.88 202.562 73.2C203.202 73.5133 203.748 73.95 204.202 74.51C204.655 75.0633 204.988 75.7033 205.202 76.43C205.415 77.15 205.478 77.9167 205.392 78.73H197.682C197.768 79.19 197.935 79.6067 198.182 79.98C198.435 80.3467 198.755 80.6367 199.142 80.85C199.535 81.0633 199.972 81.1733 200.452 81.18C200.958 81.18 201.418 81.0533 201.832 80.8C202.252 80.5467 202.595 80.1967 202.862 79.75L204.972 80.24C204.572 81.1267 203.968 81.8533 203.162 82.42C202.355 82.98 201.452 83.26 200.452 83.26ZM197.612 77.14H203.292C203.225 76.66 203.055 76.2267 202.782 75.84C202.515 75.4467 202.178 75.1367 201.772 74.91C201.372 74.6767 200.932 74.56 200.452 74.56C199.978 74.56 199.538 74.6733 199.132 74.9C198.732 75.1267 198.398 75.4367 198.132 75.83C197.872 76.2167 197.698 76.6533 197.612 77.14ZM216.048 76.73V83H213.968V77.24C213.968 76.7933 213.858 76.3867 213.638 76.02C213.424 75.6533 213.134 75.3633 212.768 75.15C212.408 74.93 212.001 74.82 211.548 74.82C211.108 74.82 210.704 74.93 210.338 75.15C209.971 75.3633 209.678 75.6533 209.458 76.02C209.238 76.3867 209.128 76.7933 209.128 77.24V83H207.048V73H209.128V74.06C209.474 73.6467 209.901 73.32 210.408 73.08C210.914 72.84 211.461 72.72 212.048 72.72C212.788 72.72 213.461 72.9 214.068 73.26C214.674 73.62 215.154 74.1033 215.508 74.71C215.868 75.3167 216.048 75.99 216.048 76.73ZM223.324 75.08H221.224L221.214 83H219.134L219.144 75.08H217.554V73H219.144L219.134 69.86H221.214L221.224 73H223.324V75.08Z" fill="white"/>
<path d="M31.7921 97.2V98.18H28.4321V107H27.4521V98.18H24.0991V97.2H31.7921ZM32.008 107V100H32.988V100.966C33.2353 100.611 33.5573 100.329 33.954 100.119C34.3506 99.909 34.7823 99.804 35.249 99.804C35.5196 99.804 35.781 99.839 36.033 99.909L35.634 100.882C35.438 100.821 35.2466 100.791 35.06 100.791C34.682 100.791 34.3343 100.884 34.017 101.071C33.7043 101.258 33.4546 101.507 33.268 101.82C33.0813 102.133 32.988 102.48 32.988 102.863V107H32.008ZM42.301 100H43.281V107H42.301L42.266 105.698C42.0374 106.141 41.7177 106.501 41.307 106.776C40.8964 107.047 40.4064 107.182 39.837 107.182C39.3237 107.182 38.843 107.086 38.395 106.895C37.947 106.699 37.5527 106.431 37.212 106.09C36.8714 105.749 36.6054 105.355 36.414 104.907C36.2227 104.459 36.127 103.978 36.127 103.465C36.127 102.961 36.2204 102.487 36.407 102.044C36.5984 101.601 36.8597 101.211 37.191 100.875C37.527 100.539 37.9144 100.278 38.353 100.091C38.7964 99.8997 39.27 99.804 39.774 99.804C40.3574 99.804 40.866 99.944 41.3 100.224C41.734 100.499 42.0794 100.861 42.336 101.309L42.301 100ZM39.816 106.23C40.3154 106.23 40.7447 106.109 41.104 105.866C41.4634 105.619 41.7387 105.287 41.93 104.872C42.126 104.457 42.224 103.999 42.224 103.5C42.224 102.987 42.126 102.525 41.93 102.114C41.734 101.699 41.4564 101.37 41.097 101.127C40.7377 100.884 40.3107 100.763 39.816 100.763C39.3214 100.763 38.8687 100.887 38.458 101.134C38.052 101.377 37.7277 101.706 37.485 102.121C37.247 102.536 37.128 102.996 37.128 103.5C37.128 104.009 37.2517 104.471 37.499 104.886C37.7464 105.297 38.073 105.623 38.479 105.866C38.8897 106.109 39.3354 106.23 39.816 106.23ZM50.3061 96.5H51.2861V107H50.3061V105.691C50.0634 106.139 49.7297 106.501 49.3051 106.776C48.8851 107.047 48.3857 107.182 47.8071 107.182C47.2984 107.182 46.8224 107.086 46.3791 106.895C45.9357 106.704 45.5437 106.44 45.2031 106.104C44.8671 105.763 44.6034 105.371 44.4121 104.928C44.2207 104.485 44.1251 104.009 44.1251 103.5C44.1251 102.991 44.2207 102.515 44.4121 102.072C44.6034 101.624 44.8671 101.232 45.2031 100.896C45.5437 100.555 45.9357 100.289 46.3791 100.098C46.8224 99.9067 47.2984 99.811 47.8071 99.811C48.3857 99.811 48.8851 99.9487 49.3051 100.224C49.7297 100.495 50.0634 100.852 50.3061 101.295V96.5ZM47.8141 106.23C48.3134 106.23 48.7427 106.109 49.1021 105.866C49.4614 105.619 49.7367 105.287 49.9281 104.872C50.1241 104.457 50.2221 103.999 50.2221 103.5C50.2221 102.987 50.1241 102.525 49.9281 102.114C49.7321 101.699 49.4544 101.37 49.0951 101.127C48.7357 100.884 48.3087 100.763 47.8141 100.763C47.3194 100.763 46.8691 100.887 46.4631 101.134C46.0571 101.377 45.7327 101.706 45.4901 102.121C45.2474 102.536 45.1261 102.996 45.1261 103.5C45.1261 104.009 45.2497 104.471 45.4971 104.886C45.7444 105.297 46.0711 105.623 46.4771 105.866C46.8877 106.109 47.3334 106.23 47.8141 106.23ZM55.9923 107.182C55.3483 107.182 54.7603 107.016 54.2283 106.685C53.7009 106.354 53.2786 105.91 52.9613 105.355C52.6486 104.795 52.4923 104.177 52.4923 103.5C52.4923 102.987 52.5833 102.508 52.7653 102.065C52.9473 101.617 53.1969 101.225 53.5143 100.889C53.8363 100.548 54.2096 100.282 54.6343 100.091C55.0589 99.8997 55.5116 99.804 55.9923 99.804C56.5103 99.804 56.9863 99.9067 57.4203 100.112C57.8589 100.317 58.2346 100.604 58.5473 100.973C58.8646 101.342 59.1026 101.773 59.2613 102.268C59.4246 102.763 59.4923 103.297 59.4643 103.871H53.5283C53.5843 104.314 53.7243 104.711 53.9483 105.061C54.1769 105.411 54.4663 105.689 54.8163 105.894C55.1709 106.095 55.5629 106.197 55.9923 106.202C56.4589 106.202 56.8789 106.081 57.2523 105.838C57.6303 105.595 57.9336 105.262 58.1623 104.837L59.1563 105.068C58.8763 105.689 58.4539 106.197 57.8893 106.594C57.3246 106.986 56.6923 107.182 55.9923 107.182ZM53.5003 103.08H58.4773C58.4446 102.646 58.3116 102.249 58.0783 101.89C57.8496 101.526 57.5533 101.237 57.1893 101.022C56.8253 100.803 56.4263 100.693 55.9923 100.693C55.5583 100.693 55.1616 100.8 54.8023 101.015C54.4429 101.225 54.1489 101.512 53.9203 101.876C53.6916 102.235 53.5516 102.637 53.5003 103.08ZM67.0289 107H66.0209L63.6759 100H64.6349L66.5389 105.642L68.4289 100H69.4649L71.3549 105.642L73.2449 100H74.2109L71.8659 107H70.8509L68.9329 101.302L67.0289 107ZM75.3752 100H76.3552V107H75.3752V100ZM75.8722 98.775C75.7135 98.775 75.5782 98.7237 75.4662 98.621C75.3588 98.5137 75.3052 98.3807 75.3052 98.222C75.3052 98.0633 75.3588 97.9327 75.4662 97.83C75.5782 97.7227 75.7135 97.669 75.8722 97.669C76.0262 97.669 76.1568 97.7227 76.2642 97.83C76.3762 97.9327 76.4322 98.0633 76.4322 98.222C76.4322 98.3807 76.3785 98.5137 76.2712 98.621C76.1638 98.7237 76.0308 98.775 75.8722 98.775ZM81.6182 100.98H79.9452L79.9382 107H78.9582L78.9652 100.98H77.6982V100H78.9652L78.9582 97.802H79.9382L79.9452 100H81.6182V100.98ZM88.9713 102.667V107H87.9913V102.863C87.9913 102.48 87.898 102.133 87.7113 101.82C87.5247 101.507 87.275 101.258 86.9623 101.071C86.6497 100.884 86.302 100.791 85.9193 100.791C85.5413 100.791 85.1937 100.884 84.8763 101.071C84.5637 101.258 84.314 101.507 84.1273 101.82C83.9407 102.133 83.8473 102.48 83.8473 102.863V107H82.8673V96.5H83.8473V100.966C84.0947 100.611 84.4167 100.329 84.8133 100.119C85.21 99.909 85.6417 99.804 86.1083 99.804C86.6357 99.804 87.1163 99.9323 87.5503 100.189C87.9843 100.446 88.3297 100.791 88.5863 101.225C88.843 101.659 88.9713 102.14 88.9713 102.667ZM98.7345 105.243L99.6095 105.719C99.2922 106.162 98.8885 106.517 98.3985 106.783C97.9132 107.049 97.3858 107.182 96.8165 107.182C96.1725 107.182 95.5845 107.016 95.0525 106.685C94.5252 106.354 94.1028 105.91 93.7855 105.355C93.4728 104.795 93.3165 104.177 93.3165 103.5C93.3165 102.987 93.4075 102.508 93.5895 102.065C93.7715 101.617 94.0212 101.225 94.3385 100.889C94.6605 100.548 95.0338 100.282 95.4585 100.091C95.8832 99.8997 96.3358 99.804 96.8165 99.804C97.3858 99.804 97.9132 99.937 98.3985 100.203C98.8885 100.469 99.2922 100.826 99.6095 101.274L98.7345 101.743C98.4918 101.435 98.2002 101.199 97.8595 101.036C97.5188 100.868 97.1712 100.784 96.8165 100.784C96.3452 100.784 95.9182 100.91 95.5355 101.162C95.1528 101.409 94.8495 101.738 94.6255 102.149C94.4062 102.56 94.2965 103.01 94.2965 103.5C94.2965 103.99 94.4085 104.44 94.6325 104.851C94.8612 105.262 95.1668 105.591 95.5495 105.838C95.9322 106.081 96.3545 106.202 96.8165 106.202C97.1992 106.202 97.5585 106.113 97.8945 105.936C98.2305 105.759 98.5105 105.528 98.7345 105.243ZM103.858 107.182C103.214 107.182 102.626 107.016 102.094 106.685C101.566 106.354 101.144 105.91 100.827 105.355C100.514 104.795 100.358 104.177 100.358 103.5C100.358 102.987 100.449 102.508 100.631 102.065C100.813 101.617 101.062 101.225 101.38 100.889C101.702 100.548 102.075 100.282 102.5 100.091C102.924 99.8997 103.377 99.804 103.858 99.804C104.502 99.804 105.087 99.9697 105.615 100.301C106.147 100.632 106.569 101.078 106.882 101.638C107.199 102.198 107.358 102.819 107.358 103.5C107.358 104.009 107.267 104.485 107.085 104.928C106.903 105.371 106.651 105.763 106.329 106.104C106.011 106.44 105.64 106.704 105.216 106.895C104.796 107.086 104.343 107.182 103.858 107.182ZM103.858 106.202C104.334 106.202 104.761 106.078 105.139 105.831C105.521 105.579 105.822 105.248 106.042 104.837C106.266 104.426 106.378 103.981 106.378 103.5C106.378 103.01 106.266 102.56 106.042 102.149C105.818 101.734 105.514 101.402 105.132 101.155C104.754 100.908 104.329 100.784 103.858 100.784C103.382 100.784 102.952 100.91 102.57 101.162C102.192 101.409 101.891 101.738 101.667 102.149C101.447 102.56 101.338 103.01 101.338 103.5C101.338 104.004 101.452 104.461 101.681 104.872C101.909 105.278 102.215 105.602 102.598 105.845C102.98 106.083 103.4 106.202 103.858 106.202ZM114.647 102.667V107H113.667V102.863C113.667 102.48 113.574 102.133 113.387 101.82C113.2 101.507 112.951 101.258 112.638 101.071C112.325 100.884 111.978 100.791 111.595 100.791C111.217 100.791 110.869 100.884 110.552 101.071C110.239 101.258 109.99 101.507 109.803 101.82C109.616 102.133 109.523 102.48 109.523 102.863V107H108.543V100H109.523V100.966C109.77 100.611 110.092 100.329 110.489 100.119C110.886 99.909 111.317 99.804 111.784 99.804C112.311 99.804 112.792 99.9323 113.226 100.189C113.66 100.446 114.005 100.791 114.262 101.225C114.519 101.659 114.647 102.14 114.647 102.667ZM117.498 98.173V100H119.598V100.98H117.498V107H116.518V100.98H115.559V100H116.518V98.173C116.518 97.8323 116.6 97.5243 116.763 97.249C116.931 96.969 117.155 96.7473 117.435 96.584C117.715 96.416 118.025 96.332 118.366 96.332C118.613 96.332 118.851 96.381 119.08 96.479C119.313 96.577 119.521 96.7217 119.703 96.913L119.003 97.606C118.928 97.5127 118.833 97.4403 118.716 97.389C118.604 97.3377 118.487 97.312 118.366 97.312C118.128 97.312 117.923 97.396 117.75 97.564C117.582 97.732 117.498 97.935 117.498 98.173ZM120.67 100H121.65V107H120.67V100ZM121.167 98.775C121.008 98.775 120.873 98.7237 120.761 98.621C120.654 98.5137 120.6 98.3807 120.6 98.222C120.6 98.0633 120.654 97.9327 120.761 97.83C120.873 97.7227 121.008 97.669 121.167 97.669C121.321 97.669 121.452 97.7227 121.559 97.83C121.671 97.9327 121.727 98.0633 121.727 98.222C121.727 98.3807 121.673 98.5137 121.566 98.621C121.459 98.7237 121.326 98.775 121.167 98.775ZM129.029 96.5H130.009V107H129.029V105.691C128.786 106.139 128.452 106.501 128.028 106.776C127.608 107.047 127.108 107.182 126.53 107.182C126.021 107.182 125.545 107.086 125.102 106.895C124.658 106.704 124.266 106.44 123.926 106.104C123.59 105.763 123.326 105.371 123.135 104.928C122.943 104.485 122.848 104.009 122.848 103.5C122.848 102.991 122.943 102.515 123.135 102.072C123.326 101.624 123.59 101.232 123.926 100.896C124.266 100.555 124.658 100.289 125.102 100.098C125.545 99.9067 126.021 99.811 126.53 99.811C127.108 99.811 127.608 99.9487 128.028 100.224C128.452 100.495 128.786 100.852 129.029 101.295V96.5ZM126.537 106.23C127.036 106.23 127.465 106.109 127.825 105.866C128.184 105.619 128.459 105.287 128.651 104.872C128.847 104.457 128.945 103.999 128.945 103.5C128.945 102.987 128.847 102.525 128.651 102.114C128.455 101.699 128.177 101.37 127.818 101.127C127.458 100.884 127.031 100.763 126.537 100.763C126.042 100.763 125.592 100.887 125.186 101.134C124.78 101.377 124.455 101.706 124.213 102.121C123.97 102.536 123.849 102.996 123.849 103.5C123.849 104.009 123.972 104.471 124.22 104.886C124.467 105.297 124.794 105.623 125.2 105.866C125.61 106.109 126.056 106.23 126.537 106.23ZM134.715 107.182C134.071 107.182 133.483 107.016 132.951 106.685C132.424 106.354 132.001 105.91 131.684 105.355C131.371 104.795 131.215 104.177 131.215 103.5C131.215 102.987 131.306 102.508 131.488 102.065C131.67 101.617 131.92 101.225 132.237 100.889C132.559 100.548 132.932 100.282 133.357 100.091C133.782 99.8997 134.234 99.804 134.715 99.804C135.233 99.804 135.709 99.9067 136.143 100.112C136.582 100.317 136.957 100.604 137.27 100.973C137.587 101.342 137.825 101.773 137.984 102.268C138.147 102.763 138.215 103.297 138.187 103.871H132.251C132.307 104.314 132.447 104.711 132.671 105.061C132.9 105.411 133.189 105.689 133.539 105.894C133.894 106.095 134.286 106.197 134.715 106.202C135.182 106.202 135.602 106.081 135.975 105.838C136.353 105.595 136.656 105.262 136.885 104.837L137.879 105.068C137.599 105.689 137.177 106.197 136.612 106.594C136.047 106.986 135.415 107.182 134.715 107.182ZM132.223 103.08H137.2C137.167 102.646 137.034 102.249 136.801 101.89C136.572 101.526 136.276 101.237 135.912 101.022C135.548 100.803 135.149 100.693 134.715 100.693C134.281 100.693 133.884 100.8 133.525 101.015C133.166 101.225 132.872 101.512 132.643 101.876C132.414 102.235 132.274 102.637 132.223 103.08ZM145.491 102.667V107H144.511V102.863C144.511 102.48 144.418 102.133 144.231 101.82C144.044 101.507 143.795 101.258 143.482 101.071C143.169 100.884 142.822 100.791 142.439 100.791C142.061 100.791 141.713 100.884 141.396 101.071C141.083 101.258 140.834 101.507 140.647 101.82C140.46 102.133 140.367 102.48 140.367 102.863V107H139.387V100H140.367V100.966C140.614 100.611 140.936 100.329 141.333 100.119C141.73 99.909 142.161 99.804 142.628 99.804C143.155 99.804 143.636 99.9323 144.07 100.189C144.504 100.446 144.849 100.791 145.106 101.225C145.363 101.659 145.491 102.14 145.491 102.667ZM151.754 105.243L152.629 105.719C152.312 106.162 151.908 106.517 151.418 106.783C150.933 107.049 150.405 107.182 149.836 107.182C149.192 107.182 148.604 107.016 148.072 106.685C147.545 106.354 147.122 105.91 146.805 105.355C146.492 104.795 146.336 104.177 146.336 103.5C146.336 102.987 146.427 102.508 146.609 102.065C146.791 101.617 147.041 101.225 147.358 100.889C147.68 100.548 148.053 100.282 148.478 100.091C148.903 99.8997 149.355 99.804 149.836 99.804C150.405 99.804 150.933 99.937 151.418 100.203C151.908 100.469 152.312 100.826 152.629 101.274L151.754 101.743C151.511 101.435 151.22 101.199 150.879 101.036C150.538 100.868 150.191 100.784 149.836 100.784C149.365 100.784 148.938 100.91 148.555 101.162C148.172 101.409 147.869 101.738 147.645 102.149C147.426 102.56 147.316 103.01 147.316 103.5C147.316 103.99 147.428 104.44 147.652 104.851C147.881 105.262 148.186 105.591 148.569 105.838C148.952 106.081 149.374 106.202 149.836 106.202C150.219 106.202 150.578 106.113 150.914 105.936C151.25 105.759 151.53 105.528 151.754 105.243ZM156.877 107.182C156.233 107.182 155.645 107.016 155.113 106.685C154.586 106.354 154.163 105.91 153.846 105.355C153.533 104.795 153.377 104.177 153.377 103.5C153.377 102.987 153.468 102.508 153.65 102.065C153.832 101.617 154.082 101.225 154.399 100.889C154.721 100.548 155.094 100.282 155.519 100.091C155.944 99.8997 156.396 99.804 156.877 99.804C157.395 99.804 157.871 99.9067 158.305 100.112C158.744 100.317 159.119 100.604 159.432 100.973C159.749 101.342 159.987 101.773 160.146 102.268C160.309 102.763 160.377 103.297 160.349 103.871H154.413C154.469 104.314 154.609 104.711 154.833 105.061C155.062 105.411 155.351 105.689 155.701 105.894C156.056 106.095 156.448 106.197 156.877 106.202C157.344 106.202 157.764 106.081 158.137 105.838C158.515 105.595 158.818 105.262 159.047 104.837L160.041 105.068C159.761 105.689 159.339 106.197 158.774 106.594C158.209 106.986 157.577 107.182 156.877 107.182ZM154.385 103.08H159.362C159.329 102.646 159.196 102.249 158.963 101.89C158.734 101.526 158.438 101.237 158.074 101.022C157.71 100.803 157.311 100.693 156.877 100.693C156.443 100.693 156.046 100.8 155.687 101.015C155.328 101.225 155.034 101.512 154.805 101.876C154.576 102.235 154.436 102.637 154.385 103.08ZM170.448 107H169.321L167.361 103.619L165.961 105.292V107H164.981V96.5H165.961V103.766L169.118 100H170.399L168.026 102.821L170.448 107ZM177.962 102.667V107H176.982V102.863C176.982 102.48 176.888 102.133 176.702 101.82C176.515 101.507 176.265 101.258 175.953 101.071C175.64 100.884 175.292 100.791 174.91 100.791C174.532 100.791 174.184 100.884 173.867 101.071C173.554 101.258 173.304 101.507 173.118 101.82C172.931 102.133 172.838 102.48 172.838 102.863V107H171.858V100H172.838V100.966C173.085 100.611 173.407 100.329 173.804 100.119C174.2 99.909 174.632 99.804 175.099 99.804C175.626 99.804 176.107 99.9323 176.541 100.189C176.975 100.446 177.32 100.791 177.577 101.225C177.833 101.659 177.962 102.14 177.962 102.667ZM182.307 107.182C181.663 107.182 181.075 107.016 180.543 106.685C180.015 106.354 179.593 105.91 179.276 105.355C178.963 104.795 178.807 104.177 178.807 103.5C178.807 102.987 178.898 102.508 179.08 102.065C179.262 101.617 179.511 101.225 179.829 100.889C180.151 100.548 180.524 100.282 180.949 100.091C181.373 99.8997 181.826 99.804 182.307 99.804C182.951 99.804 183.536 99.9697 184.064 100.301C184.596 100.632 185.018 101.078 185.331 101.638C185.648 102.198 185.807 102.819 185.807 103.5C185.807 104.009 185.716 104.485 185.534 104.928C185.352 105.371 185.1 105.763 184.778 106.104C184.46 106.44 184.089 106.704 183.665 106.895C183.245 107.086 182.792 107.182 182.307 107.182ZM182.307 106.202C182.783 106.202 183.21 106.078 183.588 105.831C183.97 105.579 184.271 105.248 184.491 104.837C184.715 104.426 184.827 103.981 184.827 103.5C184.827 103.01 184.715 102.56 184.491 102.149C184.267 101.734 183.963 101.402 183.581 101.155C183.203 100.908 182.778 100.784 182.307 100.784C181.831 100.784 181.401 100.91 181.019 101.162C180.641 101.409 180.34 101.738 180.116 102.149C179.896 102.56 179.787 103.01 179.787 103.5C179.787 104.004 179.901 104.461 180.13 104.872C180.358 105.278 180.664 105.602 181.047 105.845C181.429 106.083 181.849 106.202 182.307 106.202ZM189.625 107H188.617L186.272 100H187.231L189.135 105.642L191.025 100H192.061L193.951 105.642L195.841 100H196.807L194.462 107H193.447L191.529 101.302L189.625 107ZM197.971 100H198.951V107H197.971V100ZM198.468 98.775C198.309 98.775 198.174 98.7237 198.062 98.621C197.955 98.5137 197.901 98.3807 197.901 98.222C197.901 98.0633 197.955 97.9327 198.062 97.83C198.174 97.7227 198.309 97.669 198.468 97.669C198.622 97.669 198.753 97.7227 198.86 97.83C198.972 97.9327 199.028 98.0633 199.028 98.222C199.028 98.3807 198.974 98.5137 198.867 98.621C198.76 98.7237 198.627 98.775 198.468 98.775ZM206.714 102.667V107H205.734V102.863C205.734 102.48 205.64 102.133 205.454 101.82C205.267 101.507 205.017 101.258 204.705 101.071C204.392 100.884 204.044 100.791 203.662 100.791C203.284 100.791 202.936 100.884 202.619 101.071C202.306 101.258 202.056 101.507 201.87 101.82C201.683 102.133 201.59 102.48 201.59 102.863V107H200.61V100H201.59V100.966C201.837 100.611 202.159 100.329 202.556 100.119C202.952 99.909 203.384 99.804 203.851 99.804C204.378 99.804 204.859 99.9323 205.293 100.189C205.727 100.446 206.072 100.791 206.329 101.225C206.585 101.659 206.714 102.14 206.714 102.667ZM213.544 100H214.524V107.259C214.524 107.707 214.426 108.127 214.23 108.519C214.038 108.911 213.777 109.254 213.446 109.548C213.119 109.847 212.746 110.08 212.326 110.248C211.906 110.416 211.469 110.5 211.017 110.5C210.531 110.5 210.062 110.388 209.61 110.164C209.157 109.945 208.763 109.651 208.427 109.282C208.095 108.913 207.86 108.505 207.72 108.057L208.623 107.644C208.711 107.994 208.877 108.309 209.12 108.589C209.367 108.874 209.656 109.098 209.988 109.261C210.324 109.429 210.667 109.513 211.017 109.513C211.339 109.513 211.649 109.452 211.948 109.331C212.251 109.214 212.522 109.053 212.76 108.848C213.002 108.643 213.194 108.402 213.334 108.127C213.474 107.856 213.544 107.567 213.544 107.259V105.712C213.301 106.151 212.972 106.505 212.557 106.776C212.146 107.047 211.668 107.182 211.122 107.182C210.632 107.182 210.17 107.086 209.736 106.895C209.306 106.704 208.928 106.44 208.602 106.104C208.275 105.763 208.018 105.371 207.832 104.928C207.65 104.485 207.559 104.009 207.559 103.5C207.559 102.991 207.65 102.515 207.832 102.072C208.018 101.624 208.275 101.232 208.602 100.896C208.928 100.555 209.306 100.289 209.736 100.098C210.17 99.9067 210.632 99.811 211.122 99.811C211.668 99.811 212.146 99.9463 212.557 100.217C212.972 100.483 213.301 100.838 213.544 101.281V100ZM211.129 106.23C211.614 106.23 212.032 106.104 212.382 105.852C212.736 105.6 213.009 105.266 213.201 104.851C213.392 104.436 213.488 103.985 213.488 103.5C213.488 103.001 213.39 102.546 213.194 102.135C213.002 101.72 212.729 101.388 212.375 101.141C212.02 100.889 211.605 100.763 211.129 100.763C210.653 100.763 210.219 100.887 209.827 101.134C209.439 101.377 209.131 101.706 208.903 102.121C208.674 102.536 208.56 102.996 208.56 103.5C208.56 104.004 208.676 104.464 208.91 104.879C209.143 105.29 209.453 105.619 209.841 105.866C210.233 106.109 210.662 106.23 211.129 106.23ZM224.367 100H225.403L221.574 110.5H220.531L221.805 107L219.292 100H220.363L222.295 105.649L224.367 100ZM229.461 107.182C228.817 107.182 228.229 107.016 227.697 106.685C227.17 106.354 226.747 105.91 226.43 105.355C226.117 104.795 225.961 104.177 225.961 103.5C225.961 102.987 226.052 102.508 226.234 102.065C226.416 101.617 226.666 101.225 226.983 100.889C227.305 100.548 227.678 100.282 228.103 100.091C228.528 99.8997 228.98 99.804 229.461 99.804C230.105 99.804 230.691 99.9697 231.218 100.301C231.75 100.632 232.172 101.078 232.485 101.638C232.802 102.198 232.961 102.819 232.961 103.5C232.961 104.009 232.87 104.485 232.688 104.928C232.506 105.371 232.254 105.763 231.932 106.104C231.615 106.44 231.244 106.704 230.819 106.895C230.399 107.086 229.946 107.182 229.461 107.182ZM229.461 106.202C229.937 106.202 230.364 106.078 230.742 105.831C231.125 105.579 231.426 105.248 231.645 104.837C231.869 104.426 231.981 103.981 231.981 103.5C231.981 103.01 231.869 102.56 231.645 102.149C231.421 101.734 231.118 101.402 230.735 101.155C230.357 100.908 229.932 100.784 229.461 100.784C228.985 100.784 228.556 100.91 228.173 101.162C227.795 101.409 227.494 101.738 227.27 102.149C227.051 102.56 226.941 103.01 226.941 103.5C226.941 104.004 227.055 104.461 227.284 104.872C227.513 105.278 227.818 105.602 228.201 105.845C228.584 106.083 229.004 106.202 229.461 106.202ZM233.798 104.319V100H234.778V104.123C234.778 104.506 234.872 104.853 235.058 105.166C235.245 105.479 235.495 105.728 235.807 105.915C236.125 106.102 236.472 106.195 236.85 106.195C237.233 106.195 237.578 106.102 237.886 105.915C238.199 105.728 238.449 105.479 238.635 105.166C238.822 104.853 238.915 104.506 238.915 104.123V100H239.895L239.902 107H238.922L238.915 106.02C238.668 106.375 238.346 106.657 237.949 106.867C237.557 107.077 237.128 107.182 236.661 107.182C236.134 107.182 235.653 107.054 235.219 106.797C234.785 106.54 234.44 106.195 234.183 105.761C233.927 105.327 233.798 104.846 233.798 104.319ZM241.297 107V100H242.277V100.966C242.524 100.611 242.846 100.329 243.243 100.119C243.64 99.909 244.071 99.804 244.538 99.804C244.809 99.804 245.07 99.839 245.322 99.909L244.923 100.882C244.727 100.821 244.536 100.791 244.349 100.791C243.971 100.791 243.623 100.884 243.306 101.071C242.993 101.258 242.744 101.507 242.557 101.82C242.37 102.133 242.277 102.48 242.277 102.863V107H241.297ZM26.7219 119H27.7019V126H26.7219L26.6869 124.698C26.4583 125.141 26.1386 125.501 25.7279 125.776C25.3173 126.047 24.8273 126.182 24.2579 126.182C23.7446 126.182 23.2639 126.086 22.8159 125.895C22.3679 125.699 21.9736 125.431 21.6329 125.09C21.2923 124.749 21.0263 124.355 20.8349 123.907C20.6436 123.459 20.5479 122.978 20.5479 122.465C20.5479 121.961 20.6413 121.487 20.8279 121.044C21.0193 120.601 21.2806 120.211 21.6119 119.875C21.9479 119.539 22.3353 119.278 22.7739 119.091C23.2173 118.9 23.6909 118.804 24.1949 118.804C24.7783 118.804 25.2869 118.944 25.7209 119.224C26.1549 119.499 26.5003 119.861 26.7569 120.309L26.7219 119ZM24.2369 125.23C24.7363 125.23 25.1656 125.109 25.5249 124.866C25.8843 124.619 26.1596 124.287 26.3509 123.872C26.5469 123.457 26.6449 122.999 26.6449 122.5C26.6449 121.987 26.5469 121.525 26.3509 121.114C26.1549 120.699 25.8773 120.37 25.5179 120.127C25.1586 119.884 24.7316 119.763 24.2369 119.763C23.7423 119.763 23.2896 119.887 22.8789 120.134C22.4729 120.377 22.1486 120.706 21.9059 121.121C21.6679 121.536 21.5489 121.996 21.5489 122.5C21.5489 123.009 21.6726 123.471 21.9199 123.886C22.1673 124.297 22.4939 124.623 22.8999 124.866C23.3106 125.109 23.7563 125.23 24.2369 125.23ZM31.2657 126.133C30.883 126.124 30.5097 126.054 30.1457 125.923C29.7817 125.792 29.4644 125.615 29.1937 125.391C28.923 125.167 28.7294 124.913 28.6127 124.628L29.4597 124.264C29.5344 124.446 29.672 124.614 29.8727 124.768C30.078 124.917 30.3114 125.039 30.5727 125.132C30.834 125.221 31.093 125.265 31.3497 125.265C31.6344 125.265 31.9004 125.218 32.1477 125.125C32.395 125.032 32.5957 124.899 32.7497 124.726C32.9084 124.549 32.9877 124.341 32.9877 124.103C32.9877 123.846 32.9037 123.646 32.7357 123.501C32.5677 123.352 32.3554 123.235 32.0987 123.151C31.842 123.062 31.5784 122.978 31.3077 122.899C30.813 122.764 30.3767 122.614 29.9987 122.451C29.6207 122.288 29.3244 122.08 29.1097 121.828C28.8997 121.571 28.7947 121.242 28.7947 120.841C28.7947 120.416 28.9137 120.05 29.1517 119.742C29.3944 119.429 29.7094 119.189 30.0967 119.021C30.4887 118.848 30.9064 118.762 31.3497 118.762C31.919 118.762 32.437 118.886 32.9037 119.133C33.375 119.38 33.7157 119.709 33.9257 120.12L33.1347 120.589C33.0507 120.398 32.9177 120.232 32.7357 120.092C32.5537 119.952 32.346 119.842 32.1127 119.763C31.884 119.684 31.6507 119.642 31.4127 119.637C31.114 119.632 30.8364 119.677 30.5797 119.77C30.323 119.859 30.1154 119.992 29.9567 120.169C29.8027 120.346 29.7257 120.563 29.7257 120.82C29.7257 121.077 29.8027 121.273 29.9567 121.408C30.1107 121.539 30.3184 121.646 30.5797 121.73C30.8457 121.809 31.1444 121.903 31.4757 122.01C31.9004 122.145 32.2994 122.299 32.6727 122.472C33.046 122.645 33.347 122.859 33.5757 123.116C33.8044 123.373 33.9164 123.697 33.9117 124.089C33.9117 124.509 33.7857 124.875 33.5337 125.188C33.2817 125.501 32.955 125.741 32.5537 125.909C32.1524 126.072 31.723 126.147 31.2657 126.133ZM37.2813 126.133C36.8987 126.124 36.5253 126.054 36.1613 125.923C35.7973 125.792 35.48 125.615 35.2093 125.391C34.9387 125.167 34.745 124.913 34.6283 124.628L35.4753 124.264C35.55 124.446 35.6877 124.614 35.8883 124.768C36.0937 124.917 36.327 125.039 36.5883 125.132C36.8497 125.221 37.1087 125.265 37.3653 125.265C37.65 125.265 37.916 125.218 38.1633 125.125C38.4107 125.032 38.6113 124.899 38.7653 124.726C38.924 124.549 39.0033 124.341 39.0033 124.103C39.0033 123.846 38.9193 123.646 38.7513 123.501C38.5833 123.352 38.371 123.235 38.1143 123.151C37.8577 123.062 37.594 122.978 37.3233 122.899C36.8287 122.764 36.3923 122.614 36.0143 122.451C35.6363 122.288 35.34 122.08 35.1253 121.828C34.9153 121.571 34.8103 121.242 34.8103 120.841C34.8103 120.416 34.9293 120.05 35.1673 119.742C35.41 119.429 35.725 119.189 36.1123 119.021C36.5043 118.848 36.922 118.762 37.3653 118.762C37.9347 118.762 38.4527 118.886 38.9193 119.133C39.3907 119.38 39.7313 119.709 39.9413 120.12L39.1503 120.589C39.0663 120.398 38.9333 120.232 38.7513 120.092C38.5693 119.952 38.3617 119.842 38.1283 119.763C37.8997 119.684 37.6663 119.642 37.4283 119.637C37.1297 119.632 36.852 119.677 36.5953 119.77C36.3387 119.859 36.131 119.992 35.9723 120.169C35.8183 120.346 35.7413 120.563 35.7413 120.82C35.7413 121.077 35.8183 121.273 35.9723 121.408C36.1263 121.539 36.334 121.646 36.5953 121.73C36.8613 121.809 37.16 121.903 37.4913 122.01C37.916 122.145 38.315 122.299 38.6883 122.472C39.0617 122.645 39.3627 122.859 39.5913 123.116C39.82 123.373 39.932 123.697 39.9273 124.089C39.9273 124.509 39.8013 124.875 39.5493 125.188C39.2973 125.501 38.9707 125.741 38.5693 125.909C38.168 126.072 37.7387 126.147 37.2813 126.133ZM44.1593 126.182C43.5153 126.182 42.9273 126.016 42.3953 125.685C41.8679 125.354 41.4456 124.91 41.1283 124.355C40.8156 123.795 40.6593 123.177 40.6593 122.5C40.6593 121.987 40.7503 121.508 40.9323 121.065C41.1143 120.617 41.3639 120.225 41.6813 119.889C42.0033 119.548 42.3766 119.282 42.8013 119.091C43.2259 118.9 43.6786 118.804 44.1593 118.804C44.6773 118.804 45.1533 118.907 45.5873 119.112C46.0259 119.317 46.4016 119.604 46.7143 119.973C47.0316 120.342 47.2696 120.773 47.4283 121.268C47.5916 121.763 47.6593 122.297 47.6313 122.871H41.6953C41.7513 123.314 41.8913 123.711 42.1153 124.061C42.3439 124.411 42.6333 124.689 42.9833 124.894C43.3379 125.095 43.7299 125.197 44.1593 125.202C44.6259 125.202 45.0459 125.081 45.4193 124.838C45.7973 124.595 46.1006 124.262 46.3293 123.837L47.3233 124.068C47.0433 124.689 46.6209 125.197 46.0563 125.594C45.4916 125.986 44.8593 126.182 44.1593 126.182ZM41.6673 122.08H46.6443C46.6116 121.646 46.4786 121.249 46.2453 120.89C46.0166 120.526 45.7203 120.237 45.3563 120.022C44.9923 119.803 44.5933 119.693 44.1593 119.693C43.7253 119.693 43.3286 119.8 42.9693 120.015C42.6099 120.225 42.3159 120.512 42.0873 120.876C41.8586 121.235 41.7186 121.637 41.6673 122.08ZM52.2852 119.98H50.6122L50.6052 126H49.6252L49.6322 119.98H48.3652V119H49.6322L49.6252 116.802H50.6052L50.6122 119H52.2852V119.98ZM55.6426 126.133C55.26 126.124 54.8866 126.054 54.5226 125.923C54.1586 125.792 53.8413 125.615 53.5706 125.391C53.3 125.167 53.1063 124.913 52.9896 124.628L53.8366 124.264C53.9113 124.446 54.049 124.614 54.2496 124.768C54.455 124.917 54.6883 125.039 54.9496 125.132C55.211 125.221 55.47 125.265 55.7266 125.265C56.0113 125.265 56.2773 125.218 56.5246 125.125C56.772 125.032 56.9726 124.899 57.1266 124.726C57.2853 124.549 57.3646 124.341 57.3646 124.103C57.3646 123.846 57.2806 123.646 57.1126 123.501C56.9446 123.352 56.7323 123.235 56.4756 123.151C56.219 123.062 55.9553 122.978 55.6846 122.899C55.19 122.764 54.7536 122.614 54.3756 122.451C53.9976 122.288 53.7013 122.08 53.4866 121.828C53.2766 121.571 53.1716 121.242 53.1716 120.841C53.1716 120.416 53.2906 120.05 53.5286 119.742C53.7713 119.429 54.0863 119.189 54.4736 119.021C54.8656 118.848 55.2833 118.762 55.7266 118.762C56.296 118.762 56.814 118.886 57.2806 119.133C57.752 119.38 58.0926 119.709 58.3026 120.12L57.5116 120.589C57.4276 120.398 57.2946 120.232 57.1126 120.092C56.9306 119.952 56.723 119.842 56.4896 119.763C56.261 119.684 56.0276 119.642 55.7896 119.637C55.491 119.632 55.2133 119.677 54.9566 119.77C54.7 119.859 54.4923 119.992 54.3336 120.169C54.1796 120.346 54.1026 120.563 54.1026 120.82C54.1026 121.077 54.1796 121.273 54.3336 121.408C54.4876 121.539 54.6953 121.646 54.9566 121.73C55.2226 121.809 55.5213 121.903 55.8526 122.01C56.2773 122.145 56.6763 122.299 57.0496 122.472C57.423 122.645 57.724 122.859 57.9526 123.116C58.1813 123.373 58.2933 123.697 58.2886 124.089C58.2886 124.509 58.1626 124.875 57.9106 125.188C57.6586 125.501 57.332 125.741 56.9306 125.909C56.5293 126.072 56.1 126.147 55.6426 126.133ZM68.6126 119H69.5926V126H68.6126L68.5776 124.698C68.3489 125.141 68.0292 125.501 67.6186 125.776C67.2079 126.047 66.7179 126.182 66.1486 126.182C65.6352 126.182 65.1546 126.086 64.7066 125.895C64.2586 125.699 63.8642 125.431 63.5236 125.09C63.1829 124.749 62.9169 124.355 62.7256 123.907C62.5342 123.459 62.4386 122.978 62.4386 122.465C62.4386 121.961 62.5319 121.487 62.7186 121.044C62.9099 120.601 63.1712 120.211 63.5026 119.875C63.8386 119.539 64.2259 119.278 64.6646 119.091C65.1079 118.9 65.5816 118.804 66.0856 118.804C66.6689 118.804 67.1776 118.944 67.6116 119.224C68.0456 119.499 68.3909 119.861 68.6476 120.309L68.6126 119ZM66.1276 125.23C66.6269 125.23 67.0562 125.109 67.4156 124.866C67.7749 124.619 68.0502 124.287 68.2416 123.872C68.4376 123.457 68.5356 122.999 68.5356 122.5C68.5356 121.987 68.4376 121.525 68.2416 121.114C68.0456 120.699 67.7679 120.37 67.4086 120.127C67.0492 119.884 66.6222 119.763 66.1276 119.763C65.6329 119.763 65.1802 119.887 64.7696 120.134C64.3636 120.377 64.0392 120.706 63.7966 121.121C63.5586 121.536 63.4396 121.996 63.4396 122.5C63.4396 123.009 63.5632 123.471 63.8106 123.886C64.0579 124.297 64.3846 124.623 64.7906 124.866C65.2012 125.109 65.6469 125.23 66.1276 125.23ZM70.9933 126V119H71.9733V119.966C72.2207 119.611 72.5427 119.329 72.9393 119.119C73.336 118.909 73.7677 118.804 74.2343 118.804C74.505 118.804 74.7663 118.839 75.0183 118.909L74.6193 119.882C74.4233 119.821 74.232 119.791 74.0453 119.791C73.6673 119.791 73.3197 119.884 73.0023 120.071C72.6897 120.258 72.44 120.507 72.2533 120.82C72.0667 121.133 71.9733 121.48 71.9733 121.863V126H70.9933ZM78.6124 126.182C77.9684 126.182 77.3804 126.016 76.8484 125.685C76.321 125.354 75.8987 124.91 75.5814 124.355C75.2687 123.795 75.1124 123.177 75.1124 122.5C75.1124 121.987 75.2034 121.508 75.3854 121.065C75.5674 120.617 75.817 120.225 76.1344 119.889C76.4564 119.548 76.8297 119.282 77.2544 119.091C77.679 118.9 78.1317 118.804 78.6124 118.804C79.1304 118.804 79.6064 118.907 80.0404 119.112C80.479 119.317 80.8547 119.604 81.1674 119.973C81.4847 120.342 81.7227 120.773 81.8814 121.268C82.0447 121.763 82.1124 122.297 82.0844 122.871H76.1484C76.2044 123.314 76.3444 123.711 76.5684 124.061C76.797 124.411 77.0864 124.689 77.4364 124.894C77.791 125.095 78.183 125.197 78.6124 125.202C79.079 125.202 79.499 125.081 79.8724 124.838C80.2504 124.595 80.5537 124.262 80.7824 123.837L81.7764 124.068C81.4964 124.689 81.074 125.197 80.5094 125.594C79.9447 125.986 79.3124 126.182 78.6124 126.182ZM76.1204 122.08H81.0974C81.0647 121.646 80.9317 121.249 80.6984 120.89C80.4697 120.526 80.1734 120.237 79.8094 120.022C79.4454 119.803 79.0464 119.693 78.6124 119.693C78.1784 119.693 77.7817 119.8 77.4224 120.015C77.063 120.225 76.769 120.512 76.5404 120.876C76.3117 121.235 76.1717 121.637 76.1204 122.08ZM87.696 129.5H86.716V119H87.696V120.309C87.9386 119.866 88.27 119.506 88.69 119.231C89.11 118.956 89.6093 118.818 90.188 118.818C90.6966 118.818 91.1726 118.914 91.616 119.105C92.064 119.296 92.456 119.562 92.792 119.903C93.128 120.239 93.3916 120.629 93.583 121.072C93.7743 121.515 93.87 121.991 93.87 122.5C93.87 123.009 93.7743 123.487 93.583 123.935C93.3916 124.383 93.128 124.777 92.792 125.118C92.456 125.454 92.064 125.718 91.616 125.909C91.1726 126.1 90.6966 126.196 90.188 126.196C89.6093 126.196 89.11 126.058 88.69 125.783C88.27 125.508 87.9386 125.148 87.696 124.705V129.5ZM90.181 119.77C89.691 119.77 89.264 119.894 88.9 120.141C88.5406 120.384 88.263 120.71 88.067 121.121C87.871 121.532 87.773 121.991 87.773 122.5C87.773 122.999 87.8686 123.457 88.06 123.872C88.256 124.287 88.5336 124.619 88.893 124.866C89.257 125.113 89.6863 125.237 90.181 125.237C90.6663 125.237 91.112 125.116 91.518 124.873C91.9286 124.63 92.2576 124.304 92.505 123.893C92.7523 123.478 92.876 123.013 92.876 122.5C92.876 122.001 92.7546 121.546 92.512 121.135C92.2693 120.72 91.945 120.388 91.539 120.141C91.133 119.894 90.6803 119.77 90.181 119.77ZM95.0558 126V119H96.0358V119.966C96.2832 119.611 96.6052 119.329 97.0018 119.119C97.3985 118.909 97.8302 118.804 98.2968 118.804C98.5675 118.804 98.8288 118.839 99.0808 118.909L98.6818 119.882C98.4858 119.821 98.2945 119.791 98.1078 119.791C97.7298 119.791 97.3822 119.884 97.0648 120.071C96.7522 120.258 96.5025 120.507 96.3158 120.82C96.1292 121.133 96.0358 121.48 96.0358 121.863V126H95.0558ZM102.675 126.182C102.031 126.182 101.443 126.016 100.911 125.685C100.384 125.354 99.9612 124.91 99.6439 124.355C99.3312 123.795 99.1749 123.177 99.1749 122.5C99.1749 121.987 99.2659 121.508 99.4479 121.065C99.6299 120.617 99.8795 120.225 100.197 119.889C100.519 119.548 100.892 119.282 101.317 119.091C101.742 118.9 102.194 118.804 102.675 118.804C103.319 118.804 103.905 118.97 104.432 119.301C104.964 119.632 105.386 120.078 105.699 120.638C106.016 121.198 106.175 121.819 106.175 122.5C106.175 123.009 106.084 123.485 105.902 123.928C105.72 124.371 105.468 124.763 105.146 125.104C104.829 125.44 104.458 125.704 104.033 125.895C103.613 126.086 103.16 126.182 102.675 126.182ZM102.675 125.202C103.151 125.202 103.578 125.078 103.956 124.831C104.339 124.579 104.64 124.248 104.859 123.837C105.083 123.426 105.195 122.981 105.195 122.5C105.195 122.01 105.083 121.56 104.859 121.149C104.635 120.734 104.332 120.402 103.949 120.155C103.571 119.908 103.146 119.784 102.675 119.784C102.199 119.784 101.77 119.91 101.387 120.162C101.009 120.409 100.708 120.738 100.484 121.149C100.265 121.56 100.155 122.01 100.155 122.5C100.155 123.004 100.269 123.461 100.498 123.872C100.727 124.278 101.032 124.602 101.415 124.845C101.798 125.083 102.218 125.202 102.675 125.202ZM110.814 119.98H109.141L109.134 126H108.154L108.161 119.98H106.894V119H108.161L108.154 116.802H109.134L109.141 119H110.814V119.98ZM114.952 126.182C114.308 126.182 113.72 126.016 113.188 125.685C112.661 125.354 112.239 124.91 111.921 124.355C111.609 123.795 111.452 123.177 111.452 122.5C111.452 121.987 111.543 121.508 111.725 121.065C111.907 120.617 112.157 120.225 112.474 119.889C112.796 119.548 113.17 119.282 113.594 119.091C114.019 118.9 114.472 118.804 114.952 118.804C115.47 118.804 115.946 118.907 116.38 119.112C116.819 119.317 117.195 119.604 117.507 119.973C117.825 120.342 118.063 120.773 118.221 121.268C118.385 121.763 118.452 122.297 118.424 122.871H112.488C112.544 123.314 112.684 123.711 112.908 124.061C113.137 124.411 113.426 124.689 113.776 124.894C114.131 125.095 114.523 125.197 114.952 125.202C115.419 125.202 115.839 125.081 116.212 124.838C116.59 124.595 116.894 124.262 117.122 123.837L118.116 124.068C117.836 124.689 117.414 125.197 116.849 125.594C116.285 125.986 115.652 126.182 114.952 126.182ZM112.46 122.08H117.437C117.405 121.646 117.272 121.249 117.038 120.89C116.81 120.526 116.513 120.237 116.149 120.022C115.785 119.803 115.386 119.693 114.952 119.693C114.518 119.693 114.122 119.8 113.762 120.015C113.403 120.225 113.109 120.512 112.88 120.876C112.652 121.235 112.512 121.637 112.46 122.08ZM124.554 124.243L125.429 124.719C125.111 125.162 124.708 125.517 124.218 125.783C123.732 126.049 123.205 126.182 122.636 126.182C121.992 126.182 121.404 126.016 120.872 125.685C120.344 125.354 119.922 124.91 119.605 124.355C119.292 123.795 119.136 123.177 119.136 122.5C119.136 121.987 119.227 121.508 119.409 121.065C119.591 120.617 119.84 120.225 120.158 119.889C120.48 119.548 120.853 119.282 121.278 119.091C121.702 118.9 122.155 118.804 122.636 118.804C123.205 118.804 123.732 118.937 124.218 119.203C124.708 119.469 125.111 119.826 125.429 120.274L124.554 120.743C124.311 120.435 124.019 120.199 123.679 120.036C123.338 119.868 122.99 119.784 122.636 119.784C122.164 119.784 121.737 119.91 121.355 120.162C120.972 120.409 120.669 120.738 120.445 121.149C120.225 121.56 120.116 122.01 120.116 122.5C120.116 122.99 120.228 123.44 120.452 123.851C120.68 124.262 120.986 124.591 121.369 124.838C121.751 125.081 122.174 125.202 122.636 125.202C123.018 125.202 123.378 125.113 123.714 124.936C124.05 124.759 124.33 124.528 124.554 124.243ZM130.27 119.98H128.597L128.59 126H127.61L127.617 119.98H126.35V119H127.617L127.61 116.802H128.59L128.597 119H130.27V119.98ZM134.407 126.182C133.763 126.182 133.175 126.016 132.643 125.685C132.116 125.354 131.694 124.91 131.376 124.355C131.064 123.795 130.907 123.177 130.907 122.5C130.907 121.987 130.998 121.508 131.18 121.065C131.362 120.617 131.612 120.225 131.929 119.889C132.251 119.548 132.625 119.282 133.049 119.091C133.474 118.9 133.927 118.804 134.407 118.804C134.925 118.804 135.401 118.907 135.835 119.112C136.274 119.317 136.65 119.604 136.962 119.973C137.28 120.342 137.518 120.773 137.676 121.268C137.84 121.763 137.907 122.297 137.879 122.871H131.943C131.999 123.314 132.139 123.711 132.363 124.061C132.592 124.411 132.881 124.689 133.231 124.894C133.586 125.095 133.978 125.197 134.407 125.202C134.874 125.202 135.294 125.081 135.667 124.838C136.045 124.595 136.349 124.262 136.577 123.837L137.571 124.068C137.291 124.689 136.869 125.197 136.304 125.594C135.74 125.986 135.107 126.182 134.407 126.182ZM131.915 122.08H136.892C136.86 121.646 136.727 121.249 136.493 120.89C136.265 120.526 135.968 120.237 135.604 120.022C135.24 119.803 134.841 119.693 134.407 119.693C133.973 119.693 133.577 119.8 133.217 120.015C132.858 120.225 132.564 120.512 132.335 120.876C132.107 121.235 131.967 121.637 131.915 122.08ZM144.772 115.5H145.752V126H144.772V124.691C144.529 125.139 144.196 125.501 143.771 125.776C143.351 126.047 142.852 126.182 142.273 126.182C141.764 126.182 141.288 126.086 140.845 125.895C140.402 125.704 140.01 125.44 139.669 125.104C139.333 124.763 139.069 124.371 138.878 123.928C138.687 123.485 138.591 123.009 138.591 122.5C138.591 121.991 138.687 121.515 138.878 121.072C139.069 120.624 139.333 120.232 139.669 119.896C140.01 119.555 140.402 119.289 140.845 119.098C141.288 118.907 141.764 118.811 142.273 118.811C142.852 118.811 143.351 118.949 143.771 119.224C144.196 119.495 144.529 119.852 144.772 120.295V115.5ZM142.28 125.23C142.779 125.23 143.209 125.109 143.568 124.866C143.927 124.619 144.203 124.287 144.394 123.872C144.59 123.457 144.688 122.999 144.688 122.5C144.688 121.987 144.59 121.525 144.394 121.114C144.198 120.699 143.92 120.37 143.561 120.127C143.202 119.884 142.775 119.763 142.28 119.763C141.785 119.763 141.335 119.887 140.929 120.134C140.523 120.377 140.199 120.706 139.956 121.121C139.713 121.536 139.592 121.996 139.592 122.5C139.592 123.009 139.716 123.471 139.963 123.886C140.21 124.297 140.537 124.623 140.943 124.866C141.354 125.109 141.799 125.23 142.28 125.23ZM154.268 118.804C154.949 118.804 155.568 118.97 156.123 119.301C156.683 119.632 157.129 120.078 157.46 120.638C157.791 121.193 157.957 121.812 157.957 122.493C157.957 123.002 157.861 123.48 157.67 123.928C157.479 124.371 157.213 124.763 156.872 125.104C156.536 125.44 156.144 125.704 155.696 125.895C155.253 126.086 154.777 126.182 154.268 126.182C153.689 126.182 153.19 126.044 152.77 125.769C152.35 125.494 152.019 125.134 151.776 124.691V126H150.796V115.5H151.776V120.295C152.019 119.852 152.35 119.492 152.77 119.217C153.19 118.942 153.689 118.804 154.268 118.804ZM154.261 125.223C154.76 125.223 155.213 125.102 155.619 124.859C156.025 124.612 156.349 124.28 156.592 123.865C156.835 123.45 156.956 122.992 156.956 122.493C156.956 121.98 156.832 121.518 156.585 121.107C156.338 120.692 156.009 120.363 155.598 120.12C155.192 119.877 154.746 119.756 154.261 119.756C153.766 119.756 153.337 119.88 152.973 120.127C152.614 120.374 152.336 120.706 152.14 121.121C151.949 121.536 151.853 121.994 151.853 122.493C151.853 123.002 151.951 123.464 152.147 123.879C152.343 124.29 152.621 124.616 152.98 124.859C153.344 125.102 153.771 125.223 154.261 125.223ZM163.589 119H164.625L160.796 129.5H159.753L161.027 126L158.514 119H159.585L161.517 124.649L163.589 119ZM174.388 124.243L175.263 124.719C174.945 125.162 174.542 125.517 174.052 125.783C173.566 126.049 173.039 126.182 172.47 126.182C171.826 126.182 171.238 126.016 170.706 125.685C170.178 125.354 169.756 124.91 169.439 124.355C169.126 123.795 168.97 123.177 168.97 122.5C168.97 121.987 169.061 121.508 169.243 121.065C169.425 120.617 169.674 120.225 169.992 119.889C170.314 119.548 170.687 119.282 171.112 119.091C171.536 118.9 171.989 118.804 172.47 118.804C173.039 118.804 173.566 118.937 174.052 119.203C174.542 119.469 174.945 119.826 175.263 120.274L174.388 120.743C174.145 120.435 173.853 120.199 173.513 120.036C173.172 119.868 172.824 119.784 172.47 119.784C171.998 119.784 171.571 119.91 171.189 120.162C170.806 120.409 170.503 120.738 170.279 121.149C170.059 121.56 169.95 122.01 169.95 122.5C169.95 122.99 170.062 123.44 170.286 123.851C170.514 124.262 170.82 124.591 171.203 124.838C171.585 125.081 172.008 125.202 172.47 125.202C172.852 125.202 173.212 125.113 173.548 124.936C173.884 124.759 174.164 124.528 174.388 124.243ZM176.178 123.319V119H177.158V123.123C177.158 123.506 177.251 123.853 177.438 124.166C177.625 124.479 177.874 124.728 178.187 124.915C178.504 125.102 178.852 125.195 179.23 125.195C179.613 125.195 179.958 125.102 180.266 124.915C180.579 124.728 180.828 124.479 181.015 124.166C181.202 123.853 181.295 123.506 181.295 123.123V119H182.275L182.282 126H181.302L181.295 125.02C181.048 125.375 180.726 125.657 180.329 125.867C179.937 126.077 179.508 126.182 179.041 126.182C178.514 126.182 178.033 126.054 177.599 125.797C177.165 125.54 176.82 125.195 176.563 124.761C176.306 124.327 176.178 123.846 176.178 123.319ZM187.254 119.98H185.581L185.574 126H184.594L184.601 119.98H183.334V119H184.601L184.594 116.802H185.574L185.581 119H187.254V119.98ZM192.08 119.98H190.407L190.4 126H189.42L189.427 119.98H188.16V119H189.427L189.42 116.802H190.4L190.407 119H192.08V119.98ZM193.275 119H194.255V126H193.275V119ZM193.772 117.775C193.613 117.775 193.478 117.724 193.366 117.621C193.258 117.514 193.205 117.381 193.205 117.222C193.205 117.063 193.258 116.933 193.366 116.83C193.478 116.723 193.613 116.669 193.772 116.669C193.926 116.669 194.056 116.723 194.164 116.83C194.276 116.933 194.332 117.063 194.332 117.222C194.332 117.381 194.278 117.514 194.171 117.621C194.063 117.724 193.93 117.775 193.772 117.775ZM202.017 121.667V126H201.037V121.863C201.037 121.48 200.944 121.133 200.757 120.82C200.571 120.507 200.321 120.258 200.008 120.071C199.696 119.884 199.348 119.791 198.965 119.791C198.587 119.791 198.24 119.884 197.922 120.071C197.61 120.258 197.36 120.507 197.173 120.82C196.987 121.133 196.893 121.48 196.893 121.863V126H195.913V119H196.893V119.966C197.141 119.611 197.463 119.329 197.859 119.119C198.256 118.909 198.688 118.804 199.154 118.804C199.682 118.804 200.162 118.932 200.596 119.189C201.03 119.446 201.376 119.791 201.632 120.225C201.889 120.659 202.017 121.14 202.017 121.667ZM208.847 119H209.827V126.259C209.827 126.707 209.729 127.127 209.533 127.519C209.342 127.911 209.081 128.254 208.749 128.548C208.423 128.847 208.049 129.08 207.629 129.248C207.209 129.416 206.773 129.5 206.32 129.5C205.835 129.5 205.366 129.388 204.913 129.164C204.461 128.945 204.066 128.651 203.73 128.282C203.399 127.913 203.163 127.505 203.023 127.057L203.926 126.644C204.015 126.994 204.181 127.309 204.423 127.589C204.671 127.874 204.96 128.098 205.291 128.261C205.627 128.429 205.97 128.513 206.32 128.513C206.642 128.513 206.953 128.452 207.251 128.331C207.555 128.214 207.825 128.053 208.063 127.848C208.306 127.643 208.497 127.402 208.637 127.127C208.777 126.856 208.847 126.567 208.847 126.259V124.712C208.605 125.151 208.276 125.505 207.86 125.776C207.45 126.047 206.971 126.182 206.425 126.182C205.935 126.182 205.473 126.086 205.039 125.895C204.61 125.704 204.232 125.44 203.905 125.104C203.579 124.763 203.322 124.371 203.135 123.928C202.953 123.485 202.862 123.009 202.862 122.5C202.862 121.991 202.953 121.515 203.135 121.072C203.322 120.624 203.579 120.232 203.905 119.896C204.232 119.555 204.61 119.289 205.039 119.098C205.473 118.907 205.935 118.811 206.425 118.811C206.971 118.811 207.45 118.946 207.86 119.217C208.276 119.483 208.605 119.838 208.847 120.281V119ZM206.432 125.23C206.918 125.23 207.335 125.104 207.685 124.852C208.04 124.6 208.313 124.266 208.504 123.851C208.696 123.436 208.791 122.985 208.791 122.5C208.791 122.001 208.693 121.546 208.497 121.135C208.306 120.72 208.033 120.388 207.678 120.141C207.324 119.889 206.908 119.763 206.432 119.763C205.956 119.763 205.522 119.887 205.13 120.134C204.743 120.377 204.435 120.706 204.206 121.121C203.978 121.536 203.863 121.996 203.863 122.5C203.863 123.004 203.98 123.464 204.213 123.879C204.447 124.29 204.757 124.619 205.144 124.866C205.536 125.109 205.966 125.23 206.432 125.23ZM211.513 121.31H215.993V122.29H211.513V121.31ZM220.759 126.182C220.115 126.182 219.527 126.016 218.995 125.685C218.468 125.354 218.045 124.91 217.728 124.355C217.415 123.795 217.259 123.177 217.259 122.5C217.259 121.987 217.35 121.508 217.532 121.065C217.714 120.617 217.964 120.225 218.281 119.889C218.603 119.548 218.976 119.282 219.401 119.091C219.826 118.9 220.278 118.804 220.759 118.804C221.277 118.804 221.753 118.907 222.187 119.112C222.626 119.317 223.001 119.604 223.314 119.973C223.631 120.342 223.869 120.773 224.028 121.268C224.191 121.763 224.259 122.297 224.231 122.871H218.295C218.351 123.314 218.491 123.711 218.715 124.061C218.944 124.411 219.233 124.689 219.583 124.894C219.938 125.095 220.33 125.197 220.759 125.202C221.226 125.202 221.646 125.081 222.019 124.838C222.397 124.595 222.7 124.262 222.929 123.837L223.923 124.068C223.643 124.689 223.221 125.197 222.656 125.594C222.091 125.986 221.459 126.182 220.759 126.182ZM218.267 122.08H223.244C223.211 121.646 223.078 121.249 222.845 120.89C222.616 120.526 222.32 120.237 221.956 120.022C221.592 119.803 221.193 119.693 220.759 119.693C220.325 119.693 219.928 119.8 219.569 120.015C219.21 120.225 218.916 120.512 218.687 120.876C218.458 121.235 218.318 121.637 218.267 122.08ZM231.123 115.5H232.103V126H231.123V124.691C230.881 125.139 230.547 125.501 230.122 125.776C229.702 126.047 229.203 126.182 228.624 126.182C228.116 126.182 227.64 126.086 227.196 125.895C226.753 125.704 226.361 125.44 226.02 125.104C225.684 124.763 225.421 124.371 225.229 123.928C225.038 123.485 224.942 123.009 224.942 122.5C224.942 121.991 225.038 121.515 225.229 121.072C225.421 120.624 225.684 120.232 226.02 119.896C226.361 119.555 226.753 119.289 227.196 119.098C227.64 118.907 228.116 118.811 228.624 118.811C229.203 118.811 229.702 118.949 230.122 119.224C230.547 119.495 230.881 119.852 231.123 120.295V115.5ZM228.631 125.23C229.131 125.23 229.56 125.109 229.919 124.866C230.279 124.619 230.554 124.287 230.745 123.872C230.941 123.457 231.039 122.999 231.039 122.5C231.039 121.987 230.941 121.525 230.745 121.114C230.549 120.699 230.272 120.37 229.912 120.127C229.553 119.884 229.126 119.763 228.631 119.763C228.137 119.763 227.686 119.887 227.28 120.134C226.874 120.377 226.55 120.706 226.307 121.121C226.065 121.536 225.943 121.996 225.943 122.5C225.943 123.009 226.067 123.471 226.314 123.886C226.562 124.297 226.888 124.623 227.294 124.866C227.705 125.109 228.151 125.23 228.631 125.23ZM239.295 119H240.275V126.259C240.275 126.707 240.177 127.127 239.981 127.519C239.789 127.911 239.528 128.254 239.197 128.548C238.87 128.847 238.497 129.08 238.077 129.248C237.657 129.416 237.22 129.5 236.768 129.5C236.282 129.5 235.813 129.388 235.361 129.164C234.908 128.945 234.514 128.651 234.178 128.282C233.846 127.913 233.611 127.505 233.471 127.057L234.374 126.644C234.462 126.994 234.628 127.309 234.871 127.589C235.118 127.874 235.407 128.098 235.739 128.261C236.075 128.429 236.418 128.513 236.768 128.513C237.09 128.513 237.4 128.452 237.699 128.331C238.002 128.214 238.273 128.053 238.511 127.848C238.753 127.643 238.945 127.402 239.085 127.127C239.225 126.856 239.295 126.567 239.295 126.259V124.712C239.052 125.151 238.723 125.505 238.308 125.776C237.897 126.047 237.419 126.182 236.873 126.182C236.383 126.182 235.921 126.086 235.487 125.895C235.057 125.704 234.679 125.44 234.353 125.104C234.026 124.763 233.769 124.371 233.583 123.928C233.401 123.485 233.31 123.009 233.31 122.5C233.31 121.991 233.401 121.515 233.583 121.072C233.769 120.624 234.026 120.232 234.353 119.896C234.679 119.555 235.057 119.289 235.487 119.098C235.921 118.907 236.383 118.811 236.873 118.811C237.419 118.811 237.897 118.946 238.308 119.217C238.723 119.483 239.052 119.838 239.295 120.281V119ZM236.88 125.23C237.365 125.23 237.783 125.104 238.133 124.852C238.487 124.6 238.76 124.266 238.952 123.851C239.143 123.436 239.239 122.985 239.239 122.5C239.239 122.001 239.141 121.546 238.945 121.135C238.753 120.72 238.48 120.388 238.126 120.141C237.771 119.889 237.356 119.763 236.88 119.763C236.404 119.763 235.97 119.887 235.578 120.134C235.19 120.377 234.882 120.706 234.654 121.121C234.425 121.536 234.311 121.996 234.311 122.5C234.311 123.004 234.427 123.464 234.661 123.879C234.894 124.29 235.204 124.619 235.592 124.866C235.984 125.109 236.413 125.23 236.88 125.23ZM244.972 126.182C244.328 126.182 243.74 126.016 243.208 125.685C242.68 125.354 242.258 124.91 241.941 124.355C241.628 123.795 241.472 123.177 241.472 122.5C241.472 121.987 241.563 121.508 241.745 121.065C241.927 120.617 242.176 120.225 242.494 119.889C242.816 119.548 243.189 119.282 243.614 119.091C244.038 118.9 244.491 118.804 244.972 118.804C245.49 118.804 245.966 118.907 246.4 119.112C246.838 119.317 247.214 119.604 247.527 119.973C247.844 120.342 248.082 120.773 248.241 121.268C248.404 121.763 248.472 122.297 248.444 122.871H242.508C242.564 123.314 242.704 123.711 242.928 124.061C243.156 124.411 243.446 124.689 243.796 124.894C244.15 125.095 244.542 125.197 244.972 125.202C245.438 125.202 245.858 125.081 246.232 124.838C246.61 124.595 246.913 124.262 247.142 123.837L248.136 124.068C247.856 124.689 247.433 125.197 246.869 125.594C246.304 125.986 245.672 126.182 244.972 126.182ZM242.48 122.08H247.457C247.424 121.646 247.291 121.249 247.058 120.89C246.829 120.526 246.533 120.237 246.169 120.022C245.805 119.803 245.406 119.693 244.972 119.693C244.538 119.693 244.141 119.8 243.782 120.015C243.422 120.225 243.128 120.512 242.9 120.876C242.671 121.235 242.531 121.637 242.48 122.08ZM104.616 145.182C103.972 145.182 103.384 145.016 102.852 144.685C102.325 144.354 101.903 143.91 101.585 143.355C101.273 142.795 101.116 142.177 101.116 141.5C101.116 140.987 101.207 140.508 101.389 140.065C101.571 139.617 101.821 139.225 102.138 138.889C102.46 138.548 102.834 138.282 103.258 138.091C103.683 137.9 104.136 137.804 104.616 137.804C105.134 137.804 105.61 137.907 106.044 138.112C106.483 138.317 106.859 138.604 107.171 138.973C107.489 139.342 107.727 139.773 107.885 140.268C108.049 140.763 108.116 141.297 108.088 141.871H102.152C102.208 142.314 102.348 142.711 102.572 143.061C102.801 143.411 103.09 143.689 103.44 143.894C103.795 144.095 104.187 144.197 104.616 144.202C105.083 144.202 105.503 144.081 105.876 143.838C106.254 143.595 106.558 143.262 106.786 142.837L107.78 143.068C107.5 143.689 107.078 144.197 106.513 144.594C105.949 144.986 105.316 145.182 104.616 145.182ZM102.124 141.08H107.101C107.069 140.646 106.936 140.249 106.702 139.89C106.474 139.526 106.177 139.237 105.813 139.022C105.449 138.803 105.05 138.693 104.616 138.693C104.182 138.693 103.786 138.8 103.426 139.015C103.067 139.225 102.773 139.512 102.544 139.876C102.316 140.235 102.176 140.637 102.124 141.08ZM115.392 140.667V145H114.412V140.863C114.412 140.48 114.319 140.133 114.132 139.82C113.946 139.507 113.696 139.258 113.383 139.071C113.071 138.884 112.723 138.791 112.34 138.791C111.962 138.791 111.615 138.884 111.297 139.071C110.985 139.258 110.735 139.507 110.548 139.82C110.362 140.133 110.268 140.48 110.268 140.863V145H109.288V138H110.268V138.966C110.516 138.611 110.838 138.329 111.234 138.119C111.631 137.909 112.063 137.804 112.529 137.804C113.057 137.804 113.537 137.932 113.971 138.189C114.405 138.446 114.751 138.791 115.007 139.225C115.264 139.659 115.392 140.14 115.392 140.667ZM121.655 143.243L122.53 143.719C122.213 144.162 121.809 144.517 121.319 144.783C120.834 145.049 120.307 145.182 119.737 145.182C119.093 145.182 118.505 145.016 117.973 144.685C117.446 144.354 117.024 143.91 116.706 143.355C116.394 142.795 116.237 142.177 116.237 141.5C116.237 140.987 116.328 140.508 116.51 140.065C116.692 139.617 116.942 139.225 117.259 138.889C117.581 138.548 117.955 138.282 118.379 138.091C118.804 137.9 119.257 137.804 119.737 137.804C120.307 137.804 120.834 137.937 121.319 138.203C121.809 138.469 122.213 138.826 122.53 139.274L121.655 139.743C121.413 139.435 121.121 139.199 120.78 139.036C120.44 138.868 120.092 138.784 119.737 138.784C119.266 138.784 118.839 138.91 118.456 139.162C118.074 139.409 117.77 139.738 117.546 140.149C117.327 140.56 117.217 141.01 117.217 141.5C117.217 141.99 117.329 142.44 117.553 142.851C117.782 143.262 118.088 143.591 118.47 143.838C118.853 144.081 119.275 144.202 119.737 144.202C120.12 144.202 120.479 144.113 120.815 143.936C121.151 143.759 121.431 143.528 121.655 143.243ZM123.794 145V138H124.774V138.966C125.021 138.611 125.343 138.329 125.74 138.119C126.137 137.909 126.568 137.804 127.035 137.804C127.306 137.804 127.567 137.839 127.819 137.909L127.42 138.882C127.224 138.821 127.033 138.791 126.846 138.791C126.468 138.791 126.12 138.884 125.803 139.071C125.49 139.258 125.241 139.507 125.054 139.82C124.867 140.133 124.774 140.48 124.774 140.863V145H123.794ZM133.497 138H134.533L130.704 148.5H129.661L130.935 145L128.422 138H129.493L131.425 143.649L133.497 138ZM136.751 148.5H135.771V138H136.751V139.309C136.993 138.866 137.325 138.506 137.745 138.231C138.165 137.956 138.664 137.818 139.243 137.818C139.751 137.818 140.227 137.914 140.671 138.105C141.119 138.296 141.511 138.562 141.847 138.903C142.183 139.239 142.446 139.629 142.638 140.072C142.829 140.515 142.925 140.991 142.925 141.5C142.925 142.009 142.829 142.487 142.638 142.935C142.446 143.383 142.183 143.777 141.847 144.118C141.511 144.454 141.119 144.718 140.671 144.909C140.227 145.1 139.751 145.196 139.243 145.196C138.664 145.196 138.165 145.058 137.745 144.783C137.325 144.508 136.993 144.148 136.751 143.705V148.5ZM139.236 138.77C138.746 138.77 138.319 138.894 137.955 139.141C137.595 139.384 137.318 139.71 137.122 140.121C136.926 140.532 136.828 140.991 136.828 141.5C136.828 141.999 136.923 142.457 137.115 142.872C137.311 143.287 137.588 143.619 137.948 143.866C138.312 144.113 138.741 144.237 139.236 144.237C139.721 144.237 140.167 144.116 140.573 143.873C140.983 143.63 141.312 143.304 141.56 142.893C141.807 142.478 141.931 142.013 141.931 141.5C141.931 141.001 141.809 140.546 141.567 140.135C141.324 139.72 141 139.388 140.594 139.141C140.188 138.894 139.735 138.77 139.236 138.77ZM147.564 138.98H145.891L145.884 145H144.904L144.911 138.98H143.644V138H144.911L144.904 135.802H145.884L145.891 138H147.564V138.98ZM148.759 138H149.739V145H148.759V138ZM149.256 136.775C149.097 136.775 148.962 136.724 148.85 136.621C148.743 136.514 148.689 136.381 148.689 136.222C148.689 136.063 148.743 135.933 148.85 135.83C148.962 135.723 149.097 135.669 149.256 135.669C149.41 135.669 149.541 135.723 149.648 135.83C149.76 135.933 149.816 136.063 149.816 136.222C149.816 136.381 149.762 136.514 149.655 136.621C149.548 136.724 149.415 136.775 149.256 136.775ZM154.437 145.182C153.793 145.182 153.205 145.016 152.673 144.685C152.145 144.354 151.723 143.91 151.406 143.355C151.093 142.795 150.937 142.177 150.937 141.5C150.937 140.987 151.028 140.508 151.21 140.065C151.392 139.617 151.641 139.225 151.959 138.889C152.281 138.548 152.654 138.282 153.079 138.091C153.503 137.9 153.956 137.804 154.437 137.804C155.081 137.804 155.666 137.97 156.194 138.301C156.726 138.632 157.148 139.078 157.461 139.638C157.778 140.198 157.937 140.819 157.937 141.5C157.937 142.009 157.846 142.485 157.664 142.928C157.482 143.371 157.23 143.763 156.908 144.104C156.59 144.44 156.219 144.704 155.795 144.895C155.375 145.086 154.922 145.182 154.437 145.182ZM154.437 144.202C154.913 144.202 155.34 144.078 155.718 143.831C156.1 143.579 156.401 143.248 156.621 142.837C156.845 142.426 156.957 141.981 156.957 141.5C156.957 141.01 156.845 140.56 156.621 140.149C156.397 139.734 156.093 139.402 155.711 139.155C155.333 138.908 154.908 138.784 154.437 138.784C153.961 138.784 153.531 138.91 153.149 139.162C152.771 139.409 152.47 139.738 152.246 140.149C152.026 140.56 151.917 141.01 151.917 141.5C151.917 142.004 152.031 142.461 152.26 142.872C152.488 143.278 152.794 143.602 153.177 143.845C153.559 144.083 153.979 144.202 154.437 144.202ZM165.226 140.667V145H164.246V140.863C164.246 140.48 164.153 140.133 163.966 139.82C163.78 139.507 163.53 139.258 163.217 139.071C162.905 138.884 162.557 138.791 162.174 138.791C161.796 138.791 161.449 138.884 161.131 139.071C160.819 139.258 160.569 139.507 160.382 139.82C160.196 140.133 160.102 140.48 160.102 140.863V145H159.122V138H160.102V138.966C160.35 138.611 160.672 138.329 161.068 138.119C161.465 137.909 161.897 137.804 162.363 137.804C162.891 137.804 163.371 137.932 163.805 138.189C164.239 138.446 164.585 138.791 164.841 139.225C165.098 139.659 165.226 140.14 165.226 140.667ZM166.901 145.182C166.747 145.182 166.616 145.126 166.509 145.014C166.402 144.907 166.348 144.774 166.348 144.615C166.348 144.466 166.402 144.337 166.509 144.23C166.616 144.118 166.747 144.062 166.901 144.062C167.06 144.062 167.193 144.118 167.3 144.23C167.412 144.337 167.468 144.466 167.468 144.615C167.468 144.774 167.412 144.907 167.3 145.014C167.193 145.126 167.06 145.182 166.901 145.182Z" fill="white"/>
</svg>
