<svg width="269" height="151" viewBox="0 0 269 151" fill="none" xmlns="http://www.w3.org/2000/svg">
<g id="Frame 42">
<g clip-path="url(#clip0_15_4632)">
<path id="Vector" d="M269 67.5416V147.117C269 154.782 262.767 161 255.082 161H13.9178C6.23312 161 0 154.782 0 147.117V13.8831C0 6.21758 6.23312 0 13.9178 0H93.6798C101.364 0 107.598 6.21758 107.598 13.8831V39.7755C107.598 47.4531 113.831 53.6586 121.515 53.6586H147.485C155.169 53.6586 161.402 47.4531 161.402 39.7755V13.8831C161.402 6.21758 167.623 0 175.32 0H255.082C262.767 0 269 6.21758 269 13.8831V67.5416Z" fill="#ACA22B"/>
<path id="Programmable Interface" d="M25.6902 84V70H30.5102C31.2636 70 31.9436 70.1867 32.5502 70.56C33.1636 70.9333 33.6502 71.4367 34.0102 72.07C34.3769 72.7033 34.5602 73.4033 34.5602 74.17C34.5602 74.95 34.3736 75.6567 34.0002 76.29C33.6336 76.9167 33.1436 77.4167 32.5302 77.79C31.9169 78.1633 31.2436 78.35 30.5102 78.35H27.7702V84H25.6902ZM27.7702 76.27H30.3002C30.7002 76.27 31.0636 76.17 31.3902 75.97C31.7236 75.77 31.9869 75.5033 32.1802 75.17C32.3802 74.8367 32.4802 74.46 32.4802 74.04C32.4802 73.62 32.3802 73.2433 32.1802 72.91C31.9869 72.57 31.7236 72.3033 31.3902 72.11C31.0636 71.91 30.7002 71.81 30.3002 71.81H27.7702V76.27ZM36.198 84V74H38.278V75.06C38.6247 74.6467 39.0514 74.32 39.558 74.08C40.0647 73.84 40.6114 73.72 41.198 73.72C41.5714 73.72 41.9414 73.77 42.308 73.87L41.478 75.97C41.218 75.87 40.958 75.82 40.698 75.82C40.258 75.82 39.8547 75.93 39.488 76.15C39.1214 76.3633 38.828 76.6533 38.608 77.02C38.388 77.3867 38.278 77.7933 38.278 78.24V84H36.198ZM47.3949 84.26C46.4749 84.26 45.6349 84.0233 44.8749 83.55C44.1216 83.0767 43.5183 82.4433 43.0649 81.65C42.6183 80.85 42.3949 79.9667 42.3949 79C42.3949 78.2667 42.5249 77.5833 42.7849 76.95C43.0449 76.31 43.4016 75.75 43.8549 75.27C44.3149 74.7833 44.8483 74.4033 45.4549 74.13C46.0616 73.8567 46.7083 73.72 47.3949 73.72C48.3149 73.72 49.1516 73.9567 49.9049 74.43C50.6649 74.9033 51.2683 75.54 51.7149 76.34C52.1683 77.14 52.3949 78.0267 52.3949 79C52.3949 79.7267 52.2649 80.4067 52.0049 81.04C51.7449 81.6733 51.3849 82.2333 50.9249 82.72C50.4716 83.2 49.9416 83.5767 49.3349 83.85C48.7349 84.1233 48.0883 84.26 47.3949 84.26ZM47.3949 82.18C47.9483 82.18 48.4449 82.0333 48.8849 81.74C49.3249 81.4467 49.6716 81.06 49.9249 80.58C50.1849 80.0933 50.3149 79.5667 50.3149 79C50.3149 78.42 50.1816 77.8867 49.9149 77.4C49.6549 76.9133 49.3049 76.5267 48.8649 76.24C48.4249 75.9467 47.9349 75.8 47.3949 75.8C46.8483 75.8 46.3516 75.9467 45.9049 76.24C45.4649 76.5333 45.1149 76.9233 44.8549 77.41C44.6016 77.8967 44.4749 78.4267 44.4749 79C44.4749 79.5933 44.6083 80.13 44.8749 80.61C45.1416 81.09 45.4949 81.4733 45.9349 81.76C46.3816 82.04 46.8683 82.18 47.3949 82.18ZM61.601 74H63.681V84.26C63.681 84.9467 63.5343 85.58 63.241 86.16C62.9543 86.74 62.5643 87.24 62.071 87.66C61.5777 88.0867 61.011 88.4167 60.371 88.65C59.7377 88.8833 59.0743 89 58.381 89C57.681 89 57.0077 88.85 56.361 88.55C55.7143 88.2567 55.1443 87.8567 54.651 87.35C54.1643 86.8433 53.801 86.27 53.561 85.63L55.471 84.77C55.6043 85.1833 55.8177 85.55 56.111 85.87C56.411 86.19 56.7577 86.4433 57.151 86.63C57.551 86.8167 57.961 86.91 58.381 86.91C58.7943 86.91 59.191 86.8433 59.571 86.71C59.9577 86.5833 60.301 86.4033 60.601 86.17C60.9077 85.9367 61.151 85.6567 61.331 85.33C61.511 85.0033 61.601 84.6467 61.601 84.26V82.57C61.2743 83.0767 60.8543 83.4867 60.341 83.8C59.8277 84.1067 59.231 84.26 58.551 84.26C57.8443 84.26 57.1777 84.1233 56.551 83.85C55.9243 83.5767 55.3743 83.2 54.901 82.72C54.4277 82.2333 54.0577 81.6733 53.791 81.04C53.5243 80.4067 53.391 79.7267 53.391 79C53.391 78.2733 53.5243 77.5933 53.791 76.96C54.0577 76.32 54.4277 75.76 54.901 75.28C55.3743 74.7933 55.9243 74.4133 56.551 74.14C57.1777 73.8667 57.8443 73.73 58.551 73.73C59.231 73.73 59.8277 73.8867 60.341 74.2C60.8543 74.5067 61.2743 74.9167 61.601 75.43V74ZM58.571 82.25C59.151 82.25 59.6577 82.1033 60.091 81.81C60.5243 81.51 60.861 81.1133 61.101 80.62C61.341 80.1267 61.461 79.5867 61.461 79C61.461 78.4 61.3377 77.8567 61.091 77.37C60.851 76.8767 60.5143 76.4833 60.081 76.19C59.6477 75.89 59.1443 75.74 58.571 75.74C58.011 75.74 57.4977 75.8867 57.031 76.18C56.571 76.4733 56.2043 76.8667 55.931 77.36C55.6577 77.8533 55.521 78.4 55.521 79C55.521 79.6 55.6577 80.1467 55.931 80.64C56.211 81.1333 56.581 81.5267 57.041 81.82C57.5077 82.1067 58.0177 82.25 58.571 82.25ZM66.0809 84V74H68.1609V75.06C68.5075 74.6467 68.9342 74.32 69.4409 74.08C69.9475 73.84 70.4942 73.72 71.0809 73.72C71.4542 73.72 71.8242 73.77 72.1909 73.87L71.3609 75.97C71.1009 75.87 70.8409 75.82 70.5809 75.82C70.1409 75.82 69.7375 75.93 69.3709 76.15C69.0042 76.3633 68.7109 76.6533 68.4909 77.02C68.2709 77.3867 68.1609 77.7933 68.1609 78.24V84H66.0809ZM80.6577 74H82.7377V84H80.6477L80.5677 82.55C80.2744 83.0633 79.8777 83.4767 79.3777 83.79C78.8777 84.1033 78.2877 84.26 77.6077 84.26C76.8744 84.26 76.1844 84.1233 75.5377 83.85C74.8911 83.57 74.3211 83.1833 73.8277 82.69C73.3411 82.1967 72.9611 81.63 72.6877 80.99C72.4144 80.3433 72.2777 79.65 72.2777 78.91C72.2777 78.1967 72.4111 77.5267 72.6777 76.9C72.9444 76.2667 73.3144 75.7133 73.7877 75.24C74.2611 74.7667 74.8077 74.3967 75.4277 74.13C76.0544 73.8567 76.7244 73.72 77.4377 73.72C78.1644 73.72 78.8044 73.8867 79.3577 74.22C79.9177 74.5467 80.3811 74.9667 80.7477 75.48L80.6577 74ZM77.5577 82.25C78.1444 82.25 78.6577 82.1067 79.0977 81.82C79.5377 81.5267 79.8777 81.1333 80.1177 80.64C80.3644 80.1467 80.4877 79.6 80.4877 79C80.4877 78.3933 80.3644 77.8433 80.1177 77.35C79.8711 76.8567 79.5277 76.4667 79.0877 76.18C78.6544 75.8867 78.1444 75.74 77.5577 75.74C76.9777 75.74 76.4477 75.8867 75.9677 76.18C75.4877 76.4733 75.1077 76.8667 74.8277 77.36C74.5477 77.8533 74.4077 78.4 74.4077 79C74.4077 79.6067 74.5511 80.1567 74.8377 80.65C75.1311 81.1367 75.5144 81.5267 75.9877 81.82C76.4677 82.1067 76.9911 82.25 77.5577 82.25ZM84.7332 84V74H86.8132V75.06C87.1599 74.6467 87.5832 74.32 88.0832 74.08C88.5899 73.84 89.1365 73.72 89.7232 73.72C90.4365 73.72 91.0932 73.8933 91.6932 74.24C92.2932 74.58 92.7699 75.0333 93.1232 75.6C93.4765 75.0333 93.9465 74.58 94.5332 74.24C95.1265 73.8933 95.7799 73.72 96.4932 73.72C97.2332 73.72 97.9065 73.9 98.5132 74.26C99.1199 74.62 99.6032 75.1033 99.9632 75.71C100.323 76.3167 100.503 76.99 100.503 77.73V84H98.4232V78.26C98.4232 77.82 98.3165 77.4167 98.1032 77.05C97.8899 76.6833 97.6032 76.3867 97.2432 76.16C96.8832 75.9333 96.4832 75.82 96.0432 75.82C95.6032 75.82 95.2032 75.9267 94.8432 76.14C94.4832 76.3533 94.1965 76.6433 93.9832 77.01C93.7699 77.3767 93.6632 77.7933 93.6632 78.26V84H91.5832V78.26C91.5832 77.7933 91.4765 77.3767 91.2632 77.01C91.0499 76.6433 90.7599 76.3533 90.3932 76.14C90.0332 75.9267 89.6332 75.82 89.1932 75.82C88.7599 75.82 88.3599 75.9333 87.9932 76.16C87.6332 76.3867 87.3465 76.6833 87.1332 77.05C86.9199 77.4167 86.8132 77.82 86.8132 78.26V84H84.7332ZM102.507 84V74H104.587V75.06C104.933 74.6467 105.357 74.32 105.857 74.08C106.363 73.84 106.91 73.72 107.497 73.72C108.21 73.72 108.867 73.8933 109.467 74.24C110.067 74.58 110.543 75.0333 110.897 75.6C111.25 75.0333 111.72 74.58 112.307 74.24C112.9 73.8933 113.553 73.72 114.267 73.72C115.007 73.72 115.68 73.9 116.287 74.26C116.893 74.62 117.377 75.1033 117.737 75.71C118.097 76.3167 118.277 76.99 118.277 77.73V84H116.197V78.26C116.197 77.82 116.09 77.4167 115.877 77.05C115.663 76.6833 115.377 76.3867 115.017 76.16C114.657 75.9333 114.257 75.82 113.817 75.82C113.377 75.82 112.977 75.9267 112.617 76.14C112.257 76.3533 111.97 76.6433 111.757 77.01C111.543 77.3767 111.437 77.7933 111.437 78.26V84H109.357V78.26C109.357 77.7933 109.25 77.3767 109.037 77.01C108.823 76.6433 108.533 76.3533 108.167 76.14C107.807 75.9267 107.407 75.82 106.967 75.82C106.533 75.82 106.133 75.9333 105.767 76.16C105.407 76.3867 105.12 76.6833 104.907 77.05C104.693 77.4167 104.587 77.82 104.587 78.26V84H102.507ZM127.865 74H129.945V84H127.855L127.775 82.55C127.481 83.0633 127.085 83.4767 126.585 83.79C126.085 84.1033 125.495 84.26 124.815 84.26C124.081 84.26 123.391 84.1233 122.745 83.85C122.098 83.57 121.528 83.1833 121.035 82.69C120.548 82.1967 120.168 81.63 119.895 80.99C119.621 80.3433 119.485 79.65 119.485 78.91C119.485 78.1967 119.618 77.5267 119.885 76.9C120.151 76.2667 120.521 75.7133 120.995 75.24C121.468 74.7667 122.015 74.3967 122.635 74.13C123.261 73.8567 123.931 73.72 124.645 73.72C125.371 73.72 126.011 73.8867 126.565 74.22C127.125 74.5467 127.588 74.9667 127.955 75.48L127.865 74ZM124.765 82.25C125.351 82.25 125.865 82.1067 126.305 81.82C126.745 81.5267 127.085 81.1333 127.325 80.64C127.571 80.1467 127.695 79.6 127.695 79C127.695 78.3933 127.571 77.8433 127.325 77.35C127.078 76.8567 126.735 76.4667 126.295 76.18C125.861 75.8867 125.351 75.74 124.765 75.74C124.185 75.74 123.655 75.8867 123.175 76.18C122.695 76.4733 122.315 76.8667 122.035 77.36C121.755 77.8533 121.615 78.4 121.615 79C121.615 79.6067 121.758 80.1567 122.045 80.65C122.338 81.1367 122.721 81.5267 123.195 81.82C123.675 82.1067 124.198 82.25 124.765 82.25ZM137.218 73.72C138.192 73.72 139.075 73.9567 139.868 74.43C140.668 74.9033 141.305 75.54 141.778 76.34C142.252 77.1333 142.488 78.0167 142.488 78.99C142.488 79.7167 142.352 80.4 142.078 81.04C141.805 81.6733 141.425 82.2333 140.938 82.72C140.458 83.2 139.898 83.5767 139.258 83.85C138.625 84.1233 137.945 84.26 137.218 84.26C136.518 84.26 135.905 84.1 135.378 83.78C134.858 83.4533 134.432 83.0367 134.098 82.53V84H132.018V69H134.098V75.45C134.432 74.9367 134.858 74.52 135.378 74.2C135.905 73.88 136.518 73.72 137.218 73.72ZM137.198 82.24C137.778 82.24 138.308 82.0933 138.788 81.8C139.268 81.5067 139.648 81.1133 139.928 80.62C140.215 80.1267 140.358 79.5833 140.358 78.99C140.358 78.3833 140.215 77.8333 139.928 77.34C139.642 76.8467 139.258 76.4567 138.778 76.17C138.298 75.8767 137.772 75.73 137.198 75.73C136.618 75.73 136.108 75.8767 135.668 76.17C135.228 76.4633 134.885 76.8567 134.638 77.35C134.392 77.8433 134.268 78.39 134.268 78.99C134.268 79.59 134.392 80.1367 134.638 80.63C134.885 81.1233 135.228 81.5167 135.668 81.81C136.108 82.0967 136.618 82.24 137.198 82.24ZM143.971 84V69H146.051V84H143.971ZM152.707 84.26C151.787 84.26 150.947 84.0233 150.187 83.55C149.434 83.0767 148.831 82.4433 148.377 81.65C147.931 80.85 147.707 79.9667 147.707 79C147.707 78.2667 147.837 77.5833 148.097 76.95C148.357 76.31 148.714 75.75 149.167 75.27C149.627 74.7833 150.161 74.4033 150.767 74.13C151.374 73.8567 152.021 73.72 152.707 73.72C153.474 73.72 154.177 73.88 154.817 74.2C155.457 74.5133 156.004 74.95 156.457 75.51C156.911 76.0633 157.244 76.7033 157.457 77.43C157.671 78.15 157.734 78.9167 157.647 79.73H149.937C150.024 80.19 150.191 80.6067 150.437 80.98C150.691 81.3467 151.011 81.6367 151.397 81.85C151.791 82.0633 152.227 82.1733 152.707 82.18C153.214 82.18 153.674 82.0533 154.087 81.8C154.507 81.5467 154.851 81.1967 155.117 80.75L157.227 81.24C156.827 82.1267 156.224 82.8533 155.417 83.42C154.611 83.98 153.707 84.26 152.707 84.26ZM149.867 78.14H155.547C155.481 77.66 155.311 77.2267 155.037 76.84C154.771 76.4467 154.434 76.1367 154.027 75.91C153.627 75.6767 153.187 75.56 152.707 75.56C152.234 75.56 151.794 75.6733 151.387 75.9C150.987 76.1267 150.654 76.4367 150.387 76.83C150.127 77.2167 149.954 77.6533 149.867 78.14ZM164.584 84V70H166.664V84H164.584ZM178.362 77.73V84H176.282V78.24C176.282 77.7933 176.172 77.3867 175.952 77.02C175.739 76.6533 175.449 76.3633 175.082 76.15C174.722 75.93 174.315 75.82 173.862 75.82C173.422 75.82 173.019 75.93 172.652 76.15C172.285 76.3633 171.992 76.6533 171.772 77.02C171.552 77.3867 171.442 77.7933 171.442 78.24V84H169.362V74H171.442V75.06C171.789 74.6467 172.215 74.32 172.722 74.08C173.229 73.84 173.775 73.72 174.362 73.72C175.102 73.72 175.775 73.9 176.382 74.26C176.989 74.62 177.469 75.1033 177.822 75.71C178.182 76.3167 178.362 76.99 178.362 77.73ZM185.638 76.08H183.538L183.528 84H181.448L181.458 76.08H179.868V74H181.458L181.448 70.86H183.528L183.538 74H185.638V76.08ZM191.594 84.26C190.674 84.26 189.834 84.0233 189.074 83.55C188.321 83.0767 187.717 82.4433 187.264 81.65C186.817 80.85 186.594 79.9667 186.594 79C186.594 78.2667 186.724 77.5833 186.984 76.95C187.244 76.31 187.601 75.75 188.054 75.27C188.514 74.7833 189.047 74.4033 189.654 74.13C190.261 73.8567 190.907 73.72 191.594 73.72C192.361 73.72 193.064 73.88 193.704 74.2C194.344 74.5133 194.891 74.95 195.344 75.51C195.797 76.0633 196.131 76.7033 196.344 77.43C196.557 78.15 196.621 78.9167 196.534 79.73H188.824C188.911 80.19 189.077 80.6067 189.324 80.98C189.577 81.3467 189.897 81.6367 190.284 81.85C190.677 82.0633 191.114 82.1733 191.594 82.18C192.101 82.18 192.561 82.0533 192.974 81.8C193.394 81.5467 193.737 81.1967 194.004 80.75L196.114 81.24C195.714 82.1267 195.111 82.8533 194.304 83.42C193.497 83.98 192.594 84.26 191.594 84.26ZM188.754 78.14H194.434C194.367 77.66 194.197 77.2267 193.924 76.84C193.657 76.4467 193.321 76.1367 192.914 75.91C192.514 75.6767 192.074 75.56 191.594 75.56C191.121 75.56 190.681 75.6733 190.274 75.9C189.874 76.1267 189.541 76.4367 189.274 76.83C189.014 77.2167 188.841 77.6533 188.754 78.14ZM198.19 84V74H200.27V75.06C200.617 74.6467 201.044 74.32 201.55 74.08C202.057 73.84 202.604 73.72 203.19 73.72C203.564 73.72 203.934 73.77 204.3 73.87L203.47 75.97C203.21 75.87 202.95 75.82 202.69 75.82C202.25 75.82 201.847 75.93 201.48 76.15C201.114 76.3633 200.82 76.6533 200.6 77.02C200.38 77.3867 200.27 77.7933 200.27 78.24V84H198.19ZM208.67 71.73V74H211.49V76.08H208.67V84H206.59V76.08H205.4V74H206.59V71.73C206.59 71.1833 206.724 70.6867 206.99 70.24C207.257 69.7867 207.614 69.4267 208.06 69.16C208.514 68.8933 209.017 68.76 209.57 68.76C209.97 68.76 210.36 68.84 210.74 69C211.12 69.16 211.46 69.4067 211.76 69.74L210.27 71.21C210.197 71.09 210.094 71 209.96 70.94C209.834 70.8733 209.704 70.84 209.57 70.84C209.324 70.84 209.11 70.9267 208.93 71.1C208.757 71.2733 208.67 71.4833 208.67 71.73ZM220.697 74H222.777V84H220.687L220.607 82.55C220.313 83.0633 219.917 83.4767 219.417 83.79C218.917 84.1033 218.327 84.26 217.647 84.26C216.913 84.26 216.223 84.1233 215.577 83.85C214.93 83.57 214.36 83.1833 213.867 82.69C213.38 82.1967 213 81.63 212.727 80.99C212.453 80.3433 212.317 79.65 212.317 78.91C212.317 78.1967 212.45 77.5267 212.717 76.9C212.983 76.2667 213.353 75.7133 213.827 75.24C214.3 74.7667 214.847 74.3967 215.467 74.13C216.093 73.8567 216.763 73.72 217.477 73.72C218.203 73.72 218.843 73.8867 219.397 74.22C219.957 74.5467 220.42 74.9667 220.787 75.48L220.697 74ZM217.597 82.25C218.183 82.25 218.697 82.1067 219.137 81.82C219.577 81.5267 219.917 81.1333 220.157 80.64C220.403 80.1467 220.527 79.6 220.527 79C220.527 78.3933 220.403 77.8433 220.157 77.35C219.91 76.8567 219.567 76.4667 219.127 76.18C218.693 75.8867 218.183 75.74 217.597 75.74C217.017 75.74 216.487 75.8867 216.007 76.18C215.527 76.4733 215.147 76.8667 214.867 77.36C214.587 77.8533 214.447 78.4 214.447 79C214.447 79.6067 214.59 80.1567 214.877 80.65C215.17 81.1367 215.553 81.5267 216.027 81.82C216.507 82.1067 217.03 82.25 217.597 82.25ZM231.107 81.16L232.967 82.17C232.514 82.8033 231.937 83.31 231.237 83.69C230.544 84.07 229.79 84.26 228.977 84.26C228.057 84.26 227.217 84.0233 226.457 83.55C225.704 83.0767 225.1 82.4433 224.647 81.65C224.2 80.85 223.977 79.9667 223.977 79C223.977 78.2667 224.107 77.5833 224.367 76.95C224.627 76.31 224.984 75.75 225.437 75.27C225.897 74.7833 226.43 74.4033 227.037 74.13C227.644 73.8567 228.29 73.72 228.977 73.72C229.79 73.72 230.544 73.91 231.237 74.29C231.937 74.67 232.514 75.18 232.967 75.82L231.107 76.83C230.827 76.4967 230.5 76.2433 230.127 76.07C229.754 75.89 229.37 75.8 228.977 75.8C228.43 75.8 227.934 75.95 227.487 76.25C227.047 76.5433 226.697 76.9333 226.437 77.42C226.184 77.9 226.057 78.4267 226.057 79C226.057 79.5667 226.187 80.0933 226.447 80.58C226.707 81.06 227.057 81.4467 227.497 81.74C227.944 82.0333 228.437 82.18 228.977 82.18C229.39 82.18 229.784 82.0867 230.157 81.9C230.53 81.7133 230.847 81.4667 231.107 81.16ZM238.938 84.26C238.018 84.26 237.178 84.0233 236.418 83.55C235.665 83.0767 235.061 82.4433 234.608 81.65C234.161 80.85 233.938 79.9667 233.938 79C233.938 78.2667 234.068 77.5833 234.328 76.95C234.588 76.31 234.945 75.75 235.398 75.27C235.858 74.7833 236.391 74.4033 236.998 74.13C237.605 73.8567 238.251 73.72 238.938 73.72C239.705 73.72 240.408 73.88 241.048 74.2C241.688 74.5133 242.235 74.95 242.688 75.51C243.141 76.0633 243.475 76.7033 243.688 77.43C243.901 78.15 243.965 78.9167 243.878 79.73H236.168C236.255 80.19 236.421 80.6067 236.668 80.98C236.921 81.3467 237.241 81.6367 237.628 81.85C238.021 82.0633 238.458 82.1733 238.938 82.18C239.445 82.18 239.905 82.0533 240.318 81.8C240.738 81.5467 241.081 81.1967 241.348 80.75L243.458 81.24C243.058 82.1267 242.455 82.8533 241.648 83.42C240.841 83.98 239.938 84.26 238.938 84.26ZM236.098 78.14H241.778C241.711 77.66 241.541 77.2267 241.268 76.84C241.001 76.4467 240.665 76.1367 240.258 75.91C239.858 75.6767 239.418 75.56 238.938 75.56C238.465 75.56 238.025 75.6733 237.618 75.9C237.218 76.1267 236.885 76.4367 236.618 76.83C236.358 77.2167 236.185 77.6533 236.098 78.14Z" fill="white"/>
<path id="Create custom trading strategies with our programmable interface and API." d="M23.9317 108.182C23.269 108.182 22.646 108.051 22.0627 107.79C21.4793 107.524 20.966 107.16 20.5227 106.698C20.084 106.231 19.7387 105.69 19.4867 105.074C19.2393 104.458 19.1157 103.8 19.1157 103.1C19.1157 102.4 19.2393 101.742 19.4867 101.126C19.7387 100.51 20.084 99.971 20.5227 99.509C20.966 99.0423 21.4793 98.6783 22.0627 98.417C22.646 98.151 23.269 98.018 23.9317 98.018C24.725 98.018 25.4553 98.2023 26.1227 98.571C26.79 98.9397 27.343 99.4297 27.7817 100.041L26.9137 100.51C26.5683 100.048 26.1297 99.6817 25.5977 99.411C25.0703 99.1357 24.515 98.998 23.9317 98.998C23.395 98.998 22.8933 99.1077 22.4267 99.327C21.9647 99.5417 21.5587 99.838 21.2087 100.216C20.8587 100.594 20.5857 101.03 20.3897 101.525C20.1937 102.02 20.0957 102.545 20.0957 103.1C20.0957 103.665 20.1937 104.194 20.3897 104.689C20.5903 105.184 20.8657 105.62 21.2157 105.998C21.5703 106.376 21.9787 106.672 22.4407 106.887C22.9073 107.097 23.4043 107.202 23.9317 107.202C24.5383 107.202 25.1007 107.064 25.6187 106.789C26.1413 106.509 26.573 106.145 26.9137 105.697L27.7817 106.166C27.343 106.777 26.79 107.267 26.1227 107.636C25.4553 108 24.725 108.182 23.9317 108.182ZM29.1984 108V101H30.1784V101.966C30.4257 101.611 30.7477 101.329 31.1444 101.119C31.5411 100.909 31.9727 100.804 32.4394 100.804C32.7101 100.804 32.9714 100.839 33.2234 100.909L32.8244 101.882C32.6284 101.821 32.4371 101.791 32.2504 101.791C31.8724 101.791 31.5247 101.884 31.2074 102.071C30.8947 102.258 30.6451 102.507 30.4584 102.82C30.2717 103.133 30.1784 103.48 30.1784 103.863V108H29.1984ZM36.8175 108.182C36.1735 108.182 35.5855 108.016 35.0535 107.685C34.5261 107.354 34.1038 106.91 33.7865 106.355C33.4738 105.795 33.3175 105.177 33.3175 104.5C33.3175 103.987 33.4085 103.508 33.5905 103.065C33.7725 102.617 34.0221 102.225 34.3395 101.889C34.6615 101.548 35.0348 101.282 35.4595 101.091C35.8841 100.9 36.3368 100.804 36.8175 100.804C37.3355 100.804 37.8115 100.907 38.2455 101.112C38.6841 101.317 39.0598 101.604 39.3725 101.973C39.6898 102.342 39.9278 102.773 40.0865 103.268C40.2498 103.763 40.3175 104.297 40.2895 104.871H34.3535C34.4095 105.314 34.5495 105.711 34.7735 106.061C35.0021 106.411 35.2915 106.689 35.6415 106.894C35.9961 107.095 36.3881 107.197 36.8175 107.202C37.2841 107.202 37.7041 107.081 38.0775 106.838C38.4555 106.595 38.7588 106.262 38.9875 105.837L39.9815 106.068C39.7015 106.689 39.2791 107.197 38.7145 107.594C38.1498 107.986 37.5175 108.182 36.8175 108.182ZM34.3255 104.08H39.3025C39.2698 103.646 39.1368 103.249 38.9035 102.89C38.6748 102.526 38.3785 102.237 38.0145 102.022C37.6505 101.803 37.2515 101.693 36.8175 101.693C36.3835 101.693 35.9868 101.8 35.6275 102.015C35.2681 102.225 34.9741 102.512 34.7455 102.876C34.5168 103.235 34.3768 103.637 34.3255 104.08ZM47.1751 101H48.1551V108H47.1751L47.1401 106.698C46.9114 107.141 46.5917 107.501 46.1811 107.776C45.7704 108.047 45.2804 108.182 44.7111 108.182C44.1977 108.182 43.7171 108.086 43.2691 107.895C42.8211 107.699 42.4267 107.431 42.0861 107.09C41.7454 106.749 41.4794 106.355 41.2881 105.907C41.0967 105.459 41.0011 104.978 41.0011 104.465C41.0011 103.961 41.0944 103.487 41.2811 103.044C41.4724 102.601 41.7337 102.211 42.0651 101.875C42.4011 101.539 42.7884 101.278 43.2271 101.091C43.6704 100.9 44.1441 100.804 44.6481 100.804C45.2314 100.804 45.7401 100.944 46.1741 101.224C46.6081 101.499 46.9534 101.861 47.2101 102.309L47.1751 101ZM44.6901 107.23C45.1894 107.23 45.6187 107.109 45.9781 106.866C46.3374 106.619 46.6127 106.287 46.8041 105.872C47.0001 105.457 47.0981 104.999 47.0981 104.5C47.0981 103.987 47.0001 103.525 46.8041 103.114C46.6081 102.699 46.3304 102.37 45.9711 102.127C45.6117 101.884 45.1847 101.763 44.6901 101.763C44.1954 101.763 43.7427 101.887 43.3321 102.134C42.9261 102.377 42.6017 102.706 42.3591 103.121C42.1211 103.536 42.0021 103.996 42.0021 104.5C42.0021 105.009 42.1257 105.471 42.3731 105.886C42.6204 106.297 42.9471 106.623 43.3531 106.866C43.7637 107.109 44.2094 107.23 44.6901 107.23ZM53.1328 101.98H51.4598L51.4528 108H50.4728L50.4798 101.98H49.2128V101H50.4798L50.4728 98.802H51.4528L51.4598 101H53.1328V101.98ZM57.2706 108.182C56.6266 108.182 56.0386 108.016 55.5066 107.685C54.9793 107.354 54.5569 106.91 54.2396 106.355C53.9269 105.795 53.7706 105.177 53.7706 104.5C53.7706 103.987 53.8616 103.508 54.0436 103.065C54.2256 102.617 54.4753 102.225 54.7926 101.889C55.1146 101.548 55.4879 101.282 55.9126 101.091C56.3373 100.9 56.7899 100.804 57.2706 100.804C57.7886 100.804 58.2646 100.907 58.6986 101.112C59.1373 101.317 59.5129 101.604 59.8256 101.973C60.1429 102.342 60.3809 102.773 60.5396 103.268C60.7029 103.763 60.7706 104.297 60.7426 104.871H54.8066C54.8626 105.314 55.0026 105.711 55.2266 106.061C55.4553 106.411 55.7446 106.689 56.0946 106.894C56.4493 107.095 56.8413 107.197 57.2706 107.202C57.7373 107.202 58.1573 107.081 58.5306 106.838C58.9086 106.595 59.2119 106.262 59.4406 105.837L60.4346 106.068C60.1546 106.689 59.7323 107.197 59.1676 107.594C58.6029 107.986 57.9706 108.182 57.2706 108.182ZM54.7786 104.08H59.7556C59.7229 103.646 59.5899 103.249 59.3566 102.89C59.1279 102.526 58.8316 102.237 58.4676 102.022C58.1036 101.803 57.7046 101.693 57.2706 101.693C56.8366 101.693 56.4399 101.8 56.0806 102.015C55.7213 102.225 55.4273 102.512 55.1986 102.876C54.9699 103.235 54.8299 103.637 54.7786 104.08ZM70.3722 106.243L71.2472 106.719C70.9298 107.162 70.5262 107.517 70.0362 107.783C69.5508 108.049 69.0235 108.182 68.4542 108.182C67.8102 108.182 67.2222 108.016 66.6902 107.685C66.1628 107.354 65.7405 106.91 65.4232 106.355C65.1105 105.795 64.9542 105.177 64.9542 104.5C64.9542 103.987 65.0452 103.508 65.2272 103.065C65.4092 102.617 65.6588 102.225 65.9762 101.889C66.2982 101.548 66.6715 101.282 67.0962 101.091C67.5208 100.9 67.9735 100.804 68.4542 100.804C69.0235 100.804 69.5508 100.937 70.0362 101.203C70.5262 101.469 70.9298 101.826 71.2472 102.274L70.3722 102.743C70.1295 102.435 69.8378 102.199 69.4972 102.036C69.1565 101.868 68.8088 101.784 68.4542 101.784C67.9828 101.784 67.5558 101.91 67.1732 102.162C66.7905 102.409 66.4872 102.738 66.2632 103.149C66.0438 103.56 65.9342 104.01 65.9342 104.5C65.9342 104.99 66.0462 105.44 66.2702 105.851C66.4988 106.262 66.8045 106.591 67.1872 106.838C67.5698 107.081 67.9922 107.202 68.4542 107.202C68.8368 107.202 69.1962 107.113 69.5322 106.936C69.8682 106.759 70.1482 106.528 70.3722 106.243ZM72.1625 105.319V101H73.1425V105.123C73.1425 105.506 73.2359 105.853 73.4225 106.166C73.6092 106.479 73.8589 106.728 74.1715 106.915C74.4889 107.102 74.8365 107.195 75.2145 107.195C75.5972 107.195 75.9425 107.102 76.2505 106.915C76.5632 106.728 76.8129 106.479 76.9995 106.166C77.1862 105.853 77.2795 105.506 77.2795 105.123V101H78.2595L78.2665 108H77.2865L77.2795 107.02C77.0322 107.375 76.7102 107.657 76.3135 107.867C75.9215 108.077 75.4922 108.182 75.0255 108.182C74.4982 108.182 74.0175 108.054 73.5835 107.797C73.1495 107.54 72.8042 107.195 72.5475 106.761C72.2909 106.327 72.1625 105.846 72.1625 105.319ZM81.8243 108.133C81.4416 108.124 81.0683 108.054 80.7043 107.923C80.3403 107.792 80.023 107.615 79.7523 107.391C79.4816 107.167 79.288 106.913 79.1713 106.628L80.0183 106.264C80.093 106.446 80.2306 106.614 80.4313 106.768C80.6366 106.917 80.87 107.039 81.1313 107.132C81.3926 107.221 81.6516 107.265 81.9083 107.265C82.193 107.265 82.459 107.218 82.7063 107.125C82.9536 107.032 83.1543 106.899 83.3083 106.726C83.467 106.549 83.5463 106.341 83.5463 106.103C83.5463 105.846 83.4623 105.646 83.2943 105.501C83.1263 105.352 82.914 105.235 82.6573 105.151C82.4006 105.062 82.137 104.978 81.8663 104.899C81.3716 104.764 80.9353 104.614 80.5573 104.451C80.1793 104.288 79.883 104.08 79.6683 103.828C79.4583 103.571 79.3533 103.242 79.3533 102.841C79.3533 102.416 79.4723 102.05 79.7103 101.742C79.953 101.429 80.268 101.189 80.6553 101.021C81.0473 100.848 81.465 100.762 81.9083 100.762C82.4776 100.762 82.9956 100.886 83.4623 101.133C83.9336 101.38 84.2743 101.709 84.4843 102.12L83.6933 102.589C83.6093 102.398 83.4763 102.232 83.2943 102.092C83.1123 101.952 82.9046 101.842 82.6713 101.763C82.4426 101.684 82.2093 101.642 81.9713 101.637C81.6726 101.632 81.395 101.677 81.1383 101.77C80.8816 101.859 80.674 101.992 80.5153 102.169C80.3613 102.346 80.2843 102.563 80.2843 102.82C80.2843 103.077 80.3613 103.273 80.5153 103.408C80.6693 103.539 80.877 103.646 81.1383 103.73C81.4043 103.809 81.703 103.903 82.0343 104.01C82.459 104.145 82.858 104.299 83.2313 104.472C83.6046 104.645 83.9056 104.859 84.1343 105.116C84.363 105.373 84.475 105.697 84.4703 106.089C84.4703 106.509 84.3443 106.875 84.0923 107.188C83.8403 107.501 83.5136 107.741 83.1123 107.909C82.711 108.072 82.2816 108.147 81.8243 108.133ZM89.2539 101.98H87.5809L87.5739 108H86.5939L86.6009 101.98H85.3339V101H86.6009L86.5939 98.802H87.5739L87.5809 101H89.2539V101.98ZM93.3917 108.182C92.7477 108.182 92.1597 108.016 91.6277 107.685C91.1003 107.354 90.678 106.91 90.3607 106.355C90.048 105.795 89.8917 105.177 89.8917 104.5C89.8917 103.987 89.9827 103.508 90.1647 103.065C90.3467 102.617 90.5963 102.225 90.9137 101.889C91.2357 101.548 91.609 101.282 92.0337 101.091C92.4583 100.9 92.911 100.804 93.3917 100.804C94.0357 100.804 94.6213 100.97 95.1487 101.301C95.6807 101.632 96.103 102.078 96.4157 102.638C96.733 103.198 96.8917 103.819 96.8917 104.5C96.8917 105.009 96.8007 105.485 96.6187 105.928C96.4367 106.371 96.1847 106.763 95.8627 107.104C95.5453 107.44 95.1743 107.704 94.7497 107.895C94.3297 108.086 93.877 108.182 93.3917 108.182ZM93.3917 107.202C93.8677 107.202 94.2947 107.078 94.6727 106.831C95.0553 106.579 95.3563 106.248 95.5757 105.837C95.7997 105.426 95.9117 104.981 95.9117 104.5C95.9117 104.01 95.7997 103.56 95.5757 103.149C95.3517 102.734 95.0483 102.402 94.6657 102.155C94.2877 101.908 93.863 101.784 93.3917 101.784C92.9157 101.784 92.4863 101.91 92.1037 102.162C91.7257 102.409 91.4247 102.738 91.2007 103.149C90.9813 103.56 90.8717 104.01 90.8717 104.5C90.8717 105.004 90.986 105.461 91.2147 105.872C91.4433 106.278 91.749 106.602 92.1317 106.845C92.5143 107.083 92.9343 107.202 93.3917 107.202ZM98.0773 108V101H99.0573V101.966C99.3093 101.611 99.6313 101.329 100.023 101.119C100.415 100.909 100.845 100.804 101.311 100.804C101.839 100.804 102.322 100.935 102.76 101.196C103.199 101.453 103.542 101.796 103.789 102.225C104.037 101.796 104.377 101.453 104.811 101.196C105.245 100.935 105.726 100.804 106.253 100.804C106.781 100.804 107.261 100.932 107.695 101.189C108.129 101.446 108.475 101.791 108.731 102.225C108.988 102.659 109.116 103.14 109.116 103.667V108H108.136V103.884C108.136 103.511 108.045 103.165 107.863 102.848C107.681 102.531 107.436 102.276 107.128 102.085C106.825 101.889 106.487 101.791 106.113 101.791C105.74 101.791 105.399 101.882 105.091 102.064C104.788 102.241 104.545 102.489 104.363 102.806C104.181 103.119 104.09 103.478 104.09 103.884V108H103.11V103.884C103.11 103.478 103.019 103.119 102.837 102.806C102.655 102.489 102.41 102.241 102.102 102.064C101.794 101.882 101.454 101.791 101.08 101.791C100.712 101.791 100.373 101.889 100.065 102.085C99.7573 102.276 99.5123 102.531 99.3303 102.848C99.1483 103.165 99.0573 103.511 99.0573 103.884V108H98.0773ZM117.459 101.98H115.786L115.779 108H114.799L114.806 101.98H113.539V101H114.806L114.799 98.802H115.779L115.786 101H117.459V101.98ZM118.708 108V101H119.688V101.966C119.935 101.611 120.257 101.329 120.654 101.119C121.051 100.909 121.482 100.804 121.949 100.804C122.22 100.804 122.481 100.839 122.733 100.909L122.334 101.882C122.138 101.821 121.947 101.791 121.76 101.791C121.382 101.791 121.034 101.884 120.717 102.071C120.404 102.258 120.155 102.507 119.968 102.82C119.781 103.133 119.688 103.48 119.688 103.863V108H118.708ZM129.001 101H129.981V108H129.001L128.966 106.698C128.738 107.141 128.418 107.501 128.007 107.776C127.597 108.047 127.107 108.182 126.537 108.182C126.024 108.182 125.543 108.086 125.095 107.895C124.647 107.699 124.253 107.431 123.912 107.09C123.572 106.749 123.306 106.355 123.114 105.907C122.923 105.459 122.827 104.978 122.827 104.465C122.827 103.961 122.921 103.487 123.107 103.044C123.299 102.601 123.56 102.211 123.891 101.875C124.227 101.539 124.615 101.278 125.053 101.091C125.497 100.9 125.97 100.804 126.474 100.804C127.058 100.804 127.566 100.944 128 101.224C128.434 101.499 128.78 101.861 129.036 102.309L129.001 101ZM126.516 107.23C127.016 107.23 127.445 107.109 127.804 106.866C128.164 106.619 128.439 106.287 128.63 105.872C128.826 105.457 128.924 104.999 128.924 104.5C128.924 103.987 128.826 103.525 128.63 103.114C128.434 102.699 128.157 102.37 127.797 102.127C127.438 101.884 127.011 101.763 126.516 101.763C126.022 101.763 125.569 101.887 125.158 102.134C124.752 102.377 124.428 102.706 124.185 103.121C123.947 103.536 123.828 103.996 123.828 104.5C123.828 105.009 123.952 105.471 124.199 105.886C124.447 106.297 124.773 106.623 125.179 106.866C125.59 107.109 126.036 107.23 126.516 107.23ZM137.006 97.5H137.986V108H137.006V106.691C136.764 107.139 136.43 107.501 136.005 107.776C135.585 108.047 135.086 108.182 134.507 108.182C133.999 108.182 133.523 108.086 133.079 107.895C132.636 107.704 132.244 107.44 131.903 107.104C131.567 106.763 131.304 106.371 131.112 105.928C130.921 105.485 130.825 105.009 130.825 104.5C130.825 103.991 130.921 103.515 131.112 103.072C131.304 102.624 131.567 102.232 131.903 101.896C132.244 101.555 132.636 101.289 133.079 101.098C133.523 100.907 133.999 100.811 134.507 100.811C135.086 100.811 135.585 100.949 136.005 101.224C136.43 101.495 136.764 101.852 137.006 102.295V97.5ZM134.514 107.23C135.014 107.23 135.443 107.109 135.802 106.866C136.162 106.619 136.437 106.287 136.628 105.872C136.824 105.457 136.922 104.999 136.922 104.5C136.922 103.987 136.824 103.525 136.628 103.114C136.432 102.699 136.155 102.37 135.795 102.127C135.436 101.884 135.009 101.763 134.514 101.763C134.02 101.763 133.569 101.887 133.163 102.134C132.757 102.377 132.433 102.706 132.19 103.121C131.948 103.536 131.826 103.996 131.826 104.5C131.826 105.009 131.95 105.471 132.197 105.886C132.445 106.297 132.771 106.623 133.177 106.866C133.588 107.109 134.034 107.23 134.514 107.23ZM139.667 101H140.647V108H139.667V101ZM140.164 99.775C140.005 99.775 139.87 99.7237 139.758 99.621C139.651 99.5137 139.597 99.3807 139.597 99.222C139.597 99.0633 139.651 98.9327 139.758 98.83C139.87 98.7227 140.005 98.669 140.164 98.669C140.318 98.669 140.449 98.7227 140.556 98.83C140.668 98.9327 140.724 99.0633 140.724 99.222C140.724 99.3807 140.67 99.5137 140.563 99.621C140.456 99.7237 140.323 99.775 140.164 99.775ZM148.41 103.667V108H147.43V103.863C147.43 103.48 147.336 103.133 147.15 102.82C146.963 102.507 146.713 102.258 146.401 102.071C146.088 101.884 145.74 101.791 145.358 101.791C144.98 101.791 144.632 101.884 144.315 102.071C144.002 102.258 143.752 102.507 143.566 102.82C143.379 103.133 143.286 103.48 143.286 103.863V108H142.306V101H143.286V101.966C143.533 101.611 143.855 101.329 144.252 101.119C144.648 100.909 145.08 100.804 145.547 100.804C146.074 100.804 146.555 100.932 146.989 101.189C147.423 101.446 147.768 101.791 148.025 102.225C148.281 102.659 148.41 103.14 148.41 103.667ZM155.24 101H156.22V108.259C156.22 108.707 156.122 109.127 155.926 109.519C155.735 109.911 155.473 110.254 155.142 110.548C154.815 110.847 154.442 111.08 154.022 111.248C153.602 111.416 153.166 111.5 152.713 111.5C152.228 111.5 151.759 111.388 151.306 111.164C150.853 110.945 150.459 110.651 150.123 110.282C149.792 109.913 149.556 109.505 149.416 109.057L150.319 108.644C150.408 108.994 150.573 109.309 150.816 109.589C151.063 109.874 151.353 110.098 151.684 110.261C152.02 110.429 152.363 110.513 152.713 110.513C153.035 110.513 153.345 110.452 153.644 110.331C153.947 110.214 154.218 110.053 154.456 109.848C154.699 109.643 154.89 109.402 155.03 109.127C155.17 108.856 155.24 108.567 155.24 108.259V106.712C154.997 107.151 154.668 107.505 154.253 107.776C153.842 108.047 153.364 108.182 152.818 108.182C152.328 108.182 151.866 108.086 151.432 107.895C151.003 107.704 150.625 107.44 150.298 107.104C149.971 106.763 149.715 106.371 149.528 105.928C149.346 105.485 149.255 105.009 149.255 104.5C149.255 103.991 149.346 103.515 149.528 103.072C149.715 102.624 149.971 102.232 150.298 101.896C150.625 101.555 151.003 101.289 151.432 101.098C151.866 100.907 152.328 100.811 152.818 100.811C153.364 100.811 153.842 100.946 154.253 101.217C154.668 101.483 154.997 101.838 155.24 102.281V101ZM152.825 107.23C153.31 107.23 153.728 107.104 154.078 106.852C154.433 106.6 154.706 106.266 154.897 105.851C155.088 105.436 155.184 104.985 155.184 104.5C155.184 104.001 155.086 103.546 154.89 103.135C154.699 102.72 154.426 102.388 154.071 102.141C153.716 101.889 153.301 101.763 152.825 101.763C152.349 101.763 151.915 101.887 151.523 102.134C151.136 102.377 150.828 102.706 150.599 103.121C150.37 103.536 150.256 103.996 150.256 104.5C150.256 105.004 150.373 105.464 150.606 105.879C150.839 106.29 151.15 106.619 151.537 106.866C151.929 107.109 152.358 107.23 152.825 107.23ZM163.432 108.133C163.049 108.124 162.676 108.054 162.312 107.923C161.948 107.792 161.63 107.615 161.36 107.391C161.089 107.167 160.895 106.913 160.779 106.628L161.626 106.264C161.7 106.446 161.838 106.614 162.039 106.768C162.244 106.917 162.477 107.039 162.739 107.132C163 107.221 163.259 107.265 163.516 107.265C163.8 107.265 164.066 107.218 164.314 107.125C164.561 107.032 164.762 106.899 164.916 106.726C165.074 106.549 165.154 106.341 165.154 106.103C165.154 105.846 165.07 105.646 164.902 105.501C164.734 105.352 164.521 105.235 164.265 105.151C164.008 105.062 163.744 104.978 163.474 104.899C162.979 104.764 162.543 104.614 162.165 104.451C161.787 104.288 161.49 104.08 161.276 103.828C161.066 103.571 160.961 103.242 160.961 102.841C160.961 102.416 161.08 102.05 161.318 101.742C161.56 101.429 161.875 101.189 162.263 101.021C162.655 100.848 163.072 100.762 163.516 100.762C164.085 100.762 164.603 100.886 165.07 101.133C165.541 101.38 165.882 101.709 166.092 102.12L165.301 102.589C165.217 102.398 165.084 102.232 164.902 102.092C164.72 101.952 164.512 101.842 164.279 101.763C164.05 101.684 163.817 101.642 163.579 101.637C163.28 101.632 163.002 101.677 162.746 101.77C162.489 101.859 162.281 101.992 162.123 102.169C161.969 102.346 161.892 102.563 161.892 102.82C161.892 103.077 161.969 103.273 162.123 103.408C162.277 103.539 162.484 103.646 162.746 103.73C163.012 103.809 163.31 103.903 163.642 104.01C164.066 104.145 164.465 104.299 164.839 104.472C165.212 104.645 165.513 104.859 165.742 105.116C165.97 105.373 166.082 105.697 166.078 106.089C166.078 106.509 165.952 106.875 165.7 107.188C165.448 107.501 165.121 107.741 164.72 107.909C164.318 108.072 163.889 108.147 163.432 108.133ZM170.861 101.98H169.188L169.181 108H168.201L168.208 101.98H166.941V101H168.208L168.201 98.802H169.181L169.188 101H170.861V101.98ZM172.111 108V101H173.091V101.966C173.338 101.611 173.66 101.329 174.057 101.119C174.453 100.909 174.885 100.804 175.352 100.804C175.622 100.804 175.884 100.839 176.136 100.909L175.737 101.882C175.541 101.821 175.349 101.791 175.163 101.791C174.785 101.791 174.437 101.884 174.12 102.071C173.807 102.258 173.557 102.507 173.371 102.82C173.184 103.133 173.091 103.48 173.091 103.863V108H172.111ZM182.404 101H183.384V108H182.404L182.369 106.698C182.14 107.141 181.82 107.501 181.41 107.776C180.999 108.047 180.509 108.182 179.94 108.182C179.426 108.182 178.946 108.086 178.498 107.895C178.05 107.699 177.655 107.431 177.315 107.09C176.974 106.749 176.708 106.355 176.517 105.907C176.325 105.459 176.23 104.978 176.23 104.465C176.23 103.961 176.323 103.487 176.51 103.044C176.701 102.601 176.962 102.211 177.294 101.875C177.63 101.539 178.017 101.278 178.456 101.091C178.899 100.9 179.373 100.804 179.877 100.804C180.46 100.804 180.969 100.944 181.403 101.224C181.837 101.499 182.182 101.861 182.439 102.309L182.404 101ZM179.919 107.23C180.418 107.23 180.847 107.109 181.207 106.866C181.566 106.619 181.841 106.287 182.033 105.872C182.229 105.457 182.327 104.999 182.327 104.5C182.327 103.987 182.229 103.525 182.033 103.114C181.837 102.699 181.559 102.37 181.2 102.127C180.84 101.884 180.413 101.763 179.919 101.763C179.424 101.763 178.971 101.887 178.561 102.134C178.155 102.377 177.83 102.706 177.588 103.121C177.35 103.536 177.231 103.996 177.231 104.5C177.231 105.009 177.354 105.471 177.602 105.886C177.849 106.297 178.176 106.623 178.582 106.866C178.992 107.109 179.438 107.23 179.919 107.23ZM188.361 101.98H186.688L186.681 108H185.701L185.708 101.98H184.441V101H185.708L185.701 98.802H186.681L186.688 101H188.361V101.98ZM192.499 108.182C191.855 108.182 191.267 108.016 190.735 107.685C190.208 107.354 189.785 106.91 189.468 106.355C189.155 105.795 188.999 105.177 188.999 104.5C188.999 103.987 189.09 103.508 189.272 103.065C189.454 102.617 189.704 102.225 190.021 101.889C190.343 101.548 190.716 101.282 191.141 101.091C191.566 100.9 192.018 100.804 192.499 100.804C193.017 100.804 193.493 100.907 193.927 101.112C194.366 101.317 194.741 101.604 195.054 101.973C195.371 102.342 195.609 102.773 195.768 103.268C195.931 103.763 195.999 104.297 195.971 104.871H190.035C190.091 105.314 190.231 105.711 190.455 106.061C190.684 106.411 190.973 106.689 191.323 106.894C191.678 107.095 192.07 107.197 192.499 107.202C192.966 107.202 193.386 107.081 193.759 106.838C194.137 106.595 194.44 106.262 194.669 105.837L195.663 106.068C195.383 106.689 194.961 107.197 194.396 107.594C193.831 107.986 193.199 108.182 192.499 108.182ZM190.007 104.08H194.984C194.951 103.646 194.818 103.249 194.585 102.89C194.356 102.526 194.06 102.237 193.696 102.022C193.332 101.803 192.933 101.693 192.499 101.693C192.065 101.693 191.668 101.8 191.309 102.015C190.95 102.225 190.656 102.512 190.427 102.876C190.198 103.235 190.058 103.637 190.007 104.08ZM202.668 101H203.648V108.259C203.648 108.707 203.55 109.127 203.354 109.519C203.162 109.911 202.901 110.254 202.57 110.548C202.243 110.847 201.87 111.08 201.45 111.248C201.03 111.416 200.593 111.5 200.141 111.5C199.655 111.5 199.186 111.388 198.734 111.164C198.281 110.945 197.887 110.651 197.551 110.282C197.219 109.913 196.984 109.505 196.844 109.057L197.747 108.644C197.835 108.994 198.001 109.309 198.244 109.589C198.491 109.874 198.78 110.098 199.112 110.261C199.448 110.429 199.791 110.513 200.141 110.513C200.463 110.513 200.773 110.452 201.072 110.331C201.375 110.214 201.646 110.053 201.884 109.848C202.126 109.643 202.318 109.402 202.458 109.127C202.598 108.856 202.668 108.567 202.668 108.259V106.712C202.425 107.151 202.096 107.505 201.681 107.776C201.27 108.047 200.792 108.182 200.246 108.182C199.756 108.182 199.294 108.086 198.86 107.895C198.43 107.704 198.052 107.44 197.726 107.104C197.399 106.763 197.142 106.371 196.956 105.928C196.774 105.485 196.683 105.009 196.683 104.5C196.683 103.991 196.774 103.515 196.956 103.072C197.142 102.624 197.399 102.232 197.726 101.896C198.052 101.555 198.43 101.289 198.86 101.098C199.294 100.907 199.756 100.811 200.246 100.811C200.792 100.811 201.27 100.946 201.681 101.217C202.096 101.483 202.425 101.838 202.668 102.281V101ZM200.253 107.23C200.738 107.23 201.156 107.104 201.506 106.852C201.86 106.6 202.133 106.266 202.325 105.851C202.516 105.436 202.612 104.985 202.612 104.5C202.612 104.001 202.514 103.546 202.318 103.135C202.126 102.72 201.853 102.388 201.499 102.141C201.144 101.889 200.729 101.763 200.253 101.763C199.777 101.763 199.343 101.887 198.951 102.134C198.563 102.377 198.255 102.706 198.027 103.121C197.798 103.536 197.684 103.996 197.684 104.5C197.684 105.004 197.8 105.464 198.034 105.879C198.267 106.29 198.577 106.619 198.965 106.866C199.357 107.109 199.786 107.23 200.253 107.23ZM205.265 101H206.245V108H205.265V101ZM205.762 99.775C205.603 99.775 205.468 99.7237 205.356 99.621C205.248 99.5137 205.195 99.3807 205.195 99.222C205.195 99.0633 205.248 98.9327 205.356 98.83C205.468 98.7227 205.603 98.669 205.762 98.669C205.916 98.669 206.046 98.7227 206.154 98.83C206.266 98.9327 206.322 99.0633 206.322 99.222C206.322 99.3807 206.268 99.5137 206.161 99.621C206.053 99.7237 205.92 99.775 205.762 99.775ZM210.942 108.182C210.298 108.182 209.71 108.016 209.178 107.685C208.651 107.354 208.229 106.91 207.911 106.355C207.599 105.795 207.442 105.177 207.442 104.5C207.442 103.987 207.533 103.508 207.715 103.065C207.897 102.617 208.147 102.225 208.464 101.889C208.786 101.548 209.16 101.282 209.584 101.091C210.009 100.9 210.462 100.804 210.942 100.804C211.46 100.804 211.936 100.907 212.37 101.112C212.809 101.317 213.185 101.604 213.497 101.973C213.815 102.342 214.053 102.773 214.211 103.268C214.375 103.763 214.442 104.297 214.414 104.871H208.478C208.534 105.314 208.674 105.711 208.898 106.061C209.127 106.411 209.416 106.689 209.766 106.894C210.121 107.095 210.513 107.197 210.942 107.202C211.409 107.202 211.829 107.081 212.202 106.838C212.58 106.595 212.884 106.262 213.112 105.837L214.106 106.068C213.826 106.689 213.404 107.197 212.839 107.594C212.275 107.986 211.642 108.182 210.942 108.182ZM208.45 104.08H213.427C213.395 103.646 213.262 103.249 213.028 102.89C212.8 102.526 212.503 102.237 212.139 102.022C211.775 101.803 211.376 101.693 210.942 101.693C210.508 101.693 210.112 101.8 209.752 102.015C209.393 102.225 209.099 102.512 208.87 102.876C208.642 103.235 208.502 103.637 208.45 104.08ZM217.791 108.133C217.408 108.124 217.035 108.054 216.671 107.923C216.307 107.792 215.99 107.615 215.719 107.391C215.448 107.167 215.255 106.913 215.138 106.628L215.985 106.264C216.06 106.446 216.197 106.614 216.398 106.768C216.603 106.917 216.837 107.039 217.098 107.132C217.359 107.221 217.618 107.265 217.875 107.265C218.16 107.265 218.426 107.218 218.673 107.125C218.92 107.032 219.121 106.899 219.275 106.726C219.434 106.549 219.513 106.341 219.513 106.103C219.513 105.846 219.429 105.646 219.261 105.501C219.093 105.352 218.881 105.235 218.624 105.151C218.367 105.062 218.104 104.978 217.833 104.899C217.338 104.764 216.902 104.614 216.524 104.451C216.146 104.288 215.85 104.08 215.635 103.828C215.425 103.571 215.32 103.242 215.32 102.841C215.32 102.416 215.439 102.05 215.677 101.742C215.92 101.429 216.235 101.189 216.622 101.021C217.014 100.848 217.432 100.762 217.875 100.762C218.444 100.762 218.962 100.886 219.429 101.133C219.9 101.38 220.241 101.709 220.451 102.12L219.66 102.589C219.576 102.398 219.443 102.232 219.261 102.092C219.079 101.952 218.871 101.842 218.638 101.763C218.409 101.684 218.176 101.642 217.938 101.637C217.639 101.632 217.362 101.677 217.105 101.77C216.848 101.859 216.641 101.992 216.482 102.169C216.328 102.346 216.251 102.563 216.251 102.82C216.251 103.077 216.328 103.273 216.482 103.408C216.636 103.539 216.844 103.646 217.105 103.73C217.371 103.809 217.67 103.903 218.001 104.01C218.426 104.145 218.825 104.299 219.198 104.472C219.571 104.645 219.872 104.859 220.101 105.116C220.33 105.373 220.442 105.697 220.437 106.089C220.437 106.509 220.311 106.875 220.059 107.188C219.807 107.501 219.48 107.741 219.079 107.909C218.678 108.072 218.248 108.147 217.791 108.133ZM227.94 108H226.932L224.587 101H225.546L227.45 106.642L229.34 101H230.376L232.266 106.642L234.156 101H235.122L232.777 108H231.762L229.844 102.302L227.94 108ZM236.286 101H237.266V108H236.286V101ZM236.783 99.775C236.625 99.775 236.489 99.7237 236.377 99.621C236.27 99.5137 236.216 99.3807 236.216 99.222C236.216 99.0633 236.27 98.9327 236.377 98.83C236.489 98.7227 236.625 98.669 236.783 98.669C236.937 98.669 237.068 98.7227 237.175 98.83C237.287 98.9327 237.343 99.0633 237.343 99.222C237.343 99.3807 237.29 99.5137 237.182 99.621C237.075 99.7237 236.942 99.775 236.783 99.775ZM242.529 101.98H240.856L240.849 108H239.869L239.876 101.98H238.609V101H239.876L239.869 98.802H240.849L240.856 101H242.529V101.98ZM249.882 103.667V108H248.902V103.863C248.902 103.48 248.809 103.133 248.622 102.82C248.436 102.507 248.186 102.258 247.873 102.071C247.561 101.884 247.213 101.791 246.83 101.791C246.452 101.791 246.105 101.884 245.787 102.071C245.475 102.258 245.225 102.507 245.038 102.82C244.852 103.133 244.758 103.48 244.758 103.863V108H243.778V97.5H244.758V101.966C245.006 101.611 245.328 101.329 245.724 101.119C246.121 100.909 246.553 100.804 247.019 100.804C247.547 100.804 248.027 100.932 248.461 101.189C248.895 101.446 249.241 101.791 249.497 102.225C249.754 102.659 249.882 103.14 249.882 103.667ZM24.4239 127.182C23.7799 127.182 23.1919 127.016 22.6599 126.685C22.1326 126.354 21.7102 125.91 21.3929 125.355C21.0802 124.795 20.9239 124.177 20.9239 123.5C20.9239 122.987 21.0149 122.508 21.1969 122.065C21.3789 121.617 21.6286 121.225 21.9459 120.889C22.2679 120.548 22.6412 120.282 23.0659 120.091C23.4906 119.9 23.9432 119.804 24.4239 119.804C25.0679 119.804 25.6536 119.97 26.1809 120.301C26.7129 120.632 27.1352 121.078 27.4479 121.638C27.7652 122.198 27.9239 122.819 27.9239 123.5C27.9239 124.009 27.8329 124.485 27.6509 124.928C27.4689 125.371 27.2169 125.763 26.8949 126.104C26.5776 126.44 26.2066 126.704 25.7819 126.895C25.3619 127.086 24.9092 127.182 24.4239 127.182ZM24.4239 126.202C24.8999 126.202 25.3269 126.078 25.7049 125.831C26.0876 125.579 26.3886 125.248 26.6079 124.837C26.8319 124.426 26.9439 123.981 26.9439 123.5C26.9439 123.01 26.8319 122.56 26.6079 122.149C26.3839 121.734 26.0806 121.402 25.6979 121.155C25.3199 120.908 24.8952 120.784 24.4239 120.784C23.9479 120.784 23.5186 120.91 23.1359 121.162C22.7579 121.409 22.4569 121.738 22.2329 122.149C22.0136 122.56 21.9039 123.01 21.9039 123.5C21.9039 124.004 22.0182 124.461 22.2469 124.872C22.4756 125.278 22.7812 125.602 23.1639 125.845C23.5466 126.083 23.9666 126.202 24.4239 126.202ZM28.7612 124.319V120H29.7412V124.123C29.7412 124.506 29.8345 124.853 30.0212 125.166C30.2078 125.479 30.4575 125.728 30.7702 125.915C31.0875 126.102 31.4352 126.195 31.8132 126.195C32.1958 126.195 32.5412 126.102 32.8492 125.915C33.1618 125.728 33.4115 125.479 33.5982 125.166C33.7848 124.853 33.8782 124.506 33.8782 124.123V120H34.8582L34.8652 127H33.8852L33.8782 126.02C33.6308 126.375 33.3088 126.657 32.9122 126.867C32.5202 127.077 32.0908 127.182 31.6242 127.182C31.0968 127.182 30.6162 127.054 30.1822 126.797C29.7482 126.54 29.4028 126.195 29.1462 125.761C28.8895 125.327 28.7612 124.846 28.7612 124.319ZM36.2599 127V120H37.2399V120.966C37.4873 120.611 37.8093 120.329 38.2059 120.119C38.6026 119.909 39.0343 119.804 39.5009 119.804C39.7716 119.804 40.0329 119.839 40.2849 119.909L39.8859 120.882C39.6899 120.821 39.4986 120.791 39.3119 120.791C38.9339 120.791 38.5863 120.884 38.2689 121.071C37.9563 121.258 37.7066 121.507 37.5199 121.82C37.3333 122.133 37.2399 122.48 37.2399 122.863V127H36.2599ZM45.6071 130.5H44.6271V120H45.6071V121.309C45.8498 120.866 46.1811 120.506 46.6011 120.231C47.0211 119.956 47.5204 119.818 48.0991 119.818C48.6078 119.818 49.0838 119.914 49.5271 120.105C49.9751 120.296 50.3671 120.562 50.7031 120.903C51.0391 121.239 51.3028 121.629 51.4941 122.072C51.6854 122.515 51.7811 122.991 51.7811 123.5C51.7811 124.009 51.6854 124.487 51.4941 124.935C51.3028 125.383 51.0391 125.777 50.7031 126.118C50.3671 126.454 49.9751 126.718 49.5271 126.909C49.0838 127.1 48.6078 127.196 48.0991 127.196C47.5204 127.196 47.0211 127.058 46.6011 126.783C46.1811 126.508 45.8498 126.148 45.6071 125.705V130.5ZM48.0921 120.77C47.6021 120.77 47.1751 120.894 46.8111 121.141C46.4518 121.384 46.1741 121.71 45.9781 122.121C45.7821 122.532 45.6841 122.991 45.6841 123.5C45.6841 123.999 45.7798 124.457 45.9711 124.872C46.1671 125.287 46.4448 125.619 46.8041 125.866C47.1681 126.113 47.5974 126.237 48.0921 126.237C48.5774 126.237 49.0231 126.116 49.4291 125.873C49.8398 125.63 50.1688 125.304 50.4161 124.893C50.6634 124.478 50.7871 124.013 50.7871 123.5C50.7871 123.001 50.6658 122.546 50.4231 122.135C50.1804 121.72 49.8561 121.388 49.4501 121.141C49.0441 120.894 48.5914 120.77 48.0921 120.77ZM52.967 127V120H53.947V120.966C54.1943 120.611 54.5163 120.329 54.913 120.119C55.3096 119.909 55.7413 119.804 56.208 119.804C56.4786 119.804 56.74 119.839 56.992 119.909L56.593 120.882C56.397 120.821 56.2056 120.791 56.019 120.791C55.641 120.791 55.2933 120.884 54.976 121.071C54.6633 121.258 54.4136 121.507 54.227 121.82C54.0403 122.133 53.947 122.48 53.947 122.863V127H52.967ZM60.586 127.182C59.942 127.182 59.354 127.016 58.822 126.685C58.2947 126.354 57.8723 125.91 57.555 125.355C57.2423 124.795 57.086 124.177 57.086 123.5C57.086 122.987 57.177 122.508 57.359 122.065C57.541 121.617 57.7907 121.225 58.108 120.889C58.43 120.548 58.8033 120.282 59.228 120.091C59.6527 119.9 60.1053 119.804 60.586 119.804C61.23 119.804 61.8157 119.97 62.343 120.301C62.875 120.632 63.2973 121.078 63.61 121.638C63.9273 122.198 64.086 122.819 64.086 123.5C64.086 124.009 63.995 124.485 63.813 124.928C63.631 125.371 63.379 125.763 63.057 126.104C62.7397 126.44 62.3687 126.704 61.944 126.895C61.524 127.086 61.0713 127.182 60.586 127.182ZM60.586 126.202C61.062 126.202 61.489 126.078 61.867 125.831C62.2497 125.579 62.5507 125.248 62.77 124.837C62.994 124.426 63.106 123.981 63.106 123.5C63.106 123.01 62.994 122.56 62.77 122.149C62.546 121.734 62.2427 121.402 61.86 121.155C61.482 120.908 61.0573 120.784 60.586 120.784C60.11 120.784 59.6807 120.91 59.298 121.162C58.92 121.409 58.619 121.738 58.395 122.149C58.1757 122.56 58.066 123.01 58.066 123.5C58.066 124.004 58.1803 124.461 58.409 124.872C58.6377 125.278 58.9433 125.602 59.326 125.845C59.7087 126.083 60.1287 126.202 60.586 126.202ZM70.7683 120H71.7483V127.259C71.7483 127.707 71.6503 128.127 71.4543 128.519C71.2629 128.911 71.0016 129.254 70.6703 129.548C70.3436 129.847 69.9703 130.08 69.5503 130.248C69.1303 130.416 68.6939 130.5 68.2413 130.5C67.7559 130.5 67.2869 130.388 66.8343 130.164C66.3816 129.945 65.9873 129.651 65.6513 129.282C65.3199 128.913 65.0843 128.505 64.9443 128.057L65.8473 127.644C65.9359 127.994 66.1016 128.309 66.3443 128.589C66.5916 128.874 66.8809 129.098 67.2123 129.261C67.5483 129.429 67.8913 129.513 68.2413 129.513C68.5633 129.513 68.8736 129.452 69.1723 129.331C69.4756 129.214 69.7463 129.053 69.9843 128.848C70.2269 128.643 70.4183 128.402 70.5583 128.127C70.6983 127.856 70.7683 127.567 70.7683 127.259V125.712C70.5256 126.151 70.1966 126.505 69.7813 126.776C69.3706 127.047 68.8923 127.182 68.3463 127.182C67.8563 127.182 67.3943 127.086 66.9603 126.895C66.5309 126.704 66.1529 126.44 65.8263 126.104C65.4996 125.763 65.2429 125.371 65.0563 124.928C64.8743 124.485 64.7833 124.009 64.7833 123.5C64.7833 122.991 64.8743 122.515 65.0563 122.072C65.2429 121.624 65.4996 121.232 65.8263 120.896C66.1529 120.555 66.5309 120.289 66.9603 120.098C67.3943 119.907 67.8563 119.811 68.3463 119.811C68.8923 119.811 69.3706 119.946 69.7813 120.217C70.1966 120.483 70.5256 120.838 70.7683 121.281V120ZM68.3533 126.23C68.8386 126.23 69.2563 126.104 69.6063 125.852C69.9609 125.6 70.2339 125.266 70.4253 124.851C70.6166 124.436 70.7123 123.985 70.7123 123.5C70.7123 123.001 70.6143 122.546 70.4183 122.135C70.2269 121.72 69.9539 121.388 69.5993 121.141C69.2446 120.889 68.8293 120.763 68.3533 120.763C67.8773 120.763 67.4433 120.887 67.0513 121.134C66.6639 121.377 66.3559 121.706 66.1273 122.121C65.8986 122.536 65.7843 122.996 65.7843 123.5C65.7843 124.004 65.9009 124.464 66.1343 124.879C66.3676 125.29 66.6779 125.619 67.0653 125.866C67.4573 126.109 67.8866 126.23 68.3533 126.23ZM73.4338 127V120H74.4138V120.966C74.6611 120.611 74.9831 120.329 75.3798 120.119C75.7764 119.909 76.2081 119.804 76.6748 119.804C76.9454 119.804 77.2068 119.839 77.4588 119.909L77.0598 120.882C76.8638 120.821 76.6724 120.791 76.4858 120.791C76.1078 120.791 75.7601 120.884 75.4428 121.071C75.1301 121.258 74.8804 121.507 74.6938 121.82C74.5071 122.133 74.4138 122.48 74.4138 122.863V127H73.4338ZM83.7268 120H84.7068V127H83.7268L83.6918 125.698C83.4631 126.141 83.1435 126.501 82.7328 126.776C82.3221 127.047 81.8321 127.182 81.2628 127.182C80.7495 127.182 80.2688 127.086 79.8208 126.895C79.3728 126.699 78.9785 126.431 78.6378 126.09C78.2971 125.749 78.0311 125.355 77.8398 124.907C77.6485 124.459 77.5528 123.978 77.5528 123.465C77.5528 122.961 77.6461 122.487 77.8328 122.044C78.0241 121.601 78.2855 121.211 78.6168 120.875C78.9528 120.539 79.3401 120.278 79.7788 120.091C80.2221 119.9 80.6958 119.804 81.1998 119.804C81.7831 119.804 82.2918 119.944 82.7258 120.224C83.1598 120.499 83.5051 120.861 83.7618 121.309L83.7268 120ZM81.2418 126.23C81.7411 126.23 82.1705 126.109 82.5298 125.866C82.8891 125.619 83.1645 125.287 83.3558 124.872C83.5518 124.457 83.6498 123.999 83.6498 123.5C83.6498 122.987 83.5518 122.525 83.3558 122.114C83.1598 121.699 82.8821 121.37 82.5228 121.127C82.1635 120.884 81.7365 120.763 81.2418 120.763C80.7471 120.763 80.2945 120.887 79.8838 121.134C79.4778 121.377 79.1535 121.706 78.9108 122.121C78.6728 122.536 78.5538 122.996 78.5538 123.5C78.5538 124.009 78.6775 124.471 78.9248 124.886C79.1721 125.297 79.4988 125.623 79.9048 125.866C80.3155 126.109 80.7611 126.23 81.2418 126.23ZM86.1076 127V120H87.0876V120.966C87.3396 120.611 87.6616 120.329 88.0536 120.119C88.4456 119.909 88.8749 119.804 89.3416 119.804C89.8689 119.804 90.3519 119.935 90.7906 120.196C91.2292 120.453 91.5722 120.796 91.8196 121.225C92.0669 120.796 92.4076 120.453 92.8416 120.196C93.2756 119.935 93.7562 119.804 94.2836 119.804C94.8109 119.804 95.2916 119.932 95.7256 120.189C96.1596 120.446 96.5049 120.791 96.7616 121.225C97.0182 121.659 97.1466 122.14 97.1466 122.667V127H96.1666V122.884C96.1666 122.511 96.0756 122.165 95.8936 121.848C95.7116 121.531 95.4666 121.276 95.1586 121.085C94.8552 120.889 94.5169 120.791 94.1436 120.791C93.7702 120.791 93.4296 120.882 93.1216 121.064C92.8182 121.241 92.5756 121.489 92.3936 121.806C92.2116 122.119 92.1206 122.478 92.1206 122.884V127H91.1406V122.884C91.1406 122.478 91.0496 122.119 90.8676 121.806C90.6856 121.489 90.4406 121.241 90.1326 121.064C89.8246 120.882 89.4839 120.791 89.1106 120.791C88.7419 120.791 88.4036 120.889 88.0956 121.085C87.7876 121.276 87.5426 121.531 87.3606 121.848C87.1786 122.165 87.0876 122.511 87.0876 122.884V127H86.1076ZM98.549 127V120H99.529V120.966C99.781 120.611 100.103 120.329 100.495 120.119C100.887 119.909 101.316 119.804 101.783 119.804C102.31 119.804 102.793 119.935 103.232 120.196C103.671 120.453 104.014 120.796 104.261 121.225C104.508 120.796 104.849 120.453 105.283 120.196C105.717 119.935 106.198 119.804 106.725 119.804C107.252 119.804 107.733 119.932 108.167 120.189C108.601 120.446 108.946 120.791 109.203 121.225C109.46 121.659 109.588 122.14 109.588 122.667V127H108.608V122.884C108.608 122.511 108.517 122.165 108.335 121.848C108.153 121.531 107.908 121.276 107.6 121.085C107.297 120.889 106.958 120.791 106.585 120.791C106.212 120.791 105.871 120.882 105.563 121.064C105.26 121.241 105.017 121.489 104.835 121.806C104.653 122.119 104.562 122.478 104.562 122.884V127H103.582V122.884C103.582 122.478 103.491 122.119 103.309 121.806C103.127 121.489 102.882 121.241 102.574 121.064C102.266 120.882 101.925 120.791 101.552 120.791C101.183 120.791 100.845 120.889 100.537 121.085C100.229 121.276 99.984 121.531 99.802 121.848C99.62 122.165 99.529 122.511 99.529 122.884V127H98.549ZM116.608 120H117.588V127H116.608L116.573 125.698C116.344 126.141 116.024 126.501 115.614 126.776C115.203 127.047 114.713 127.182 114.144 127.182C113.63 127.182 113.15 127.086 112.702 126.895C112.254 126.699 111.859 126.431 111.519 126.09C111.178 125.749 110.912 125.355 110.721 124.907C110.529 124.459 110.434 123.978 110.434 123.465C110.434 122.961 110.527 122.487 110.714 122.044C110.905 121.601 111.166 121.211 111.498 120.875C111.834 120.539 112.221 120.278 112.66 120.091C113.103 119.9 113.577 119.804 114.081 119.804C114.664 119.804 115.173 119.944 115.607 120.224C116.041 120.499 116.386 120.861 116.643 121.309L116.608 120ZM114.123 126.23C114.622 126.23 115.051 126.109 115.411 125.866C115.77 125.619 116.045 125.287 116.237 124.872C116.433 124.457 116.531 123.999 116.531 123.5C116.531 122.987 116.433 122.525 116.237 122.114C116.041 121.699 115.763 121.37 115.404 121.127C115.044 120.884 114.617 120.763 114.123 120.763C113.628 120.763 113.175 120.887 112.765 121.134C112.359 121.377 112.034 121.706 111.792 122.121C111.554 122.536 111.435 122.996 111.435 123.5C111.435 124.009 111.558 124.471 111.806 124.886C112.053 125.297 112.38 125.623 112.786 125.866C113.196 126.109 113.642 126.23 114.123 126.23ZM122.556 119.804C123.237 119.804 123.856 119.97 124.411 120.301C124.971 120.632 125.417 121.078 125.748 121.638C126.079 122.193 126.245 122.812 126.245 123.493C126.245 124.002 126.149 124.48 125.958 124.928C125.767 125.371 125.501 125.763 125.16 126.104C124.824 126.44 124.432 126.704 123.984 126.895C123.541 127.086 123.065 127.182 122.556 127.182C121.977 127.182 121.478 127.044 121.058 126.769C120.638 126.494 120.307 126.134 120.064 125.691V127H119.084V116.5H120.064V121.295C120.307 120.852 120.638 120.492 121.058 120.217C121.478 119.942 121.977 119.804 122.556 119.804ZM122.549 126.223C123.048 126.223 123.501 126.102 123.907 125.859C124.313 125.612 124.637 125.28 124.88 124.865C125.123 124.45 125.244 123.992 125.244 123.493C125.244 122.98 125.12 122.518 124.873 122.107C124.626 121.692 124.297 121.363 123.886 121.12C123.48 120.877 123.034 120.756 122.549 120.756C122.054 120.756 121.625 120.88 121.261 121.127C120.902 121.374 120.624 121.706 120.428 122.121C120.237 122.536 120.141 122.994 120.141 123.493C120.141 124.002 120.239 124.464 120.435 124.879C120.631 125.29 120.909 125.616 121.268 125.859C121.632 126.102 122.059 126.223 122.549 126.223ZM127.383 127V116.5H128.363V127H127.383ZM133.074 127.182C132.43 127.182 131.842 127.016 131.31 126.685C130.783 126.354 130.361 125.91 130.043 125.355C129.731 124.795 129.574 124.177 129.574 123.5C129.574 122.987 129.665 122.508 129.847 122.065C130.029 121.617 130.279 121.225 130.596 120.889C130.918 120.548 131.292 120.282 131.716 120.091C132.141 119.9 132.594 119.804 133.074 119.804C133.592 119.804 134.068 119.907 134.502 120.112C134.941 120.317 135.317 120.604 135.629 120.973C135.947 121.342 136.185 121.773 136.343 122.268C136.507 122.763 136.574 123.297 136.546 123.871H130.61C130.666 124.314 130.806 124.711 131.03 125.061C131.259 125.411 131.548 125.689 131.898 125.894C132.253 126.095 132.645 126.197 133.074 126.202C133.541 126.202 133.961 126.081 134.334 125.838C134.712 125.595 135.016 125.262 135.244 124.837L136.238 125.068C135.958 125.689 135.536 126.197 134.971 126.594C134.407 126.986 133.774 127.182 133.074 127.182ZM130.582 123.08H135.559C135.527 122.646 135.394 122.249 135.16 121.89C134.932 121.526 134.635 121.237 134.271 121.022C133.907 120.803 133.508 120.693 133.074 120.693C132.64 120.693 132.244 120.8 131.884 121.015C131.525 121.225 131.231 121.512 131.002 121.876C130.774 122.235 130.634 122.637 130.582 123.08ZM141.178 120H142.158V127H141.178V120ZM141.675 118.775C141.516 118.775 141.381 118.724 141.269 118.621C141.162 118.514 141.108 118.381 141.108 118.222C141.108 118.063 141.162 117.933 141.269 117.83C141.381 117.723 141.516 117.669 141.675 117.669C141.829 117.669 141.96 117.723 142.067 117.83C142.179 117.933 142.235 118.063 142.235 118.222C142.235 118.381 142.181 118.514 142.074 118.621C141.967 118.724 141.834 118.775 141.675 118.775ZM149.921 122.667V127H148.941V122.863C148.941 122.48 148.847 122.133 148.661 121.82C148.474 121.507 148.224 121.258 147.912 121.071C147.599 120.884 147.251 120.791 146.869 120.791C146.491 120.791 146.143 120.884 145.826 121.071C145.513 121.258 145.263 121.507 145.077 121.82C144.89 122.133 144.797 122.48 144.797 122.863V127H143.817V120H144.797V120.966C145.044 120.611 145.366 120.329 145.763 120.119C146.159 119.909 146.591 119.804 147.058 119.804C147.585 119.804 148.066 119.932 148.5 120.189C148.934 120.446 149.279 120.791 149.536 121.225C149.792 121.659 149.921 122.14 149.921 122.667ZM154.899 120.98H153.226L153.219 127H152.239L152.246 120.98H150.979V120H152.246L152.239 117.802H153.219L153.226 120H154.899V120.98ZM159.037 127.182C158.393 127.182 157.805 127.016 157.273 126.685C156.746 126.354 156.324 125.91 156.006 125.355C155.694 124.795 155.537 124.177 155.537 123.5C155.537 122.987 155.628 122.508 155.81 122.065C155.992 121.617 156.242 121.225 156.559 120.889C156.881 120.548 157.255 120.282 157.679 120.091C158.104 119.9 158.557 119.804 159.037 119.804C159.555 119.804 160.031 119.907 160.465 120.112C160.904 120.317 161.28 120.604 161.592 120.973C161.91 121.342 162.148 121.773 162.306 122.268C162.47 122.763 162.537 123.297 162.509 123.871H156.573C156.629 124.314 156.769 124.711 156.993 125.061C157.222 125.411 157.511 125.689 157.861 125.894C158.216 126.095 158.608 126.197 159.037 126.202C159.504 126.202 159.924 126.081 160.297 125.838C160.675 125.595 160.979 125.262 161.207 124.837L162.201 125.068C161.921 125.689 161.499 126.197 160.934 126.594C160.37 126.986 159.737 127.182 159.037 127.182ZM156.545 123.08H161.522C161.49 122.646 161.357 122.249 161.123 121.89C160.895 121.526 160.598 121.237 160.234 121.022C159.87 120.803 159.471 120.693 159.037 120.693C158.603 120.693 158.207 120.8 157.847 121.015C157.488 121.225 157.194 121.512 156.965 121.876C156.737 122.235 156.597 122.637 156.545 123.08ZM163.709 127V120H164.689V120.966C164.936 120.611 165.258 120.329 165.655 120.119C166.052 119.909 166.483 119.804 166.95 119.804C167.221 119.804 167.482 119.839 167.734 119.909L167.335 120.882C167.139 120.821 166.948 120.791 166.761 120.791C166.383 120.791 166.035 120.884 165.718 121.071C165.405 121.258 165.156 121.507 164.969 121.82C164.782 122.133 164.689 122.48 164.689 122.863V127H163.709ZM170.435 118.173V120H172.535V120.98H170.435V127H169.455V120.98H168.496V120H169.455V118.173C169.455 117.832 169.537 117.524 169.7 117.249C169.868 116.969 170.092 116.747 170.372 116.584C170.652 116.416 170.963 116.332 171.303 116.332C171.551 116.332 171.789 116.381 172.017 116.479C172.251 116.577 172.458 116.722 172.64 116.913L171.94 117.606C171.866 117.513 171.77 117.44 171.653 117.389C171.541 117.338 171.425 117.312 171.303 117.312C171.065 117.312 170.86 117.396 170.687 117.564C170.519 117.732 170.435 117.935 170.435 118.173ZM179.252 120H180.232V127H179.252L179.217 125.698C178.989 126.141 178.669 126.501 178.258 126.776C177.848 127.047 177.358 127.182 176.788 127.182C176.275 127.182 175.794 127.086 175.346 126.895C174.898 126.699 174.504 126.431 174.163 126.09C173.823 125.749 173.557 125.355 173.365 124.907C173.174 124.459 173.078 123.978 173.078 123.465C173.078 122.961 173.172 122.487 173.358 122.044C173.55 121.601 173.811 121.211 174.142 120.875C174.478 120.539 174.866 120.278 175.304 120.091C175.748 119.9 176.221 119.804 176.725 119.804C177.309 119.804 177.817 119.944 178.251 120.224C178.685 120.499 179.031 120.861 179.287 121.309L179.252 120ZM176.767 126.23C177.267 126.23 177.696 126.109 178.055 125.866C178.415 125.619 178.69 125.287 178.881 124.872C179.077 124.457 179.175 123.999 179.175 123.5C179.175 122.987 179.077 122.525 178.881 122.114C178.685 121.699 178.408 121.37 178.048 121.127C177.689 120.884 177.262 120.763 176.767 120.763C176.273 120.763 175.82 120.887 175.409 121.134C175.003 121.377 174.679 121.706 174.436 122.121C174.198 122.536 174.079 122.996 174.079 123.5C174.079 124.009 174.203 124.471 174.45 124.886C174.698 125.297 175.024 125.623 175.43 125.866C175.841 126.109 176.287 126.23 176.767 126.23ZM186.494 125.243L187.369 125.719C187.052 126.162 186.648 126.517 186.158 126.783C185.673 127.049 185.146 127.182 184.576 127.182C183.932 127.182 183.344 127.016 182.812 126.685C182.285 126.354 181.863 125.91 181.545 125.355C181.233 124.795 181.076 124.177 181.076 123.5C181.076 122.987 181.167 122.508 181.349 122.065C181.531 121.617 181.781 121.225 182.098 120.889C182.42 120.548 182.794 120.282 183.218 120.091C183.643 119.9 184.096 119.804 184.576 119.804C185.146 119.804 185.673 119.937 186.158 120.203C186.648 120.469 187.052 120.826 187.369 121.274L186.494 121.743C186.252 121.435 185.96 121.199 185.619 121.036C185.279 120.868 184.931 120.784 184.576 120.784C184.105 120.784 183.678 120.91 183.295 121.162C182.913 121.409 182.609 121.738 182.385 122.149C182.166 122.56 182.056 123.01 182.056 123.5C182.056 123.99 182.168 124.44 182.392 124.851C182.621 125.262 182.927 125.591 183.309 125.838C183.692 126.081 184.114 126.202 184.576 126.202C184.959 126.202 185.318 126.113 185.654 125.936C185.99 125.759 186.27 125.528 186.494 125.243ZM191.617 127.182C190.973 127.182 190.385 127.016 189.853 126.685C189.326 126.354 188.904 125.91 188.586 125.355C188.274 124.795 188.117 124.177 188.117 123.5C188.117 122.987 188.208 122.508 188.39 122.065C188.572 121.617 188.822 121.225 189.139 120.889C189.461 120.548 189.835 120.282 190.259 120.091C190.684 119.9 191.137 119.804 191.617 119.804C192.135 119.804 192.611 119.907 193.045 120.112C193.484 120.317 193.86 120.604 194.172 120.973C194.49 121.342 194.728 121.773 194.886 122.268C195.05 122.763 195.117 123.297 195.089 123.871H189.153C189.209 124.314 189.349 124.711 189.573 125.061C189.802 125.411 190.091 125.689 190.441 125.894C190.796 126.095 191.188 126.197 191.617 126.202C192.084 126.202 192.504 126.081 192.877 125.838C193.255 125.595 193.559 125.262 193.787 124.837L194.781 125.068C194.501 125.689 194.079 126.197 193.514 126.594C192.95 126.986 192.317 127.182 191.617 127.182ZM189.125 123.08H194.102C194.07 122.646 193.937 122.249 193.703 121.89C193.475 121.526 193.178 121.237 192.814 121.022C192.45 120.803 192.051 120.693 191.617 120.693C191.183 120.693 190.787 120.8 190.427 121.015C190.068 121.225 189.774 121.512 189.545 121.876C189.317 122.235 189.177 122.637 189.125 123.08ZM205.475 120H206.455V127H205.475L205.44 125.698C205.211 126.141 204.892 126.501 204.481 126.776C204.07 127.047 203.58 127.182 203.011 127.182C202.498 127.182 202.017 127.086 201.569 126.895C201.121 126.699 200.727 126.431 200.386 126.09C200.045 125.749 199.779 125.355 199.588 124.907C199.397 124.459 199.301 123.978 199.301 123.465C199.301 122.961 199.394 122.487 199.581 122.044C199.772 121.601 200.034 121.211 200.365 120.875C200.701 120.539 201.088 120.278 201.527 120.091C201.97 119.9 202.444 119.804 202.948 119.804C203.531 119.804 204.04 119.944 204.474 120.224C204.908 120.499 205.253 120.861 205.51 121.309L205.475 120ZM202.99 126.23C203.489 126.23 203.919 126.109 204.278 125.866C204.637 125.619 204.913 125.287 205.104 124.872C205.3 124.457 205.398 123.999 205.398 123.5C205.398 122.987 205.3 122.525 205.104 122.114C204.908 121.699 204.63 121.37 204.271 121.127C203.912 120.884 203.485 120.763 202.99 120.763C202.495 120.763 202.043 120.887 201.632 121.134C201.226 121.377 200.902 121.706 200.659 122.121C200.421 122.536 200.302 122.996 200.302 123.5C200.302 124.009 200.426 124.471 200.673 124.886C200.92 125.297 201.247 125.623 201.653 125.866C202.064 126.109 202.509 126.23 202.99 126.23ZM213.96 122.667V127H212.98V122.863C212.98 122.48 212.886 122.133 212.7 121.82C212.513 121.507 212.263 121.258 211.951 121.071C211.638 120.884 211.29 120.791 210.908 120.791C210.53 120.791 210.182 120.884 209.865 121.071C209.552 121.258 209.302 121.507 209.116 121.82C208.929 122.133 208.836 122.48 208.836 122.863V127H207.856V120H208.836V120.966C209.083 120.611 209.405 120.329 209.802 120.119C210.198 119.909 210.63 119.804 211.097 119.804C211.624 119.804 212.105 119.932 212.539 120.189C212.973 120.446 213.318 120.791 213.575 121.225C213.831 121.659 213.96 122.14 213.96 122.667ZM220.986 116.5H221.966V127H220.986V125.691C220.743 126.139 220.409 126.501 219.985 126.776C219.565 127.047 219.065 127.182 218.487 127.182C217.978 127.182 217.502 127.086 217.059 126.895C216.615 126.704 216.223 126.44 215.883 126.104C215.547 125.763 215.283 125.371 215.092 124.928C214.9 124.485 214.805 124.009 214.805 123.5C214.805 122.991 214.9 122.515 215.092 122.072C215.283 121.624 215.547 121.232 215.883 120.896C216.223 120.555 216.615 120.289 217.059 120.098C217.502 119.907 217.978 119.811 218.487 119.811C219.065 119.811 219.565 119.949 219.985 120.224C220.409 120.495 220.743 120.852 220.986 121.295V116.5ZM218.494 126.23C218.993 126.23 219.422 126.109 219.782 125.866C220.141 125.619 220.416 125.287 220.608 124.872C220.804 124.457 220.902 123.999 220.902 123.5C220.902 122.987 220.804 122.525 220.608 122.114C220.412 121.699 220.134 121.37 219.775 121.127C219.415 120.884 218.988 120.763 218.494 120.763C217.999 120.763 217.549 120.887 217.143 121.134C216.737 121.377 216.412 121.706 216.17 122.121C215.927 122.536 215.806 122.996 215.806 123.5C215.806 124.009 215.929 124.471 216.177 124.886C216.424 125.297 216.751 125.623 217.157 125.866C217.567 126.109 218.013 126.23 218.494 126.23ZM230.293 117.2H231.511L235.081 127H234.038L233.275 124.9H228.536L227.773 127H226.73L230.293 117.2ZM228.893 123.92H232.911L230.902 118.404L228.893 123.92ZM236.389 127V117.2H239.525C240.047 117.2 240.519 117.328 240.939 117.585C241.359 117.837 241.692 118.18 241.94 118.614C242.192 119.043 242.318 119.526 242.318 120.063C242.318 120.604 242.189 121.092 241.933 121.526C241.681 121.96 241.342 122.303 240.918 122.555C240.498 122.807 240.033 122.933 239.525 122.933H237.369V127H236.389ZM237.369 121.953H239.448C239.793 121.953 240.108 121.869 240.393 121.701C240.682 121.528 240.911 121.297 241.079 121.008C241.251 120.714 241.338 120.383 241.338 120.014C241.338 119.645 241.251 119.316 241.079 119.027C240.911 118.733 240.682 118.502 240.393 118.334C240.108 118.161 239.793 118.075 239.448 118.075H237.369V121.953ZM243.954 127V117.2H244.934V127H243.954ZM247.093 127.182C246.939 127.182 246.809 127.126 246.701 127.014C246.594 126.907 246.54 126.774 246.54 126.615C246.54 126.466 246.594 126.337 246.701 126.23C246.809 126.118 246.939 126.062 247.093 126.062C247.252 126.062 247.385 126.118 247.492 126.23C247.604 126.337 247.66 126.466 247.66 126.615C247.66 126.774 247.604 126.907 247.492 127.014C247.385 127.126 247.252 127.182 247.093 127.182Z" fill="white"/>
</g>
</g>
<defs>
<clipPath id="clip0_15_4632">
<path d="M0 0H269V136C269 144.284 262.284 151 254 151H15C6.71572 151 0 144.284 0 136V0Z" fill="white"/>
</clipPath>
</defs>
</svg>
