<svg width="171" height="100" viewBox="0 0 171 100" fill="none" xmlns="http://www.w3.org/2000/svg">
<path d="M112.559 0H136.608C143.728 0 149.498 5.77219 149.498 12.8951V36.9549C149.498 44.0778 155.272 49.8535 162.391 49.8535H186.441C193.561 49.8535 199.334 55.6258 199.334 62.7487V86.8119C199.334 93.9348 193.561 99.707 186.441 99.707H162.391C155.272 99.707 149.498 93.9348 149.498 86.8119V62.7487C149.498 55.6258 143.728 49.8535 136.608 49.8535H62.7225C55.6025 49.8535 49.8327 55.6258 49.8327 62.7487V86.8119C49.8327 93.9348 44.0594 99.707 36.9394 99.707H12.8897C5.76978 99.707 0 93.9348 0 86.8119V62.7487C0 55.6258 5.76978 49.8535 12.8897 49.8535H36.9394C44.0594 49.8535 49.8327 44.0778 49.8327 36.9549V12.8951C49.8327 5.77219 55.6025 0 62.7225 0H112.559Z" fill="#F5BD28" fill-opacity="0.8"/>
</svg>
